<svg xmlns="http://www.w3.org/2000/svg" fill="none" viewBox="0 0 365 501">
  <rect width="365" height="501" fill="#FAFAFA" rx="10"/>
  <path fill="#000" d="M49.556 62.324c5.112 0 8.892-3.276 8.892-7.596 0-4.86-3.024-6.588-8.748-7.488-5.256-.792-6.192-2.088-6.192-4.608 0-2.412 1.836-4.176 5.364-4.176 3.564 0 5.436 1.332 6.048 4.572h2.808c-.504-4.572-3.708-7.092-8.856-7.092-4.86 0-8.28 3.024-8.28 6.984 0 4.572 3.204 6.264 8.604 7.092 4.896.792 6.228 2.016 6.228 4.932 0 2.916-2.556 4.86-5.868 4.86-5.184 0-6.408-2.592-6.804-5.652h-3.024c.468 4.392 2.952 8.172 9.828 8.172Zm15.55-23.076c1.08 0 1.98-.9 1.98-1.98s-.9-1.98-1.98-1.98-1.98.9-1.98 1.98.9 1.98 1.98 1.98ZM63.666 62h2.988V43.172h-2.988V62Zm16.628 6.876c5.256 0 8.964-2.664 9-8.136V43.172h-2.988v3.024c-1.08-1.836-3.024-3.348-6.156-3.348-5.184 0-8.784 4.248-8.784 9.36v.252c0 5.184 3.636 8.928 8.568 8.928 2.736 0 5.292-1.728 6.372-3.564v2.736c0 4.032-2.34 5.796-6.048 5.796-3.204 0-5.004-1.116-5.436-3.276h-3.06c.504 3.168 2.952 5.796 8.532 5.796Zm-.036-9.972c-3.168 0-5.796-2.448-5.796-6.552v-.288c0-3.96 2.232-6.732 5.976-6.732 3.672 0 5.976 2.448 5.976 6.66v.252c0 4.212-2.664 6.66-6.156 6.66ZM95.34 62h2.988V50.588c0-3.384 2.484-5.148 5.256-5.148 3.024 0 4.428 1.476 4.428 4.788V62H111V50.444c0-5.472-2.736-7.596-6.624-7.596-3.096 0-5.184 1.548-6.048 3.312v-2.988H95.34V62Zm40.295.324c6.624 0 9.756-3.852 9.756-10.116V36.26h-3.132v15.516c0 6.3-2.448 7.956-6.552 7.956-4.284 0-6.192-2.088-6.192-7.488V36.26h-3.132v16.344c0 6.264 3.348 9.72 9.252 9.72Zm15.639 6.228h2.988v-9.648c1.08 1.872 3.276 3.42 6.372 3.42 5.184 0 8.568-3.96 8.568-9.72v-.288c0-5.868-3.636-9.468-8.568-9.468-2.736 0-5.292 1.656-6.372 3.492v-3.168h-2.988v25.38Zm9.072-8.712c-3.672 0-6.192-2.268-6.192-7.092v-.288c0-4.824 2.664-7.128 6.156-7.128 3.168 0 5.796 2.376 5.796 7.128v.288c0 4.572-2.016 7.092-5.76 7.092Zm-116.9 24.286c2.24 0 3.836-1.134 4.186-3.444h-1.134c-.252 1.624-1.386 2.45-3.024 2.45-2.156 0-3.444-1.54-3.444-4.088v-.112c0-2.52 1.386-4.13 3.458-4.13 1.708 0 2.59.784 2.842 2.31h1.204c-.21-2.17-1.974-3.276-4.06-3.276-2.716 0-4.704 2.142-4.704 5.11v.112c0 3.08 1.778 5.068 4.676 5.068ZM49.403 84h1.162v-4.018c0-1.806.938-2.268 2.408-2.338v-1.092c-1.316.042-1.946.616-2.408 1.442v-1.316h-1.162V84Zm8.054.126c1.652 0 2.87-.77 3.122-2.24h-1.162c-.154.854-.812 1.274-1.946 1.274-1.498 0-2.296-.924-2.352-2.59h5.516v-.378c0-2.618-1.596-3.64-3.29-3.64-2.016 0-3.43 1.54-3.43 3.752v.112c0 2.254 1.47 3.71 3.542 3.71Zm-2.296-4.494c.196-1.302.994-2.114 2.184-2.114 1.204 0 1.988.602 2.1 2.114h-4.284Zm9.16 4.494c1.078 0 1.736-.364 2.282-1.05V84h1.162v-4.83c0-2.044-1.275-2.618-2.674-2.618-1.414 0-2.744.616-2.898 2.282h1.162c.112-.896.672-1.316 1.68-1.316 1.12 0 1.568.49 1.568 1.652v.532h-1.05c-1.877 0-3.668.574-3.668 2.268 0 1.498 1.078 2.156 2.435 2.156Zm.112-.924c-1.023 0-1.387-.476-1.387-1.232 0-1.078 1.078-1.442 2.548-1.442h1.009v.91c0 1.134-.938 1.764-2.17 1.764Zm7.84.896c.476 0 .756-.07.994-.154v-.98a2.392 2.392 0 0 1-.896.154c-.588 0-.91-.35-.91-1.064v-4.396h1.708v-.98h-1.708v-1.666H70.3v1.666h-1.05v.98h1.05v4.508c0 1.148.644 1.932 1.974 1.932Zm5.747.028c1.652 0 2.87-.77 3.122-2.24H79.98c-.154.854-.812 1.274-1.946 1.274-1.498 0-2.296-.924-2.352-2.59h5.516v-.378c0-2.618-1.596-3.64-3.29-3.64-2.016 0-3.43 1.54-3.43 3.752v.112c0 2.254 1.47 3.71 3.542 3.71Zm-2.296-4.494c.196-1.302.994-2.114 2.184-2.114 1.204 0 1.988.602 2.1 2.114h-4.284Zm12.796 4.494c1.078 0 1.736-.364 2.282-1.05V84h1.162v-4.83c0-2.044-1.274-2.618-2.674-2.618-1.414 0-2.744.616-2.898 2.282h1.162c.112-.896.672-1.316 1.68-1.316 1.12 0 1.568.49 1.568 1.652v.532h-1.05c-1.876 0-3.668.574-3.668 2.268 0 1.498 1.078 2.156 2.436 2.156Zm.112-.924c-1.022 0-1.386-.476-1.386-1.232 0-1.078 1.078-1.442 2.548-1.442h1.008v.91c0 1.134-.938 1.764-2.17 1.764Zm9.32 3.346h1.161v-3.752c.42.728 1.274 1.33 2.478 1.33 2.016 0 3.332-1.54 3.332-3.78v-.112c0-2.282-1.414-3.682-3.332-3.682-1.064 0-2.058.644-2.478 1.358v-1.232h-1.162v9.87Zm3.527-3.388c-1.428 0-2.408-.882-2.408-2.758v-.112c0-1.876 1.036-2.772 2.394-2.772 1.232 0 2.254.924 2.254 2.772v.112c0 1.778-.784 2.758-2.24 2.758Zm5.25.84h1.162v-4.018c0-1.806.938-2.268 2.408-2.338v-1.092c-1.316.042-1.946.616-2.408 1.442v-1.316h-1.162V84Zm8.096.126c2.086 0 3.612-1.526 3.612-3.738v-.112c0-2.198-1.526-3.724-3.598-3.724s-3.598 1.54-3.598 3.738v.112c0 2.142 1.498 3.724 3.584 3.724Zm.014-.966c-1.484 0-2.394-1.092-2.394-2.758v-.112c0-1.68.924-2.772 2.394-2.772 1.456 0 2.394 1.092 2.394 2.786v.098c0 1.652-.924 2.758-2.394 2.758Zm5.65.84h1.162v-6.342h1.792v-.98h-1.792v-1.316c0-.742.294-1.26 1.036-1.26.322 0 .546.042.756.126v-.98c-.224-.084-.42-.112-.798-.112-1.442 0-2.156.868-2.156 2.352v1.19h-1.05v.98h1.05V84Zm4.97-8.848c.42 0 .77-.35.77-.77 0-.42-.35-.77-.77-.77-.42 0-.77.35-.77.77 0 .42.35.77.77.77Zm-.56 8.848h1.162v-7.322h-1.162V84Zm3.569 0h1.176V73.178h-1.176V84Zm6.55.126c1.652 0 2.87-.77 3.122-2.24h-1.162c-.154.854-.812 1.274-1.946 1.274-1.498 0-2.296-.924-2.352-2.59h5.516v-.378c0-2.618-1.596-3.64-3.29-3.64-2.016 0-3.43 1.54-3.43 3.752v.112c0 2.254 1.47 3.71 3.542 3.71Zm-2.296-4.494c.196-1.302.994-2.114 2.184-2.114 1.204 0 1.988.602 2.1 2.114h-4.284Zm13.188 4.466c.476 0 .756-.07.994-.154v-.98a2.392 2.392 0 0 1-.896.154c-.588 0-.91-.35-.91-1.064v-4.396h1.708v-.98h-1.708v-1.666h-1.162v1.666h-1.05v.98h1.05v4.508c0 1.148.644 1.932 1.974 1.932Zm5.788.028c2.086 0 3.612-1.526 3.612-3.738v-.112c0-2.198-1.526-3.724-3.598-3.724s-3.598 1.54-3.598 3.738v.112c0 2.142 1.498 3.724 3.584 3.724Zm.014-.966c-1.484 0-2.394-1.092-2.394-2.758v-.112c0-1.68.924-2.772 2.394-2.772 1.456 0 2.394 1.092 2.394 2.786v.098c0 1.652-.924 2.758-2.394 2.758Zm11.371.966c1.778 0 2.688-.896 2.688-2.226 0-1.554-1.064-1.89-2.576-2.17-1.344-.238-1.708-.504-1.708-1.162 0-.63.546-1.05 1.386-1.05.924 0 1.372.35 1.54 1.148h1.12c-.196-1.582-1.33-2.114-2.646-2.114-1.148 0-2.478.7-2.478 2.058 0 1.274.644 1.806 2.548 2.156 1.134.21 1.708.462 1.708 1.232 0 .784-.49 1.162-1.596 1.162-1.176 0-1.638-.546-1.722-1.414h-1.134c.07 1.498 1.12 2.38 2.87 2.38Zm6.684-.028c.476 0 .756-.07.994-.154v-.98a2.392 2.392 0 0 1-.896.154c-.588 0-.91-.35-.91-1.064v-4.396h1.708v-.98h-1.708v-1.666h-1.162v1.666h-1.05v.98h1.05v4.508c0 1.148.644 1.932 1.974 1.932Zm4.653.028c1.078 0 1.736-.364 2.282-1.05V84h1.162v-4.83c0-2.044-1.274-2.618-2.674-2.618-1.414 0-2.744.616-2.898 2.282h1.162c.112-.896.672-1.316 1.68-1.316 1.12 0 1.568.49 1.568 1.652v.532h-1.05c-1.876 0-3.668.574-3.668 2.268 0 1.498 1.078 2.156 2.436 2.156Zm.112-.924c-1.022 0-1.386-.476-1.386-1.232 0-1.078 1.078-1.442 2.548-1.442h1.008v.91c0 1.134-.938 1.764-2.17 1.764Zm5.615.798h1.162v-4.018c0-1.806.938-2.268 2.408-2.338v-1.092c-1.316.042-1.946.616-2.408 1.442v-1.316h-1.162V84Zm7.558.098c.476 0 .756-.07.994-.154v-.98a2.392 2.392 0 0 1-.896.154c-.588 0-.91-.35-.91-1.064v-4.396h1.708v-.98h-1.708v-1.666h-1.162v1.666h-1.05v.98h1.05v4.508c0 1.148.644 1.932 1.974 1.932Zm8.681 0c.476 0 .756-.07.994-.154v-.98a2.392 2.392 0 0 1-.896.154c-.588 0-.91-.35-.91-1.064v-4.396h1.708v-.98h-1.708v-1.666h-1.162v1.666h-1.05v.98h1.05v4.508c0 1.148.644 1.932 1.974 1.932Zm5.789.028c2.086 0 3.612-1.526 3.612-3.738v-.112c0-2.198-1.526-3.724-3.598-3.724s-3.598 1.54-3.598 3.738v.112c0 2.142 1.498 3.724 3.584 3.724Zm.014-.966c-1.484 0-2.394-1.092-2.394-2.758v-.112c0-1.68.924-2.772 2.394-2.772 1.456 0 2.394 1.092 2.394 2.786v.098c0 1.652-.924 2.758-2.394 2.758Zm8.155.966c1.064 0 2.086-.672 2.506-1.386V84h1.162V73.178h-1.162v4.676c-.42-.714-1.176-1.302-2.394-1.302-2.016 0-3.416 1.582-3.416 3.822v.112c0 2.282 1.386 3.64 3.304 3.64Zm.126-.966c-1.232 0-2.226-.882-2.226-2.73v-.112c0-1.778.868-2.8 2.324-2.8 1.428 0 2.324.882 2.324 2.758v.112c0 1.876-1.064 2.772-2.422 2.772Zm7.728.966c1.078 0 1.736-.364 2.282-1.05V84h1.162v-4.83c0-2.044-1.274-2.618-2.674-2.618-1.414 0-2.744.616-2.898 2.282h1.162c.112-.896.672-1.316 1.68-1.316 1.12 0 1.568.49 1.568 1.652v.532h-1.05c-1.876 0-3.668.574-3.668 2.268 0 1.498 1.078 2.156 2.436 2.156Zm.112-.924c-1.022 0-1.386-.476-1.386-1.232 0-1.078 1.078-1.442 2.548-1.442h1.008v.91c0 1.134-.938 1.764-2.17 1.764Zm6.067 3.346h1.176l4.046-9.87h-1.19l-2.03 5.25-2.24-5.25h-1.246l2.87 6.566-1.386 3.304Zm7.144-5.376h.896l.196-7.182h-1.288l.196 7.182Zm.434 2.898c.49 0 .896-.392.896-.896a.893.893 0 0 0-.896-.896.893.893 0 0 0-.896.896c0 .504.406.896.896.896ZM39.62 142h1.566v-5.76h4.644v-1.278h-4.644v-4.554h5.958v-1.278H39.62V142Zm12.553.162c1.512 0 2.556-.774 2.988-1.656V142h1.494v-9.414H55.16v5.706c0 1.692-1.26 2.574-2.592 2.574-1.476 0-2.178-.738-2.178-2.394v-5.886h-1.494v5.958c0 2.592 1.404 3.618 3.276 3.618ZM59.71 142h1.512v-13.914H59.71V142Zm4.606 0h1.512v-13.914h-1.512V142Zm9.333 0h1.494v-5.706c0-1.692 1.242-2.574 2.628-2.574 1.512 0 2.214.738 2.214 2.394V142h1.494v-5.778c0-2.736-1.368-3.798-3.312-3.798-1.548 0-2.592.774-3.024 1.656v-1.494h-1.494V142Zm13.115.162c1.386 0 2.233-.468 2.934-1.35V142h1.495v-6.21c0-2.628-1.638-3.366-3.439-3.366-1.818 0-3.528.792-3.726 2.934h1.494c.144-1.152.864-1.692 2.16-1.692 1.44 0 2.016.63 2.016 2.124v.684h-1.35c-2.412 0-4.716.738-4.716 2.916 0 1.926 1.386 2.772 3.132 2.772Zm.145-1.188c-1.315 0-1.783-.612-1.783-1.584 0-1.386 1.386-1.854 3.276-1.854h1.296v1.17c0 1.458-1.205 2.268-2.79 2.268ZM94.127 142h1.494v-5.76c0-1.692 1.26-2.52 2.484-2.52 1.296 0 1.998.684 1.998 2.34V142h1.494v-5.76c0-1.692 1.26-2.52 2.484-2.52 1.296 0 1.998.684 1.998 2.34V142h1.494v-5.832c0-2.736-1.476-3.744-3.168-3.744-1.17 0-2.574.54-3.222 1.764-.486-1.26-1.548-1.764-2.754-1.764-1.35 0-2.376.72-2.808 1.602v-1.44h-1.494V142Zm20.235.162c2.124 0 3.69-.99 4.014-2.88h-1.494c-.198 1.098-1.044 1.638-2.502 1.638-1.926 0-2.952-1.188-3.024-3.33h7.092v-.486c0-3.366-2.052-4.68-4.23-4.68-2.592 0-4.41 1.98-4.41 4.824v.144c0 2.898 1.89 4.77 4.554 4.77Zm-2.952-5.778c.252-1.674 1.278-2.718 2.808-2.718 1.548 0 2.556.774 2.7 2.718h-5.508ZM44.138 231.162c3.312 0 4.878-1.926 4.878-5.058v-7.974H47.45v7.758c0 3.15-1.224 3.978-3.276 3.978-2.142 0-3.096-1.044-3.096-3.744v-7.992h-1.566v8.172c0 3.132 1.674 4.86 4.626 4.86Zm10.735 0c2.286 0 3.456-1.152 3.456-2.862 0-1.998-1.368-2.43-3.312-2.79-1.728-.306-2.196-.648-2.196-1.494 0-.81.702-1.35 1.782-1.35 1.188 0 1.764.45 1.98 1.476h1.44c-.252-2.034-1.71-2.718-3.402-2.718-1.476 0-3.186.9-3.186 2.646 0 1.638.828 2.322 3.276 2.772 1.458.27 2.196.594 2.196 1.584 0 1.008-.63 1.494-2.052 1.494-1.512 0-2.106-.702-2.214-1.818h-1.458c.09 1.926 1.44 3.06 3.69 3.06Zm9.585 0c2.124 0 3.69-.99 4.014-2.88h-1.494c-.198 1.098-1.044 1.638-2.502 1.638-1.926 0-2.952-1.188-3.024-3.33h7.092v-.486c0-3.366-2.052-4.68-4.23-4.68-2.592 0-4.41 1.98-4.41 4.824v.144c0 2.898 1.89 4.77 4.554 4.77Zm-2.952-5.778c.252-1.674 1.278-2.718 2.808-2.718 1.548 0 2.556.774 2.7 2.718h-5.508Zm9.33 5.616h1.494v-5.166c0-2.322 1.206-2.916 3.096-3.006v-1.404c-1.692.054-2.502.792-3.096 1.854v-1.692h-1.494V231Zm6.768 0h1.494v-5.706c0-1.692 1.242-2.574 2.628-2.574 1.512 0 2.214.738 2.214 2.394V231h1.494v-5.778c0-2.736-1.368-3.798-3.312-3.798-1.548 0-2.592.774-3.024 1.656v-1.494h-1.494V231Zm13.116.162c1.386 0 2.232-.468 2.934-1.35V231h1.494v-6.21c0-2.628-1.638-3.366-3.438-3.366-1.818 0-3.528.792-3.726 2.934h1.494c.144-1.152.864-1.692 2.16-1.692 1.44 0 2.016.63 2.016 2.124v.684h-1.35c-2.412 0-4.716.738-4.716 2.916 0 1.926 1.386 2.772 3.132 2.772Zm.144-1.188c-1.314 0-1.782-.612-1.782-1.584 0-1.386 1.386-1.854 3.276-1.854h1.296v1.17c0 1.458-1.206 2.268-2.79 2.268ZM98.082 231h1.494v-5.76c0-1.692 1.26-2.52 2.484-2.52 1.296 0 1.998.684 1.998 2.34V231h1.494v-5.76c0-1.692 1.26-2.52 2.484-2.52 1.296 0 1.998.684 1.998 2.34V231h1.494v-5.832c0-2.736-1.476-3.744-3.168-3.744-1.17 0-2.574.54-3.222 1.764-.486-1.26-1.548-1.764-2.754-1.764-1.35 0-2.376.72-2.808 1.602v-1.44h-1.494V231Zm20.235.162c2.124 0 3.69-.99 4.014-2.88h-1.494c-.198 1.098-1.044 1.638-2.502 1.638-1.926 0-2.952-1.188-3.024-3.33h7.092v-.486c0-3.366-2.052-4.68-4.23-4.68-2.592 0-4.41 1.98-4.41 4.824v.144c0 2.898 1.89 4.77 4.554 4.77Zm-2.952-5.778c.252-1.674 1.278-2.718 2.808-2.718 1.548 0 2.556.774 2.7 2.718h-5.508ZM39.62 320h1.566v-5.238h2.088c2.448 0 4.5-1.062 4.5-3.798v-.072c0-2.682-2.034-3.762-4.5-3.762H39.62V320Zm1.566-6.48v-5.13h2.196c1.746 0 2.826.684 2.826 2.502v.072c0 1.656-.99 2.556-2.826 2.556h-2.196Zm11.055 6.642c1.386 0 2.232-.468 2.934-1.35V320h1.494v-6.21c0-2.628-1.638-3.366-3.438-3.366-1.818 0-3.528.792-3.726 2.934H51c.144-1.152.864-1.692 2.16-1.692 1.44 0 2.016.63 2.016 2.124v.684h-1.35c-2.412 0-4.716.738-4.716 2.916 0 1.926 1.386 2.772 3.132 2.772Zm.144-1.188c-1.314 0-1.782-.612-1.782-1.584 0-1.386 1.386-1.854 3.276-1.854h1.296v1.17c0 1.458-1.206 2.268-2.79 2.268Zm10.135 1.188c2.286 0 3.456-1.152 3.456-2.862 0-1.998-1.368-2.43-3.312-2.79-1.728-.306-2.196-.648-2.196-1.494 0-.81.702-1.35 1.782-1.35 1.188 0 1.764.45 1.98 1.476h1.44c-.252-2.034-1.71-2.718-3.402-2.718-1.476 0-3.186.9-3.186 2.646 0 1.638.828 2.322 3.276 2.772 1.458.27 2.196.594 2.196 1.584 0 1.008-.63 1.494-2.052 1.494-1.512 0-2.106-.702-2.214-1.818H58.83c.09 1.926 1.44 3.06 3.69 3.06Zm8.648 0c2.286 0 3.456-1.152 3.456-2.862 0-1.998-1.368-2.43-3.312-2.79-1.728-.306-2.196-.648-2.196-1.494 0-.81.702-1.35 1.782-1.35 1.188 0 1.764.45 1.98 1.476h1.44c-.252-2.034-1.71-2.718-3.402-2.718-1.476 0-3.186.9-3.186 2.646 0 1.638.828 2.322 3.276 2.772 1.458.27 2.196.594 2.196 1.584 0 1.008-.63 1.494-2.052 1.494-1.512 0-2.106-.702-2.214-1.818h-1.458c.09 1.926 1.44 3.06 3.69 3.06Zm7.535-.162h1.638l2.196-7.056L84.499 320h1.656l2.934-9.414h-1.53l-2.214 7.578-2.142-7.578h-1.296l-2.286 7.578-2.196-7.578h-1.62L78.703 320Zm16.131.162c2.682 0 4.644-1.962 4.644-4.806v-.144c0-2.826-1.962-4.788-4.626-4.788-2.664 0-4.626 1.98-4.626 4.806v.144c0 2.754 1.926 4.788 4.608 4.788Zm.018-1.242c-1.908 0-3.078-1.404-3.078-3.546v-.144c0-2.16 1.188-3.564 3.078-3.564 1.872 0 3.078 1.404 3.078 3.582v.126c0 2.124-1.188 3.546-3.078 3.546Zm6.939 1.08h1.494v-5.166c0-2.322 1.206-2.916 3.096-3.006v-1.404c-1.692.054-2.502.792-3.096 1.854v-1.692h-1.494V320Zm10.05.162c1.368 0 2.682-.864 3.222-1.782V320h1.494v-13.914h-1.494v6.012c-.54-.918-1.512-1.674-3.078-1.674-2.592 0-4.392 2.034-4.392 4.914v.144c0 2.934 1.782 4.68 4.248 4.68Zm.162-1.242c-1.584 0-2.862-1.134-2.862-3.51v-.144c0-2.286 1.116-3.6 2.988-3.6 1.836 0 2.988 1.134 2.988 3.546v.144c0 2.412-1.368 3.564-3.114 3.564ZM61.95 405h.87v-7.15h-.87V405Zm6.62.09c.77 0 1.24-.26 1.63-.75v.66h.83v-3.45c0-1.46-.91-1.87-1.91-1.87-1.01 0-1.96.44-2.07 1.63h.83c.08-.64.48-.94 1.2-.94.8 0 1.12.35 1.12 1.18v.38h-.75c-1.34 0-2.62.41-2.62 1.62 0 1.07.77 1.54 1.74 1.54Zm.08-.66c-.73 0-.99-.34-.99-.88 0-.77.77-1.03 1.82-1.03h.72v.65c0 .81-.67 1.26-1.55 1.26Zm6.1 2.48c1.46 0 2.49-.74 2.5-2.26v-4.88h-.83v.84c-.3-.51-.84-.93-1.71-.93-1.44 0-2.44 1.18-2.44 2.6v.07c0 1.44 1.01 2.48 2.38 2.48.76 0 1.47-.48 1.77-.99v.76c0 1.12-.65 1.61-1.68 1.61-.89 0-1.39-.31-1.51-.91h-.85c.14.88.82 1.61 2.37 1.61Zm-.01-2.77c-.88 0-1.61-.68-1.61-1.82v-.08c0-1.1.62-1.87 1.66-1.87 1.02 0 1.66.68 1.66 1.85v.07c0 1.17-.74 1.85-1.71 1.85Zm4.19.86h.83v-2.87c0-1.29.67-1.62 1.72-1.67v-.78c-.94.03-1.39.44-1.72 1.03v-.94h-.83V405Zm5.753.09c1.18 0 2.05-.55 2.23-1.6h-.83c-.11.61-.58.91-1.39.91-1.07 0-1.64-.66-1.68-1.85h3.94v-.27c0-1.87-1.14-2.6-2.35-2.6-1.44 0-2.45 1.1-2.45 2.68v.08c0 1.61 1.05 2.65 2.53 2.65Zm-1.64-3.21c.14-.93.71-1.51 1.56-1.51.86 0 1.42.43 1.5 1.51h-3.06Zm7.324 3.21c1.18 0 2.05-.55 2.23-1.6h-.83c-.11.61-.58.91-1.39.91-1.07 0-1.64-.66-1.68-1.85h3.94v-.27c0-1.87-1.14-2.6-2.35-2.6-1.44 0-2.45 1.1-2.45 2.68v.08c0 1.61 1.05 2.65 2.53 2.65Zm-1.64-3.21c.14-.93.71-1.51 1.56-1.51.86 0 1.42.43 1.5 1.51h-3.06Zm9.42 3.19c.34 0 .54-.05.71-.11v-.7c-.18.07-.38.11-.64.11-.42 0-.65-.25-.65-.76v-3.14h1.22v-.7h-1.22v-1.19h-.83v1.19h-.75v.7h.75v3.22c0 .82.46 1.38 1.41 1.38Zm4.134.02c1.49 0 2.58-1.09 2.58-2.67v-.08c0-1.57-1.09-2.66-2.57-2.66-1.48 0-2.57 1.1-2.57 2.67v.08c0 1.53 1.07 2.66 2.56 2.66Zm.01-.69c-1.06 0-1.71-.78-1.71-1.97v-.08c0-1.2.66-1.98 1.71-1.98 1.04 0 1.71.78 1.71 1.99v.07c0 1.18-.66 1.97-1.71 1.97Zm8.092.67c.34 0 .54-.05.71-.11v-.7c-.18.07-.38.11-.64.11-.42 0-.65-.25-.65-.76v-3.14h1.22v-.7h-1.22v-1.19h-.83v1.19h-.75v.7h.75v3.22c0 .82.46 1.38 1.41 1.38Zm1.965-.07h.83v-3.17c0-.94.69-1.43 1.46-1.43.84 0 1.23.41 1.23 1.33V405h.83v-3.21c0-1.52-.76-2.11-1.84-2.11-.86 0-1.44.43-1.68.92v-3.33h-.83V405Zm8.116.09c1.18 0 2.05-.55 2.23-1.6h-.83c-.11.61-.58.91-1.39.91-1.07 0-1.64-.66-1.68-1.85h3.94v-.27c0-1.87-1.14-2.6-2.35-2.6-1.44 0-2.45 1.1-2.45 2.68v.08c0 1.61 1.05 2.65 2.53 2.65Zm-1.64-3.21c.14-.93.71-1.51 1.56-1.51.86 0 1.42.43 1.5 1.51h-3.06Zm9.36 3.12h.87v-6.44h2.08v-.71h-5.03v.71h2.08V405Zm5.464.09c1.18 0 2.05-.55 2.23-1.6h-.83c-.11.61-.58.91-1.39.91-1.07 0-1.64-.66-1.68-1.85h3.94v-.27c0-1.87-1.14-2.6-2.35-2.6-1.44 0-2.45 1.1-2.45 2.68v.08c0 1.61 1.05 2.65 2.53 2.65Zm-1.64-3.21c.14-.93.71-1.51 1.56-1.51.86 0 1.42.43 1.5 1.51h-3.06Zm5.184 3.12h.83v-2.87c0-1.29.67-1.62 1.72-1.67v-.78c-.94.03-1.39.44-1.72 1.03v-.94h-.83V405Zm3.759 0h.83v-3.2c0-.94.7-1.4 1.38-1.4.72 0 1.11.38 1.11 1.3v3.3h.83v-3.2c0-.94.7-1.4 1.38-1.4.72 0 1.11.38 1.11 1.3v3.3h.83v-3.24c0-1.52-.82-2.08-1.76-2.08-.65 0-1.43.3-1.79.98-.27-.7-.86-.98-1.53-.98-.75 0-1.32.4-1.56.89v-.8h-.83V405Zm10.722.09c1.27 0 1.92-.64 1.92-1.59 0-1.11-.76-1.35-1.84-1.55-.96-.17-1.22-.36-1.22-.83 0-.45.39-.75.99-.75.66 0 .98.25 1.1.82h.8c-.14-1.13-.95-1.51-1.89-1.51-.82 0-1.77.5-1.77 1.47 0 .91.46 1.29 1.82 1.54.81.15 1.22.33 1.22.88 0 .56-.35.83-1.14.83-.84 0-1.17-.39-1.23-1.01h-.81c.05 1.07.8 1.7 2.05 1.7Zm8.001 0c1.49 0 2.58-1.09 2.58-2.67v-.08c0-1.57-1.09-2.66-2.57-2.66-1.48 0-2.57 1.1-2.57 2.67v.08c0 1.53 1.07 2.66 2.56 2.66Zm.01-.69c-1.06 0-1.71-.78-1.71-1.97v-.08c0-1.2.66-1.98 1.71-1.98 1.04 0 1.71.78 1.71 1.99v.07c0 1.18-.66 1.97-1.71 1.97Zm4.035.6h.83v-4.53h1.28v-.7h-1.28v-.94c0-.53.22-.9.76-.9.23 0 .44.05.59.11v-.7c-.21-.07-.35-.1-.62-.1-1.04 0-1.56.62-1.56 1.68v.85h-.75v.7h.75V405Zm8.294.09c1.42 0 2.47-.91 2.47-2.11 0-1.35-.84-1.83-2.43-2.08-1.46-.22-1.72-.58-1.72-1.28 0-.67.51-1.16 1.49-1.16.99 0 1.51.37 1.68 1.27h.78c-.14-1.27-1.03-1.97-2.46-1.97-1.35 0-2.3.84-2.3 1.94 0 1.27.89 1.74 2.39 1.97 1.36.22 1.73.56 1.73 1.37s-.71 1.35-1.63 1.35c-1.44 0-1.78-.72-1.89-1.57h-.84c.13 1.22.82 2.27 2.73 2.27Zm6.039 0c1.18 0 2.05-.55 2.23-1.6h-.83c-.11.61-.58.91-1.39.91-1.07 0-1.64-.66-1.68-1.85h3.94v-.27c0-1.87-1.14-2.6-2.35-2.6-1.44 0-2.45 1.1-2.45 2.68v.08c0 1.61 1.05 2.65 2.53 2.65Zm-1.64-3.21c.14-.93.71-1.51 1.56-1.51.86 0 1.42.43 1.5 1.51h-3.06Zm5.184 3.12h.83v-2.87c0-1.29.67-1.62 1.72-1.67v-.78c-.94.03-1.39.44-1.72 1.03v-.94h-.83V405Zm5.118 0h1.06l1.88-5.23h-.86l-1.53 4.39-1.55-4.39h-.9l1.9 5.23Zm4.452-6.32c.3 0 .55-.25.55-.55 0-.3-.25-.55-.55-.55-.3 0-.55.25-.55.55 0 .3.25.55.55.55Zm-.4 6.32h.83v-5.23h-.83V405Zm4.699.09c1.26 0 2.17-.84 2.28-1.97h-.77c-.09.85-.76 1.28-1.5 1.28-1.01 0-1.71-.68-1.71-1.96v-.08c0-1.23.73-1.99 1.68-1.99.72 0 1.32.31 1.45 1.14h.82c-.16-1.33-1.18-1.83-2.27-1.83-1.4 0-2.54 1.08-2.54 2.68v.08c0 1.62 1.1 2.65 2.56 2.65Zm5.673 0c1.18 0 2.05-.55 2.23-1.6h-.83c-.11.61-.58.91-1.39.91-1.07 0-1.64-.66-1.68-1.85h3.94v-.27c0-1.87-1.14-2.6-2.35-2.6-1.44 0-2.45 1.1-2.45 2.68v.08c0 1.61 1.05 2.65 2.53 2.65Zm-1.64-3.21c.14-.93.71-1.51 1.56-1.51.86 0 1.42.43 1.5 1.51h-3.06Z"/>
  <path fill="#fff" d="M37 152h292v39H37z"/>
  <path stroke="#000" stroke-opacity=".11" d="M37.5 152.5h291v38h-291z"/>
  <path fill="#fff" d="M37 241h292v39H37z"/>
  <path stroke="#000" stroke-opacity=".11" d="M37.5 241.5h291v38h-291z"/>
  <path fill="#fff" d="M37 330h292v39H37z"/>
  <path stroke="#000" stroke-opacity=".11" d="M37.5 330.5h291v38h-291z"/>
  <path fill="#C4C4C4" d="M37 434h88v38H37z"/>
  <path fill="#fff" d="M37 394h16v16H37z"/>
  <path stroke="#000" stroke-opacity=".15" d="M37.5 394.5h15v15h-15z"/>
  <path fill="#000" d="M57.494 458.126c1.988 0 3.458-1.274 3.458-2.954 0-1.89-1.176-2.562-3.402-2.912-2.044-.308-2.408-.812-2.408-1.792 0-.938.714-1.624 2.086-1.624 1.386 0 2.114.518 2.352 1.778h1.092c-.196-1.778-1.442-2.758-3.444-2.758-1.89 0-3.22 1.176-3.22 2.716 0 1.778 1.246 2.436 3.346 2.758 1.904.308 2.422.784 2.422 1.918s-.994 1.89-2.282 1.89c-2.016 0-2.492-1.008-2.646-2.198h-1.176c.182 1.708 1.148 3.178 3.822 3.178Zm6.047-8.974c.42 0 .77-.35.77-.77 0-.42-.35-.77-.77-.77-.42 0-.77.35-.77.77 0 .42.35.77.77.77Zm-.56 8.848h1.162v-7.322h-1.162V458Zm6.467 2.674c2.044 0 3.486-1.036 3.5-3.164v-6.832h-1.162v1.176c-.42-.714-1.176-1.302-2.394-1.302-2.016 0-3.416 1.652-3.416 3.64v.098c0 2.016 1.414 3.472 3.332 3.472 1.064 0 2.058-.672 2.478-1.386v1.064c0 1.568-.91 2.254-2.352 2.254-1.246 0-1.946-.434-2.114-1.274h-1.19c.196 1.232 1.148 2.254 3.318 2.254Zm-.014-3.878c-1.232 0-2.254-.952-2.254-2.548v-.112c0-1.54.868-2.618 2.324-2.618 1.428 0 2.324.952 2.324 2.59v.098c0 1.638-1.036 2.59-2.394 2.59ZM75.299 458h1.162v-4.438c0-1.316.966-2.002 2.044-2.002 1.176 0 1.722.574 1.722 1.862V458h1.162v-4.494c0-2.128-1.064-2.954-2.576-2.954-1.204 0-2.016.602-2.352 1.288v-1.162h-1.162V458Zm15.67.126c2.576 0 3.794-1.498 3.794-3.934v-6.202h-1.218v6.034c0 2.45-.952 3.094-2.548 3.094-1.666 0-2.408-.812-2.408-2.912v-6.216h-1.218v6.356c0 2.436 1.302 3.78 3.598 3.78Zm6.082 2.422h1.162v-3.752c.42.728 1.274 1.33 2.478 1.33 2.016 0 3.332-1.54 3.332-3.78v-.112c0-2.282-1.414-3.682-3.332-3.682-1.064 0-2.058.644-2.478 1.358v-1.232h-1.162v9.87Zm3.528-3.388c-1.428 0-2.408-.882-2.408-2.758v-.112c0-1.876 1.036-2.772 2.394-2.772 1.232 0 2.254.924 2.254 2.772v.112c0 1.778-.784 2.758-2.24 2.758Z"/>
</svg>