<svg xmlns="http://www.w3.org/2000/svg" fill="none" viewBox="0 0 1221 477">
  <path fill="#00B760" d="M137.131 182.99a4.41 4.41 0 0 0-6.235-.215 4.41 4.41 0 0 0-.215 6.235l6.45-6.02Zm-10.24 104.879a4.413 4.413 0 0 0 6.217 6.262l-6.217-6.262ZM31.319 189.01a4.411 4.411 0 1 0-6.45-6.02l6.45 6.02Zm-2.428 105.121a4.412 4.412 0 0 0 6.217-6.262l-6.217 6.262Zm101.79-105.121c6.017 6.447 10.683 12.736 13.881 20.23 3.193 7.481 5.029 16.416 5.026 28.261l8.824.002c.003-12.796-1.988-22.949-5.734-31.727-3.741-8.765-9.126-15.907-15.547-22.786l-6.45 6.02Zm18.907 48.491c-.006 23.064-9.619 37.383-22.697 50.368l6.217 6.262c14.073-13.974 25.296-30.41 25.304-56.628l-8.824-.002ZM24.868 182.99c-6.42 6.879-11.805 14.021-15.546 22.786-3.746 8.778-5.737 18.931-5.734 31.727l8.824-.002c-.004-11.845 1.833-20.78 5.025-28.261 3.198-7.494 7.864-13.783 13.882-20.23l-6.45-6.02Zm-21.28 54.513c.007 26.218 11.23 42.654 25.303 56.628l6.217-6.262c-13.078-12.985-22.69-27.304-22.696-50.368l-8.824.002Z"/>
  <g filter="url(#a)">
    <rect width="146" height="146" x="8" y="163" fill="#fff" rx="72.549"/>
  </g>
  <mask id="b" width="146" height="146" x="8" y="163" maskUnits="userSpaceOnUse" style="mask-type:alpha">
    <rect width="146" height="146" x="8" y="163" fill="#fff" rx="72.549"/>
  </mask>
  <g mask="url(#b)">
    <path fill="#fff" d="M7 250h148v68H7z"/>
  </g>
  <path fill="#00B760" fill-rule="evenodd" d="M81 310c40.869 0 74-33.131 74-74s-33.131-74-74-74c-40.87 0-74 33.131-74 74s33.13 74 74 74Zm0-1.007c40.313 0 72.993-32.68 72.993-72.993 0-40.313-32.68-72.993-72.993-72.993-40.313 0-72.993 32.68-72.993 72.993 0 40.313 32.68 72.993 72.993 72.993Z" clip-rule="evenodd"/>
  <path fill="#000" d="M63.836 267.12c2.424 0 3.912-1.44 3.912-3.816v-.792h-3.732v1.2h2.16c-.048 1.188-.708 2.16-2.316 2.16-1.8 0-2.652-1.26-2.652-3.096v-.096c0-1.884.972-3.132 2.652-3.132 1.116 0 1.884.492 2.076 1.632h1.596c-.228-2.052-1.86-2.892-3.696-2.892-2.508 0-4.284 1.824-4.284 4.38v.096c0 2.532 1.536 4.356 4.284 4.356Zm8.093 0c1.608 0 2.676-.72 2.88-2.04h-1.404c-.108.612-.564.96-1.44.96-1.08 0-1.68-.672-1.728-1.86h4.596v-.42c0-2.244-1.404-3.168-2.964-3.168-1.788 0-3.12 1.296-3.12 3.24v.096c0 1.98 1.332 3.192 3.18 3.192Zm-1.668-3.912c.144-.972.732-1.56 1.608-1.56.9 0 1.452.48 1.524 1.56H70.26ZM76.13 267h1.452v-3.696c0-.996.66-1.5 1.476-1.5.864 0 1.248.432 1.248 1.38V267h1.452v-3.948c0-1.728-.888-2.46-2.148-2.46-1.032 0-1.728.516-2.028 1.128v-.996H76.13V267Zm9.728 0h1.632l2.016-3.348L91.522 267h1.824l-2.748-4.44 2.532-4.14h-1.644l-1.812 3.048-1.824-3.048h-1.8l2.568 4.176-2.76 4.404Zm13.219 0h1.524l1.74-6.252 1.692 6.252h1.596l2.148-8.58h-1.488l-1.536 6.336-1.704-6.336h-1.32l-1.668 6.3-1.488-6.3H96.94l2.136 8.58Zm12.157.12c1.848 0 3.228-1.272 3.228-3.228v-.096c0-1.92-1.38-3.204-3.216-3.204-1.848 0-3.228 1.296-3.228 3.24v.096c0 1.908 1.368 3.192 3.216 3.192Zm.012-1.128c-1.104 0-1.74-.804-1.74-2.088v-.096c0-1.296.66-2.076 1.74-2.076s1.728.792 1.728 2.088v.084c0 1.284-.648 2.088-1.728 2.088Zm4.528 1.008h1.452v-3.756c0-.96.66-1.44 1.38-1.44.708 0 1.116.396 1.116 1.32V267h1.452v-3.756c0-.96.66-1.44 1.38-1.44.72 0 1.116.396 1.116 1.32V267h1.452v-3.972c0-1.728-.936-2.436-2.088-2.436-.78 0-1.644.348-2.124 1.128-.312-.78-.96-1.128-1.776-1.128-.924 0-1.608.504-1.908 1.092v-.96h-1.452V267Zm13.776.12c1.608 0 2.676-.72 2.88-2.04h-1.404c-.108.612-.564.96-1.44.96-1.08 0-1.68-.672-1.728-1.86h4.596v-.42c0-2.244-1.404-3.168-2.964-3.168-1.788 0-3.12 1.296-3.12 3.24v.096c0 1.98 1.332 3.192 3.18 3.192Zm-1.668-3.912c.144-.972.732-1.56 1.608-1.56.9 0 1.452.48 1.524 1.56h-3.132Zm5.869 3.792h1.452v-3.696c0-.996.66-1.5 1.476-1.5.864 0 1.248.432 1.248 1.38V267h1.452v-3.948c0-1.728-.888-2.46-2.148-2.46-1.032 0-1.728.516-2.028 1.128v-.996h-1.452V267ZM59.247 284h6.227v-.923h-4.485l2.561-2.496c1.144-1.118 1.872-2.236 1.872-3.38 0-1.599-1.092-2.613-2.808-2.613-1.768 0-2.873 1.157-3.016 2.977h1.053c.182-1.456.884-2.067 1.963-2.067 1.053 0 1.664.624 1.664 1.664 0 .949-.494 1.794-1.339 2.691l-3.692 3.887v.26Zm10.721.117c1.924 0 3.302-1.014 3.302-2.704 0-1.287-.702-2.054-1.794-2.34.845-.351 1.47-.975 1.47-2.028 0-1.287-1.028-2.457-2.796-2.457-1.768 0-2.977 1.209-3.042 2.678h.988c.117-1.053.897-1.755 2.054-1.755 1.131 0 1.69.676 1.69 1.56 0 1.014-.533 1.586-1.742 1.586h-.65v.949h.702c1.313 0 1.963.611 1.963 1.807 0 1.092-.663 1.794-2.119 1.794-1.469 0-2.132-.845-2.236-1.95h-1.04c.065 1.625 1.274 2.86 3.25 2.86Zm4.992 1.482 1.599-2.717-1.053-.494-1.248 2.847.702.364ZM77.706 284h6.227v-.923h-4.485l2.561-2.496c1.144-1.118 1.872-2.236 1.872-3.38 0-1.599-1.092-2.613-2.808-2.613-1.768 0-2.873 1.157-3.016 2.977h1.053c.182-1.456.884-2.067 1.963-2.067 1.053 0 1.664.624 1.664 1.664 0 .949-.494 1.794-1.339 2.691l-3.692 3.887v.26Zm10.776.117c1.573 0 3.198-.923 3.198-2.782 0-1.196-.702-2.002-1.78-2.392.857-.377 1.43-1.027 1.43-1.963 0-1.456-1.405-2.392-2.848-2.392-1.43 0-2.86.91-2.86 2.418 0 .91.52 1.612 1.404 1.95-.988.351-1.755 1.157-1.755 2.405 0 1.846 1.69 2.756 3.211 2.756Zm.04-5.564c-.95 0-1.756-.559-1.756-1.534 0-.962.754-1.547 1.716-1.547s1.703.624 1.703 1.521c0 .988-.676 1.56-1.664 1.56Zm-.04 4.641c-1.079 0-2.054-.65-2.054-1.872 0-1.235.975-1.872 2.08-1.872s2.015.624 2.015 1.846c0 1.235-.897 1.898-2.04 1.898Zm7.715.923c1.924 0 3.302-1.014 3.302-2.704 0-1.287-.702-2.054-1.794-2.34.845-.351 1.469-.975 1.469-2.028 0-1.287-1.027-2.457-2.795-2.457s-2.977 1.209-3.042 2.678h.988c.117-1.053.897-1.755 2.054-1.755 1.13 0 1.69.676 1.69 1.56 0 1.014-.533 1.586-1.742 1.586h-.65v.949h.702c1.313 0 1.963.611 1.963 1.807 0 1.092-.663 1.794-2.12 1.794-1.468 0-2.131-.845-2.235-1.95h-1.04c.065 1.625 1.274 2.86 3.25 2.86Zm4.992 1.482 1.599-2.717-1.053-.494-1.248 2.847.702.364Zm5.875-1.495c2.223 0 3.497-1.703 3.497-4.784v-.585c0-2.678-1.144-4.16-3.341-4.16-1.963 0-3.211 1.248-3.211 3.107 0 1.755 1.248 3.042 3.055 3.042 1.066 0 1.963-.481 2.405-1.235-.026 2.47-.897 3.692-2.379 3.692-1.196 0-1.716-.559-1.924-1.469h-1.092c.247 1.495 1.274 2.392 2.99 2.392Zm.169-4.264c-1.261 0-2.067-.871-2.067-2.21 0-1.313.832-2.171 2.054-2.171 1.248 0 2.145.845 2.145 2.366 0 1.209-.884 2.015-2.132 2.015Zm7.766 4.277c1.924 0 3.302-1.014 3.302-2.704 0-1.287-.702-2.054-1.794-2.34.845-.351 1.469-.975 1.469-2.028 0-1.287-1.027-2.457-2.795-2.457s-2.977 1.209-3.042 2.678h.988c.117-1.053.897-1.755 2.054-1.755 1.131 0 1.69.676 1.69 1.56 0 1.014-.533 1.586-1.742 1.586h-.65v.949h.702c1.313 0 1.963.611 1.963 1.807 0 1.092-.663 1.794-2.119 1.794-1.469 0-2.132-.845-2.236-1.95h-1.04c.065 1.625 1.274 2.86 3.25 2.86Zm8.196 0c1.963 0 3.211-1.248 3.211-3.107 0-1.703-1.196-3.042-3.042-3.042-1.079 0-1.95.507-2.392 1.261.052-2.457 1.04-3.718 2.444-3.718 1.04 0 1.508.468 1.716 1.326h1.079c-.247-1.495-1.274-2.249-2.717-2.249-2.132 0-3.64 1.742-3.64 5.083v.221c0 2.327.806 4.225 3.341 4.225Zm0-.884c-1.248 0-2.145-.806-2.145-2.327 0-1.209.884-2.054 2.132-2.054 1.261 0 2.067.871 2.067 2.21 0 1.313-.832 2.171-2.054 2.171Z"/>
  <rect width="28" height="28" x="27" y="255" fill="#CCF0DF" rx="14"/>
  <path fill="#006B38" d="M36.744 272.117c2.392 0 3.744-1.703 3.744-4.758v-.481c0-2.678-1.196-4.316-3.627-4.316-2.12 0-3.445 1.287-3.445 3.185 0 1.833 1.287 3.016 3.08 3.016 1.106 0 1.86-.468 2.289-1.17-.026 2.119-.741 3.185-2.067 3.185-1.001 0-1.43-.468-1.6-1.196h-1.624c.22 1.599 1.352 2.535 3.25 2.535Zm.117-4.563c-1.066 0-1.742-.741-1.742-1.859 0-1.105.689-1.846 1.729-1.846 1.066 0 1.807.728 1.807 1.976 0 1.027-.741 1.729-1.794 1.729Zm8.253 4.576c1.872 0 3.458-.975 3.458-2.808 0-1.131-.637-1.937-1.73-2.327.833-.364 1.379-1.001 1.379-1.95 0-1.534-1.443-2.47-3.107-2.47-1.612 0-3.12.923-3.12 2.496 0 .923.52 1.599 1.378 1.937-1.04.364-1.742 1.183-1.742 2.366 0 1.82 1.638 2.756 3.484 2.756Zm.026-5.629c-.806 0-1.495-.494-1.495-1.339 0-.832.65-1.339 1.469-1.339.832 0 1.469.533 1.469 1.326 0 .845-.598 1.352-1.443 1.352Zm-.026 4.329c-.936 0-1.742-.559-1.742-1.599s.806-1.599 1.755-1.599c.962 0 1.716.559 1.716 1.586 0 1.04-.741 1.612-1.73 1.612Z"/>
  <path fill="#fff" d="M49 274a6 6 0 1 0 .001 12.001A6 6 0 0 0 49 274Z"/>
  <path fill="#00B760" fill-rule="evenodd" d="M43 280a6 6 0 1 1 12.001.001A6 6 0 0 1 43 280Zm5.771 1.951 2.82-3.91c.051-.071 0-.17-.087-.17h-.628a.428.428 0 0 0-.346.178l-2.106 2.919-.953-1.323a.428.428 0 0 0-.347-.178h-.629c-.087 0-.137.099-.087.17l1.67 2.314c.17.237.523.237.693 0Z" clip-rule="evenodd"/>
  <rect width="21" height="7" x="71" y="294" fill="#CCF0DF" rx="3.5"/>
  <path fill="#006B38" fill-rule="evenodd" d="M80 297.5a1.5 1.5 0 1 0 3 0 1.5 1.5 0 0 0-3 0Zm-5 0a1.5 1.5 0 1 0 3 0 1.5 1.5 0 0 0-3 0Zm11.5 1.5a1.5 1.5 0 1 1 0-3 1.5 1.5 0 0 1 0 3Z" clip-rule="evenodd"/>
  <path fill="#fff" d="M179 236c0 6.629-5.371 12-12 12s-12-5.371-12-12 5.371-12 12-12 12 5.371 12 12Z"/>
  <path fill="#000" fill-rule="evenodd" d="M178 236c0 6.077-4.923 11-11 11s-11-4.923-11-11 4.923-11 11-11 11 4.923 11 11Zm-6 .234a.47.47 0 0 1-.469.469h-3.828v3.828a.47.47 0 0 1-.469.469h-.468a.47.47 0 0 1-.469-.469v-3.828h-3.828a.47.47 0 0 1-.469-.469v-.468a.47.47 0 0 1 .469-.469h3.828v-3.828a.47.47 0 0 1 .469-.469h.468a.47.47 0 0 1 .469.469v3.828h3.828a.47.47 0 0 1 .469.469v.468ZM167 227c4.946 0 9 4.004 9 9 0 4.946-4.004 9-9 9-4.946 0-9-4.004-9-9 0-4.946 4.004-9 9-9Z" clip-rule="evenodd"/>
  <path stroke="#060606" stroke-width="2" d="M218 142h-20.429a4 4 0 0 0-4 4v86a4 4 0 0 1-4 4H182M218 330h-20.429a4 4 0 0 1-4-4v-86a4 4 0 0 0-4-4H178"/>
  <path fill="#fff" d="M508 144c0 6.629-5.371 12-12 12s-12-5.371-12-12 5.371-12 12-12 12 5.371 12 12Z"/>
  <path fill="#000" fill-rule="evenodd" d="M507 144c0 6.077-4.923 11-11 11s-11-4.923-11-11 4.923-11 11-11 11 4.923 11 11Zm-6 .234a.47.47 0 0 1-.469.469h-3.828v3.828a.47.47 0 0 1-.469.469h-.468a.47.47 0 0 1-.469-.469v-3.828h-3.828a.47.47 0 0 1-.469-.469v-.468a.47.47 0 0 1 .469-.469h3.828v-3.828a.47.47 0 0 1 .469-.469h.468a.47.47 0 0 1 .469.469v3.828h3.828a.47.47 0 0 1 .469.469v.468ZM496 135c4.946 0 9 4.004 9 9 0 4.946-4.004 9-9 9-4.946 0-9-4.004-9-9 0-4.946 4.004-9 9-9Z" clip-rule="evenodd"/>
  <path fill="#fff" d="M242 144c0 6.629-5.371 12-12 12s-12-5.371-12-12 5.371-12 12-12 12 5.371 12 12Z"/>
  <path fill="#000" fill-rule="evenodd" d="M241 144c0 6.077-4.923 11-11 11s-11-4.923-11-11 4.923-11 11-11 11 4.923 11 11Zm-6.469.703h-9.062a.47.47 0 0 1-.469-.469v-.468a.47.47 0 0 1 .469-.469h9.062c.258 0 .258 1.406 0 1.406ZM230 135c4.946 0 9 4.004 9 9 0 4.946-4.004 9-9 9-4.946 0-9-4.004-9-9 0-4.946 4.004-9 9-9Z" clip-rule="evenodd"/>
  <g clip-path="url(#c)">
    <rect width="250" height="132" x="238" y="78" fill="#769BD6" rx="4"/>
    <g filter="url(#d)">
      <path fill="#fff" d="M243 70h240v148H243z"/>
    </g>
    <path stroke="#DADADA" stroke-linecap="square" d="M482.5 165.5h-239"/>
    <path fill="#769BD6" fill-rule="evenodd" d="M484 69H242v150h242V69Zm-1 1H243v148h240V70Z" clip-rule="evenodd"/>
    <path fill="#E3EDFC" d="M243 70h240v96H243z"/>
    <mask id="e" width="28" height="28" x="349" y="104" maskUnits="userSpaceOnUse" style="mask-type:alpha">
      <path fill="#fff" d="M375 104a2 2 0 0 1 2 2v24a2 2 0 0 1-2 2h-24a2 2 0 0 1-2-2v-24a2 2 0 0 1 2-2h24Zm0 22h-24v4h24v-4Zm0-20h-24v18.924l5.731-6.164a1 1 0 0 1 1.414-.052l.026.025 3.267 3.267 5.296-6.918a1 1 0 0 1 1.612.033l6.654 9.463V106Zm-17.562 15-2.813 3h5.625l-2.812-3Zm10.062-3.438L362.625 124h9.75l-4.875-6.438ZM357 110a2 2 0 1 1 .001 3.999A2 2 0 0 1 357 110Z"/>
    </mask>
    <g mask="url(#e)">
      <path fill="#003285" d="M379 102h-32v32h32v-32Z"/>
    </g>
    <path fill="#E3EDFC" d="M302 192h108v18H302z"/>
    <path fill="#060606" d="M307.628 204.099c1.452 0 2.431-.781 2.431-2.486v-5.478h-1.474v5.445c0 .968-.462 1.342-1.177 1.342-.462 0-.737-.088-1.012-.198v1.144c.253.132.583.231 1.232.231Zm6.872.011c1.694 0 2.959-1.166 2.959-2.959v-.088c0-1.76-1.265-2.937-2.948-2.937-1.694 0-2.959 1.188-2.959 2.97v.088c0 1.749 1.254 2.926 2.948 2.926Zm.011-1.034c-1.012 0-1.595-.737-1.595-1.914v-.088c0-1.188.605-1.903 1.595-1.903s1.584.726 1.584 1.914v.077c0 1.177-.594 1.914-1.584 1.914Zm6.375 1.034c.935 0 1.54-.451 1.826-1.012V204h1.331v-5.753h-1.331v3.421c0 .913-.627 1.375-1.342 1.375-.77 0-1.133-.396-1.133-1.265v-3.531h-1.331v3.685c0 1.529.847 2.178 1.98 2.178Zm5.035-.11h1.331v-2.992c0-1.221.704-1.595 1.87-1.606v-1.243c-.968.011-1.507.44-1.87 1.166v-1.078h-1.331V204Zm4.673 0h1.331v-3.388c0-.913.605-1.375 1.353-1.375.792 0 1.144.396 1.144 1.265V204h1.331v-3.619c0-1.584-.814-2.255-1.969-2.255-.946 0-1.584.473-1.859 1.034v-.913h-1.331V204Zm9.522.11c1.474 0 2.453-.66 2.64-1.87h-1.287c-.099.561-.517.88-1.32.88-.99 0-1.54-.616-1.584-1.705h4.213v-.385c0-2.057-1.287-2.904-2.717-2.904-1.639 0-2.86 1.188-2.86 2.97v.088c0 1.815 1.221 2.926 2.915 2.926Zm-1.529-3.586c.132-.891.671-1.43 1.474-1.43.825 0 1.331.44 1.397 1.43h-2.871Zm6.178 5.445h1.309l3.135-7.722h-1.298l-1.408 3.707-1.529-3.707h-1.441l2.277 5.17-1.045 2.552ZM355.111 204h1.474v-6.71h2.189v-1.155h-5.852v1.155h2.189V204Zm5.818.11c.88 0 1.386-.319 1.76-.814V204h1.309v-3.773c0-1.573-1.012-2.101-2.299-2.101s-2.354.561-2.464 1.903h1.287c.066-.572.407-.902 1.1-.902.781 0 1.045.385 1.045 1.155v.297h-.715c-1.65 0-2.948.484-2.948 1.826 0 1.199.869 1.705 1.925 1.705Zm.319-.957c-.66 0-.924-.319-.924-.803 0-.704.649-.935 1.661-.935h.682v.572c0 .737-.605 1.166-1.419 1.166Zm4.575.847h1.331v-2.992c0-1.221.704-1.595 1.87-1.606v-1.243c-.968.011-1.507.44-1.87 1.166v-1.078h-1.331V204Zm7.007 2.112c1.782 0 2.915-.847 2.926-2.541v-5.324h-1.331v.88c-.33-.572-.902-1.001-1.848-1.001-1.485 0-2.585 1.21-2.585 2.827v.077c0 1.661 1.111 2.739 2.552 2.739a2.24 2.24 0 0 0 1.881-1.067v.847c0 1.034-.572 1.551-1.606 1.551-.869 0-1.309-.33-1.419-.902h-1.342c.154 1.1.968 1.914 2.772 1.914Zm.044-3.366c-.858 0-1.518-.66-1.518-1.727v-.088c0-1.045.572-1.76 1.562-1.76.957 0 1.551.649 1.551 1.738v.077c0 1.1-.671 1.76-1.595 1.76Zm7.294 1.364c1.474 0 2.453-.66 2.64-1.87h-1.287c-.099.561-.517.88-1.32.88-.99 0-1.54-.616-1.584-1.705h4.213v-.385c0-2.057-1.287-2.904-2.717-2.904-1.639 0-2.86 1.188-2.86 2.97v.088c0 1.815 1.221 2.926 2.915 2.926Zm-1.529-3.586c.132-.891.671-1.43 1.474-1.43.825 0 1.331.44 1.397 1.43h-2.871Zm7.638 3.575c.407 0 .693-.066.902-.143V202.9c-.187.077-.385.11-.649.11-.418 0-.66-.231-.66-.737v-3.025h1.265v-1.001h-1.265v-1.265h-1.331v1.265h-.77v1.001h.77v3.146c0 1.089.594 1.705 1.738 1.705Zm3.084-6.798c.44 0 .792-.33.792-.759 0-.44-.352-.77-.792-.77-.44 0-.792.33-.792.77 0 .429.352.759.792.759Zm-.649 6.699h1.331v-5.753h-1.331V204Zm3.254 0h1.331v-3.388c0-.913.605-1.375 1.353-1.375.792 0 1.144.396 1.144 1.265V204h1.331v-3.619c0-1.584-.814-2.255-1.969-2.255-.946 0-1.584.473-1.859 1.034v-.913h-1.331V204Zm9.445 2.112c1.782 0 2.915-.847 2.926-2.541v-5.324h-1.331v.88c-.33-.572-.902-1.001-1.848-1.001-1.485 0-2.585 1.21-2.585 2.827v.077c0 1.661 1.111 2.739 2.552 2.739a2.24 2.24 0 0 0 1.881-1.067v.847c0 1.034-.572 1.551-1.606 1.551-.869 0-1.309-.33-1.419-.902h-1.342c.154 1.1.968 1.914 2.772 1.914Zm.044-3.366c-.858 0-1.518-.66-1.518-1.727v-.088c0-1.045.572-1.76 1.562-1.76.957 0 1.551.649 1.551 1.738v.077c0 1.1-.671 1.76-1.595 1.76ZM306.225 185.13c2.054 0 3.419-1.261 3.419-2.873 0-1.859-1.131-2.483-3.315-2.782-1.612-.234-1.924-.611-1.924-1.365 0-.715.546-1.222 1.599-1.222 1.066 0 1.625.416 1.794 1.391h1.586c-.182-1.781-1.378-2.691-3.38-2.691-1.937 0-3.237 1.144-3.237 2.665 0 1.742 1.053 2.418 3.276 2.717 1.508.247 1.937.572 1.937 1.43s-.728 1.43-1.755 1.43c-1.573 0-1.95-.78-2.067-1.716h-1.664c.13 1.755 1.196 3.016 3.731 3.016Zm6.744 0c1.04 0 1.638-.377 2.08-.962V185h1.547v-4.459c0-1.859-1.196-2.483-2.717-2.483-1.521 0-2.782.663-2.912 2.249h1.521c.078-.676.481-1.066 1.3-1.066.923 0 1.235.455 1.235 1.365v.351h-.845c-1.95 0-3.484.572-3.484 2.158 0 1.417 1.027 2.015 2.275 2.015Zm.377-1.131c-.78 0-1.092-.377-1.092-.949 0-.832.767-1.105 1.963-1.105h.806v.676c0 .871-.715 1.378-1.677 1.378Zm6.643 1.001h1.833l2.457-6.799h-1.547l-1.755 5.187-1.781-5.187h-1.69l2.483 6.799Zm8.192.13c1.742 0 2.899-.78 3.12-2.21h-1.521c-.117.663-.611 1.04-1.56 1.04-1.17 0-1.82-.728-1.872-2.015h4.979v-.455c0-2.431-1.521-3.432-3.211-3.432-1.937 0-3.38 1.404-3.38 3.51v.104c0 2.145 1.443 3.458 3.445 3.458Zm-1.807-4.238c.156-1.053.793-1.69 1.742-1.69.975 0 1.573.52 1.651 1.69h-3.393ZM338.196 185h1.742v-4.017l2.912-5.278h-1.69l-2.041 3.848-2.093-3.848h-1.911l3.081 5.265V185Zm7.81.13c2.002 0 3.497-1.378 3.497-3.497v-.104c0-2.08-1.495-3.471-3.484-3.471-2.002 0-3.497 1.404-3.497 3.51v.104c0 2.067 1.482 3.458 3.484 3.458Zm.013-1.222c-1.196 0-1.885-.871-1.885-2.262v-.104c0-1.404.715-2.249 1.885-2.249s1.872.858 1.872 2.262v.091c0 1.391-.702 2.262-1.872 2.262Zm7.18 1.222c1.105 0 1.82-.533 2.158-1.196V185h1.573v-6.799h-1.573v4.043c0 1.079-.741 1.625-1.586 1.625-.91 0-1.339-.468-1.339-1.495v-4.173h-1.573v4.355c0 1.807 1.001 2.574 2.34 2.574Zm5.596-.13h1.573v-3.536c0-1.443.832-1.885 2.21-1.898v-1.469c-1.144.013-1.781.52-2.21 1.378v-1.274h-1.573V185Zm10.254 0h1.742v-7.93h2.587v-1.365h-6.916v1.365h2.587V185Zm6.269-7.917c.52 0 .936-.39.936-.897 0-.52-.416-.91-.936-.91s-.936.39-.936.91c0 .507.416.897.936.897Zm-.767 7.917h1.573v-6.799h-1.573V185Zm3.49 0h1.573v-4.069c0-1.04.715-1.56 1.495-1.56.767 0 1.209.429 1.209 1.43V185h1.573v-4.069c0-1.04.715-1.56 1.495-1.56.78 0 1.209.429 1.209 1.43V185h1.573v-4.303c0-1.872-1.014-2.639-2.262-2.639-.845 0-1.781.377-2.301 1.222-.338-.845-1.04-1.222-1.924-1.222-1.001 0-1.742.546-2.067 1.183v-1.04h-1.573V185Zm14.924.13c1.742 0 2.899-.78 3.12-2.21h-1.521c-.117.663-.611 1.04-1.56 1.04-1.17 0-1.82-.728-1.872-2.015h4.979v-.455c0-2.431-1.521-3.432-3.211-3.432-1.937 0-3.38 1.404-3.38 3.51v.104c0 2.145 1.443 3.458 3.445 3.458Zm-1.807-4.238c.156-1.053.793-1.69 1.742-1.69.975 0 1.573.52 1.651 1.69h-3.393ZM403.11 185h2.002l3.146-9.295h-1.625l-2.431 7.54-2.418-7.54h-1.807L403.11 185Zm7.057-7.917c.52 0 .936-.39.936-.897 0-.52-.416-.91-.936-.91s-.936.39-.936.91c0 .507.416.897.936.897ZM409.4 185h1.573v-6.799H409.4V185Zm6.038.13c1.001 0 1.872-.598 2.236-1.274V185h1.573v-9.945h-1.573v4.186c-.377-.676-1.066-1.183-2.171-1.183-1.768 0-3.055 1.378-3.055 3.549v.104c0 2.21 1.287 3.419 2.99 3.419Zm.39-1.248c-1.014 0-1.768-.715-1.768-2.21v-.104c0-1.469.676-2.275 1.833-2.275 1.144 0 1.833.741 1.833 2.236v.104c0 1.521-.806 2.249-1.898 2.249Zm8.279 1.248c1.742 0 2.899-.78 3.12-2.21h-1.521c-.117.663-.611 1.04-1.56 1.04-1.17 0-1.82-.728-1.872-2.015h4.979v-.455c0-2.431-1.521-3.432-3.211-3.432-1.937 0-3.38 1.404-3.38 3.51v.104c0 2.145 1.443 3.458 3.445 3.458Zm-1.807-4.238c.156-1.053.793-1.69 1.742-1.69.975 0 1.573.52 1.651 1.69H422.3Zm9.387 4.238c2.002 0 3.497-1.378 3.497-3.497v-.104c0-2.08-1.495-3.471-3.484-3.471-2.002 0-3.497 1.404-3.497 3.51v.104c0 2.067 1.482 3.458 3.484 3.458Zm.013-1.222c-1.196 0-1.885-.871-1.885-2.262v-.104c0-1.404.715-2.249 1.885-2.249s1.872.858 1.872 2.262v.091c0 1.391-.702 2.262-1.872 2.262Z"/>
    <path fill="#E3EDFC" d="M252 174h36v36h-36z"/>
    <mask id="f" width="22" height="22" x="259" y="181" maskUnits="userSpaceOnUse" style="mask-type:alpha">
      <path fill="#fff" d="M279 181.5a1.5 1.5 0 0 1 1.5 1.5v18a1.5 1.5 0 0 1-1.5 1.5h-18a1.5 1.5 0 0 1-1.5-1.5v-18a1.5 1.5 0 0 1 1.5-1.5h18Zm0 1.5h-18v18h18v-18Zm-12.375 4.5c.175 0 .347.041.503.119l6.75 3.375a1.124 1.124 0 0 1 0 2.012l-6.75 3.375a1.124 1.124 0 0 1-1.628-1.006v-6.75c0-.621.504-1.125 1.125-1.125Zm.352 2.039v4.922l5.531-2.461-5.531-2.461Z"/>
    </mask>
    <g mask="url(#f)">
      <path fill="#003285" d="M282 180h-24v24h24v-24Z"/>
    </g>
    <rect width="21" height="7" x="455" y="203" fill="#E3EDFC" rx="3"/>
    <path fill="#003285" fill-rule="evenodd" d="M464 206.5a1.5 1.5 0 1 0 3.001-.001 1.5 1.5 0 0 0-3.001.001Zm-5 0a1.5 1.5 0 1 0 3 0 1.5 1.5 0 0 0-3 0Zm11.5 1.5a1.5 1.5 0 1 1 .001-3.001A1.5 1.5 0 0 1 470.5 208Z" clip-rule="evenodd"/>
  </g>
  <path stroke="#060606" stroke-width="2" d="M547 50h-20.429a4 4 0 0 0-4 4v86a4 4 0 0 1-4 4H511M547 238h-20.429a4 4 0 0 1-4-4v-86a4 4 0 0 0-4-4H507"/>
  <g clip-path="url(#g)">
    <rect width="250" height="132" x="238" y="265" fill="#769BD6" rx="4"/>
    <g filter="url(#h)">
      <path fill="#fff" d="M243 257h240v148H243z"/>
    </g>
    <path stroke="#DADADA" stroke-linecap="square" d="M482.5 352.5h-239"/>
    <path fill="#769BD6" fill-rule="evenodd" d="M484 256H242v150h242V256Zm-1 1H243v148h240V257Z" clip-rule="evenodd"/>
    <path fill="#E3EDFC" d="M243 257h240v96H243z"/>
    <mask id="i" width="28" height="28" x="349" y="291" maskUnits="userSpaceOnUse" style="mask-type:alpha">
      <path fill="#fff" d="M375 291a2 2 0 0 1 2 2v24a2 2 0 0 1-2 2h-24a2 2 0 0 1-2-2v-24a2 2 0 0 1 2-2h24Zm0 22h-24v4h24v-4Zm0-20h-24v18.924l5.731-6.164a1 1 0 0 1 1.414-.052l.026.025 3.267 3.267 5.296-6.918a1 1 0 0 1 1.612.033l6.654 9.463V293Zm-17.562 15-2.813 3h5.625l-2.812-3Zm10.062-3.438L362.625 311h9.75l-4.875-6.438ZM357 297a2 2 0 1 1 .001 3.999A2 2 0 0 1 357 297Z"/>
    </mask>
    <g mask="url(#i)">
      <path fill="#003285" d="M379 289h-32v32h32v-32Z"/>
    </g>
    <path fill="#E3EDFC" d="M302 379h108v18H302z"/>
    <path fill="#060606" d="M307.628 391.099c1.452 0 2.431-.781 2.431-2.486v-5.478h-1.474v5.445c0 .968-.462 1.342-1.177 1.342-.462 0-.737-.088-1.012-.198v1.144c.253.132.583.231 1.232.231Zm6.872.011c1.694 0 2.959-1.166 2.959-2.959v-.088c0-1.76-1.265-2.937-2.948-2.937-1.694 0-2.959 1.188-2.959 2.97v.088c0 1.749 1.254 2.926 2.948 2.926Zm.011-1.034c-1.012 0-1.595-.737-1.595-1.914v-.088c0-1.188.605-1.903 1.595-1.903s1.584.726 1.584 1.914v.077c0 1.177-.594 1.914-1.584 1.914Zm6.375 1.034c.935 0 1.54-.451 1.826-1.012V391h1.331v-5.753h-1.331v3.421c0 .913-.627 1.375-1.342 1.375-.77 0-1.133-.396-1.133-1.265v-3.531h-1.331v3.685c0 1.529.847 2.178 1.98 2.178Zm5.035-.11h1.331v-2.992c0-1.221.704-1.595 1.87-1.606v-1.243c-.968.011-1.507.44-1.87 1.166v-1.078h-1.331V391Zm4.673 0h1.331v-3.388c0-.913.605-1.375 1.353-1.375.792 0 1.144.396 1.144 1.265V391h1.331v-3.619c0-1.584-.814-2.255-1.969-2.255-.946 0-1.584.473-1.859 1.034v-.913h-1.331V391Zm9.522.11c1.474 0 2.453-.66 2.64-1.87h-1.287c-.099.561-.517.88-1.32.88-.99 0-1.54-.616-1.584-1.705h4.213v-.385c0-2.057-1.287-2.904-2.717-2.904-1.639 0-2.86 1.188-2.86 2.97v.088c0 1.815 1.221 2.926 2.915 2.926Zm-1.529-3.586c.132-.891.671-1.43 1.474-1.43.825 0 1.331.44 1.397 1.43h-2.871Zm6.178 5.445h1.309l3.135-7.722h-1.298l-1.408 3.707-1.529-3.707h-1.441l2.277 5.17-1.045 2.552ZM355.111 391h1.474v-6.71h2.189v-1.155h-5.852v1.155h2.189V391Zm5.818.11c.88 0 1.386-.319 1.76-.814V391h1.309v-3.773c0-1.573-1.012-2.101-2.299-2.101s-2.354.561-2.464 1.903h1.287c.066-.572.407-.902 1.1-.902.781 0 1.045.385 1.045 1.155v.297h-.715c-1.65 0-2.948.484-2.948 1.826 0 1.199.869 1.705 1.925 1.705Zm.319-.957c-.66 0-.924-.319-.924-.803 0-.704.649-.935 1.661-.935h.682v.572c0 .737-.605 1.166-1.419 1.166Zm4.575.847h1.331v-2.992c0-1.221.704-1.595 1.87-1.606v-1.243c-.968.011-1.507.44-1.87 1.166v-1.078h-1.331V391Zm7.007 2.112c1.782 0 2.915-.847 2.926-2.541v-5.324h-1.331v.88c-.33-.572-.902-1.001-1.848-1.001-1.485 0-2.585 1.21-2.585 2.827v.077c0 1.661 1.111 2.739 2.552 2.739a2.24 2.24 0 0 0 1.881-1.067v.847c0 1.034-.572 1.551-1.606 1.551-.869 0-1.309-.33-1.419-.902h-1.342c.154 1.1.968 1.914 2.772 1.914Zm.044-3.366c-.858 0-1.518-.66-1.518-1.727v-.088c0-1.045.572-1.76 1.562-1.76.957 0 1.551.649 1.551 1.738v.077c0 1.1-.671 1.76-1.595 1.76Zm7.294 1.364c1.474 0 2.453-.66 2.64-1.87h-1.287c-.099.561-.517.88-1.32.88-.99 0-1.54-.616-1.584-1.705h4.213v-.385c0-2.057-1.287-2.904-2.717-2.904-1.639 0-2.86 1.188-2.86 2.97v.088c0 1.815 1.221 2.926 2.915 2.926Zm-1.529-3.586c.132-.891.671-1.43 1.474-1.43.825 0 1.331.44 1.397 1.43h-2.871Zm7.638 3.575c.407 0 .693-.066.902-.143V389.9c-.187.077-.385.11-.649.11-.418 0-.66-.231-.66-.737v-3.025h1.265v-1.001h-1.265v-1.265h-1.331v1.265h-.77v1.001h.77v3.146c0 1.089.594 1.705 1.738 1.705Zm3.084-6.798c.44 0 .792-.33.792-.759 0-.44-.352-.77-.792-.77-.44 0-.792.33-.792.77 0 .429.352.759.792.759Zm-.649 6.699h1.331v-5.753h-1.331V391Zm3.254 0h1.331v-3.388c0-.913.605-1.375 1.353-1.375.792 0 1.144.396 1.144 1.265V391h1.331v-3.619c0-1.584-.814-2.255-1.969-2.255-.946 0-1.584.473-1.859 1.034v-.913h-1.331V391Zm9.445 2.112c1.782 0 2.915-.847 2.926-2.541v-5.324h-1.331v.88c-.33-.572-.902-1.001-1.848-1.001-1.485 0-2.585 1.21-2.585 2.827v.077c0 1.661 1.111 2.739 2.552 2.739a2.24 2.24 0 0 0 1.881-1.067v.847c0 1.034-.572 1.551-1.606 1.551-.869 0-1.309-.33-1.419-.902h-1.342c.154 1.1.968 1.914 2.772 1.914Zm.044-3.366c-.858 0-1.518-.66-1.518-1.727v-.088c0-1.045.572-1.76 1.562-1.76.957 0 1.551.649 1.551 1.738v.077c0 1.1-.671 1.76-1.595 1.76ZM303.066 372h1.729v-3.809h3.172v-1.339h-3.172v-2.769h4.03v-1.378h-5.759V372Zm8.633.13c1.04 0 1.638-.377 2.08-.962V372h1.547v-4.459c0-1.859-1.196-2.483-2.717-2.483-1.521 0-2.782.663-2.912 2.249h1.521c.078-.676.481-1.066 1.3-1.066.923 0 1.235.455 1.235 1.365v.351h-.845c-1.95 0-3.484.572-3.484 2.158 0 1.417 1.027 2.015 2.275 2.015Zm.377-1.131c-.78 0-1.092-.377-1.092-.949 0-.832.767-1.105 1.963-1.105h.806v.676c0 .871-.715 1.378-1.677 1.378Zm5.053 1.001h1.573v-3.536c0-1.443.832-1.885 2.21-1.898v-1.469c-1.144.013-1.781.52-2.21 1.378v-1.274h-1.573V372Zm5.167 0h1.573v-4.069c0-1.04.715-1.56 1.495-1.56.767 0 1.209.429 1.209 1.43V372h1.573v-4.069c0-1.04.715-1.56 1.495-1.56.78 0 1.209.429 1.209 1.43V372h1.573v-4.303c0-1.872-1.014-2.639-2.262-2.639-.845 0-1.781.377-2.301 1.222-.338-.845-1.04-1.222-1.924-1.222-1.001 0-1.742.546-2.067 1.183v-1.04h-1.573V372Zm17.346.117c.481 0 .819-.078 1.066-.169V370.7c-.221.091-.455.13-.767.13-.494 0-.78-.273-.78-.871v-3.575h1.495v-1.183h-1.495v-1.495h-1.573v1.495h-.91v1.183h.91v3.718c0 1.287.702 2.015 2.054 2.015Zm5.513.013c2.002 0 3.497-1.378 3.497-3.497v-.104c0-2.08-1.495-3.471-3.484-3.471-2.002 0-3.497 1.404-3.497 3.51v.104c0 2.067 1.482 3.458 3.484 3.458Zm.013-1.222c-1.196 0-1.885-.871-1.885-2.262v-.104c0-1.404.715-2.249 1.885-2.249s1.872.858 1.872 2.262v.091c0 1.391-.702 2.262-1.872 2.262Zm8.133 1.092h1.729v-3.809h3.172v-1.339h-3.172v-2.769h4.03v-1.378h-5.759V372Zm9.806.13c2.002 0 3.497-1.378 3.497-3.497v-.104c0-2.08-1.495-3.471-3.484-3.471-2.002 0-3.497 1.404-3.497 3.51v.104c0 2.067 1.482 3.458 3.484 3.458Zm.013-1.222c-1.196 0-1.885-.871-1.885-2.262v-.104c0-1.404.715-2.249 1.885-2.249s1.872.858 1.872 2.262v.091c0 1.391-.702 2.262-1.872 2.262Zm4.905 1.092h1.573v-3.536c0-1.443.832-1.885 2.21-1.898v-1.469c-1.144.013-1.781.52-2.21 1.378v-1.274h-1.573V372Zm5.167 0h1.573v-3.341l2.548 3.341h1.82l-2.86-3.679 2.639-3.12h-1.716l-2.431 2.99v-6.136h-1.573V372Zm12.614 0h2.002l3.146-9.295h-1.625l-2.431 7.54-2.418-7.54h-1.807l3.133 9.295Zm7.057-7.917c.52 0 .936-.39.936-.897 0-.52-.416-.91-.936-.91s-.936.39-.936.91c0 .507.416.897.936.897Zm-.767 7.917h1.573v-6.799h-1.573V372Zm6.038.13c1.001 0 1.872-.598 2.236-1.274V372h1.573v-9.945h-1.573v4.186c-.377-.676-1.066-1.183-2.171-1.183-1.768 0-3.055 1.378-3.055 3.549v.104c0 2.21 1.287 3.419 2.99 3.419Zm.39-1.248c-1.014 0-1.768-.715-1.768-2.21v-.104c0-1.469.676-2.275 1.833-2.275 1.144 0 1.833.741 1.833 2.236v.104c0 1.521-.806 2.249-1.898 2.249Zm8.279 1.248c1.742 0 2.899-.78 3.12-2.21h-1.521c-.117.663-.611 1.04-1.56 1.04-1.17 0-1.82-.728-1.872-2.015h4.979v-.455c0-2.431-1.521-3.432-3.211-3.432-1.937 0-3.38 1.404-3.38 3.51v.104c0 2.145 1.443 3.458 3.445 3.458Zm-1.807-4.238c.156-1.053.793-1.69 1.742-1.69.975 0 1.573.52 1.651 1.69h-3.393Zm9.387 4.238c2.002 0 3.497-1.378 3.497-3.497v-.104c0-2.08-1.495-3.471-3.484-3.471-2.002 0-3.497 1.404-3.497 3.51v.104c0 2.067 1.482 3.458 3.484 3.458Zm.013-1.222c-1.196 0-1.885-.871-1.885-2.262v-.104c0-1.404.715-2.249 1.885-2.249s1.872.858 1.872 2.262v.091c0 1.391-.702 2.262-1.872 2.262Z"/>
    <path fill="#E3EDFC" d="M252 361h36v36h-36z"/>
    <mask id="j" width="22" height="22" x="259" y="368" maskUnits="userSpaceOnUse" style="mask-type:alpha">
      <path fill="#fff" d="M279 368.5a1.5 1.5 0 0 1 1.5 1.5v18a1.5 1.5 0 0 1-1.5 1.5h-18a1.5 1.5 0 0 1-1.5-1.5v-18a1.5 1.5 0 0 1 1.5-1.5h18Zm0 1.5h-18v18h18v-18Zm-12.375 4.5c.175 0 .347.041.503.119l6.75 3.375a1.124 1.124 0 0 1 0 2.012l-6.75 3.375a1.124 1.124 0 0 1-1.628-1.006v-6.75c0-.621.504-1.125 1.125-1.125Zm.352 2.039v4.922l5.531-2.461-5.531-2.461Z"/>
    </mask>
    <g mask="url(#j)">
      <path fill="#003285" d="M282 367h-24v24h24v-24Z"/>
    </g>
    <rect width="21" height="7" x="455" y="390" fill="#E3EDFC" rx="3"/>
    <path fill="#003285" fill-rule="evenodd" d="M464 393.5a1.5 1.5 0 1 0 3.001-.001 1.5 1.5 0 0 0-3.001.001Zm-5 0a1.5 1.5 0 1 0 3 0 1.5 1.5 0 0 0-3 0Zm11.5 1.5a1.5 1.5 0 1 1 .001-3.001A1.5 1.5 0 0 1 470.5 395Z" clip-rule="evenodd"/>
  </g>
  <path fill="#fff" d="M508 331c0 6.629-5.371 12-12 12s-12-5.371-12-12 5.371-12 12-12 12 5.371 12 12Z"/>
  <path fill="#000" fill-rule="evenodd" d="M507 331c0 6.077-4.923 11-11 11s-11-4.923-11-11 4.923-11 11-11 11 4.923 11 11Zm-6 .234a.47.47 0 0 1-.469.469h-3.828v3.828a.47.47 0 0 1-.469.469h-.468a.47.47 0 0 1-.469-.469v-3.828h-3.828a.47.47 0 0 1-.469-.469v-.468a.47.47 0 0 1 .469-.469h3.828v-3.828a.47.47 0 0 1 .469-.469h.468a.47.47 0 0 1 .469.469v3.828h3.828a.47.47 0 0 1 .469.469v.468ZM496 322c4.946 0 9 4.004 9 9 0 4.946-4.004 9-9 9-4.946 0-9-4.004-9-9 0-4.946 4.004-9 9-9Z" clip-rule="evenodd"/>
  <path fill="#fff" d="M242 331c0 6.629-5.371 12-12 12s-12-5.371-12-12 5.371-12 12-12 12 5.371 12 12Z"/>
  <path fill="#000" fill-rule="evenodd" d="M241 331c0 6.077-4.923 11-11 11s-11-4.923-11-11 4.923-11 11-11 11 4.923 11 11Zm-6.469.703h-9.062a.47.47 0 0 1-.469-.469v-.468a.47.47 0 0 1 .469-.469h9.062c.258 0 .258 1.406 0 1.406ZM230 322c4.946 0 9 4.004 9 9 0 4.946-4.004 9-9 9-4.946 0-9-4.004-9-9 0-4.946 4.004-9 9-9Z" clip-rule="evenodd"/>
  <path stroke="#060606" stroke-width="2" d="M556 426h-20.429a4 4 0 0 1-4-4v-90M507 330h20.429a4 4 0 0 1 4 4v90"/>
  <g clip-path="url(#k)">
    <path stroke="#FA4526" stroke-linecap="round" stroke-width="8" d="m591.941 460.468-3.978-3.978-27.15-27.15c-1.554-1.554-1.564-4.062-.024-5.602L590.527 394M625.527 460.468l3.978-3.978 27.15-27.15c1.554-1.554 1.564-4.062.024-5.602L626.941 394"/>
    <g filter="url(#l)">
      <path fill="#fff" d="M558 425.912 608.912 375l50.911 50.912-50.911 50.912z"/>
    </g>
    <path fill="#FA4526" fill-rule="evenodd" d="M660.658 426 609 374.343 557.342 426 609 477.658 660.658 426Zm-1.397 0L609 375.739 558.739 426 609 476.262 659.261 426Z" clip-rule="evenodd"/>
    <g clip-path="url(#m)">
      <rect width="21" height="7" x="599" y="453" fill="#FFE1DB" rx="3"/>
      <path fill="#C6270C" fill-rule="evenodd" d="M608 456.5a1.5 1.5 0 1 0 3.001-.001 1.5 1.5 0 0 0-3.001.001Zm-5 0a1.5 1.5 0 1 0 3 0 1.5 1.5 0 0 0-3 0Zm11.5 1.5a1.5 1.5 0 1 1 .001-3.001A1.5 1.5 0 0 1 614.5 458Z" clip-rule="evenodd"/>
      <path fill="#060606" d="M624.523 426h2.412v-12.87h-2.142l-2.988 2.124v2.106l2.718-1.854V426ZM615.139 439h1.694l2.662-7.865h-1.375l-2.057 6.38-2.046-6.38h-1.529l2.651 7.865Zm6.271-6.699c.44 0 .792-.33.792-.759 0-.44-.352-.77-.792-.77-.44 0-.792.33-.792.77 0 .429.352.759.792.759Zm-.649 6.699h1.331v-5.753h-1.331V439Zm5.783.11c1.474 0 2.453-.66 2.64-1.87h-1.287c-.099.561-.517.88-1.32.88-.99 0-1.54-.616-1.584-1.705h4.213v-.385c0-2.057-1.287-2.904-2.717-2.904-1.639 0-2.86 1.188-2.86 2.97v.088c0 1.815 1.221 2.926 2.915 2.926Zm-1.529-3.586c.132-.891.671-1.43 1.474-1.43.825 0 1.331.44 1.397 1.43h-2.871Zm6.771 3.476h1.364l1.166-3.872 1.067 3.872h1.353l1.804-5.753h-1.298l-1.199 4.158-1.122-4.158h-1.111l-1.221 4.158-1.144-4.158h-1.419l1.76 5.753Z"/>
      <path fill="#FFE1DB" d="M574 425.97 590.97 409l16.971 16.97-16.97 16.97z"/>
      <mask id="n" width="15" height="10" x="584" y="421" maskUnits="userSpaceOnUse" style="mask-type:alpha">
        <path fill="#fff" d="M590.953 423.372a2.676 2.676 0 0 1 2.676 2.644H598c-1.076 2.823-3.802 4.828-6.995 4.828-3.161 0-5.864-1.965-6.962-4.744l-.033-.084h4.266v-.013a2.677 2.677 0 0 1 2.677-2.631Zm-2.677 2.644h-3.205l.028.065c.923 2.161 3.2 3.69 5.863 3.69 2.689 0 4.986-1.56 5.89-3.755h-3.223v.031a2.676 2.676 0 1 1-5.353 0v-.031Zm4.282 0h-2.482a1.123 1.123 0 0 1-.369 0h-.36v.031a1.605 1.605 0 0 0 3.211 0v-.031Zm-3.203-.128-.001.002a1.71 1.71 0 0 0-.007.126h.36a1.069 1.069 0 0 1-.352-.128Zm1.598-1.446a1.38 1.38 0 0 0-.112.004 1.078 1.078 0 0 1-.765 1.57h2.482a1.606 1.606 0 0 0-1.605-1.574Zm.042-3.254c3.193 0 5.919 2.004 6.995 4.828h-1.138c-.904-2.196-3.201-3.756-5.89-3.756-2.663 0-4.94 1.529-5.863 3.69l-.028.066H584c1.077-2.824 3.803-4.828 6.995-4.828Z"/>
      </mask>
      <g mask="url(#n)">
        <path fill="#C6270C" d="M599 418h-16v16h16v-16Z"/>
      </g>
    </g>
  </g>
  <path fill="#fff" d="M669 426c0 6.629-5.371 12-12 12s-12-5.371-12-12 5.371-12 12-12 12 5.371 12 12Z"/>
  <path fill="#000" fill-rule="evenodd" d="M668 426c0 6.077-4.923 11-11 11s-11-4.923-11-11 4.923-11 11-11 11 4.923 11 11Zm-6 .234a.47.47 0 0 1-.469.469h-3.828v3.828a.47.47 0 0 1-.469.469h-.468a.47.47 0 0 1-.469-.469v-3.828h-3.828a.47.47 0 0 1-.469-.469v-.468a.47.47 0 0 1 .469-.469h3.828v-3.828a.47.47 0 0 1 .469-.469h.468a.47.47 0 0 1 .469.469v3.828h3.828a.47.47 0 0 1 .469.469v.468ZM657 417c4.946 0 9 4.004 9 9 0 4.946-4.004 9-9 9-4.946 0-9-4.004-9-9 0-4.946 4.004-9 9-9Z" clip-rule="evenodd"/>
  <path fill="#fff" d="M572 426c0 6.629-5.371 12-12 12s-12-5.371-12-12 5.371-12 12-12 12 5.371 12 12Z"/>
  <path fill="#000" fill-rule="evenodd" d="M571 426c0 6.077-4.923 11-11 11s-11-4.923-11-11 4.923-11 11-11 11 4.923 11 11Zm-6.469.703h-9.062a.47.47 0 0 1-.469-.469v-.468a.47.47 0 0 1 .469-.469h9.062c.258 0 .258 1.406 0 1.406ZM560 417c4.946 0 9 4.004 9 9 0 4.946-4.004 9-9 9-4.946 0-9-4.004-9-9 0-4.946 4.004-9 9-9Z" clip-rule="evenodd"/>
  <path stroke="#060606" stroke-width="2" d="M668 426h40"/>
  <g clip-path="url(#o)">
    <path stroke="#FA4526" stroke-linecap="round" stroke-width="8" d="m590.941 273.468-3.978-3.978-27.15-27.15c-1.554-1.554-1.564-4.062-.024-5.602L589.527 207M624.527 273.468l3.978-3.978 27.15-27.15c1.554-1.554 1.564-4.062.024-5.602L625.941 207"/>
    <g filter="url(#p)">
      <path fill="#fff" d="M557 238.912 607.912 188l50.911 50.912-50.911 50.912z"/>
    </g>
    <path fill="#FA4526" fill-rule="evenodd" d="M659.658 239 608 187.343 556.342 239 608 290.658 659.658 239Zm-1.397 0L608 188.739 557.739 239 608 289.262 658.261 239Z" clip-rule="evenodd"/>
    <g clip-path="url(#q)">
      <rect width="21" height="7" x="598" y="266" fill="#FFE1DB" rx="3"/>
      <path fill="#C6270C" fill-rule="evenodd" d="M607 269.5a1.5 1.5 0 1 0 3.001-.001 1.5 1.5 0 0 0-3.001.001Zm-5 0a1.5 1.5 0 1 0 3 0 1.5 1.5 0 0 0-3 0Zm11.5 1.5a1.5 1.5 0 1 1 .001-3.001A1.5 1.5 0 0 1 613.5 271Z" clip-rule="evenodd"/>
      <path fill="#060606" d="M619.567 239h9.306v-1.854h-5.472l2.862-2.79c1.53-1.476 2.52-2.934 2.52-4.608 0-2.268-1.584-3.798-4.248-3.798-2.718 0-4.41 1.62-4.572 4.428h2.196c.216-1.818 1.026-2.556 2.304-2.556 1.242 0 1.926.756 1.926 1.962 0 1.224-.738 2.358-1.962 3.654l-4.86 5.13V239ZM611.276 252h1.694l2.662-7.865h-1.375l-2.057 6.38-2.046-6.38h-1.529l2.651 7.865Zm6.272-6.699c.44 0 .792-.33.792-.759 0-.44-.352-.77-.792-.77-.44 0-.792.33-.792.77 0 .429.352.759.792.759Zm-.649 6.699h1.331v-5.753h-1.331V252Zm5.783.11c1.474 0 2.453-.66 2.64-1.87h-1.287c-.099.561-.517.88-1.32.88-.99 0-1.54-.616-1.584-1.705h4.213v-.385c0-2.057-1.287-2.904-2.717-2.904-1.639 0-2.86 1.188-2.86 2.97v.088c0 1.815 1.221 2.926 2.915 2.926Zm-1.529-3.586c.132-.891.671-1.43 1.474-1.43.825 0 1.331.44 1.397 1.43h-2.871Zm6.771 3.476h1.364l1.166-3.872 1.067 3.872h1.353l1.804-5.753h-1.298l-1.199 4.158-1.122-4.158h-1.111l-1.221 4.158-1.144-4.158h-1.419l1.76 5.753Zm10.029.11c1.474 0 2.299-.671 2.299-1.837 0-1.221-.803-1.551-2.156-1.76-.913-.154-1.188-.319-1.188-.737 0-.407.341-.682.913-.682.616 0 .913.242 1.023.77h1.232c-.143-1.298-1.078-1.738-2.255-1.738-1.078 0-2.156.572-2.156 1.727 0 1.078.561 1.507 2.079 1.749.847.143 1.232.319 1.232.792 0 .484-.319.737-1.034.737-.781 0-1.078-.341-1.144-.924h-1.254c.055 1.221.924 1.903 2.409 1.903Z"/>
      <path fill="#FFE1DB" d="M573 238.97 589.97 222l16.971 16.97-16.97 16.97z"/>
      <mask id="r" width="15" height="10" x="583" y="234" maskUnits="userSpaceOnUse" style="mask-type:alpha">
        <path fill="#fff" d="M589.953 236.372a2.676 2.676 0 0 1 2.676 2.644H597c-1.076 2.823-3.802 4.828-6.995 4.828-3.161 0-5.864-1.965-6.962-4.744l-.033-.084h4.266v-.013a2.677 2.677 0 0 1 2.677-2.631Zm-2.677 2.644h-3.205l.028.065c.923 2.161 3.2 3.69 5.863 3.69 2.689 0 4.986-1.56 5.89-3.755h-3.223v.031a2.676 2.676 0 1 1-5.353 0v-.031Zm4.282 0h-2.482a1.123 1.123 0 0 1-.369 0h-.36v.031a1.605 1.605 0 0 0 3.211 0v-.031Zm-3.203-.128-.001.002a1.71 1.71 0 0 0-.007.126h.36a1.069 1.069 0 0 1-.352-.128Zm1.598-1.446a1.38 1.38 0 0 0-.112.004 1.078 1.078 0 0 1-.765 1.57h2.482a1.606 1.606 0 0 0-1.605-1.574Zm.042-3.254c3.193 0 5.919 2.004 6.995 4.828h-1.138c-.904-2.196-3.201-3.756-5.89-3.756-2.663 0-4.94 1.529-5.863 3.69l-.028.066H583c1.077-2.824 3.803-4.828 6.995-4.828Z"/>
      </mask>
      <g mask="url(#r)">
        <path fill="#C6270C" d="M598 231h-16v16h16v-16Z"/>
      </g>
    </g>
  </g>
  <path fill="#fff" d="M668 239c0 6.629-5.371 12-12 12s-12-5.371-12-12 5.371-12 12-12 12 5.371 12 12Z"/>
  <path fill="#000" fill-rule="evenodd" d="M667 239c0 6.077-4.923 11-11 11s-11-4.923-11-11 4.923-11 11-11 11 4.923 11 11Zm-6 .234a.47.47 0 0 1-.469.469h-3.828v3.828a.47.47 0 0 1-.469.469h-.468a.47.47 0 0 1-.469-.469v-3.828h-3.828a.47.47 0 0 1-.469-.469v-.468a.47.47 0 0 1 .469-.469h3.828v-3.828a.47.47 0 0 1 .469-.469h.468a.47.47 0 0 1 .469.469v3.828h3.828a.47.47 0 0 1 .469.469v.468ZM656 230c4.946 0 9 4.004 9 9 0 4.946-4.004 9-9 9-4.946 0-9-4.004-9-9 0-4.946 4.004-9 9-9Z" clip-rule="evenodd"/>
  <path fill="#fff" d="M571 239c0 6.629-5.371 12-12 12s-12-5.371-12-12 5.371-12 12-12 12 5.371 12 12Z"/>
  <path fill="#000" fill-rule="evenodd" d="M570 239c0 6.077-4.923 11-11 11s-11-4.923-11-11 4.923-11 11-11 11 4.923 11 11Zm-6.469.703h-9.062a.47.47 0 0 1-.469-.469v-.468a.47.47 0 0 1 .469-.469h9.062c.258 0 .258 1.406 0 1.406ZM559 230c4.946 0 9 4.004 9 9 0 4.946-4.004 9-9 9-4.946 0-9-4.004-9-9 0-4.946 4.004-9 9-9Z" clip-rule="evenodd"/>
  <path stroke="#060606" stroke-width="2" d="M667 239h40"/>
  <g clip-path="url(#s)">
    <path stroke="#FA4526" stroke-linecap="round" stroke-width="8" d="m590.941 85.468-3.978-3.978-27.15-27.15c-1.554-1.554-1.564-4.062-.024-5.602L589.527 19M624.527 85.468l3.978-3.978 27.15-27.15c1.554-1.554 1.564-4.062.024-5.602L625.941 19"/>
    <g filter="url(#t)">
      <path fill="#fff" d="M557 50.912 607.912 0l50.912 50.912-50.912 50.912z"/>
    </g>
    <path fill="#FA4526" fill-rule="evenodd" d="M659.658 51 608-.658 556.342 51 608 102.658 659.658 51Zm-1.397 0L608 .739 557.739 51 608 101.261 658.261 51Z" clip-rule="evenodd"/>
    <g clip-path="url(#u)">
      <rect width="21" height="7" x="598" y="78" fill="#FFE1DB" rx="3"/>
      <path fill="#C6270C" fill-rule="evenodd" d="M607 81.5a1.5 1.5 0 1 0 3 0 1.5 1.5 0 0 0-3 0Zm-5 0a1.5 1.5 0 1 0 3 0 1.5 1.5 0 0 0-3 0Zm11.5 1.5a1.5 1.5 0 1 1 0-3 1.5 1.5 0 0 1 0 3Z" clip-rule="evenodd"/>
      <path fill="#060606" d="M623.523 51h2.412V38.13h-2.142l-2.988 2.124v2.106l2.718-1.854V51ZM614.139 64h1.694l2.662-7.865h-1.375l-2.057 6.38-2.046-6.38h-1.529L614.139 64Zm6.271-6.699c.44 0 .792-.33.792-.759 0-.44-.352-.77-.792-.77-.44 0-.792.33-.792.77 0 .429.352.759.792.759ZM619.761 64h1.331v-5.753h-1.331V64Zm5.783.11c1.474 0 2.453-.66 2.64-1.87h-1.287c-.099.561-.517.88-1.32.88-.99 0-1.54-.616-1.584-1.705h4.213v-.385c0-2.057-1.287-2.904-2.717-2.904-1.639 0-2.86 1.188-2.86 2.97v.088c0 1.815 1.221 2.926 2.915 2.926Zm-1.529-3.586c.132-.891.671-1.43 1.474-1.43.825 0 1.331.44 1.397 1.43h-2.871ZM630.786 64h1.364l1.166-3.872L634.383 64h1.353l1.804-5.753h-1.298l-1.199 4.158-1.122-4.158h-1.111l-1.221 4.158-1.144-4.158h-1.419l1.76 5.753Z"/>
      <path fill="#FFE1DB" d="M573 50.97 589.97 34l16.971 16.97-16.97 16.971z"/>
      <mask id="v" width="15" height="10" x="583" y="46" maskUnits="userSpaceOnUse" style="mask-type:alpha">
        <path fill="#fff" d="M589.953 48.372a2.676 2.676 0 0 1 2.676 2.644H597c-1.076 2.823-3.802 4.828-6.995 4.828-3.161 0-5.864-1.965-6.962-4.744l-.033-.084h4.266v-.013a2.676 2.676 0 0 1 2.677-2.631Zm-2.677 2.644h-3.205l.028.065c.923 2.161 3.2 3.69 5.863 3.69 2.689 0 4.986-1.56 5.89-3.755h-3.223v.031a2.676 2.676 0 0 1-5.353 0v-.031Zm4.282 0h-2.482a1.081 1.081 0 0 1-.369 0h-.36v.031a1.606 1.606 0 0 0 3.211 0v-.031Zm-3.203-.128-.001.002a1.746 1.746 0 0 0-.007.126h.36a1.068 1.068 0 0 1-.352-.128Zm1.598-1.446a1.59 1.59 0 0 0-.112.004 1.077 1.077 0 0 1-.765 1.57h2.482a1.605 1.605 0 0 0-1.605-1.574Zm.042-3.255c3.193 0 5.919 2.005 6.995 4.829h-1.138c-.904-2.196-3.201-3.756-5.89-3.756-2.663 0-4.94 1.529-5.863 3.69l-.028.066H583c1.077-2.824 3.803-4.828 6.995-4.828Z"/>
      </mask>
      <g mask="url(#v)">
        <path fill="#C6270C" d="M598 43h-16v16h16V43Z"/>
      </g>
    </g>
  </g>
  <path fill="#fff" d="M668 51c0 6.629-5.371 12-12 12s-12-5.371-12-12 5.371-12 12-12 12 5.371 12 12Z"/>
  <path fill="#000" fill-rule="evenodd" d="M667 51c0 6.077-4.923 11-11 11s-11-4.923-11-11 4.923-11 11-11 11 4.923 11 11Zm-6 .234a.47.47 0 0 1-.469.47h-3.828v3.827a.47.47 0 0 1-.469.469h-.468a.47.47 0 0 1-.469-.469v-3.828h-3.828a.47.47 0 0 1-.469-.469v-.468a.47.47 0 0 1 .469-.47h3.828V46.47a.47.47 0 0 1 .469-.469h.468a.47.47 0 0 1 .469.469v3.828h3.828a.47.47 0 0 1 .469.469v.468ZM656 42c4.946 0 9 4.004 9 9 0 4.946-4.004 9-9 9-4.946 0-9-4.004-9-9 0-4.946 4.004-9 9-9Z" clip-rule="evenodd"/>
  <path fill="#fff" d="M571 51c0 6.629-5.371 12-12 12s-12-5.371-12-12 5.371-12 12-12 12 5.371 12 12Z"/>
  <path fill="#000" fill-rule="evenodd" d="M570 51c0 6.077-4.923 11-11 11s-11-4.923-11-11 4.923-11 11-11 11 4.923 11 11Zm-6.469.703h-9.062a.47.47 0 0 1-.469-.469v-.468a.47.47 0 0 1 .469-.47h9.062c.258 0 .258 1.407 0 1.407ZM559 42c4.946 0 9 4.004 9 9 0 4.946-4.004 9-9 9-4.946 0-9-4.004-9-9 0-4.946 4.004-9 9-9Z" clip-rule="evenodd"/>
  <path stroke="#060606" stroke-width="2" d="M667 51h40M742 145.042h-20.429a4 4 0 0 1-4-4V54.958M693 426h20.429a4 4 0 0 0 4-4v-90M706 50.917h7.536a4 4 0 0 1 4 4v82.166M742 330h-20.429a4 4 0 0 0-4 4v90"/>
  <path fill="#fff" d="M1032 144c0 6.629-5.37 12-12 12s-12-5.371-12-12 5.37-12 12-12 12 5.371 12 12Z"/>
  <path fill="#000" fill-rule="evenodd" d="M1031 144c0 6.077-4.92 11-11 11s-11-4.923-11-11 4.92-11 11-11 11 4.923 11 11Zm-6 .234a.47.47 0 0 1-.47.469h-3.83v3.828a.47.47 0 0 1-.47.469h-.46a.47.47 0 0 1-.47-.469v-3.828h-3.83a.47.47 0 0 1-.47-.469v-.468a.47.47 0 0 1 .47-.469h3.83v-3.828a.47.47 0 0 1 .47-.469h.46c.26 0 .47.211.47.469v3.828h3.83c.26 0 .47.211.47.469v.468Zm-5-9.234c4.95 0 9 4.004 9 9 0 4.946-4 9-9 9-4.95 0-9-4.004-9-9 0-4.946 4-9 9-9Z" clip-rule="evenodd"/>
  <path fill="#fff" d="M766 144c0 6.629-5.371 12-12 12s-12-5.371-12-12 5.371-12 12-12 12 5.371 12 12Z"/>
  <path fill="#000" fill-rule="evenodd" d="M765 144c0 6.077-4.923 11-11 11s-11-4.923-11-11 4.923-11 11-11 11 4.923 11 11Zm-6.469.703h-9.062a.47.47 0 0 1-.469-.469v-.468a.47.47 0 0 1 .469-.469h9.062c.258 0 .258 1.406 0 1.406ZM754 135c4.946 0 9 4.004 9 9 0 4.946-4.004 9-9 9-4.946 0-9-4.004-9-9 0-4.946 4.004-9 9-9Z" clip-rule="evenodd"/>
  <g clip-path="url(#w)">
    <rect width="250" height="132" x="762" y="78" fill="#769BD6" rx="4"/>
    <g filter="url(#x)">
      <path fill="#fff" d="M767 70h240v148H767z"/>
    </g>
    <path stroke="#DADADA" stroke-linecap="square" d="M1006.5 165.5h-239"/>
    <path fill="#769BD6" fill-rule="evenodd" d="M1008 69H766v150h242V69Zm-1 1H767v148h240V70Z" clip-rule="evenodd"/>
    <path fill="#E3EDFC" d="M767 70h240v96H767z"/>
    <mask id="y" width="28" height="28" x="873" y="104" maskUnits="userSpaceOnUse" style="mask-type:alpha">
      <path fill="#fff" d="M899 104a2 2 0 0 1 2 2v24a2 2 0 0 1-2 2h-24a2 2 0 0 1-2-2v-24a2 2 0 0 1 2-2h24Zm0 22h-24v4h24v-4Zm0-20h-24v18.924l5.731-6.164a1 1 0 0 1 1.414-.052l.026.025 3.267 3.267 5.296-6.918a1 1 0 0 1 1.612.033l6.654 9.463V106Zm-17.562 15-2.813 3h5.625l-2.812-3Zm10.062-3.438L886.625 124h9.75l-4.875-6.438ZM881 110a2 2 0 1 1 .001 3.999A2 2 0 0 1 881 110Z"/>
    </mask>
    <g mask="url(#y)">
      <path fill="#003285" d="M903 102h-32v32h32v-32Z"/>
    </g>
    <path fill="#E3EDFC" d="M826 192h108v18H826z"/>
    <path fill="#060606" d="M831.628 204.099c1.452 0 2.431-.781 2.431-2.486v-5.478h-1.474v5.445c0 .968-.462 1.342-1.177 1.342-.462 0-.737-.088-1.012-.198v1.144c.253.132.583.231 1.232.231Zm6.872.011c1.694 0 2.959-1.166 2.959-2.959v-.088c0-1.76-1.265-2.937-2.948-2.937-1.694 0-2.959 1.188-2.959 2.97v.088c0 1.749 1.254 2.926 2.948 2.926Zm.011-1.034c-1.012 0-1.595-.737-1.595-1.914v-.088c0-1.188.605-1.903 1.595-1.903s1.584.726 1.584 1.914v.077c0 1.177-.594 1.914-1.584 1.914Zm6.375 1.034c.935 0 1.54-.451 1.826-1.012V204h1.331v-5.753h-1.331v3.421c0 .913-.627 1.375-1.342 1.375-.77 0-1.133-.396-1.133-1.265v-3.531h-1.331v3.685c0 1.529.847 2.178 1.98 2.178Zm5.035-.11h1.331v-2.992c0-1.221.704-1.595 1.87-1.606v-1.243c-.968.011-1.507.44-1.87 1.166v-1.078h-1.331V204Zm4.673 0h1.331v-3.388c0-.913.605-1.375 1.353-1.375.792 0 1.144.396 1.144 1.265V204h1.331v-3.619c0-1.584-.814-2.255-1.969-2.255-.946 0-1.584.473-1.859 1.034v-.913h-1.331V204Zm9.522.11c1.474 0 2.453-.66 2.64-1.87h-1.287c-.099.561-.517.88-1.32.88-.99 0-1.54-.616-1.584-1.705h4.213v-.385c0-2.057-1.287-2.904-2.717-2.904-1.639 0-2.86 1.188-2.86 2.97v.088c0 1.815 1.221 2.926 2.915 2.926Zm-1.529-3.586c.132-.891.671-1.43 1.474-1.43.825 0 1.331.44 1.397 1.43h-2.871Zm6.178 5.445h1.309l3.135-7.722h-1.298l-1.408 3.707-1.529-3.707h-1.441l2.277 5.17-1.045 2.552ZM879.111 204h1.474v-6.71h2.189v-1.155h-5.852v1.155h2.189V204Zm5.818.11c.88 0 1.386-.319 1.76-.814V204h1.309v-3.773c0-1.573-1.012-2.101-2.299-2.101s-2.354.561-2.464 1.903h1.287c.066-.572.407-.902 1.1-.902.781 0 1.045.385 1.045 1.155v.297h-.715c-1.65 0-2.948.484-2.948 1.826 0 1.199.869 1.705 1.925 1.705Zm.319-.957c-.66 0-.924-.319-.924-.803 0-.704.649-.935 1.661-.935h.682v.572c0 .737-.605 1.166-1.419 1.166Zm4.575.847h1.331v-2.992c0-1.221.704-1.595 1.87-1.606v-1.243c-.968.011-1.507.44-1.87 1.166v-1.078h-1.331V204Zm7.007 2.112c1.782 0 2.915-.847 2.926-2.541v-5.324h-1.331v.88c-.33-.572-.902-1.001-1.848-1.001-1.485 0-2.585 1.21-2.585 2.827v.077c0 1.661 1.111 2.739 2.552 2.739a2.24 2.24 0 0 0 1.881-1.067v.847c0 1.034-.572 1.551-1.606 1.551-.869 0-1.309-.33-1.419-.902h-1.342c.154 1.1.968 1.914 2.772 1.914Zm.044-3.366c-.858 0-1.518-.66-1.518-1.727v-.088c0-1.045.572-1.76 1.562-1.76.957 0 1.551.649 1.551 1.738v.077c0 1.1-.671 1.76-1.595 1.76Zm7.294 1.364c1.474 0 2.453-.66 2.64-1.87h-1.287c-.099.561-.517.88-1.32.88-.99 0-1.54-.616-1.584-1.705h4.213v-.385c0-2.057-1.287-2.904-2.717-2.904-1.639 0-2.86 1.188-2.86 2.97v.088c0 1.815 1.221 2.926 2.915 2.926Zm-1.529-3.586c.132-.891.671-1.43 1.474-1.43.825 0 1.331.44 1.397 1.43h-2.871Zm7.638 3.575c.407 0 .693-.066.902-.143V202.9c-.187.077-.385.11-.649.11-.418 0-.66-.231-.66-.737v-3.025h1.265v-1.001h-1.265v-1.265h-1.331v1.265h-.77v1.001h.77v3.146c0 1.089.594 1.705 1.738 1.705Zm3.084-6.798c.44 0 .792-.33.792-.759 0-.44-.352-.77-.792-.77-.44 0-.792.33-.792.77 0 .429.352.759.792.759Zm-.649 6.699h1.331v-5.753h-1.331V204Zm3.254 0h1.331v-3.388c0-.913.605-1.375 1.353-1.375.792 0 1.144.396 1.144 1.265V204h1.331v-3.619c0-1.584-.814-2.255-1.969-2.255-.946 0-1.584.473-1.859 1.034v-.913h-1.331V204Zm9.445 2.112c1.782 0 2.915-.847 2.926-2.541v-5.324h-1.331v.88c-.33-.572-.902-1.001-1.848-1.001-1.485 0-2.585 1.21-2.585 2.827v.077c0 1.661 1.111 2.739 2.552 2.739a2.24 2.24 0 0 0 1.881-1.067v.847c0 1.034-.572 1.551-1.606 1.551-.869 0-1.309-.33-1.419-.902h-1.342c.154 1.1.968 1.914 2.772 1.914Zm.044-3.366c-.858 0-1.518-.66-1.518-1.727v-.088c0-1.045.572-1.76 1.562-1.76.957 0 1.551.649 1.551 1.738v.077c0 1.1-.671 1.76-1.595 1.76ZM829.952 184.13c2.132 0 3.484-1.066 3.484-2.782 0-1.235-.715-2.002-1.794-2.249.897-.338 1.508-.975 1.508-2.028 0-1.378-1.131-2.496-3.068-2.496-1.989 0-3.198 1.235-3.289 2.847h1.534c.104-.936.741-1.534 1.729-1.534.962 0 1.443.559 1.443 1.313 0 .871-.481 1.365-1.547 1.365h-.663v1.235h.715c1.131 0 1.677.507 1.677 1.521 0 .923-.559 1.508-1.768 1.508-1.248 0-1.794-.728-1.885-1.703h-1.573c.078 1.781 1.287 3.003 3.497 3.003Zm8.311-.13h1.729v-3.809h3.172v-1.339h-3.172v-2.769h4.03v-1.378h-5.759V184Zm6.891 0h1.573v-3.536c0-1.443.832-1.885 2.21-1.898v-1.469c-1.144.013-1.781.52-2.21 1.378v-1.274h-1.573V184Zm8.017.13c1.742 0 2.899-.78 3.12-2.21h-1.521c-.117.663-.611 1.04-1.56 1.04-1.17 0-1.82-.728-1.872-2.015h4.979v-.455c0-2.431-1.521-3.432-3.211-3.432-1.937 0-3.38 1.404-3.38 3.51v.104c0 2.145 1.443 3.458 3.445 3.458Zm-1.807-4.238c.156-1.053.793-1.69 1.742-1.69.975 0 1.573.52 1.651 1.69h-3.393Zm9.348 4.238c1.742 0 2.899-.78 3.12-2.21h-1.521c-.117.663-.611 1.04-1.56 1.04-1.17 0-1.82-.728-1.872-2.015h4.979v-.455c0-2.431-1.521-3.432-3.211-3.432-1.937 0-3.38 1.404-3.38 3.51v.104c0 2.145 1.443 3.458 3.445 3.458Zm-1.807-4.238c.156-1.053.793-1.69 1.742-1.69.975 0 1.573.52 1.651 1.69h-3.393Zm9.586 4.108h1.56v-7.02l2.821 7.02h.559l2.769-7.02V184h1.729v-9.295h-2.288l-2.392 6.344-2.444-6.344h-2.314V184Zm14.387.13c1.742 0 2.899-.78 3.12-2.21h-1.521c-.117.663-.611 1.04-1.56 1.04-1.17 0-1.82-.728-1.872-2.015h4.979v-.455c0-2.431-1.521-3.432-3.211-3.432-1.937 0-3.38 1.404-3.38 3.51v.104c0 2.145 1.443 3.458 3.445 3.458Zm-1.807-4.238c.156-1.053.793-1.69 1.742-1.69.975 0 1.573.52 1.651 1.69h-3.393Zm8.203 4.238c1.04 0 1.638-.377 2.08-.962V184h1.547v-4.459c0-1.859-1.196-2.483-2.717-2.483-1.521 0-2.782.663-2.912 2.249h1.521c.078-.676.481-1.066 1.3-1.066.923 0 1.235.455 1.235 1.365v.351h-.845c-1.95 0-3.484.572-3.484 2.158 0 1.417 1.027 2.015 2.275 2.015Zm.377-1.131c-.78 0-1.092-.377-1.092-.949 0-.832.767-1.105 1.963-1.105h.806v.676c0 .871-.715 1.378-1.677 1.378Zm5.092 1.001h1.573v-9.945h-1.573V184Zm5.817.13c1.742 0 2.717-.793 2.717-2.171 0-1.443-.949-1.833-2.548-2.08-1.079-.182-1.404-.377-1.404-.871 0-.481.403-.806 1.079-.806.728 0 1.079.286 1.209.91h1.456c-.169-1.534-1.274-2.054-2.665-2.054-1.274 0-2.548.676-2.548 2.041 0 1.274.663 1.781 2.457 2.067 1.001.169 1.456.377 1.456.936 0 .572-.377.871-1.222.871-.923 0-1.274-.403-1.352-1.092h-1.482c.065 1.443 1.092 2.249 2.847 2.249Zm11.562 0c2.821 0 4.68-2.041 4.68-4.758v-.104c0-2.73-1.911-4.693-4.68-4.693-2.756 0-4.706 2.015-4.706 4.732v.104c0 2.678 1.859 4.719 4.706 4.719Zm.026-1.391c-1.69 0-2.925-1.313-2.925-3.341v-.104c0-2.002 1.079-3.341 2.899-3.341s2.886 1.417 2.886 3.328v.104c0 2.015-1.105 3.354-2.86 3.354Zm6.543 1.261h1.573v-5.616h2.392V184h1.573v-5.616h1.547v-1.183h-1.547v-.975c0-.585.26-1.001.897-1.001.286 0 .533.052.715.117v-1.222a2.693 2.693 0 0 0-.91-.13c-1.443 0-2.275.806-2.275 2.301v.91h-2.392v-.897c0-.585.26-1.001.897-1.001.286 0 .52.065.702.13v-1.222a2.664 2.664 0 0 0-.897-.13c-1.456 0-2.275.793-2.275 2.301v.819h-.923v1.183h.923V184Zm11.096.13c1.742 0 2.899-.78 3.12-2.21h-1.521c-.117.663-.611 1.04-1.56 1.04-1.17 0-1.82-.728-1.872-2.015h4.979v-.455c0-2.431-1.521-3.432-3.211-3.432-1.937 0-3.38 1.404-3.38 3.51v.104c0 2.145 1.443 3.458 3.445 3.458Zm-1.807-4.238c.156-1.053.793-1.69 1.742-1.69.975 0 1.573.52 1.651 1.69h-3.393Zm6.358 4.108h1.573v-3.536c0-1.443.832-1.885 2.21-1.898v-1.469c-1.144.013-1.781.52-2.21 1.378v-1.274h-1.573V184Z"/>
    <path fill="#E3EDFC" d="M776 174h36v36h-36z"/>
    <mask id="z" width="22" height="22" x="783" y="181" maskUnits="userSpaceOnUse" style="mask-type:alpha">
      <path fill="#fff" d="M803 181.5a1.5 1.5 0 0 1 1.5 1.5v18a1.5 1.5 0 0 1-1.5 1.5h-18a1.5 1.5 0 0 1-1.5-1.5v-18a1.5 1.5 0 0 1 1.5-1.5h18Zm0 16.5h-18v3h18v-3Zm0-15h-18v14.193l4.299-4.623a.748.748 0 0 1 1.059-.039l.02.019 2.45 2.45 3.973-5.189a.75.75 0 0 1 1.209.025l4.99 7.097V183Zm-13.172 11.25-2.109 2.25h4.219l-2.11-2.25Zm7.547-2.578-3.656 4.828h7.312l-3.656-4.828ZM789.5 186a1.5 1.5 0 1 1-.001 3.001A1.5 1.5 0 0 1 789.5 186Z"/>
    </mask>
    <g mask="url(#z)">
      <path fill="#003285" d="M806 180h-24v24h24v-24Z"/>
    </g>
    <rect width="21" height="7" x="979" y="203" fill="#E3EDFC" rx="3"/>
    <path fill="#003285" fill-rule="evenodd" d="M988 206.5a1.5 1.5 0 1 0 3.001-.001 1.5 1.5 0 0 0-3.001.001Zm-5 0a1.5 1.5 0 1 0 3 0 1.5 1.5 0 0 0-3 0Zm11.5 1.5a1.5 1.5 0 1 1 .001-3.001A1.5 1.5 0 0 1 994.5 208Z" clip-rule="evenodd"/>
  </g>
  <path fill="#fff" d="M1032 331c0 6.629-5.37 12-12 12s-12-5.371-12-12 5.37-12 12-12 12 5.371 12 12Z"/>
  <path fill="#000" fill-rule="evenodd" d="M1031 331c0 6.077-4.92 11-11 11s-11-4.923-11-11 4.92-11 11-11 11 4.923 11 11Zm-6 .234a.47.47 0 0 1-.47.469h-3.83v3.828a.47.47 0 0 1-.47.469h-.46a.47.47 0 0 1-.47-.469v-3.828h-3.83a.47.47 0 0 1-.47-.469v-.468a.47.47 0 0 1 .47-.469h3.83v-3.828a.47.47 0 0 1 .47-.469h.46c.26 0 .47.211.47.469v3.828h3.83c.26 0 .47.211.47.469v.468Zm-5-9.234c4.95 0 9 4.004 9 9 0 4.946-4 9-9 9-4.95 0-9-4.004-9-9 0-4.946 4-9 9-9Z" clip-rule="evenodd"/>
  <path fill="#fff" d="M766 331c0 6.629-5.371 12-12 12s-12-5.371-12-12 5.371-12 12-12 12 5.371 12 12Z"/>
  <path fill="#000" fill-rule="evenodd" d="M765 331c0 6.077-4.923 11-11 11s-11-4.923-11-11 4.923-11 11-11 11 4.923 11 11Zm-6.469.703h-9.062a.47.47 0 0 1-.469-.469v-.468a.47.47 0 0 1 .469-.469h9.062c.258 0 .258 1.406 0 1.406ZM754 322c4.946 0 9 4.004 9 9 0 4.946-4.004 9-9 9-4.946 0-9-4.004-9-9 0-4.946 4.004-9 9-9Z" clip-rule="evenodd"/>
  <g clip-path="url(#A)">
    <rect width="250" height="132" x="762" y="265" fill="#769BD6" rx="4"/>
    <g filter="url(#B)">
      <path fill="#fff" d="M767 257h240v148H767z"/>
    </g>
    <path stroke="#DADADA" stroke-linecap="square" d="M1006.5 352.5h-239"/>
    <path fill="#769BD6" fill-rule="evenodd" d="M1008 256H766v150h242V256Zm-1 1H767v148h240V257Z" clip-rule="evenodd"/>
    <path fill="#E3EDFC" d="M767 257h240v96H767z"/>
    <mask id="C" width="28" height="28" x="873" y="291" maskUnits="userSpaceOnUse" style="mask-type:alpha">
      <path fill="#fff" d="M899 291a2 2 0 0 1 2 2v24a2 2 0 0 1-2 2h-24a2 2 0 0 1-2-2v-24a2 2 0 0 1 2-2h24Zm0 22h-24v4h24v-4Zm0-20h-24v18.924l5.731-6.164a1 1 0 0 1 1.414-.052l.026.025 3.267 3.267 5.296-6.918a1 1 0 0 1 1.612.033l6.654 9.463V293Zm-17.562 15-2.813 3h5.625l-2.812-3Zm10.062-3.438L886.625 311h9.75l-4.875-6.438ZM881 297a2 2 0 1 1 .001 3.999A2 2 0 0 1 881 297Z"/>
    </mask>
    <g mask="url(#C)">
      <path fill="#003285" d="M903 289h-32v32h32v-32Z"/>
    </g>
    <path fill="#E3EDFC" d="M826 379h108v18H826z"/>
    <path fill="#060606" d="M831.628 391.099c1.452 0 2.431-.781 2.431-2.486v-5.478h-1.474v5.445c0 .968-.462 1.342-1.177 1.342-.462 0-.737-.088-1.012-.198v1.144c.253.132.583.231 1.232.231Zm6.872.011c1.694 0 2.959-1.166 2.959-2.959v-.088c0-1.76-1.265-2.937-2.948-2.937-1.694 0-2.959 1.188-2.959 2.97v.088c0 1.749 1.254 2.926 2.948 2.926Zm.011-1.034c-1.012 0-1.595-.737-1.595-1.914v-.088c0-1.188.605-1.903 1.595-1.903s1.584.726 1.584 1.914v.077c0 1.177-.594 1.914-1.584 1.914Zm6.375 1.034c.935 0 1.54-.451 1.826-1.012V391h1.331v-5.753h-1.331v3.421c0 .913-.627 1.375-1.342 1.375-.77 0-1.133-.396-1.133-1.265v-3.531h-1.331v3.685c0 1.529.847 2.178 1.98 2.178Zm5.035-.11h1.331v-2.992c0-1.221.704-1.595 1.87-1.606v-1.243c-.968.011-1.507.44-1.87 1.166v-1.078h-1.331V391Zm4.673 0h1.331v-3.388c0-.913.605-1.375 1.353-1.375.792 0 1.144.396 1.144 1.265V391h1.331v-3.619c0-1.584-.814-2.255-1.969-2.255-.946 0-1.584.473-1.859 1.034v-.913h-1.331V391Zm9.522.11c1.474 0 2.453-.66 2.64-1.87h-1.287c-.099.561-.517.88-1.32.88-.99 0-1.54-.616-1.584-1.705h4.213v-.385c0-2.057-1.287-2.904-2.717-2.904-1.639 0-2.86 1.188-2.86 2.97v.088c0 1.815 1.221 2.926 2.915 2.926Zm-1.529-3.586c.132-.891.671-1.43 1.474-1.43.825 0 1.331.44 1.397 1.43h-2.871Zm6.178 5.445h1.309l3.135-7.722h-1.298l-1.408 3.707-1.529-3.707h-1.441l2.277 5.17-1.045 2.552ZM879.111 391h1.474v-6.71h2.189v-1.155h-5.852v1.155h2.189V391Zm5.818.11c.88 0 1.386-.319 1.76-.814V391h1.309v-3.773c0-1.573-1.012-2.101-2.299-2.101s-2.354.561-2.464 1.903h1.287c.066-.572.407-.902 1.1-.902.781 0 1.045.385 1.045 1.155v.297h-.715c-1.65 0-2.948.484-2.948 1.826 0 1.199.869 1.705 1.925 1.705Zm.319-.957c-.66 0-.924-.319-.924-.803 0-.704.649-.935 1.661-.935h.682v.572c0 .737-.605 1.166-1.419 1.166Zm4.575.847h1.331v-2.992c0-1.221.704-1.595 1.87-1.606v-1.243c-.968.011-1.507.44-1.87 1.166v-1.078h-1.331V391Zm7.007 2.112c1.782 0 2.915-.847 2.926-2.541v-5.324h-1.331v.88c-.33-.572-.902-1.001-1.848-1.001-1.485 0-2.585 1.21-2.585 2.827v.077c0 1.661 1.111 2.739 2.552 2.739a2.24 2.24 0 0 0 1.881-1.067v.847c0 1.034-.572 1.551-1.606 1.551-.869 0-1.309-.33-1.419-.902h-1.342c.154 1.1.968 1.914 2.772 1.914Zm.044-3.366c-.858 0-1.518-.66-1.518-1.727v-.088c0-1.045.572-1.76 1.562-1.76.957 0 1.551.649 1.551 1.738v.077c0 1.1-.671 1.76-1.595 1.76Zm7.294 1.364c1.474 0 2.453-.66 2.64-1.87h-1.287c-.099.561-.517.88-1.32.88-.99 0-1.54-.616-1.584-1.705h4.213v-.385c0-2.057-1.287-2.904-2.717-2.904-1.639 0-2.86 1.188-2.86 2.97v.088c0 1.815 1.221 2.926 2.915 2.926Zm-1.529-3.586c.132-.891.671-1.43 1.474-1.43.825 0 1.331.44 1.397 1.43h-2.871Zm7.638 3.575c.407 0 .693-.066.902-.143V389.9c-.187.077-.385.11-.649.11-.418 0-.66-.231-.66-.737v-3.025h1.265v-1.001h-1.265v-1.265h-1.331v1.265h-.77v1.001h.77v3.146c0 1.089.594 1.705 1.738 1.705Zm3.084-6.798c.44 0 .792-.33.792-.759 0-.44-.352-.77-.792-.77-.44 0-.792.33-.792.77 0 .429.352.759.792.759Zm-.649 6.699h1.331v-5.753h-1.331V391Zm3.254 0h1.331v-3.388c0-.913.605-1.375 1.353-1.375.792 0 1.144.396 1.144 1.265V391h1.331v-3.619c0-1.584-.814-2.255-1.969-2.255-.946 0-1.584.473-1.859 1.034v-.913h-1.331V391Zm9.445 2.112c1.782 0 2.915-.847 2.926-2.541v-5.324h-1.331v.88c-.33-.572-.902-1.001-1.848-1.001-1.485 0-2.585 1.21-2.585 2.827v.077c0 1.661 1.111 2.739 2.552 2.739a2.24 2.24 0 0 0 1.881-1.067v.847c0 1.034-.572 1.551-1.606 1.551-.869 0-1.309-.33-1.419-.902h-1.342c.154 1.1.968 1.914 2.772 1.914Zm.044-3.366c-.858 0-1.518-.66-1.518-1.727v-.088c0-1.045.572-1.76 1.562-1.76.957 0 1.551.649 1.551 1.738v.077c0 1.1-.671 1.76-1.595 1.76ZM831.135 371.13c2.21 0 3.796-1.131 4.069-3.367h-1.69c-.182 1.313-1.092 1.963-2.379 1.963-1.716 0-2.717-1.235-2.717-3.328v-.104c0-2.08 1.066-3.354 2.704-3.354 1.339 0 2.028.637 2.223 1.872h1.755c-.208-2.184-1.859-3.25-3.991-3.25-2.587 0-4.511 1.95-4.511 4.745v.104c0 2.86 1.625 4.719 4.537 4.719Zm8.478 0c2.002 0 3.497-1.378 3.497-3.497v-.104c0-2.08-1.495-3.471-3.484-3.471-2.002 0-3.497 1.404-3.497 3.51v.104c0 2.067 1.482 3.458 3.484 3.458Zm.013-1.222c-1.196 0-1.885-.871-1.885-2.262v-.104c0-1.404.715-2.249 1.885-2.249s1.872.858 1.872 2.262v.091c0 1.391-.702 2.262-1.872 2.262Zm4.906 1.092h1.573v-4.004c0-1.079.715-1.625 1.599-1.625.936 0 1.352.468 1.352 1.495V371h1.573v-4.277c0-1.872-.962-2.665-2.327-2.665-1.118 0-1.872.559-2.197 1.222v-1.079h-1.573V371Zm10.223.117c.481 0 .819-.078 1.066-.169V369.7c-.221.091-.455.13-.767.13-.494 0-.78-.273-.78-.871v-3.575h1.495v-1.183h-1.495v-1.495h-1.573v1.495h-.91v1.183h.91v3.718c0 1.287.702 2.015 2.054 2.015Zm4.316.013c1.04 0 1.638-.377 2.08-.962V371h1.547v-4.459c0-1.859-1.196-2.483-2.717-2.483-1.521 0-2.782.663-2.912 2.249h1.521c.078-.676.481-1.066 1.3-1.066.923 0 1.235.455 1.235 1.365v.351h-.845c-1.95 0-3.484.572-3.484 2.158 0 1.417 1.027 2.015 2.275 2.015Zm.377-1.131c-.78 0-1.092-.377-1.092-.949 0-.832.767-1.105 1.963-1.105h.806v.676c0 .871-.715 1.378-1.677 1.378Zm8.03 1.131c1.846 0 3.029-1.105 3.146-2.665h-1.443c-.091.962-.806 1.456-1.638 1.456-1.157 0-1.885-.78-1.885-2.262v-.104c0-1.404.767-2.236 1.846-2.236.832 0 1.43.377 1.56 1.287h1.521c-.182-1.872-1.599-2.548-3.107-2.548-1.898 0-3.432 1.365-3.432 3.523v.104c0 2.171 1.482 3.445 3.432 3.445Zm6.815-.013c.481 0 .819-.078 1.066-.169V369.7c-.221.091-.455.13-.767.13-.494 0-.78-.273-.78-.871v-3.575h1.495v-1.183h-1.495v-1.495h-1.573v1.495h-.91v1.183h.91v3.718c0 1.287.702 2.015 2.054 2.015Zm2.524-.117h1.573v-9.945h-1.573V371Zm6.48.13c1.742 0 2.899-.78 3.12-2.21h-1.521c-.117.663-.611 1.04-1.56 1.04-1.17 0-1.82-.728-1.872-2.015h4.979v-.455c0-2.431-1.521-3.432-3.211-3.432-1.937 0-3.38 1.404-3.38 3.51v.104c0 2.145 1.443 3.458 3.445 3.458Zm-1.807-4.238c.156-1.053.793-1.69 1.742-1.69.975 0 1.573.52 1.651 1.69h-3.393Zm8.749 4.238c1.742 0 2.717-.793 2.717-2.171 0-1.443-.949-1.833-2.548-2.08-1.079-.182-1.404-.377-1.404-.871 0-.481.403-.806 1.079-.806.728 0 1.079.286 1.209.91h1.456c-.169-1.534-1.274-2.054-2.665-2.054-1.274 0-2.548.676-2.548 2.041 0 1.274.663 1.781 2.457 2.067 1.001.169 1.456.377 1.456.936 0 .572-.377.871-1.222.871-.923 0-1.274-.403-1.352-1.092h-1.482c.065 1.443 1.092 2.249 2.847 2.249Zm6.436 0c1.742 0 2.717-.793 2.717-2.171 0-1.443-.949-1.833-2.548-2.08-1.079-.182-1.404-.377-1.404-.871 0-.481.403-.806 1.079-.806.728 0 1.079.286 1.209.91h1.456c-.169-1.534-1.274-2.054-2.665-2.054-1.274 0-2.548.676-2.548 2.041 0 1.274.663 1.781 2.457 2.067 1.001.169 1.456.377 1.456.936 0 .572-.377.871-1.222.871-.923 0-1.274-.403-1.352-1.092h-1.482c.065 1.443 1.092 2.249 2.847 2.249ZM904 371h2.795c3.263 0 4.836-1.924 4.836-4.628v-.117c0-2.704-1.573-4.55-4.81-4.55H904V371Zm1.729-1.365v-6.565h1.001c2.184 0 3.094 1.209 3.094 3.211v.104c0 2.054-1.001 3.25-3.081 3.25h-1.014Zm10.411 1.495c1.742 0 2.899-.78 3.12-2.21h-1.521c-.117.663-.611 1.04-1.56 1.04-1.17 0-1.82-.728-1.872-2.015h4.979v-.455c0-2.431-1.521-3.432-3.211-3.432-1.937 0-3.38 1.404-3.38 3.51v.104c0 2.145 1.443 3.458 3.445 3.458Zm-1.807-4.238c.156-1.053.793-1.69 1.742-1.69.975 0 1.573.52 1.651 1.69h-3.393ZM920.73 371h1.573v-9.945h-1.573V371Zm4.296-7.917c.52 0 .936-.39.936-.897 0-.52-.416-.91-.936-.91s-.936.39-.936.91c0 .507.416.897.936.897Zm-.767 7.917h1.573v-6.799h-1.573V371Zm5.271 0h1.833l2.457-6.799h-1.547l-1.755 5.187-1.781-5.187h-1.69L929.53 371Zm8.192.13c1.742 0 2.899-.78 3.12-2.21h-1.521c-.117.663-.611 1.04-1.56 1.04-1.17 0-1.82-.728-1.872-2.015h4.979v-.455c0-2.431-1.521-3.432-3.211-3.432-1.937 0-3.38 1.404-3.38 3.51v.104c0 2.145 1.443 3.458 3.445 3.458Zm-1.807-4.238c.156-1.053.793-1.69 1.742-1.69.975 0 1.573.52 1.651 1.69h-3.393Zm6.358 4.108h1.573v-3.536c0-1.443.832-1.885 2.21-1.898v-1.469c-1.144.013-1.781.52-2.21 1.378v-1.274h-1.573V371Zm5.997 2.327h1.547l3.705-9.126h-1.534l-1.664 4.381-1.807-4.381h-1.703l2.691 6.11-1.235 3.016Z"/>
    <path fill="#E3EDFC" d="M776 361h36v36h-36z"/>
    <mask id="D" width="22" height="22" x="783" y="368" maskUnits="userSpaceOnUse" style="mask-type:alpha">
      <path fill="#fff" d="M803 368.5a1.5 1.5 0 0 1 1.5 1.5v18a1.5 1.5 0 0 1-1.5 1.5h-18a1.5 1.5 0 0 1-1.5-1.5v-18a1.5 1.5 0 0 1 1.5-1.5h18Zm0 16.5h-18v3h18v-3Zm0-15h-18v14.193l4.299-4.623a.748.748 0 0 1 1.059-.039l.02.019 2.45 2.45 3.973-5.189a.75.75 0 0 1 1.209.025l4.99 7.097V370Zm-13.172 11.25-2.109 2.25h4.219l-2.11-2.25Zm7.547-2.578-3.656 4.828h7.312l-3.656-4.828ZM789.5 373a1.5 1.5 0 1 1-.001 3.001A1.5 1.5 0 0 1 789.5 373Z"/>
    </mask>
    <g mask="url(#D)">
      <path fill="#003285" d="M806 367h-24v24h24v-24Z"/>
    </g>
    <rect width="21" height="7" x="979" y="390" fill="#E3EDFC" rx="3"/>
    <path fill="#003285" fill-rule="evenodd" d="M988 393.5a1.5 1.5 0 1 0 3.001-.001 1.5 1.5 0 0 0-3.001.001Zm-5 0a1.5 1.5 0 1 0 3 0 1.5 1.5 0 0 0-3 0Zm11.5 1.5a1.5 1.5 0 1 1 .001-3.001A1.5 1.5 0 0 1 994.5 395Z" clip-rule="evenodd"/>
  </g>
  <path stroke="#000" stroke-width="2" d="M707 239h346"/>
  <path stroke="#060606" stroke-width="2" d="M1053 238.5h40M1029 329h20.43a4 4 0 0 0 4-4v-90"/>
  <path stroke="#060606" stroke-width="2" d="M1029 144h20.43a4 4 0 0 1 4 4v90"/>
  <g clip-path="url(#E)">
    <path fill="#006B38" fill-rule="evenodd" d="M1186.65 271.303a9.02 9.02 0 0 1-6.43 2.697H1151a8 8 0 0 1-8-8v-56a8 8 0 0 1 8-8h29.47c2.27 0 4.45.857 6.12 2.399l31.39 29.089a4.002 4.002 0 0 1 .14 5.736l-31.47 32.079Z" clip-rule="evenodd"/>
    <rect width="8" height="72" x="1122" y="273" fill="#006B38" rx="4" transform="rotate(180 1122 273)"/>
    <g filter="url(#F)">
      <path fill="#006B38" fill-rule="evenodd" d="M1117 287h51l49-50.286L1168 191h-51v96Zm1-1h49l48-49.238L1167 192h-49v94Z" clip-rule="evenodd"/>
    </g>
    <path fill="#fff" fill-rule="evenodd" d="M1167.51 286H1118v-94h49.51l47.49 44.762L1167.51 286Z" clip-rule="evenodd"/>
    <rect width="21" height="7" x="1126" y="271" fill="#CCF0DF" rx="3"/>
    <path fill="#006B38" fill-rule="evenodd" d="M1135 274.5a1.5 1.5 0 1 0 2.999.001 1.5 1.5 0 0 0-2.999-.001Zm-5 0a1.5 1.5 0 1 0 3 0 1.5 1.5 0 0 0-3 0Zm11.5 1.5a1.5 1.5 0 1 1-.001-2.999 1.5 1.5 0 0 1 .001 2.999Z" clip-rule="evenodd"/>
    <path fill="#060606" d="M1128.93 227h1.74v-7.93h2.58v-1.365h-6.91v1.365h2.59V227Zm5.47 0h1.57v-3.536c0-1.443.83-1.885 2.21-1.898v-1.469c-1.14.013-1.78.52-2.21 1.378v-1.274h-1.57V227Zm7.2.13c1.04 0 1.64-.377 2.08-.962V227h1.55v-4.459c0-1.859-1.2-2.483-2.72-2.483-1.52 0-2.78.663-2.91 2.249h1.52c.08-.676.48-1.066 1.3-1.066.92 0 1.23.455 1.23 1.365v.351h-.84c-1.95 0-3.48.572-3.48 2.158 0 1.417 1.02 2.015 2.27 2.015Zm.38-1.131c-.78 0-1.09-.377-1.09-.949 0-.832.76-1.105 1.96-1.105h.8v.676c0 .871-.71 1.378-1.67 1.378Zm5.41 1.001h1.57v-4.004c0-1.079.71-1.625 1.6-1.625.93 0 1.35.468 1.35 1.495V227h1.57v-4.277c0-1.872-.96-2.665-2.32-2.665-1.12 0-1.88.559-2.2 1.222v-1.079h-1.57V227Zm10.59.13c1.74 0 2.71-.793 2.71-2.171 0-1.443-.95-1.833-2.54-2.08-1.08-.182-1.41-.377-1.41-.871 0-.481.4-.806 1.08-.806.73 0 1.08.286 1.21.91h1.46c-.17-1.534-1.28-2.054-2.67-2.054-1.27 0-2.55.676-2.55 2.041 0 1.274.67 1.781 2.46 2.067 1 .169 1.46.377 1.46.936 0 .572-.38.871-1.23.871-.92 0-1.27-.403-1.35-1.092h-1.48c.06 1.443 1.09 2.249 2.85 2.249Zm5.25-8.047c.52 0 .94-.39.94-.897 0-.52-.42-.91-.94-.91s-.93.39-.93.91c0 .507.41.897.93.897Zm-.76 7.917h1.57v-6.799h-1.57V227Zm6.16.117c.48 0 .81-.078 1.06-.169V225.7c-.22.091-.45.13-.77.13-.49 0-.78-.273-.78-.871v-3.575h1.5v-1.183h-1.5v-1.495h-1.57v1.495h-.91v1.183h.91v3.718c0 1.287.7 2.015 2.06 2.015Zm3.64-8.034c.52 0 .94-.39.94-.897 0-.52-.42-.91-.94-.91s-.94.39-.94.91c0 .507.42.897.94.897Zm-.77 7.917h1.58v-6.799h-1.58V227Zm6.88.13c2 0 3.49-1.378 3.49-3.497v-.104c0-2.08-1.49-3.471-3.48-3.471-2 0-3.5 1.404-3.5 3.51v.104c0 2.067 1.49 3.458 3.49 3.458Zm.01-1.222c-1.2 0-1.88-.871-1.88-2.262v-.104c0-1.404.71-2.249 1.88-2.249s1.87.858 1.87 2.262v.091c0 1.391-.7 2.262-1.87 2.262Zm5.26 1.092h1.57v-4.004c0-1.079.72-1.625 1.6-1.625.94 0 1.35.468 1.35 1.495V227h1.58v-4.277c0-1.872-.96-2.665-2.33-2.665-1.12 0-1.87.559-2.2 1.222v-1.079h-1.57V227Zm-54.4 16.117c.48 0 .82-.078 1.07-.169V241.7c-.22.091-.46.13-.77.13-.49 0-.78-.273-.78-.871v-3.575h1.49v-1.183h-1.49v-1.495h-1.57v1.495h-.91v1.183h.91v3.718c0 1.287.7 2.015 2.05 2.015Zm5.87.013c2 0 3.5-1.378 3.5-3.497v-.104c0-2.08-1.5-3.471-3.49-3.471-2 0-3.5 1.404-3.5 3.51v.104c0 2.067 1.49 3.458 3.49 3.458Zm.01-1.222c-1.19 0-1.88-.871-1.88-2.262v-.104c0-1.404.71-2.249 1.88-2.249s1.87.858 1.87 2.262v.091c0 1.391-.7 2.262-1.87 2.262Zm8.84 1.092h6.04v-1.365h-4.31v-2.717h3.28v-1.3h-3.28v-2.548h4.08v-1.365h-5.81V243Zm7.82 0h1.57v-4.004c0-1.079.72-1.625 1.6-1.625.94 0 1.35.468 1.35 1.495V243h1.58v-4.277c0-1.872-.97-2.665-2.33-2.665-1.12 0-1.87.559-2.2 1.222v-1.079h-1.57V243Zm11.16 2.496c2.11 0 3.45-1.001 3.46-3.003v-6.292h-1.57v1.04c-.39-.676-1.07-1.183-2.19-1.183-1.75 0-3.05 1.43-3.05 3.341v.091c0 1.963 1.31 3.237 3.01 3.237 1.01 0 1.85-.611 2.23-1.261v1.001c0 1.222-.68 1.833-1.9 1.833-1.03 0-1.55-.39-1.68-1.066h-1.58c.18 1.3 1.14 2.262 3.27 2.262Zm.05-3.978c-1.01 0-1.79-.78-1.79-2.041v-.104c0-1.235.68-2.08 1.85-2.08 1.13 0 1.83.767 1.83 2.054v.091c0 1.3-.79 2.08-1.89 2.08Zm7.42 1.612c1.04 0 1.63-.377 2.08-.962V243h1.54v-4.459c0-1.859-1.19-2.483-2.71-2.483-1.53 0-2.79.663-2.92 2.249h1.52c.08-.676.49-1.066 1.3-1.066.93 0 1.24.455 1.24 1.365v.351h-.85c-1.95 0-3.48.572-3.48 2.158 0 1.417 1.03 2.015 2.28 2.015Zm.37-1.131c-.78 0-1.09-.377-1.09-.949 0-.832.77-1.105 1.96-1.105h.81v.676c0 .871-.72 1.378-1.68 1.378Zm8.31 3.497c2.11 0 3.44-1.001 3.46-3.003v-6.292h-1.58v1.04c-.39-.676-1.06-1.183-2.18-1.183-1.75 0-3.05 1.43-3.05 3.341v.091c0 1.963 1.31 3.237 3.01 3.237 1 0 1.85-.611 2.22-1.261v1.001c0 1.222-.67 1.833-1.89 1.833-1.03 0-1.55-.39-1.68-1.066h-1.59c.19 1.3 1.15 2.262 3.28 2.262Zm.05-3.978c-1.01 0-1.79-.78-1.79-2.041v-.104c0-1.235.67-2.08 1.84-2.08 1.13 0 1.84.767 1.84 2.054v.091c0 1.3-.8 2.08-1.89 2.08Zm6.57 1.573c.58 0 1.04-.442 1.04-1.014 0-.572-.46-1.027-1.04-1.027-.57 0-1.03.455-1.03 1.027 0 .572.46 1.014 1.03 1.014Zm3.59 0c.58 0 1.04-.442 1.04-1.014 0-.572-.46-1.027-1.04-1.027-.59 0-1.03.455-1.03 1.027 0 .572.44 1.014 1.03 1.014Zm3.57 0c.59 0 1.05-.442 1.05-1.014a1.03 1.03 0 0 0-1.05-1.027c-.57 0-1.03.455-1.03 1.027 0 .572.46 1.014 1.03 1.014ZM1127.07 259h1.73v-3.809h3.17v-1.339h-3.17v-2.769h4.03v-1.378h-5.76V259Zm9.5.13c1.11 0 1.82-.533 2.16-1.196V259h1.57v-6.799h-1.57v4.043c0 1.079-.74 1.625-1.58 1.625-.91 0-1.34-.468-1.34-1.495v-4.173h-1.58v4.355c0 1.807 1 2.574 2.34 2.574Zm5.99-.13h1.58v-9.945h-1.58V259Zm3.89 0h1.57v-9.945h-1.57V259Zm7.42 0h1.73v-3.809h3.17v-1.339h-3.17v-2.769h4.03v-1.378h-5.76V259Zm9.51.13c1.11 0 1.82-.533 2.16-1.196V259h1.57v-6.799h-1.57v4.043c0 1.079-.74 1.625-1.59 1.625-.91 0-1.34-.468-1.34-1.495v-4.173h-1.57v4.355c0 1.807 1 2.574 2.34 2.574Zm5.95-.13h1.57v-4.004c0-1.079.72-1.625 1.6-1.625.94 0 1.36.468 1.36 1.495V259h1.57v-4.277c0-1.872-.96-2.665-2.33-2.665-1.12 0-1.87.559-2.2 1.222v-1.079h-1.57V259Zm9.2.091c.59 0 1.04-.442 1.04-1.014a1.02 1.02 0 0 0-1.04-1.027c-.57 0-1.03.455-1.03 1.027 0 .572.46 1.014 1.03 1.014Zm4.11 0c.59 0 1.04-.442 1.04-1.014a1.02 1.02 0 0 0-1.04-1.027c-.57 0-1.02.455-1.02 1.027 0 .572.45 1.014 1.02 1.014Zm4.12 0c.58 0 1.04-.442 1.04-1.014 0-.572-.46-1.027-1.04-1.027-.58 0-1.03.455-1.03 1.027 0 .572.45 1.014 1.03 1.014Z"/>
  </g>
  <path fill="#fff" d="M1117 238c0 6.629-5.37 12-12 12s-12-5.371-12-12 5.37-12 12-12 12 5.371 12 12Z"/>
  <path fill="#000" fill-rule="evenodd" d="M1116 238c0 6.077-4.92 11-11 11s-11-4.923-11-11 4.92-11 11-11 11 4.923 11 11Zm-6.47.703h-9.06a.47.47 0 0 1-.47-.469v-.468a.47.47 0 0 1 .47-.469h9.06c.26 0 .26 1.406 0 1.406ZM1105 229c4.95 0 9 4.004 9 9 0 4.946-4 9-9 9-4.95 0-9-4.004-9-9 0-4.946 4-9 9-9Z" clip-rule="evenodd"/>
  <defs>
    <clipPath id="c">
      <path fill="#fff" d="M0 0h250v150H0z" transform="translate(238 69)"/>
    </clipPath>
    <clipPath id="g">
      <path fill="#fff" d="M0 0h250v150H0z" transform="translate(238 256)"/>
    </clipPath>
    <clipPath id="k">
      <path fill="#fff" d="M0 0h102v102H0z" transform="translate(558 375)"/>
    </clipPath>
    <clipPath id="m">
      <path fill="#fff" d="M0 0h69v51H0z" transform="translate(573.971 409)"/>
    </clipPath>
    <clipPath id="o">
      <path fill="#fff" d="M0 0h102v102H0z" transform="translate(557 188)"/>
    </clipPath>
    <clipPath id="q">
      <path fill="#fff" d="M0 0h69v51H0z" transform="translate(572.971 222)"/>
    </clipPath>
    <clipPath id="s">
      <path fill="#fff" d="M0 0h102v102H0z" transform="translate(557)"/>
    </clipPath>
    <clipPath id="u">
      <path fill="#fff" d="M0 0h69v51H0z" transform="translate(572.971 34)"/>
    </clipPath>
    <clipPath id="w">
      <path fill="#fff" d="M0 0h250v150H0z" transform="translate(762 69)"/>
    </clipPath>
    <clipPath id="A">
      <path fill="#fff" d="M0 0h250v150H0z" transform="translate(762 256)"/>
    </clipPath>
    <clipPath id="E">
      <path fill="#fff" d="M0 0h107v96H0z" transform="translate(1114 191)"/>
    </clipPath>
    <filter id="a" width="162" height="162" x="0" y="157" color-interpolation-filters="sRGB" filterUnits="userSpaceOnUse">
      <feFlood flood-opacity="0" result="BackgroundImageFix"/>
      <feColorMatrix in="SourceAlpha" result="hardAlpha" values="0 0 0 0 0 0 0 0 0 0 0 0 0 0 0 0 0 0 127 0"/>
      <feOffset dy="2"/>
      <feGaussianBlur stdDeviation="4"/>
      <feColorMatrix values="0 0 0 0 0 0 0 0 0 0 0 0 0 0 0 0 0 0 0.15 0"/>
      <feBlend in2="BackgroundImageFix" result="effect1_dropShadow_142_2185"/>
      <feBlend in="SourceGraphic" in2="effect1_dropShadow_142_2185" result="shape"/>
    </filter>
    <filter id="d" width="256" height="164" x="235" y="64" color-interpolation-filters="sRGB" filterUnits="userSpaceOnUse">
      <feFlood flood-opacity="0" result="BackgroundImageFix"/>
      <feColorMatrix in="SourceAlpha" result="hardAlpha" values="0 0 0 0 0 0 0 0 0 0 0 0 0 0 0 0 0 0 127 0"/>
      <feOffset dy="2"/>
      <feGaussianBlur stdDeviation="4"/>
      <feColorMatrix values="0 0 0 0 0 0 0 0 0 0 0 0 0 0 0 0 0 0 0.15 0"/>
      <feBlend in2="BackgroundImageFix" result="effect1_dropShadow_142_2185"/>
      <feBlend in="SourceGraphic" in2="effect1_dropShadow_142_2185" result="shape"/>
    </filter>
    <filter id="h" width="256" height="164" x="235" y="251" color-interpolation-filters="sRGB" filterUnits="userSpaceOnUse">
      <feFlood flood-opacity="0" result="BackgroundImageFix"/>
      <feColorMatrix in="SourceAlpha" result="hardAlpha" values="0 0 0 0 0 0 0 0 0 0 0 0 0 0 0 0 0 0 127 0"/>
      <feOffset dy="2"/>
      <feGaussianBlur stdDeviation="4"/>
      <feColorMatrix values="0 0 0 0 0 0 0 0 0 0 0 0 0 0 0 0 0 0 0.15 0"/>
      <feBlend in2="BackgroundImageFix" result="effect1_dropShadow_142_2185"/>
      <feBlend in="SourceGraphic" in2="effect1_dropShadow_142_2185" result="shape"/>
    </filter>
    <filter id="l" width="117.823" height="117.823" x="550" y="369" color-interpolation-filters="sRGB" filterUnits="userSpaceOnUse">
      <feFlood flood-opacity="0" result="BackgroundImageFix"/>
      <feColorMatrix in="SourceAlpha" result="hardAlpha" values="0 0 0 0 0 0 0 0 0 0 0 0 0 0 0 0 0 0 127 0"/>
      <feOffset dy="2"/>
      <feGaussianBlur stdDeviation="4"/>
      <feColorMatrix values="0 0 0 0 0 0 0 0 0 0 0 0 0 0 0 0 0 0 0.15 0"/>
      <feBlend in2="BackgroundImageFix" result="effect1_dropShadow_142_2185"/>
      <feBlend in="SourceGraphic" in2="effect1_dropShadow_142_2185" result="shape"/>
    </filter>
    <filter id="p" width="117.823" height="117.823" x="549" y="182" color-interpolation-filters="sRGB" filterUnits="userSpaceOnUse">
      <feFlood flood-opacity="0" result="BackgroundImageFix"/>
      <feColorMatrix in="SourceAlpha" result="hardAlpha" values="0 0 0 0 0 0 0 0 0 0 0 0 0 0 0 0 0 0 127 0"/>
      <feOffset dy="2"/>
      <feGaussianBlur stdDeviation="4"/>
      <feColorMatrix values="0 0 0 0 0 0 0 0 0 0 0 0 0 0 0 0 0 0 0.15 0"/>
      <feBlend in2="BackgroundImageFix" result="effect1_dropShadow_142_2185"/>
      <feBlend in="SourceGraphic" in2="effect1_dropShadow_142_2185" result="shape"/>
    </filter>
    <filter id="t" width="117.823" height="117.823" x="549" y="-6" color-interpolation-filters="sRGB" filterUnits="userSpaceOnUse">
      <feFlood flood-opacity="0" result="BackgroundImageFix"/>
      <feColorMatrix in="SourceAlpha" result="hardAlpha" values="0 0 0 0 0 0 0 0 0 0 0 0 0 0 0 0 0 0 127 0"/>
      <feOffset dy="2"/>
      <feGaussianBlur stdDeviation="4"/>
      <feColorMatrix values="0 0 0 0 0 0 0 0 0 0 0 0 0 0 0 0 0 0 0.15 0"/>
      <feBlend in2="BackgroundImageFix" result="effect1_dropShadow_142_2185"/>
      <feBlend in="SourceGraphic" in2="effect1_dropShadow_142_2185" result="shape"/>
    </filter>
    <filter id="x" width="256" height="164" x="759" y="64" color-interpolation-filters="sRGB" filterUnits="userSpaceOnUse">
      <feFlood flood-opacity="0" result="BackgroundImageFix"/>
      <feColorMatrix in="SourceAlpha" result="hardAlpha" values="0 0 0 0 0 0 0 0 0 0 0 0 0 0 0 0 0 0 127 0"/>
      <feOffset dy="2"/>
      <feGaussianBlur stdDeviation="4"/>
      <feColorMatrix values="0 0 0 0 0 0 0 0 0 0 0 0 0 0 0 0 0 0 0.15 0"/>
      <feBlend in2="BackgroundImageFix" result="effect1_dropShadow_142_2185"/>
      <feBlend in="SourceGraphic" in2="effect1_dropShadow_142_2185" result="shape"/>
    </filter>
    <filter id="B" width="256" height="164" x="759" y="251" color-interpolation-filters="sRGB" filterUnits="userSpaceOnUse">
      <feFlood flood-opacity="0" result="BackgroundImageFix"/>
      <feColorMatrix in="SourceAlpha" result="hardAlpha" values="0 0 0 0 0 0 0 0 0 0 0 0 0 0 0 0 0 0 127 0"/>
      <feOffset dy="2"/>
      <feGaussianBlur stdDeviation="4"/>
      <feColorMatrix values="0 0 0 0 0 0 0 0 0 0 0 0 0 0 0 0 0 0 0.15 0"/>
      <feBlend in2="BackgroundImageFix" result="effect1_dropShadow_142_2185"/>
      <feBlend in="SourceGraphic" in2="effect1_dropShadow_142_2185" result="shape"/>
    </filter>
    <filter id="F" width="116" height="112" x="1109" y="181" color-interpolation-filters="sRGB" filterUnits="userSpaceOnUse">
      <feFlood flood-opacity="0" result="BackgroundImageFix"/>
      <feColorMatrix in="SourceAlpha" result="hardAlpha" values="0 0 0 0 0 0 0 0 0 0 0 0 0 0 0 0 0 0 127 0"/>
      <feOffset dy="-2"/>
      <feGaussianBlur stdDeviation="4"/>
      <feColorMatrix values="0 0 0 0 0 0 0 0 0 0 0 0 0 0 0 0 0 0 0.15 0"/>
      <feBlend in2="BackgroundImageFix" result="effect1_dropShadow_142_2185"/>
      <feBlend in="SourceGraphic" in2="effect1_dropShadow_142_2185" result="shape"/>
    </filter>
  </defs>
</svg>