<svg xmlns="http://www.w3.org/2000/svg" fill="none" viewBox="0 0 535 294">
  <rect width="535" height="294" fill="#C4C4C4" fill-opacity=".38" rx="20"/>
  <rect width="233" height="118" x="27" y="23" fill="#fff" rx="5"/>
  <path stroke="#000" stroke-opacity=".35" d="m140 131 3.5 3 3.5-3"/>
  <path fill="#000" d="M103.783 58.14c2.828 0 4.564-1.68 4.564-4.452v-.924h-4.354v1.4h2.52c-.056 1.386-.826 2.52-2.702 2.52-2.1 0-3.094-1.47-3.094-3.612v-.112c0-2.198 1.134-3.654 3.094-3.654 1.302 0 2.198.574 2.422 1.904h1.862c-.266-2.394-2.17-3.374-4.312-3.374-2.926 0-4.998 2.128-4.998 5.11v.112c0 2.954 1.792 5.082 4.998 5.082Zm9.441 0c1.876 0 3.122-.84 3.36-2.38h-1.638c-.126.714-.658 1.12-1.68 1.12-1.26 0-1.96-.784-2.016-2.17h5.362v-.49c0-2.618-1.638-3.696-3.458-3.696-2.086 0-3.64 1.512-3.64 3.78v.112c0 2.31 1.554 3.724 3.71 3.724Zm-1.946-4.564c.168-1.134.854-1.82 1.876-1.82 1.05 0 1.694.56 1.778 1.82h-3.654ZM118.125 58h1.694v-4.312c0-1.162.77-1.75 1.722-1.75 1.008 0 1.456.504 1.456 1.61V58h1.694v-4.606c0-2.016-1.036-2.87-2.506-2.87-1.204 0-2.016.602-2.366 1.316v-1.162h-1.694V58Zm11.35 0h1.904l2.352-3.906L136.083 58h2.128l-3.206-5.18 2.954-4.83h-1.918l-2.114 3.556-2.128-3.556h-2.1l2.996 4.872-3.22 5.138Zm15.422 0h1.778l2.03-7.294L150.679 58h1.862l2.506-10.01h-1.736l-1.792 7.392-1.988-7.392h-1.54l-1.946 7.35-1.736-7.35h-1.904L144.897 58Zm14.184.14c2.156 0 3.766-1.484 3.766-3.766v-.112c0-2.24-1.61-3.738-3.752-3.738-2.156 0-3.766 1.512-3.766 3.78v.112c0 2.226 1.596 3.724 3.752 3.724Zm.014-1.316c-1.288 0-2.03-.938-2.03-2.436v-.112c0-1.512.77-2.422 2.03-2.422 1.26 0 2.016.924 2.016 2.436v.098c0 1.498-.756 2.436-2.016 2.436ZM164.377 58h1.694v-4.382c0-1.12.77-1.68 1.61-1.68.826 0 1.302.462 1.302 1.54V58h1.694v-4.382c0-1.12.77-1.68 1.61-1.68.84 0 1.302.462 1.302 1.54V58h1.694v-4.634c0-2.016-1.092-2.842-2.436-2.842-.91 0-1.918.406-2.478 1.316-.364-.91-1.12-1.316-2.072-1.316-1.078 0-1.876.588-2.226 1.274v-1.12h-1.694V58Zm16.072.14c1.876 0 3.122-.84 3.36-2.38h-1.638c-.126.714-.658 1.12-1.68 1.12-1.26 0-1.96-.784-2.016-2.17h5.362v-.49c0-2.618-1.638-3.696-3.458-3.696-2.086 0-3.64 1.512-3.64 3.78v.112c0 2.31 1.554 3.724 3.71 3.724Zm-1.946-4.564c.168-1.134.854-1.82 1.876-1.82 1.05 0 1.694.56 1.778 1.82h-3.654ZM185.35 58h1.694v-4.312c0-1.162.77-1.75 1.722-1.75 1.008 0 1.456.504 1.456 1.61V58h1.694v-4.606c0-2.016-1.036-2.87-2.506-2.87-1.204 0-2.016.602-2.366 1.316v-1.162h-1.694V58ZM47.783 100.13c2.002 0 3.42-1.235 3.42-3.198 0-1.95-1.184-3.12-2.86-3.12-.989 0-1.639.364-2.003.78l.013-2.522h4.316v-1.365h-5.642l-.078 5.174h.884c.416-.481.988-.806 1.937-.806 1.027 0 1.677.715 1.677 1.833 0 1.144-.61 1.885-1.677 1.885-1.196 0-1.547-.598-1.69-1.456h-1.612c.104 1.599 1.131 2.795 3.315 2.795Zm5.453-.039c.585 0 1.04-.442 1.04-1.014 0-.572-.456-1.027-1.04-1.027a1.02 1.02 0 0 0-1.027 1.027 1.01 1.01 0 0 0 1.026 1.014Zm5.495.039c2.132 0 3.484-1.066 3.484-2.782 0-1.235-.715-2.002-1.794-2.249.897-.338 1.508-.975 1.508-2.028 0-1.378-1.131-2.496-3.068-2.496-1.99 0-3.198 1.235-3.29 2.847h1.535c.104-.936.74-1.534 1.729-1.534.962 0 1.443.559 1.443 1.313 0 .871-.481 1.365-1.547 1.365h-.663v1.235h.715c1.13 0 1.677.507 1.677 1.521 0 .923-.56 1.508-1.768 1.508-1.248 0-1.794-.728-1.885-1.703h-1.573c.078 1.781 1.287 3.003 3.497 3.003Zm5.61-.13h1.78l3.38-9.087v-.208h-6.5v1.404h4.33L64.34 100Zm6.433 0h1.56v-7.02l2.821 7.02h.56l2.768-7.02V100h1.73v-9.295h-2.289l-2.392 6.344-2.444-6.344h-2.314V100Zm132.139 0h6.721v-1.339h-3.952l2.067-2.015c1.105-1.066 1.82-2.119 1.82-3.328 0-1.638-1.144-2.743-3.068-2.743-1.963 0-3.185 1.17-3.302 3.198h1.586c.156-1.313.741-1.846 1.664-1.846.897 0 1.391.546 1.391 1.417 0 .884-.533 1.703-1.417 2.639l-3.51 3.705V100Zm9.104.091c.585 0 1.04-.442 1.04-1.014 0-.572-.455-1.027-1.04-1.027a1.02 1.02 0 0 0-1.027 1.027 1.01 1.01 0 0 0 1.027 1.014Zm5.495.039c2.132 0 3.484-1.066 3.484-2.782 0-1.235-.715-2.002-1.794-2.249.897-.338 1.508-.975 1.508-2.028 0-1.378-1.131-2.496-3.068-2.496-1.989 0-3.198 1.235-3.289 2.847h1.534c.104-.936.741-1.534 1.729-1.534.962 0 1.443.559 1.443 1.313 0 .871-.481 1.365-1.547 1.365h-.663v1.235h.715c1.131 0 1.677.507 1.677 1.521 0 .923-.559 1.508-1.768 1.508-1.248 0-1.794-.728-1.885-1.703h-1.573c.078 1.781 1.287 3.003 3.497 3.003Zm4.342-.13h6.721v-1.339h-3.952l2.067-2.015c1.105-1.066 1.82-2.119 1.82-3.328 0-1.638-1.144-2.743-3.068-2.743-1.963 0-3.185 1.17-3.302 3.198h1.586c.156-1.313.741-1.846 1.664-1.846.897 0 1.391.546 1.391 1.417 0 .884-.533 1.703-1.417 2.639l-3.51 3.705V100Zm8.387 0h1.56v-7.02l2.821 7.02h.559l2.769-7.02V100h1.729v-9.295h-2.288l-2.392 6.344-2.444-6.344h-2.314V100Z"/>
  <path fill="#000" fill-opacity=".41" d="M183.864 100h1.161v-1.305h.864v-.891h-.864v-4.239h-1.503l-2.844 4.707v.423h3.186V100Zm-1.908-2.196 1.926-3.33v3.33h-1.926Zm7.332 2.286c1.683 0 2.691-1.233 2.691-3.168v-.324c0-1.935-1.062-3.123-2.691-3.123-1.62 0-2.7 1.197-2.7 3.15v.324c0 1.935 1.062 3.141 2.7 3.141Zm.027-.954c-.963 0-1.521-.738-1.521-2.196v-.324c0-1.431.531-2.205 1.503-2.205.963 0 1.485.828 1.485 2.196v.315c0 1.458-.477 2.214-1.467 2.214Zm4.934-2.511c.882 0 1.566-.666 1.566-1.575 0-.9-.693-1.548-1.557-1.548s-1.575.666-1.575 1.566c0 .891.684 1.557 1.566 1.557Zm-.684 3.375h.765l4.14-6.435h-.756L193.565 100Zm.693-4.104c-.423 0-.693-.288-.693-.837 0-.54.27-.837.693-.837.423 0 .684.315.684.837 0 .531-.261.837-.684.837Zm3.519 4.194c.882 0 1.575-.666 1.575-1.575 0-.9-.702-1.548-1.566-1.548-.864 0-1.566.666-1.566 1.566 0 .891.675 1.557 1.557 1.557Zm.009-.729c-.423 0-.693-.288-.693-.837 0-.54.27-.837.693-.837.423 0 .684.315.684.837 0 .531-.261.837-.684.837Z"/>
  <circle cx="58" cy="52" r="24" fill="#fff"/>
  <circle cx="58" cy="52" r="23.5" stroke="#000" stroke-opacity=".16"/>
  <path stroke="#007DEB" stroke-width=".75" d="M44 125.625h198"/>
  <path fill="#ADD8FF" fill-opacity=".3" d="M44 104h36v10H44zM177 104h65v10h-65z"/>
  <path fill="#007DEB" d="M47.574 112h.931v-2.023h.595L50.41 112h1.007l-1.407-2.163c.623-.161 1.113-.56 1.113-1.344v-.028c0-1.022-.77-1.47-1.869-1.47h-1.68V112Zm.931-2.688v-1.596h.75c.594 0 .951.196.951.77v.028c0 .532-.329.798-.952.798h-.749Zm5.066 2.758c.938 0 1.561-.42 1.68-1.19h-.819c-.063.357-.329.56-.84.56-.63 0-.98-.392-1.008-1.085h2.681v-.245c0-1.309-.819-1.848-1.729-1.848-1.043 0-1.82.756-1.82 1.89v.056c0 1.155.777 1.862 1.855 1.862Zm-.973-2.282c.084-.567.427-.91.938-.91.525 0 .847.28.89.91h-1.828Zm4.417 2.282c.56 0 .882-.203 1.12-.518V112h.833v-2.401c0-1.001-.644-1.337-1.463-1.337-.819 0-1.498.357-1.568 1.211h.819c.042-.364.259-.574.7-.574.497 0 .665.245.665.735v.189h-.455c-1.05 0-1.876.308-1.876 1.162 0 .763.553 1.085 1.225 1.085Zm.203-.609c-.42 0-.588-.203-.588-.511 0-.448.413-.595 1.057-.595h.434v.364c0 .469-.385.742-.903.742Zm4.324.609c.994 0 1.63-.595 1.694-1.435h-.777c-.05.518-.434.784-.882.784-.623 0-1.015-.42-1.015-1.218v-.056c0-.756.413-1.204.994-1.204.448 0 .77.203.84.693h.819c-.098-1.008-.861-1.372-1.673-1.372-1.022 0-1.848.735-1.848 1.897v.056c0 1.169.798 1.855 1.848 1.855Zm2.423-.07h.847v-2.156c0-.581.385-.875.861-.875.504 0 .728.252.728.805V112h.847v-2.303c0-1.008-.518-1.435-1.253-1.435-.602 0-1.008.301-1.183.658v-2.275h-.847V112Zm5.869.07c.938 0 1.561-.42 1.68-1.19h-.819c-.063.357-.329.56-.84.56-.63 0-.98-.392-1.008-1.085h2.681v-.245c0-1.309-.819-1.848-1.729-1.848-1.043 0-1.82.756-1.82 1.89v.056c0 1.155.777 1.862 1.855 1.862Zm-.973-2.282c.084-.567.427-.91.938-.91.525 0 .847.28.889.91h-1.827Zm4.795 2.282c.54 0 1.008-.322 1.204-.686V112h.847v-5.355h-.846v2.254c-.204-.364-.575-.637-1.17-.637-.951 0-1.645.742-1.645 1.911v.056c0 1.19.694 1.841 1.61 1.841Zm.21-.672c-.546 0-.951-.385-.951-1.19v-.056c0-.791.363-1.225.986-1.225.617 0 .987.399.987 1.204v.056c0 .819-.434 1.211-1.022 1.211ZM182.765 112.07c1.19 0 2.044-.609 2.191-1.813h-.91c-.098.707-.588 1.057-1.281 1.057-.924 0-1.463-.665-1.463-1.792v-.056c0-1.12.574-1.806 1.456-1.806.721 0 1.092.343 1.197 1.008h.945c-.112-1.176-1.001-1.75-2.149-1.75-1.393 0-2.429 1.05-2.429 2.555v.056c0 1.54.875 2.541 2.443 2.541Zm4.566 0c1.078 0 1.883-.742 1.883-1.883v-.056c0-1.12-.805-1.869-1.876-1.869-1.078 0-1.883.756-1.883 1.89v.056c0 1.113.798 1.862 1.876 1.862Zm.007-.658c-.644 0-1.015-.469-1.015-1.218v-.056c0-.756.385-1.211 1.015-1.211.63 0 1.008.462 1.008 1.218v.049c0 .749-.378 1.218-1.008 1.218Zm2.641.588h.847v-2.191c0-.56.385-.84.805-.84.413 0 .651.231.651.77V112h.847v-2.191c0-.56.385-.84.805-.84.42 0 .651.231.651.77V112h.847v-2.317c0-1.008-.546-1.421-1.218-1.421-.455 0-.959.203-1.239.658-.182-.455-.56-.658-1.036-.658-.539 0-.938.294-1.113.637v-.56h-.847V112Zm6.426 1.253h.847v-1.827c.196.357.616.644 1.197.644.945 0 1.624-.714 1.624-1.89v-.056c0-1.183-.707-1.862-1.624-1.862-.539 0-.994.315-1.197.665v-.588h-.847v4.914Zm1.834-1.855c-.616 0-1.015-.385-1.015-1.204v-.056c0-.812.42-1.211 1.008-1.211.553 0 .973.399.973 1.211v.056c0 .784-.343 1.204-.966 1.204Zm2.616.602h.847v-5.355h-.847V112Zm3.49.07c.938 0 1.561-.42 1.68-1.19h-.819c-.063.357-.329.56-.84.56-.63 0-.98-.392-1.008-1.085h2.681v-.245c0-1.309-.819-1.848-1.729-1.848-1.043 0-1.82.756-1.82 1.89v.056c0 1.155.777 1.862 1.855 1.862Zm-.973-2.282c.084-.567.427-.91.938-.91.525 0 .847.28.889.91h-1.827Zm4.669 2.275c.259 0 .441-.042.574-.091v-.672a1.04 1.04 0 0 1-.413.07c-.266 0-.42-.147-.42-.469v-1.925h.805v-.637h-.805v-.805h-.847v.805h-.49v.637h.49v2.002c0 .693.378 1.085 1.106 1.085Zm2.948.007c.938 0 1.561-.42 1.68-1.19h-.819c-.063.357-.329.56-.84.56-.63 0-.98-.392-1.008-1.085h2.681v-.245c0-1.309-.819-1.848-1.729-1.848-1.043 0-1.82.756-1.82 1.89v.056c0 1.155.777 1.862 1.855 1.862Zm-.973-2.282c.084-.567.427-.91.938-.91.525 0 .847.28.889.91h-1.827Zm4.796 2.282c.539 0 1.008-.322 1.204-.686V112h.847v-5.355h-.847v2.254c-.203-.364-.574-.637-1.169-.637-.952 0-1.645.742-1.645 1.911v.056c0 1.19.693 1.841 1.61 1.841Zm.21-.672c-.546 0-.952-.385-.952-1.19v-.056c0-.791.364-1.225.987-1.225.616 0 .987.399.987 1.204v.056c0 .819-.434 1.211-1.022 1.211Zm6.286.672c1.106 0 1.841-.679 1.841-1.547 0-1.001-.609-1.337-1.785-1.498-.868-.126-1.036-.329-1.036-.735 0-.385.294-.658.861-.658.574 0 .875.224.966.749h.854c-.098-.959-.742-1.449-1.82-1.449-1.043 0-1.743.616-1.743 1.435 0 .938.567 1.302 1.764 1.463.812.133 1.043.308 1.043.77s-.392.77-.945.77c-.847 0-1.05-.42-1.113-.924h-.896c.07.945.644 1.624 2.009 1.624Zm3.919-.007c.259 0 .441-.042.574-.091v-.672a1.04 1.04 0 0 1-.413.07c-.266 0-.42-.147-.42-.469v-1.925h.805v-.637h-.805v-.805h-.847v.805h-.49v.637h.49v2.002c0 .693.378 1.085 1.106 1.085Zm2.324.007c.56 0 .882-.203 1.12-.518V112h.833v-2.401c0-1.001-.644-1.337-1.463-1.337-.819 0-1.498.357-1.568 1.211h.819c.042-.364.259-.574.7-.574.497 0 .665.245.665.735v.189h-.455c-1.05 0-1.876.308-1.876 1.162 0 .763.553 1.085 1.225 1.085Zm.203-.609c-.42 0-.588-.203-.588-.511 0-.448.413-.595 1.057-.595h.434v.364c0 .469-.385.742-.903.742Zm4.282 1.883c1.134 0 1.855-.539 1.862-1.617v-3.388h-.847v.56c-.21-.364-.574-.637-1.176-.637-.945 0-1.645.77-1.645 1.799v.049c0 1.057.707 1.743 1.624 1.743.539 0 .994-.329 1.197-.679v.539c0 .658-.364.987-1.022.987-.553 0-.833-.21-.903-.574h-.854c.098.7.616 1.218 1.764 1.218Zm.028-2.142c-.546 0-.966-.42-.966-1.099v-.056c0-.665.364-1.12.994-1.12.609 0 .987.413.987 1.106v.049c0 .7-.427 1.12-1.015 1.12Zm4.451.868c.938 0 1.561-.42 1.68-1.19h-.819c-.063.357-.329.56-.84.56-.63 0-.98-.392-1.008-1.085h2.681v-.245c0-1.309-.819-1.848-1.729-1.848-1.043 0-1.82.756-1.82 1.89v.056c0 1.155.777 1.862 1.855 1.862Zm-.973-2.282c.084-.567.427-.91.938-.91.525 0 .847.28.889.91h-1.827Z"/>
  <path fill="#007DEB" stroke="#007DEB" d="M57.5 31.5V28c21.5.5 25 17.977 25 23.5C82.5 57 81 61 80 63l-3.5-1.5c2-4 2.167-8.333 2-10 0-16.4-14-20.167-21-20Z"/>
  <rect width="23.25" height="9.25" x="70.375" y="34.375" fill="#E1F2FA" stroke="#007DEB" stroke-width=".75" rx="4.625"/>
  <rect width="13.25" height="11.25" x="25.375" y="19.375" fill="#E1F2FA" stroke="#007DEB" stroke-width=".75" rx="1.625"/>
  <path fill="#007DEB" d="M30.072 27.208h.712l.192-1.336h.8v-.784h-.68l.128-.88h.76v-.76h-.648l.176-1.168H30.8l-.176 1.168h-.664l.168-1.168h-.704l-.176 1.168h-.768v.76h.656l-.128.88h-.736v.784h.616l-.192 1.336h.712l.192-1.336h.664l-.192 1.336Zm-.224-3h.664l-.128.88h-.664l.128-.88ZM33.84 28h1.072v-5.72h-.952l-1.328.944v.936l1.208-.824V28ZM76.432 42.08c1.312 0 2.144-.656 2.144-1.712 0-.76-.44-1.232-1.104-1.384.552-.208.928-.6.928-1.248 0-.848-.696-1.536-1.888-1.536-1.224 0-1.968.76-2.024 1.752h.944c.064-.576.456-.944 1.064-.944.592 0 .888.344.888.808 0 .536-.296.84-.952.84h-.408v.76h.44c.696 0 1.032.312 1.032.936 0 .568-.344.928-1.088.928-.768 0-1.104-.448-1.16-1.048h-.968c.048 1.096.792 1.848 2.152 1.848Zm2.673-.08h4.136v-.824h-2.432l1.272-1.24c.68-.656 1.12-1.304 1.12-2.048 0-1.008-.704-1.688-1.888-1.688-1.208 0-1.96.72-2.032 1.968h.976c.096-.808.456-1.136 1.024-1.136.552 0 .856.336.856.872 0 .544-.328 1.048-.872 1.624l-2.16 2.28V42Zm6.137-3c.784 0 1.392-.592 1.392-1.4 0-.8-.616-1.376-1.384-1.376-.768 0-1.4.592-1.4 1.392 0 .792.608 1.384 1.392 1.384Zm-.608 3h.68l3.68-5.72h-.672L84.634 42Zm.616-3.648c-.376 0-.616-.256-.616-.744 0-.48.24-.744.616-.744s.608.28.608.744c0 .472-.232.744-.608.744Zm3.128 3.728c.784 0 1.4-.592 1.4-1.4 0-.8-.624-1.376-1.392-1.376-.768 0-1.392.592-1.392 1.392 0 .792.6 1.384 1.384 1.384Zm.008-.648c-.376 0-.616-.256-.616-.744 0-.48.24-.744.616-.744s.608.28.608.744c0 .472-.232.744-.608.744Z"/>
  <rect width="233" height="118" x="27" y="157" fill="#fff" rx="5"/>
  <path stroke="#000" stroke-opacity=".35" d="m140 265 3.5 3 3.5-3"/>
  <path fill="#000" d="M102.148 192h1.694v-7.672L108.35 192h1.932v-10.01h-1.694v7.238l-4.214-7.238h-2.226V192Zm13.471.14c1.876 0 3.122-.84 3.36-2.38h-1.638c-.126.714-.658 1.12-1.68 1.12-1.26 0-1.96-.784-2.016-2.17h5.362v-.49c0-2.618-1.638-3.696-3.458-3.696-2.086 0-3.64 1.512-3.64 3.78v.112c0 2.31 1.554 3.724 3.71 3.724Zm-1.946-4.564c.168-1.134.854-1.82 1.876-1.82 1.05 0 1.694.56 1.778 1.82h-3.654Zm8.236 4.424h1.736l1.484-4.928 1.358 4.928h1.722l2.296-7.322h-1.652l-1.526 5.292-1.428-5.292h-1.414l-1.554 5.292-1.456-5.292h-1.806l2.24 7.322Zm17.86.14c2.828 0 4.564-1.68 4.564-4.452v-.924h-4.354v1.4h2.52c-.056 1.386-.826 2.52-2.702 2.52-2.1 0-3.094-1.47-3.094-3.612v-.112c0-2.198 1.134-3.654 3.094-3.654 1.302 0 2.198.574 2.422 1.904h1.862c-.266-2.394-2.17-3.374-4.312-3.374-2.926 0-4.998 2.128-4.998 5.11v.112c0 2.954 1.792 5.082 4.998 5.082Zm6.222-.14h1.694v-3.808c0-1.554.896-2.03 2.38-2.044v-1.582c-1.232.014-1.918.56-2.38 1.484v-1.372h-1.694V192Zm7.373.14c1.12 0 1.764-.406 2.24-1.036V192h1.666v-4.802c0-2.002-1.288-2.674-2.926-2.674-1.638 0-2.996.714-3.136 2.422h1.638c.084-.728.518-1.148 1.4-1.148.994 0 1.33.49 1.33 1.47v.378h-.91c-2.1 0-3.752.616-3.752 2.324 0 1.526 1.106 2.17 2.45 2.17Zm.406-1.218c-.84 0-1.176-.406-1.176-1.022 0-.896.826-1.19 2.114-1.19h.868v.728c0 .938-.77 1.484-1.806 1.484Zm8.185 1.218c1.078 0 2.016-.644 2.408-1.372V192h1.694v-10.71h-1.694v4.508c-.406-.728-1.148-1.274-2.338-1.274-1.904 0-3.29 1.484-3.29 3.822v.112c0 2.38 1.386 3.682 3.22 3.682Zm.42-1.344c-1.092 0-1.904-.77-1.904-2.38v-.112c0-1.582.728-2.45 1.974-2.45 1.232 0 1.974.798 1.974 2.408v.112c0 1.638-.868 2.422-2.044 2.422Zm8.146 1.344c1.19 0 1.96-.574 2.324-1.288V192h1.694v-7.322h-1.694v4.354c0 1.162-.798 1.75-1.708 1.75-.98 0-1.442-.504-1.442-1.61v-4.494h-1.694v4.69c0 1.946 1.078 2.772 2.52 2.772Zm7.944 0c1.12 0 1.764-.406 2.24-1.036V192h1.666v-4.802c0-2.002-1.288-2.674-2.926-2.674-1.638 0-2.996.714-3.136 2.422h1.638c.084-.728.518-1.148 1.4-1.148.994 0 1.33.49 1.33 1.47v.378h-.91c-2.1 0-3.752.616-3.752 2.324 0 1.526 1.106 2.17 2.45 2.17Zm.406-1.218c-.84 0-1.176-.406-1.176-1.022 0-.896.826-1.19 2.114-1.19h.868v.728c0 .938-.77 1.484-1.806 1.484Zm7.92 1.204c.518 0 .882-.084 1.148-.182V190.6c-.238.098-.49.14-.826.14-.532 0-.84-.294-.84-.938v-3.85h1.61v-1.274h-1.61v-1.61h-1.694v1.61h-.98v1.274h.98v4.004c0 1.386.756 2.17 2.212 2.17Zm5.896.014c1.876 0 3.122-.84 3.36-2.38h-1.638c-.126.714-.658 1.12-1.68 1.12-1.26 0-1.96-.784-2.016-2.17h5.362v-.49c0-2.618-1.638-3.696-3.458-3.696-2.086 0-3.64 1.512-3.64 3.78v.112c0 2.31 1.554 3.724 3.71 3.724Zm-1.946-4.564c.168-1.134.854-1.82 1.876-1.82 1.05 0 1.694.56 1.778 1.82h-3.654Zm9.422 4.564c1.876 0 2.926-.854 2.926-2.338 0-1.554-1.022-1.974-2.744-2.24-1.162-.196-1.512-.406-1.512-.938 0-.518.434-.868 1.162-.868.784 0 1.162.308 1.302.98h1.568c-.182-1.652-1.372-2.212-2.87-2.212-1.372 0-2.744.728-2.744 2.198 0 1.372.714 1.918 2.646 2.226 1.078.182 1.568.406 1.568 1.008 0 .616-.406.938-1.316.938-.994 0-1.372-.434-1.456-1.176h-1.596c.07 1.554 1.176 2.422 3.066 2.422Zm4.846 1.582 1.834-3.136-1.61-.644-1.274 3.318 1.05.462Zm7.129-1.722h1.68v-7.56l3.038 7.56h.602l2.982-7.56V192h1.862v-10.01h-2.464l-2.576 6.832-2.632-6.832h-2.492V192Zm15.495.14c1.876 0 3.122-.84 3.36-2.38h-1.638c-.126.714-.658 1.12-1.68 1.12-1.26 0-1.96-.784-2.016-2.17h5.362v-.49c0-2.618-1.638-3.696-3.458-3.696-2.086 0-3.64 1.512-3.64 3.78v.112c0 2.31 1.554 3.724 3.71 3.724Zm-1.946-4.564c.168-1.134.854-1.82 1.876-1.82 1.05 0 1.694.56 1.778 1.82h-3.654Zm6.847 4.424h1.694v-4.312c0-1.162.77-1.75 1.722-1.75 1.008 0 1.456.504 1.456 1.61V192h1.694v-4.606c0-2.016-1.036-2.87-2.506-2.87-1.204 0-2.016.602-2.366 1.316v-1.162h-1.694V192ZM44.195 234h6.721v-1.339h-3.952l2.067-2.015c1.105-1.066 1.82-2.119 1.82-3.328 0-1.638-1.144-2.743-3.068-2.743-1.963 0-3.185 1.17-3.302 3.198h1.586c.156-1.313.741-1.846 1.664-1.846.897 0 1.391.546 1.391 1.417 0 .884-.533 1.703-1.417 2.639l-3.51 3.705V234Zm9.104.091c.585 0 1.04-.442 1.04-1.014 0-.572-.455-1.027-1.04-1.027a1.02 1.02 0 0 0-1.027 1.027 1.01 1.01 0 0 0 1.027 1.014Zm5.466.039c2.002 0 3.419-1.235 3.419-3.198 0-1.95-1.183-3.12-2.86-3.12-.988 0-1.638.364-2.002.78l.013-2.522h4.316v-1.365h-5.642l-.078 5.174h.884c.416-.481.988-.806 1.937-.806 1.027 0 1.677.715 1.677 1.833 0 1.144-.611 1.885-1.677 1.885-1.196 0-1.547-.598-1.69-1.456H55.45c.104 1.599 1.13 2.795 3.315 2.795Zm8.094 0c1.872 0 3.458-.975 3.458-2.808 0-1.131-.637-1.937-1.73-2.327.833-.364 1.379-1.001 1.379-1.95 0-1.534-1.443-2.47-3.107-2.47-1.612 0-3.12.923-3.12 2.496 0 .923.52 1.599 1.378 1.937-1.04.364-1.742 1.183-1.742 2.366 0 1.82 1.638 2.756 3.484 2.756Zm.026-5.629c-.806 0-1.495-.494-1.495-1.339 0-.832.65-1.339 1.469-1.339.832 0 1.469.533 1.469 1.326 0 .845-.598 1.352-1.443 1.352Zm-.026 4.329c-.936 0-1.742-.559-1.742-1.599s.806-1.599 1.755-1.599c.962 0 1.716.559 1.716 1.586 0 1.04-.741 1.612-1.73 1.612Zm5.134 1.17h1.56v-7.02l2.821 7.02h.559l2.769-7.02V234h1.729v-9.295h-2.288l-2.392 6.344-2.444-6.344h-2.314V234Zm136.48 0h1.742v-9.295h-1.547l-2.158 1.534v1.521l1.963-1.339V234Zm4.723.091c.585 0 1.04-.442 1.04-1.014 0-.572-.455-1.027-1.04-1.027a1.02 1.02 0 0 0-1.027 1.027 1.01 1.01 0 0 0 1.027 1.014Zm6.498-.091h1.677v-1.885h1.248v-1.287h-1.248v-6.123H219.2l-4.108 6.799v.611h4.602V234Zm-2.756-3.172 2.782-4.81v4.81h-2.782Zm7.541 3.172h1.781l3.38-9.087v-.208h-6.5v1.404h4.329l-2.99 7.891Zm6.434 0h1.56v-7.02l2.821 7.02h.559l2.769-7.02V234h1.729v-9.295h-2.288l-2.392 6.344-2.444-6.344h-2.314V234Z"/>
  <path fill="#000" fill-opacity=".41" d="M187.334 234.09c1.386 0 2.367-.855 2.367-2.214 0-1.35-.819-2.16-1.98-2.16-.684 0-1.134.252-1.386.54l.009-1.746h2.988v-.945h-3.906l-.054 3.582h.612c.288-.333.684-.558 1.341-.558.711 0 1.161.495 1.161 1.269 0 .792-.423 1.305-1.161 1.305-.828 0-1.071-.414-1.17-1.008h-1.116c.072 1.107.783 1.935 2.295 1.935Zm5.704 0c1.458 0 2.376-.882 2.376-2.187 0-1.251-.882-2.097-2.115-2.097-.765 0-1.296.333-1.593.828.036-1.467.603-2.232 1.467-2.232.621 0 .873.288.99.774h1.116c-.153-1.125-.927-1.701-2.097-1.701-1.539 0-2.664 1.215-2.664 3.447v.153c0 1.701.648 3.015 2.52 3.015Zm-.018-.882c-.729 0-1.242-.495-1.242-1.35 0-.711.513-1.224 1.242-1.224.738 0 1.206.522 1.206 1.296 0 .765-.486 1.278-1.206 1.278Zm4.605-2.583c.882 0 1.566-.666 1.566-1.575 0-.9-.693-1.548-1.557-1.548s-1.575.666-1.575 1.566c0 .891.684 1.557 1.566 1.557Zm-.684 3.375h.765l4.14-6.435h-.756L196.941 234Zm.693-4.104c-.423 0-.693-.288-.693-.837 0-.54.27-.837.693-.837.423 0 .684.315.684.837 0 .531-.261.837-.684.837Zm3.519 4.194c.882 0 1.575-.666 1.575-1.575 0-.9-.702-1.548-1.566-1.548-.864 0-1.566.666-1.566 1.566 0 .891.675 1.557 1.557 1.557Zm.009-.729c-.423 0-.693-.288-.693-.837 0-.54.27-.837.693-.837.423 0 .684.315.684.837 0 .531-.261.837-.684.837Z"/>
  <circle cx="58" cy="186" r="24" fill="#fff"/>
  <circle cx="58" cy="186" r="23.5" stroke="#000" stroke-opacity=".16"/>
  <path stroke="#007DEB" stroke-width=".75" d="M44 259.625h198"/>
  <path fill="#ADD8FF" fill-opacity=".3" d="M44 238h36v10H44zM177 238h65v10h-65z"/>
  <path fill="#007DEB" d="M47.574 246h.931v-2.023h.595L50.41 246h1.007l-1.407-2.163c.623-.161 1.113-.56 1.113-1.344v-.028c0-1.022-.77-1.47-1.869-1.47h-1.68V246Zm.931-2.688v-1.596h.75c.594 0 .951.196.951.77v.028c0 .532-.329.798-.952.798h-.749Zm5.066 2.758c.938 0 1.561-.42 1.68-1.19h-.819c-.063.357-.329.56-.84.56-.63 0-.98-.392-1.008-1.085h2.681v-.245c0-1.309-.819-1.848-1.729-1.848-1.043 0-1.82.756-1.82 1.89v.056c0 1.155.777 1.862 1.855 1.862Zm-.973-2.282c.084-.567.427-.91.938-.91.525 0 .847.28.89.91h-1.828Zm4.417 2.282c.56 0 .882-.203 1.12-.518V246h.833v-2.401c0-1.001-.644-1.337-1.463-1.337-.819 0-1.498.357-1.568 1.211h.819c.042-.364.259-.574.7-.574.497 0 .665.245.665.735v.189h-.455c-1.05 0-1.876.308-1.876 1.162 0 .763.553 1.085 1.225 1.085Zm.203-.609c-.42 0-.588-.203-.588-.511 0-.448.413-.595 1.057-.595h.434v.364c0 .469-.385.742-.903.742Zm4.324.609c.994 0 1.63-.595 1.694-1.435h-.777c-.05.518-.434.784-.882.784-.623 0-1.015-.42-1.015-1.218v-.056c0-.756.413-1.204.994-1.204.448 0 .77.203.84.693h.819c-.098-1.008-.861-1.372-1.673-1.372-1.022 0-1.848.735-1.848 1.897v.056c0 1.169.798 1.855 1.848 1.855Zm2.423-.07h.847v-2.156c0-.581.385-.875.861-.875.504 0 .728.252.728.805V246h.847v-2.303c0-1.008-.518-1.435-1.253-1.435-.602 0-1.008.301-1.183.658v-2.275h-.847V246Zm5.869.07c.938 0 1.561-.42 1.68-1.19h-.819c-.063.357-.329.56-.84.56-.63 0-.98-.392-1.008-1.085h2.681v-.245c0-1.309-.819-1.848-1.729-1.848-1.043 0-1.82.756-1.82 1.89v.056c0 1.155.777 1.862 1.855 1.862Zm-.973-2.282c.084-.567.427-.91.938-.91.525 0 .847.28.889.91h-1.827Zm4.795 2.282c.54 0 1.008-.322 1.204-.686V246h.847v-5.355h-.846v2.254c-.204-.364-.575-.637-1.17-.637-.951 0-1.645.742-1.645 1.911v.056c0 1.19.694 1.841 1.61 1.841Zm.21-.672c-.546 0-.951-.385-.951-1.19v-.056c0-.791.363-1.225.986-1.225.617 0 .987.399.987 1.204v.056c0 .819-.434 1.211-1.022 1.211ZM182.765 246.07c1.19 0 2.044-.609 2.191-1.813h-.91c-.098.707-.588 1.057-1.281 1.057-.924 0-1.463-.665-1.463-1.792v-.056c0-1.12.574-1.806 1.456-1.806.721 0 1.092.343 1.197 1.008h.945c-.112-1.176-1.001-1.75-2.149-1.75-1.393 0-2.429 1.05-2.429 2.555v.056c0 1.54.875 2.541 2.443 2.541Zm4.566 0c1.078 0 1.883-.742 1.883-1.883v-.056c0-1.12-.805-1.869-1.876-1.869-1.078 0-1.883.756-1.883 1.89v.056c0 1.113.798 1.862 1.876 1.862Zm.007-.658c-.644 0-1.015-.469-1.015-1.218v-.056c0-.756.385-1.211 1.015-1.211.63 0 1.008.462 1.008 1.218v.049c0 .749-.378 1.218-1.008 1.218Zm2.641.588h.847v-2.191c0-.56.385-.84.805-.84.413 0 .651.231.651.77V246h.847v-2.191c0-.56.385-.84.805-.84.42 0 .651.231.651.77V246h.847v-2.317c0-1.008-.546-1.421-1.218-1.421-.455 0-.959.203-1.239.658-.182-.455-.56-.658-1.036-.658-.539 0-.938.294-1.113.637v-.56h-.847V246Zm6.426 1.253h.847v-1.827c.196.357.616.644 1.197.644.945 0 1.624-.714 1.624-1.89v-.056c0-1.183-.707-1.862-1.624-1.862-.539 0-.994.315-1.197.665v-.588h-.847v4.914Zm1.834-1.855c-.616 0-1.015-.385-1.015-1.204v-.056c0-.812.42-1.211 1.008-1.211.553 0 .973.399.973 1.211v.056c0 .784-.343 1.204-.966 1.204Zm2.616.602h.847v-5.355h-.847V246Zm3.49.07c.938 0 1.561-.42 1.68-1.19h-.819c-.063.357-.329.56-.84.56-.63 0-.98-.392-1.008-1.085h2.681v-.245c0-1.309-.819-1.848-1.729-1.848-1.043 0-1.82.756-1.82 1.89v.056c0 1.155.777 1.862 1.855 1.862Zm-.973-2.282c.084-.567.427-.91.938-.91.525 0 .847.28.889.91h-1.827Zm4.669 2.275c.259 0 .441-.042.574-.091v-.672a1.04 1.04 0 0 1-.413.07c-.266 0-.42-.147-.42-.469v-1.925h.805v-.637h-.805v-.805h-.847v.805h-.49v.637h.49v2.002c0 .693.378 1.085 1.106 1.085Zm2.948.007c.938 0 1.561-.42 1.68-1.19h-.819c-.063.357-.329.56-.84.56-.63 0-.98-.392-1.008-1.085h2.681v-.245c0-1.309-.819-1.848-1.729-1.848-1.043 0-1.82.756-1.82 1.89v.056c0 1.155.777 1.862 1.855 1.862Zm-.973-2.282c.084-.567.427-.91.938-.91.525 0 .847.28.889.91h-1.827Zm4.796 2.282c.539 0 1.008-.322 1.204-.686V246h.847v-5.355h-.847v2.254c-.203-.364-.574-.637-1.169-.637-.952 0-1.645.742-1.645 1.911v.056c0 1.19.693 1.841 1.61 1.841Zm.21-.672c-.546 0-.952-.385-.952-1.19v-.056c0-.791.364-1.225.987-1.225.616 0 .987.399.987 1.204v.056c0 .819-.434 1.211-1.022 1.211Zm6.286.672c1.106 0 1.841-.679 1.841-1.547 0-1.001-.609-1.337-1.785-1.498-.868-.126-1.036-.329-1.036-.735 0-.385.294-.658.861-.658.574 0 .875.224.966.749h.854c-.098-.959-.742-1.449-1.82-1.449-1.043 0-1.743.616-1.743 1.435 0 .938.567 1.302 1.764 1.463.812.133 1.043.308 1.043.77s-.392.77-.945.77c-.847 0-1.05-.42-1.113-.924h-.896c.07.945.644 1.624 2.009 1.624Zm3.919-.007c.259 0 .441-.042.574-.091v-.672a1.04 1.04 0 0 1-.413.07c-.266 0-.42-.147-.42-.469v-1.925h.805v-.637h-.805v-.805h-.847v.805h-.49v.637h.49v2.002c0 .693.378 1.085 1.106 1.085Zm2.324.007c.56 0 .882-.203 1.12-.518V246h.833v-2.401c0-1.001-.644-1.337-1.463-1.337-.819 0-1.498.357-1.568 1.211h.819c.042-.364.259-.574.7-.574.497 0 .665.245.665.735v.189h-.455c-1.05 0-1.876.308-1.876 1.162 0 .763.553 1.085 1.225 1.085Zm.203-.609c-.42 0-.588-.203-.588-.511 0-.448.413-.595 1.057-.595h.434v.364c0 .469-.385.742-.903.742Zm4.282 1.883c1.134 0 1.855-.539 1.862-1.617v-3.388h-.847v.56c-.21-.364-.574-.637-1.176-.637-.945 0-1.645.77-1.645 1.799v.049c0 1.057.707 1.743 1.624 1.743.539 0 .994-.329 1.197-.679v.539c0 .658-.364.987-1.022.987-.553 0-.833-.21-.903-.574h-.854c.098.7.616 1.218 1.764 1.218Zm.028-2.142c-.546 0-.966-.42-.966-1.099v-.056c0-.665.364-1.12.994-1.12.609 0 .987.413.987 1.106v.049c0 .7-.427 1.12-1.015 1.12Zm4.451.868c.938 0 1.561-.42 1.68-1.19h-.819c-.063.357-.329.56-.84.56-.63 0-.98-.392-1.008-1.085h2.681v-.245c0-1.309-.819-1.848-1.729-1.848-1.043 0-1.82.756-1.82 1.89v.056c0 1.155.777 1.862 1.855 1.862Zm-.973-2.282c.084-.567.427-.91.938-.91.525 0 .847.28.889.91h-1.827Z"/>
  <path fill="#007DEB" stroke="#007DEB" d="M57.5 165.5V162c21.5.5 25 17.977 25 23.5h-4c0-16.4-14-20.167-21-20Z"/>
  <rect width="23.25" height="9.25" x="70.375" y="168.375" fill="#E1F2FA" stroke="#007DEB" stroke-width=".75" rx="4.625"/>
  <path fill="#007DEB" d="M74.12 176h4.136v-.824h-2.432l1.272-1.24c.68-.656 1.12-1.304 1.12-2.048 0-1.008-.704-1.688-1.888-1.688-1.208 0-1.96.72-2.032 1.968h.976c.096-.808.456-1.136 1.024-1.136.552 0 .856.336.856.872 0 .544-.328 1.048-.872 1.624l-2.16 2.28V176Zm6.833.08c1.232 0 2.104-.76 2.104-1.968 0-1.2-.728-1.92-1.76-1.92-.608 0-1.008.224-1.232.48l.008-1.552h2.656v-.84h-3.472l-.048 3.184h.544c.256-.296.608-.496 1.192-.496.632 0 1.032.44 1.032 1.128 0 .704-.376 1.16-1.032 1.16-.736 0-.952-.368-1.04-.896h-.992c.064.984.696 1.72 2.04 1.72Zm3.89-3.08c.784 0 1.392-.592 1.392-1.4 0-.8-.616-1.376-1.384-1.376-.768 0-1.4.592-1.4 1.392 0 .792.608 1.384 1.392 1.384Zm-.608 3h.68l3.68-5.72h-.672L84.235 176Zm.616-3.648c-.376 0-.616-.256-.616-.744 0-.48.24-.744.616-.744s.608.28.608.744c0 .472-.232.744-.608.744Zm3.128 3.728c.784 0 1.4-.592 1.4-1.4 0-.8-.624-1.376-1.392-1.376-.768 0-1.392.592-1.392 1.392 0 .792.6 1.384 1.384 1.384Zm.008-.648c-.376 0-.616-.256-.616-.744 0-.48.24-.744.616-.744s.608.28.608.744c0 .472-.232.744-.608.744Z"/>
  <rect width="233" height="252" x="278" y="23" fill="#fff" rx="5"/>
  <path stroke="#000" stroke-opacity=".35" d="m398 267.829-3.5-3.073-3.5 3.073"/>
  <path fill="#000" d="M354.783 58.725c2.828 0 4.564-1.68 4.564-4.452v-.924h-4.354v1.4h2.52c-.056 1.386-.826 2.52-2.702 2.52-2.1 0-3.094-1.47-3.094-3.612v-.112c0-2.198 1.134-3.654 3.094-3.654 1.302 0 2.198.574 2.422 1.904h1.862c-.266-2.394-2.17-3.374-4.312-3.374-2.926 0-4.998 2.128-4.998 5.11v.112c0 2.954 1.792 5.082 4.998 5.082Zm9.441 0c1.876 0 3.122-.84 3.36-2.38h-1.638c-.126.714-.658 1.12-1.68 1.12-1.26 0-1.96-.784-2.016-2.17h5.362v-.49c0-2.618-1.638-3.696-3.458-3.696-2.086 0-3.64 1.512-3.64 3.78v.112c0 2.31 1.554 3.724 3.71 3.724Zm-1.946-4.564c.168-1.134.854-1.82 1.876-1.82 1.05 0 1.694.56 1.778 1.82h-3.654Zm6.847 4.424h1.694v-4.312c0-1.162.77-1.75 1.722-1.75 1.008 0 1.456.504 1.456 1.61v4.452h1.694V53.98c0-2.016-1.036-2.87-2.506-2.87-1.204 0-2.016.602-2.366 1.316v-1.162h-1.694v7.322Zm11.35 0h1.904l2.352-3.906 2.352 3.906h2.128l-3.206-5.18 2.954-4.83h-1.918l-2.114 3.556-2.128-3.556h-2.1l2.996 4.872-3.22 5.138Zm15.422 0h1.778l2.03-7.294 1.974 7.294h1.862l2.506-10.01h-1.736l-1.792 7.392-1.988-7.392h-1.54l-1.946 7.35-1.736-7.35h-1.904l2.492 10.01Zm14.184.14c2.156 0 3.766-1.484 3.766-3.766v-.112c0-2.24-1.61-3.738-3.752-3.738-2.156 0-3.766 1.512-3.766 3.78v.112c0 2.226 1.596 3.724 3.752 3.724Zm.014-1.316c-1.288 0-2.03-.938-2.03-2.436v-.112c0-1.512.77-2.422 2.03-2.422 1.26 0 2.016.924 2.016 2.436v.098c0 1.498-.756 2.436-2.016 2.436Zm5.282 1.176h1.694v-4.382c0-1.12.77-1.68 1.61-1.68.826 0 1.302.462 1.302 1.54v4.522h1.694v-4.382c0-1.12.77-1.68 1.61-1.68.84 0 1.302.462 1.302 1.54v4.522h1.694v-4.634c0-2.016-1.092-2.842-2.436-2.842-.91 0-1.918.406-2.478 1.316-.364-.91-1.12-1.316-2.072-1.316-1.078 0-1.876.588-2.226 1.274v-1.12h-1.694v7.322Zm16.072.14c1.876 0 3.122-.84 3.36-2.38h-1.638c-.126.714-.658 1.12-1.68 1.12-1.26 0-1.96-.784-2.016-2.17h5.362v-.49c0-2.618-1.638-3.696-3.458-3.696-2.086 0-3.64 1.512-3.64 3.78v.112c0 2.31 1.554 3.724 3.71 3.724Zm-1.946-4.564c.168-1.134.854-1.82 1.876-1.82 1.05 0 1.694.56 1.778 1.82h-3.654Zm6.847 4.424h1.694v-4.312c0-1.162.77-1.75 1.722-1.75 1.008 0 1.456.504 1.456 1.61v4.452h1.694V53.98c0-2.016-1.036-2.87-2.506-2.87-1.204 0-2.016.602-2.366 1.316v-1.162h-1.694v7.322ZM296.716 101.61h1.781l3.38-9.087v-.208h-6.5v1.404h4.329l-2.99 7.891Zm9.104.13c2.132 0 3.484-1.066 3.484-2.782 0-1.235-.715-2.002-1.794-2.25.897-.337 1.508-.974 1.508-2.027 0-1.378-1.131-2.496-3.068-2.496-1.989 0-3.198 1.235-3.289 2.847h1.534c.104-.936.741-1.534 1.729-1.534.962 0 1.443.559 1.443 1.313 0 .87-.481 1.365-1.547 1.365h-.663v1.235h.715c1.131 0 1.677.507 1.677 1.52 0 .924-.559 1.509-1.768 1.509-1.248 0-1.794-.728-1.885-1.703h-1.573c.078 1.781 1.287 3.003 3.497 3.003Zm5.61-.13h1.781l3.38-9.087v-.208h-6.5v1.404h4.329l-2.99 7.891Zm6.434 0h1.729v-4.342l3.575 4.342h2.041l-4.043-4.862 3.848-4.433h-1.859l-3.562 4.212v-4.212h-1.729v9.295Zm141.59 1.755h.871v-1.638c1.911-.13 3.042-1.339 3.042-2.86 0-1.755-1.118-2.405-3.042-2.717v-2.665c.793.13 1.196.585 1.339 1.378h1.534c-.156-1.612-1.196-2.483-2.873-2.64v-1.182h-.871v1.17c-1.768.117-2.925 1.196-2.925 2.639 0 1.65 1.001 2.353 2.925 2.678v2.925c-1.235-.156-1.521-.871-1.625-1.716h-1.612c.13 1.573 1.014 2.834 3.237 2.99v1.638Zm-1.391-8.658c0-.65.494-1.157 1.391-1.261v2.56c-1.144-.233-1.391-.623-1.391-1.3Zm3.705 4.316c0 .767-.572 1.313-1.443 1.43v-2.782c1.131.247 1.443.61 1.443 1.352Zm2.415 2.587h6.721v-1.339h-3.952l2.067-2.015c1.105-1.066 1.82-2.12 1.82-3.328 0-1.638-1.144-2.743-3.068-2.743-1.963 0-3.185 1.17-3.302 3.198h1.586c.156-1.313.741-1.846 1.664-1.846.897 0 1.391.546 1.391 1.417 0 .884-.533 1.703-1.417 2.639l-3.51 3.705v.312Zm9.103.091c.585 0 1.04-.442 1.04-1.014 0-.572-.455-1.027-1.04-1.027-.572 0-1.027.455-1.027 1.027a1.01 1.01 0 0 0 1.027 1.014Zm5.466.039c2.002 0 3.419-1.235 3.419-3.198 0-1.95-1.183-3.12-2.86-3.12-.988 0-1.638.364-2.002.78l.013-2.522h4.316v-1.365h-5.642l-.078 5.174h.884c.416-.481.988-.806 1.937-.806 1.027 0 1.677.715 1.677 1.833 0 1.144-.611 1.885-1.677 1.885-1.196 0-1.547-.598-1.69-1.456h-1.612c.104 1.599 1.131 2.795 3.315 2.795Zm8.562 0c2.431 0 3.887-1.781 3.887-4.576v-.468c0-2.795-1.534-4.511-3.887-4.511-2.34 0-3.9 1.729-3.9 4.55v.468c0 2.795 1.534 4.537 3.9 4.537Zm.039-1.378c-1.391 0-2.197-1.066-2.197-3.172v-.468c0-2.067.767-3.185 2.171-3.185 1.391 0 2.145 1.196 2.145 3.172v.455c0 2.106-.689 3.198-2.119 3.198Z"/>
  <path fill="#000" fill-opacity=".41" d="M437.34 101.7c1.53 0 2.628-.783 2.817-2.331h-1.17c-.126.909-.756 1.359-1.647 1.359-1.188 0-1.881-.855-1.881-2.304v-.072c0-1.44.738-2.322 1.872-2.322.927 0 1.404.44 1.539 1.296h1.215c-.144-1.512-1.287-2.25-2.763-2.25-1.791 0-3.123 1.35-3.123 3.285v.072c0 1.98 1.125 3.267 3.141 3.267Zm3.854-.09h1.197v-2.448h.9c1.377 0 2.358-.603 2.358-1.962v-.036c0-1.35-.945-1.99-2.385-1.99h-2.07v6.436Zm1.197-3.312v-2.196h.873c.765 0 1.215.297 1.215 1.062v.036c0 .71-.423 1.098-1.215 1.098h-.873Zm7.131 3.402c1.53 0 2.628-.783 2.817-2.331h-1.17c-.126.909-.756 1.359-1.647 1.359-1.188 0-1.881-.855-1.881-2.304v-.072c0-1.44.738-2.322 1.872-2.322.927 0 1.404.44 1.539 1.296h1.215c-.144-1.512-1.287-2.25-2.763-2.25-1.791 0-3.123 1.35-3.123 3.285v.072c0 1.98 1.125 3.267 3.141 3.267Z"/>
  <path fill="#000" d="M296.464 230.732h1.072v-5.72h-.952l-1.328.944v.936l1.208-.824v4.664Zm4.696.08c1.496 0 2.392-1.096 2.392-2.816v-.288c0-1.72-.944-2.776-2.392-2.776-1.44 0-2.4 1.064-2.4 2.8v.288c0 1.72.944 2.792 2.4 2.792Zm.024-.848c-.856 0-1.352-.656-1.352-1.952v-.288c0-1.272.472-1.96 1.336-1.96.856 0 1.32.736 1.32 1.952v.28c0 1.296-.424 1.968-1.304 1.968Zm5.585.848c1.496 0 2.392-1.096 2.392-2.816v-.288c0-1.72-.944-2.776-2.392-2.776-1.44 0-2.4 1.064-2.4 2.8v.288c0 1.72.944 2.792 2.4 2.792Zm.024-.848c-.856 0-1.352-.656-1.352-1.952v-.288c0-1.272.472-1.96 1.336-1.96.856 0 1.32.736 1.32 1.952v.28c0 1.296-.424 1.968-1.304 1.968Zm173.898.768h1.072v-5.72h-.952l-1.328.944v.936l1.208-.824v4.664Zm2.007 0h4.136v-.824h-2.432l1.272-1.24c.68-.656 1.12-1.304 1.12-2.048 0-1.008-.704-1.688-1.888-1.688-1.208 0-1.96.72-2.032 1.968h.976c.096-.808.456-1.136 1.024-1.136.552 0 .856.336.856.872 0 .544-.328 1.048-.872 1.624l-2.16 2.28v.192Zm6.921.072c1.472 0 2.304-1.048 2.304-2.928v-.296c0-1.648-.736-2.656-2.232-2.656-1.304 0-2.12.792-2.12 1.96 0 1.128.792 1.856 1.896 1.856.68 0 1.144-.288 1.408-.72-.016 1.304-.456 1.96-1.272 1.96-.616 0-.88-.288-.984-.736h-1c.136.984.832 1.56 2 1.56Zm.072-2.808c-.656 0-1.072-.456-1.072-1.144 0-.68.424-1.136 1.064-1.136.656 0 1.112.448 1.112 1.216 0 .632-.456 1.064-1.104 1.064ZM345.492 242.049h.72v-3.24l1.302 3.24h.258l1.278-3.24v3.24h.798v-4.29h-1.056l-1.104 2.928-1.128-2.928h-1.068v4.29Zm6.641.06c.804 0 1.338-.36 1.44-1.02h-.702c-.054.306-.282.48-.72.48-.54 0-.84-.336-.864-.93h2.298v-.21c0-1.122-.702-1.584-1.482-1.584-.894 0-1.56.648-1.56 1.62v.048c0 .99.666 1.596 1.59 1.596Zm-.834-1.956c.072-.486.366-.78.804-.78.45 0 .726.24.762.78h-1.566Zm4.11 1.956c.462 0 .864-.276 1.032-.588v.528h.726v-4.59h-.726v1.932c-.174-.312-.492-.546-1.002-.546-.816 0-1.41.636-1.41 1.638v.048c0 1.02.594 1.578 1.38 1.578Zm.18-.576c-.468 0-.816-.33-.816-1.02v-.048c0-.678.312-1.05.846-1.05.528 0 .846.342.846 1.032v.048c0 .702-.372 1.038-.876 1.038Zm2.813-3.138c.24 0 .432-.18.432-.414a.42.42 0 0 0-.432-.42.42.42 0 0 0-.432.42c0 .234.192.414.432.414Zm-.354 3.654h.726v-3.138h-.726v3.138Zm2.433.06c.48 0 .756-.174.96-.444v.384h.714v-2.058c0-.858-.552-1.146-1.254-1.146s-1.284.306-1.344 1.038h.702c.036-.312.222-.492.6-.492.426 0 .57.21.57.63v.162h-.39c-.9 0-1.608.264-1.608.996 0 .654.474.93 1.05.93Zm.174-.522c-.36 0-.504-.174-.504-.438 0-.384.354-.51.906-.51h.372v.312c0 .402-.33.636-.774.636Zm2.332.462h.726v-1.848c0-.498.33-.75.738-.75.432 0 .624.216.624.69v1.908h.726v-1.974c0-.864-.444-1.23-1.074-1.23-.516 0-.864.258-1.014.564v-.498h-.726v3.138Zm4.106-1.71c.27 0 .48-.21.48-.474a.468.468 0 0 0-.48-.468.471.471 0 1 0 0 .942Zm0 1.752c.27 0 .48-.204.48-.468a.473.473 0 0 0-.48-.474.471.471 0 1 0 0 .942Zm3.421-.042h.804v-4.29h-.714l-.996.708v.702l.906-.618v3.498Zm3.522.06c1.122 0 1.794-.822 1.794-2.112v-.216c0-1.29-.708-2.082-1.794-2.082-1.08 0-1.8.798-1.8 2.1v.216c0 1.29.708 2.094 1.8 2.094Zm.018-.636c-.642 0-1.014-.492-1.014-1.464v-.216c0-.954.354-1.47 1.002-1.47.642 0 .99.552.99 1.464v.21c0 .972-.318 1.476-.978 1.476Zm3.914.636c.864 0 1.596-.45 1.596-1.296 0-.522-.294-.894-.798-1.074.384-.168.636-.462.636-.9 0-.708-.666-1.14-1.434-1.14-.744 0-1.44.426-1.44 1.152 0 .426.24.738.636.894-.48.168-.804.546-.804 1.092 0 .84.756 1.272 1.608 1.272Zm.012-2.598c-.372 0-.69-.228-.69-.618 0-.384.3-.618.678-.618.384 0 .678.246.678.612 0 .39-.276.624-.666.624Zm-.012 1.998c-.432 0-.804-.258-.804-.738s.372-.738.81-.738c.444 0 .792.258.792.732 0 .48-.342.744-.798.744ZM295.216 149.805h1l.448-1.416h2.184l.456 1.416h1.104l-1.888-5.72h-1.392l-1.912 5.72Zm2.544-4.848.84 2.656h-1.688l.848-2.656Zm4.193 4.848h1.128l1.512-4.184h-.952l-1.08 3.192-1.096-3.192h-1.04l1.528 4.184Zm5.04 1.536c1.296 0 2.12-.616 2.128-1.848v-3.872h-.968v.64c-.24-.416-.656-.728-1.344-.728-1.08 0-1.88.88-1.88 2.056v.056c0 1.208.808 1.992 1.856 1.992a1.63 1.63 0 0 0 1.368-.776v.616c0 .752-.416 1.128-1.168 1.128-.632 0-.952-.24-1.032-.656h-.976c.112.8.704 1.392 2.016 1.392Zm.032-2.448c-.624 0-1.104-.48-1.104-1.256v-.064c0-.76.416-1.28 1.136-1.28.696 0 1.128.472 1.128 1.264v.056c0 .8-.488 1.28-1.16 1.28Zm3.823.968c.36 0 .64-.272.64-.624a.63.63 0 0 0-.64-.632.628.628 0 1 0 0 1.256Zm4.866-.056h1.072v-4.88h1.592v-.84h-4.256v.84h1.592v4.88Zm4.703.08c1.232 0 2.152-.848 2.152-2.152v-.064c0-1.28-.92-2.136-2.144-2.136-1.232 0-2.152.864-2.152 2.16v.064c0 1.272.912 2.128 2.144 2.128Zm.008-.752c-.736 0-1.16-.536-1.16-1.392v-.064c0-.864.44-1.384 1.16-1.384s1.152.528 1.152 1.392v.056c0 .856-.432 1.392-1.152 1.392Zm4.418.752c.68 0 1.12-.328 1.328-.736v.656h.968v-4.184h-.968v2.488c0 .664-.456 1-.976 1-.56 0-.824-.288-.824-.92v-2.568h-.968v2.68c0 1.112.616 1.584 1.44 1.584Zm5.276 0c1.136 0 1.864-.68 1.936-1.64h-.888c-.056.592-.496.896-1.008.896-.712 0-1.16-.48-1.16-1.392v-.064c0-.864.472-1.376 1.136-1.376.512 0 .88.232.96.792h.936c-.112-1.152-.984-1.568-1.912-1.568-1.168 0-2.112.84-2.112 2.168v.064c0 1.336.912 2.12 2.112 2.12Zm2.77-.08h.968v-2.464c0-.664.44-1 .984-1 .576 0 .832.288.832.92v2.544h.968v-2.632c0-1.152-.592-1.64-1.432-1.64-.688 0-1.152.344-1.352.752v-2.6h-.968v6.12Zm4.867 1.432h.968v-2.088c.224.408.704.736 1.368.736 1.08 0 1.856-.816 1.856-2.16v-.064c0-1.352-.808-2.128-1.856-2.128-.616 0-1.136.36-1.368.76v-.672h-.968v5.616Zm2.096-2.12c-.704 0-1.16-.44-1.16-1.376v-.064c0-.928.48-1.384 1.152-1.384.632 0 1.112.456 1.112 1.384v.064c0 .896-.392 1.376-1.104 1.376Zm4.83.768c1.232 0 2.152-.848 2.152-2.152v-.064c0-1.28-.92-2.136-2.144-2.136-1.232 0-2.152.864-2.152 2.16v.064c0 1.272.912 2.128 2.144 2.128Zm.008-.752c-.736 0-1.16-.536-1.16-1.392v-.064c0-.864.44-1.384 1.16-1.384s1.152.528 1.152 1.392v.056c0 .856-.432 1.392-1.152 1.392Zm3.515-4.2c.32 0 .576-.24.576-.552a.56.56 0 0 0-.576-.56.56.56 0 0 0-.576.56c0 .312.256.552.576.552Zm-.472 4.872h.968v-4.184h-.968v4.184Zm2.148 0h.968v-2.464c0-.664.44-1 .984-1 .576 0 .832.288.832.92v2.544h.968v-2.632c0-1.152-.592-1.64-1.432-1.64-.688 0-1.152.344-1.352.752v-.664h-.968v4.184Zm6.291.072c.296 0 .504-.048.656-.104v-.768a1.19 1.19 0 0 1-.472.08c-.304 0-.48-.168-.48-.536v-2.2h.92v-.728h-.92v-.92h-.968v.92h-.56v.728h.56v2.288c0 .792.432 1.24 1.264 1.24Zm2.985.008c1.072 0 1.672-.488 1.672-1.336 0-.888-.584-1.128-1.568-1.28-.664-.112-.864-.232-.864-.536 0-.296.248-.496.664-.496.448 0 .664.176.744.56h.896c-.104-.944-.784-1.264-1.64-1.264-.784 0-1.568.416-1.568 1.256 0 .784.408 1.096 1.512 1.272.616.104.896.232.896.576 0 .352-.232.536-.752.536-.568 0-.784-.248-.832-.672h-.912c.04.888.672 1.384 1.752 1.384Zm-60.997 14c1.36 0 2.336-.696 2.504-2.072h-1.04c-.112.808-.672 1.208-1.464 1.208-1.056 0-1.672-.76-1.672-2.048v-.064c0-1.28.656-2.064 1.664-2.064.824 0 1.248.392 1.368 1.152h1.08c-.128-1.344-1.144-2-2.456-2-1.592 0-2.776 1.2-2.776 2.92v.064c0 1.76 1 2.904 2.792 2.904Zm5.218 0c1.232 0 2.152-.848 2.152-2.152v-.064c0-1.28-.92-2.136-2.144-2.136-1.232 0-2.152.864-2.152 2.16v.064c0 1.272.912 2.128 2.144 2.128Zm.008-.752c-.736 0-1.16-.536-1.16-1.392v-.064c0-.864.44-1.384 1.16-1.384s1.152.528 1.152 1.392v.056c0 .856-.432 1.392-1.152 1.392Zm3.018.672h.968v-2.464c0-.664.44-1 .984-1 .576 0 .832.288.832.92v2.544h.968v-2.632c0-1.152-.592-1.64-1.432-1.64-.688 0-1.152.344-1.352.752v-.664h-.968v4.184Zm5.878 0h1.128l1.512-4.184h-.952l-1.08 3.192-1.096-3.192h-1.04l1.528 4.184Zm5.04.08c1.072 0 1.784-.48 1.92-1.36h-.936c-.072.408-.376.64-.96.64-.72 0-1.12-.448-1.152-1.24h3.064v-.28c0-1.496-.936-2.112-1.976-2.112-1.192 0-2.08.864-2.08 2.16v.064c0 1.32.888 2.128 2.12 2.128Zm-1.112-2.608c.096-.648.488-1.04 1.072-1.04.6 0 .968.32 1.016 1.04h-2.088Zm3.913 2.528h.968v-2.176c0-.888.512-1.16 1.36-1.168v-.904c-.704.008-1.096.32-1.36.848v-.784h-.968v4.184Zm4.596.08c1.072 0 1.672-.488 1.672-1.336 0-.888-.584-1.128-1.568-1.28-.664-.112-.864-.232-.864-.536 0-.296.248-.496.664-.496.448 0 .664.176.744.56h.896c-.104-.944-.784-1.264-1.64-1.264-.784 0-1.568.416-1.568 1.256 0 .784.408 1.096 1.512 1.272.616.104.896.232.896.576 0 .352-.232.536-.752.536-.568 0-.784-.248-.832-.672h-.912c.04.888.672 1.384 1.752 1.384Zm3.017-4.952c.32 0 .576-.24.576-.552a.56.56 0 0 0-.576-.56.56.56 0 0 0-.576.56c0 .312.256.552.576.552Zm-.472 4.872h.968v-4.184h-.968v4.184Zm4.012.08c1.232 0 2.152-.848 2.152-2.152v-.064c0-1.28-.92-2.136-2.144-2.136-1.232 0-2.152.864-2.152 2.16v.064c0 1.272.912 2.128 2.144 2.128Zm.008-.752c-.736 0-1.16-.536-1.16-1.392v-.064c0-.864.44-1.384 1.16-1.384s1.152.528 1.152 1.392v.056c0 .856-.432 1.392-1.152 1.392Zm3.019.672h.968v-2.464c0-.664.44-1 .984-1 .576 0 .832.288.832.92v2.544h.968v-2.632c0-1.152-.592-1.64-1.432-1.64-.688 0-1.152.344-1.352.752v-.664h-.968v4.184Zm6.853 0h1.064v-2.312h.68l1.496 2.312h1.152l-1.608-2.472c.712-.184 1.272-.64 1.272-1.536v-.032c0-1.168-.88-1.68-2.136-1.68h-1.92v5.72Zm1.064-3.072v-1.824h.856c.68 0 1.088.224 1.088.88v.032c0 .608-.376.912-1.088.912h-.856Zm5.171 3.152c.64 0 1.008-.232 1.28-.592v.512h.952v-2.744c0-1.144-.736-1.528-1.672-1.528-.936 0-1.712.408-1.792 1.384h.936c.048-.416.296-.656.8-.656.568 0 .76.28.76.84v.216h-.52c-1.2 0-2.144.352-2.144 1.328 0 .872.632 1.24 1.4 1.24Zm.232-.696c-.48 0-.672-.232-.672-.584 0-.512.472-.68 1.208-.68h.496v.416c0 .536-.44.848-1.032.848Zm4.526.688c.296 0 .504-.048.656-.104v-.768a1.19 1.19 0 0 1-.472.08c-.304 0-.48-.168-.48-.536v-2.2h.92v-.728h-.92v-.92h-.968v.92h-.56v.728h.56v2.288c0 .792.432 1.24 1.264 1.24Zm3.369.008c1.072 0 1.784-.48 1.92-1.36h-.936c-.072.408-.376.64-.96.64-.72 0-1.12-.448-1.152-1.24h3.064v-.28c0-1.496-.936-2.112-1.976-2.112-1.192 0-2.08.864-2.08 2.16v.064c0 1.32.888 2.128 2.12 2.128Zm-1.112-2.608c.096-.648.488-1.04 1.072-1.04.6 0 .968.32 1.016 1.04h-2.088Zm-56.246 16.608c1.36 0 2.336-.696 2.504-2.072h-1.04c-.112.808-.672 1.208-1.464 1.208-1.056 0-1.672-.76-1.672-2.048v-.064c0-1.28.656-2.064 1.664-2.064.824 0 1.248.392 1.368 1.152h1.08c-.128-1.344-1.144-2-2.456-2-1.592 0-2.776 1.2-2.776 2.92v.064c0 1.76 1 2.904 2.792 2.904Zm5.218 0c1.232 0 2.152-.848 2.152-2.152v-.064c0-1.28-.92-2.136-2.144-2.136-1.232 0-2.152.864-2.152 2.16v.064c0 1.272.912 2.128 2.144 2.128Zm.008-.752c-.736 0-1.16-.536-1.16-1.392v-.064c0-.864.44-1.384 1.16-1.384s1.152.528 1.152 1.392v.056c0 .856-.432 1.392-1.152 1.392Zm3.018.672h.968v-2.464c0-.664.44-1 .984-1 .576 0 .832.288.832.92v2.544h.968v-2.632c0-1.152-.592-1.64-1.432-1.64-.688 0-1.152.344-1.352.752v-.664h-.968v4.184Zm6.3.08c1.072 0 1.672-.488 1.672-1.336 0-.888-.584-1.128-1.568-1.28-.664-.112-.864-.232-.864-.536 0-.296.248-.496.664-.496.448 0 .664.176.744.56h.896c-.104-.944-.784-1.264-1.64-1.264-.784 0-1.568.416-1.568 1.256 0 .784.408 1.096 1.512 1.272.616.104.896.232.896.576 0 .352-.232.536-.752.536-.568 0-.784-.248-.832-.672h-.912c.04.888.672 1.384 1.752 1.384Zm3.945-.008c.296 0 .504-.048.656-.104v-.768a1.19 1.19 0 0 1-.472.08c-.304 0-.48-.168-.48-.536v-2.2h.92v-.728h-.92v-.92h-.968v.92h-.56v.728h.56v2.288c0 .792.432 1.24 1.264 1.24Zm3.435 1.36h.968v-2.088c.224.408.704.736 1.368.736 1.08 0 1.856-.816 1.856-2.16v-.064c0-1.352-.808-2.128-1.856-2.128-.616 0-1.136.36-1.368.76v-.672h-.968v5.616Zm2.096-2.12c-.704 0-1.16-.44-1.16-1.376v-.064c0-.928.48-1.384 1.152-1.384.632 0 1.112.456 1.112 1.384v.064c0 .896-.392 1.376-1.104 1.376Zm4.807.768c1.072 0 1.784-.48 1.92-1.36h-.936c-.072.408-.376.64-.96.64-.72 0-1.12-.448-1.152-1.24h3.064v-.28c0-1.496-.936-2.112-1.976-2.112-1.192 0-2.08.864-2.08 2.16v.064c0 1.32.888 2.128 2.12 2.128Zm-1.112-2.608c.096-.648.488-1.04 1.072-1.04.6 0 .968.32 1.016 1.04h-2.088Zm3.912 2.528h.968v-2.176c0-.888.512-1.16 1.36-1.168v-.904c-.704.008-1.096.32-1.36.848v-.784h-.968v4.184Zm7.11.08c1.264 0 2.104-.776 2.104-1.768 0-1.144-.696-1.528-2.04-1.712-.992-.144-1.184-.376-1.184-.84 0-.44.336-.752.984-.752.656 0 1 .256 1.104.856h.976c-.112-1.096-.848-1.656-2.08-1.656-1.192 0-1.992.704-1.992 1.64 0 1.072.648 1.488 2.016 1.672.928.152 1.192.352 1.192.88s-.448.88-1.08.88c-.968 0-1.2-.48-1.272-1.056h-1.024c.08 1.08.736 1.856 2.296 1.856Zm4.478-.008c.296 0 .504-.048.656-.104v-.768a1.19 1.19 0 0 1-.472.08c-.304 0-.48-.168-.48-.536v-2.2h.92v-.728h-.92v-.92h-.968v.92h-.56v.728h.56v2.288c0 .792.432 1.24 1.264 1.24Zm2.657.008c.64 0 1.008-.232 1.28-.592v.512h.952v-2.744c0-1.144-.736-1.528-1.672-1.528-.936 0-1.712.408-1.792 1.384h.936c.048-.416.296-.656.8-.656.568 0 .76.28.76.84v.216h-.52c-1.2 0-2.144.352-2.144 1.328 0 .872.632 1.24 1.4 1.24Zm.232-.696c-.48 0-.672-.232-.672-.584 0-.512.472-.68 1.208-.68h.496v.416c0 .536-.44.848-1.032.848Zm4.893 2.152c1.296 0 2.12-.616 2.128-1.848v-3.872h-.968v.64c-.24-.416-.656-.728-1.344-.728-1.08 0-1.88.88-1.88 2.056v.056c0 1.208.808 1.992 1.856 1.992a1.63 1.63 0 0 0 1.368-.776v.616c0 .752-.416 1.128-1.168 1.128-.632 0-.952-.24-1.032-.656h-.976c.112.8.704 1.392 2.016 1.392Zm.032-2.448c-.624 0-1.104-.48-1.104-1.256v-.064c0-.76.416-1.28 1.136-1.28.696 0 1.128.472 1.128 1.264v.056c0 .8-.488 1.28-1.16 1.28Zm5.087.992c1.072 0 1.784-.48 1.92-1.36h-.936c-.072.408-.376.64-.96.64-.72 0-1.12-.448-1.152-1.24h3.064v-.28c0-1.496-.936-2.112-1.976-2.112-1.192 0-2.08.864-2.08 2.16v.064c0 1.32.888 2.128 2.12 2.128Zm-1.112-2.608c.096-.648.488-1.04 1.072-1.04.6 0 .968.32 1.016 1.04h-2.088Zm8.402 2.608c1.36 0 2.336-.696 2.504-2.072h-1.04c-.112.808-.672 1.208-1.464 1.208-1.056 0-1.672-.76-1.672-2.048v-.064c0-1.28.656-2.064 1.664-2.064.824 0 1.248.392 1.368 1.152h1.08c-.128-1.344-1.144-2-2.456-2-1.592 0-2.776 1.2-2.776 2.92v.064c0 1.76 1 2.904 2.792 2.904Zm3.346-.08h.968v-2.464c0-.664.44-1 .984-1 .576 0 .832.288.832.92v2.544h.968v-2.632c0-1.152-.592-1.64-1.432-1.64-.688 0-1.152.344-1.352.752v-2.6h-.968v6.12Zm5.963.08c.64 0 1.008-.232 1.28-.592v.512h.952v-2.744c0-1.144-.736-1.528-1.672-1.528-.936 0-1.712.408-1.792 1.384h.936c.048-.416.296-.656.8-.656.568 0 .76.28.76.84v.216h-.52c-1.2 0-2.144.352-2.144 1.328 0 .872.632 1.24 1.4 1.24Zm.232-.696c-.48 0-.672-.232-.672-.584 0-.512.472-.68 1.208-.68h.496v.416c0 .536-.44.848-1.032.848Zm3.11.616h.968v-2.464c0-.664.44-1 .984-1 .576 0 .832.288.832.92v2.544h.968v-2.632c0-1.152-.592-1.64-1.432-1.64-.688 0-1.152.344-1.352.752v-.664h-.968v4.184Zm6.651 1.536c1.296 0 2.12-.616 2.128-1.848v-3.872h-.968v.64c-.24-.416-.656-.728-1.344-.728-1.08 0-1.88.88-1.88 2.056v.056c0 1.208.808 1.992 1.856 1.992a1.63 1.63 0 0 0 1.368-.776v.616c0 .752-.416 1.128-1.168 1.128-.632 0-.952-.24-1.032-.656h-.976c.112.8.704 1.392 2.016 1.392Zm.032-2.448c-.624 0-1.104-.48-1.104-1.256v-.064c0-.76.416-1.28 1.136-1.28.696 0 1.128.472 1.128 1.264v.056c0 .8-.488 1.28-1.16 1.28Zm5.087.992c1.072 0 1.784-.48 1.92-1.36h-.936c-.072.408-.376.64-.96.64-.72 0-1.12-.448-1.152-1.24h3.064v-.28c0-1.496-.936-2.112-1.976-2.112-1.192 0-2.08.864-2.08 2.16v.064c0 1.32.888 2.128 2.12 2.128Zm-1.112-2.608c.096-.648.488-1.04 1.072-1.04.6 0 .968.32 1.016 1.04h-2.088Zm-86.715 16.608c1.36 0 2.336-.696 2.504-2.072h-1.04c-.112.808-.672 1.208-1.464 1.208-1.056 0-1.672-.76-1.672-2.048v-.064c0-1.28.656-2.064 1.664-2.064.824 0 1.248.392 1.368 1.152h1.08c-.128-1.344-1.144-2-2.456-2-1.592 0-2.776 1.2-2.776 2.92v.064c0 1.76 1 2.904 2.792 2.904Zm4.492-.08h1.072v-4.88h1.592v-.84h-4.256v.84h1.592v4.88Zm3.52 0h1.064v-2.312h.68l1.496 2.312h1.152l-1.608-2.472c.712-.184 1.272-.64 1.272-1.536v-.032c0-1.168-.88-1.68-2.136-1.68h-1.92v5.72Zm1.064-3.072v-1.824h.856c.68 0 1.088.224 1.088.88v.032c0 .608-.376.912-1.088.912h-.856Zm-9.076 17.152c1.36 0 2.336-.696 2.504-2.072h-1.04c-.112.808-.672 1.208-1.464 1.208-1.056 0-1.672-.76-1.672-2.048v-.064c0-1.28.656-2.064 1.664-2.064.824 0 1.248.392 1.368 1.152h1.08c-.128-1.344-1.144-2-2.456-2-1.592 0-2.776 1.2-2.776 2.92v.064c0 1.76 1 2.904 2.792 2.904Zm5.218 0c1.232 0 2.152-.848 2.152-2.152v-.064c0-1.28-.92-2.136-2.144-2.136-1.232 0-2.152.864-2.152 2.16v.064c0 1.272.912 2.128 2.144 2.128Zm.008-.752c-.736 0-1.16-.536-1.16-1.392v-.064c0-.864.44-1.384 1.16-1.384s1.152.528 1.152 1.392v.056c0 .856-.432 1.392-1.152 1.392Zm3.018.672h.968v-2.464c0-.664.44-1 .984-1 .576 0 .832.288.832.92v2.544h.968v-2.632c0-1.152-.592-1.64-1.432-1.64-.688 0-1.152.344-1.352.752v-.664h-.968v4.184Zm5.878 0h1.128l1.512-4.184h-.952l-1.08 3.192-1.096-3.192h-1.04l1.528 4.184Zm5.04.08c1.072 0 1.784-.48 1.92-1.36h-.936c-.072.408-.376.64-.96.64-.72 0-1.12-.448-1.152-1.24h3.064v-.28c0-1.496-.936-2.112-1.976-2.112-1.192 0-2.08.864-2.08 2.16v.064c0 1.32.888 2.128 2.12 2.128Zm-1.112-2.608c.096-.648.488-1.04 1.072-1.04.6 0 .968.32 1.016 1.04h-2.088Zm3.913 2.528h.968v-2.176c0-.888.512-1.16 1.36-1.168v-.904c-.704.008-1.096.32-1.36.848v-.784h-.968v4.184Zm4.596.08c1.072 0 1.672-.488 1.672-1.336 0-.888-.584-1.128-1.568-1.28-.664-.112-.864-.232-.864-.536 0-.296.248-.496.664-.496.448 0 .664.176.744.56h.896c-.104-.944-.784-1.264-1.64-1.264-.784 0-1.568.416-1.568 1.256 0 .784.408 1.096 1.512 1.272.616.104.896.232.896.576 0 .352-.232.536-.752.536-.568 0-.784-.248-.832-.672h-.912c.04.888.672 1.384 1.752 1.384Zm3.017-4.952c.32 0 .576-.24.576-.552a.56.56 0 0 0-.576-.56.56.56 0 0 0-.576.56c0 .312.256.552.576.552Zm-.472 4.872h.968v-4.184h-.968v4.184Zm4.012.08c1.232 0 2.152-.848 2.152-2.152v-.064c0-1.28-.92-2.136-2.144-2.136-1.232 0-2.152.864-2.152 2.16v.064c0 1.272.912 2.128 2.144 2.128Zm.008-.752c-.736 0-1.16-.536-1.16-1.392v-.064c0-.864.44-1.384 1.16-1.384s1.152.528 1.152 1.392v.056c0 .856-.432 1.392-1.152 1.392Zm3.019.672h.968v-2.464c0-.664.44-1 .984-1 .576 0 .832.288.832.92v2.544h.968v-2.632c0-1.152-.592-1.64-1.432-1.64-.688 0-1.152.344-1.352.752v-.664h-.968v4.184Zm6.853 0h1.064v-2.176h.8c1.224 0 2.096-.536 2.096-1.744v-.032c0-1.2-.84-1.768-2.12-1.768h-1.84v5.72Zm1.064-2.944v-1.952h.776c.68 0 1.08.264 1.08.944v.032c0 .632-.376.976-1.08.976h-.776Zm3.731 2.944h.968v-2.176c0-.888.512-1.16 1.36-1.168v-.904c-.704.008-1.096.32-1.36.848v-.784h-.968v4.184Zm4.958.08c1.232 0 2.152-.848 2.152-2.152v-.064c0-1.28-.92-2.136-2.144-2.136-1.232 0-2.152.864-2.152 2.16v.064c0 1.272.912 2.128 2.144 2.128Zm.008-.752c-.736 0-1.16-.536-1.16-1.392v-.064c0-.864.44-1.384 1.16-1.384s1.152.528 1.152 1.392v.056c0 .856-.432 1.392-1.152 1.392Zm3.019 2.104h.968v-2.088c.224.408.704.736 1.368.736 1.08 0 1.856-.816 1.856-2.16v-.064c0-1.352-.808-2.128-1.856-2.128-.616 0-1.136.36-1.368.76v-.672h-.968v5.616Zm2.096-2.12c-.704 0-1.16-.44-1.16-1.376v-.064c0-.928.48-1.384 1.152-1.384.632 0 1.112.456 1.112 1.384v.064c0 .896-.392 1.376-1.104 1.376Zm4.806.768c1.072 0 1.784-.48 1.92-1.36h-.936c-.072.408-.376.64-.96.64-.72 0-1.12-.448-1.152-1.24h3.064v-.28c0-1.496-.936-2.112-1.976-2.112-1.192 0-2.08.864-2.08 2.16v.064c0 1.32.888 2.128 2.12 2.128Zm-1.112-2.608c.096-.648.488-1.04 1.072-1.04.6 0 .968.32 1.016 1.04h-2.088Zm3.913 2.528h.968v-2.464c0-.664.44-1 .984-1 .576 0 .832.288.832.92v2.544h.968v-2.632c0-1.152-.592-1.64-1.432-1.64-.688 0-1.152.344-1.352.752v-.664h-.968v4.184Zm6.299.08c1.072 0 1.672-.488 1.672-1.336 0-.888-.584-1.128-1.568-1.28-.664-.112-.864-.232-.864-.536 0-.296.248-.496.664-.496.448 0 .664.176.744.56h.896c-.104-.944-.784-1.264-1.64-1.264-.784 0-1.568.416-1.568 1.256 0 .784.408 1.096 1.512 1.272.616.104.896.232.896.576 0 .352-.232.536-.752.536-.568 0-.784-.248-.832-.672h-.912c.04.888.672 1.384 1.752 1.384Zm3.017-4.952c.32 0 .576-.24.576-.552a.56.56 0 0 0-.576-.56.56.56 0 0 0-.576.56c0 .312.256.552.576.552Zm-.472 4.872h.968v-4.184h-.968v4.184Zm3.572.072c.296 0 .504-.048.656-.104v-.768a1.19 1.19 0 0 1-.472.08c-.304 0-.48-.168-.48-.536v-2.2h.92v-.728h-.92v-.92h-.968v.92h-.56v.728h.56v2.288c0 .792.432 1.24 1.264 1.24Zm1.993 1.36H379l2.28-5.616h-.944l-1.024 2.696-1.112-2.696h-1.048l1.656 3.76-.76 1.856Z"/>
  <path fill="#969696" d="M481.721 149.885c1.312 0 2.144-.656 2.144-1.712 0-.76-.44-1.232-1.104-1.384.552-.208.928-.6.928-1.248 0-.848-.696-1.536-1.888-1.536-1.224 0-1.968.76-2.024 1.752h.944c.064-.576.456-.944 1.064-.944.592 0 .888.344.888.808 0 .536-.296.84-.952.84h-.408v.76h.44c.696 0 1.032.312 1.032.936 0 .568-.344.928-1.088.928-.768 0-1.104-.448-1.16-1.048h-.968c.048 1.096.792 1.848 2.152 1.848Zm3.548-.024c.36 0 .64-.272.64-.624a.63.63 0 0 0-.64-.632.628.628 0 1 0 0 1.256Zm3.999-.056h1.032v-1.16h.768v-.792h-.768v-3.768h-1.336l-2.528 4.184v.376h2.832v1.16Zm-1.696-1.952 1.712-2.96v2.96h-1.712Zm-13.428 15.952h4.136v-.824h-2.432l1.272-1.24c.68-.656 1.12-1.304 1.12-2.048 0-1.008-.704-1.688-1.888-1.688-1.208 0-1.96.72-2.032 1.968h.976c.096-.808.456-1.136 1.024-1.136.552 0 .856.336.856.872 0 .544-.328 1.048-.872 1.624l-2.16 2.28v.192Zm5.602.056c.36 0 .64-.272.64-.624a.63.63 0 0 0-.64-.632.628.628 0 1 0 0 1.256Zm3.493.024c1.152 0 2.128-.6 2.128-1.728 0-.696-.392-1.192-1.064-1.432.512-.224.848-.616.848-1.2 0-.944-.888-1.52-1.912-1.52-.992 0-1.92.568-1.92 1.536 0 .568.32.984.848 1.192-.64.224-1.072.728-1.072 1.456 0 1.12 1.008 1.696 2.144 1.696Zm.016-3.464c-.496 0-.92-.304-.92-.824 0-.512.4-.824.904-.824.512 0 .904.328.904.816 0 .52-.368.832-.888.832Zm-.016 2.664c-.576 0-1.072-.344-1.072-.984s.496-.984 1.08-.984c.592 0 1.056.344 1.056.976 0 .64-.456.992-1.064.992Zm3.979-2.28c.784 0 1.392-.592 1.392-1.4 0-.8-.616-1.376-1.384-1.376-.768 0-1.4.592-1.4 1.392 0 .792.608 1.384 1.392 1.384Zm-.608 3h.68l3.68-5.72h-.672l-3.688 5.72Zm.616-3.648c-.376 0-.616-.256-.616-.744 0-.48.24-.744.616-.744s.608.28.608.744c0 .472-.232.744-.608.744Zm3.128 3.728c.784 0 1.4-.592 1.4-1.4 0-.8-.624-1.376-1.392-1.376-.768 0-1.392.592-1.392 1.392 0 .792.6 1.384 1.384 1.384Zm.008-.648c-.376 0-.616-.256-.616-.744 0-.48.24-.744.616-.744s.608.28.608.744c0 .472-.232.744-.608.744Zm-15.988 15.648h.536v-1.008c1.176-.08 1.872-.824 1.872-1.76 0-1.08-.688-1.48-1.872-1.672v-1.64c.488.08.736.36.824.848h.944c-.096-.992-.736-1.528-1.768-1.624v-.728h-.536v.72c-1.088.072-1.8.736-1.8 1.624 0 1.016.616 1.448 1.8 1.648v1.8c-.76-.096-.936-.536-1-1.056h-.992c.08.968.624 1.744 1.992 1.84v1.008Zm-.856-5.328c0-.4.304-.712.856-.776v1.576c-.704-.144-.856-.384-.856-.8Zm2.28 2.656c0 .472-.352.808-.888.88v-1.712c.696.152.888.376.888.832Zm1.486 1.592h4.136v-.824h-2.432l1.272-1.24c.68-.656 1.12-1.304 1.12-2.048 0-1.008-.704-1.688-1.888-1.688-1.208 0-1.96.72-2.032 1.968h.976c.096-.808.456-1.136 1.024-1.136.552 0 .856.336.856.872 0 .544-.328 1.048-.872 1.624l-2.16 2.28v.192Zm5.603.056c.36 0 .64-.272.64-.624a.63.63 0 0 0-.64-.632.628.628 0 1 0 0 1.256Zm1.677-.056h1.096l2.08-5.592v-.128h-4v.864h2.664l-1.84 4.856Zm5.608.08c1.232 0 2.104-.76 2.104-1.968 0-1.2-.728-1.92-1.76-1.92-.608 0-1.008.224-1.232.48l.008-1.552h2.656v-.84h-3.472l-.048 3.184h.544c.256-.296.608-.496 1.192-.496.632 0 1.032.44 1.032 1.128 0 .704-.376 1.16-1.032 1.16-.736 0-.952-.368-1.04-.896h-.992c.064.984.696 1.72 2.04 1.72Zm-17.825 13.92h1.072v-5.72h-.952l-1.328.944v.936l1.208-.824v4.664Zm2.008 0h4.136v-.824h-2.432l1.272-1.24c.68-.656 1.12-1.304 1.12-2.048 0-1.008-.704-1.688-1.888-1.688-1.208 0-1.96.72-2.032 1.968h.976c.096-.808.456-1.136 1.024-1.136.552 0 .856.336.856.872 0 .544-.328 1.048-.872 1.624l-2.16 2.28v.192Zm5.602.056c.36 0 .64-.272.64-.624a.63.63 0 0 0-.64-.632.628.628 0 1 0 0 1.256Zm3.493.024c1.152 0 2.128-.6 2.128-1.728 0-.696-.392-1.192-1.064-1.432.512-.224.848-.616.848-1.2 0-.944-.888-1.52-1.912-1.52-.992 0-1.92.568-1.92 1.536 0 .568.32.984.848 1.192-.64.224-1.072.728-1.072 1.456 0 1.12 1.008 1.696 2.144 1.696Zm.016-3.464c-.496 0-.92-.304-.92-.824 0-.512.4-.824.904-.824.512 0 .904.328.904.816 0 .52-.368.832-.888.832Zm-.016 2.664c-.576 0-1.072-.344-1.072-.984s.496-.984 1.08-.984c.592 0 1.056.344 1.056.976 0 .64-.456.992-1.064.992Zm3.979-2.28c.784 0 1.392-.592 1.392-1.4 0-.8-.616-1.376-1.384-1.376-.768 0-1.4.592-1.4 1.392 0 .792.608 1.384 1.392 1.384Zm-.608 3h.68l3.68-5.72h-.672l-3.688 5.72Zm.616-3.648c-.376 0-.616-.256-.616-.744 0-.48.24-.744.616-.744s.608.28.608.744c0 .472-.232.744-.608.744Zm3.128 3.728c.784 0 1.4-.592 1.4-1.4 0-.8-.624-1.376-1.392-1.376-.768 0-1.392.592-1.392 1.392 0 .792.6 1.384 1.384 1.384Zm.008-.648c-.376 0-.616-.256-.616-.744 0-.48.24-.744.616-.744s.608.28.608.744c0 .472-.232.744-.608.744Z"/>
  <ellipse cx="309" cy="52.707" fill="#fff" rx="24" ry="24.585"/>
  <path stroke="#000" stroke-opacity=".16" d="M332.5 52.707c0 13.314-10.532 24.086-23.5 24.086-12.967 0-23.5-10.772-23.5-24.086 0-13.313 10.533-24.085 23.5-24.085 12.968 0 23.5 10.772 23.5 24.085Z"/>
  <path stroke="#007DEB" stroke-width=".75" d="M295 259.259h198"/>
  <path stroke="#007DEB" stroke-opacity=".2" stroke-width=".75" d="M295 128.137h198"/>
  <path fill="#ADD8FF" fill-opacity=".3" d="M295 105.976h36v10.244h-36zM471 105.976h22v10.244h-22z"/>
  <path fill="#007DEB" d="M298.574 113.951h.931v-2.023h.595l1.309 2.023h1.008l-1.407-2.163c.623-.161 1.113-.56 1.113-1.344v-.028c0-1.022-.77-1.47-1.869-1.47h-1.68v5.005Zm.931-2.688v-1.596h.749c.595 0 .952.196.952.77v.028c0 .532-.329.798-.952.798h-.749Zm5.066 2.758c.938 0 1.561-.42 1.68-1.19h-.819c-.063.357-.329.56-.84.56-.63 0-.98-.392-1.008-1.085h2.681v-.245c0-1.309-.819-1.848-1.729-1.848-1.043 0-1.82.756-1.82 1.89v.056c0 1.155.777 1.862 1.855 1.862Zm-.973-2.282c.084-.567.427-.91.938-.91.525 0 .847.28.889.91h-1.827Zm4.417 2.282c.56 0 .882-.203 1.12-.518v.448h.833v-2.401c0-1.001-.644-1.337-1.463-1.337-.819 0-1.498.357-1.568 1.211h.819c.042-.364.259-.574.7-.574.497 0 .665.245.665.735v.189h-.455c-1.05 0-1.876.308-1.876 1.162 0 .763.553 1.085 1.225 1.085Zm.203-.609c-.42 0-.588-.203-.588-.511 0-.448.413-.595 1.057-.595h.434v.364c0 .469-.385.742-.903.742Zm4.324.609c.994 0 1.631-.595 1.694-1.435h-.777c-.049.518-.434.784-.882.784-.623 0-1.015-.42-1.015-1.218v-.056c0-.756.413-1.204.994-1.204.448 0 .77.203.84.693h.819c-.098-1.008-.861-1.372-1.673-1.372-1.022 0-1.848.735-1.848 1.897v.056c0 1.169.798 1.855 1.848 1.855Zm2.423-.07h.847v-2.156c0-.581.385-.875.861-.875.504 0 .728.252.728.805v2.226h.847v-2.303c0-1.008-.518-1.435-1.253-1.435-.602 0-1.008.301-1.183.658v-2.275h-.847v5.355Zm5.869.07c.938 0 1.561-.42 1.68-1.19h-.819c-.063.357-.329.56-.84.56-.63 0-.98-.392-1.008-1.085h2.681v-.245c0-1.309-.819-1.848-1.729-1.848-1.043 0-1.82.756-1.82 1.89v.056c0 1.155.777 1.862 1.855 1.862Zm-.973-2.282c.084-.567.427-.91.938-.91.525 0 .847.28.889.91h-1.827Zm4.796 2.282c.539 0 1.008-.322 1.204-.686v.616h.847v-5.355h-.847v2.254c-.203-.364-.574-.637-1.169-.637-.952 0-1.645.742-1.645 1.911v.056c0 1.19.693 1.841 1.61 1.841Zm.21-.672c-.546 0-.952-.385-.952-1.19v-.056c0-.791.364-1.225.987-1.225.616 0 .987.399.987 1.204v.056c0 .819-.434 1.211-1.022 1.211ZM476.821 114.021c1.414 0 2.282-.84 2.282-2.226v-.462h-2.177v.7h1.26c-.028.693-.413 1.26-1.351 1.26-1.05 0-1.547-.735-1.547-1.806v-.056c0-1.099.567-1.827 1.547-1.827.651 0 1.099.287 1.211.952h.931c-.133-1.197-1.085-1.687-2.156-1.687-1.463 0-2.499 1.064-2.499 2.555v.056c0 1.477.896 2.541 2.499 2.541Zm4.742 0c1.078 0 1.883-.742 1.883-1.883v-.056c0-1.12-.805-1.869-1.876-1.869-1.078 0-1.883.756-1.883 1.89v.056c0 1.113.798 1.862 1.876 1.862Zm.007-.658c-.644 0-1.015-.469-1.015-1.218v-.056c0-.756.385-1.211 1.015-1.211.63 0 1.008.462 1.008 1.218v.049c0 .749-.378 1.218-1.008 1.218Zm3.6.658c.56 0 .882-.203 1.12-.518v.448h.833v-2.401c0-1.001-.644-1.337-1.463-1.337-.819 0-1.498.357-1.568 1.211h.819c.042-.364.259-.574.7-.574.497 0 .665.245.665.735v.189h-.455c-1.05 0-1.876.308-1.876 1.162 0 .763.553 1.085 1.225 1.085Zm.203-.609c-.42 0-.588-.203-.588-.511 0-.448.413-.595 1.057-.595h.434v.364c0 .469-.385.742-.903.742Zm2.742.539h.847v-5.355h-.847v5.355Z"/>
  <path fill="#007DEB" stroke="#007DEB" d="M308.5 31.707v-3.585c21.5.512 25 18.416 25 24.073 0 5.634-1.5 9.732-2.5 11.78l-3.5-1.536c2-4.097 2.167-8.537 2-10.244 0-16.8-14-20.658-21-20.488Z"/>
  <rect width="23.25" height="9.494" x="321.375" y="34.643" fill="#E1F2FA" stroke="#007DEB" stroke-width=".75" rx="4.747"/>
  <path fill="#007DEB" d="M327.432 42.324c1.312 0 2.144-.656 2.144-1.712 0-.76-.44-1.232-1.104-1.384.552-.208.928-.6.928-1.248 0-.848-.696-1.536-1.888-1.536-1.224 0-1.968.76-2.024 1.752h.944c.064-.576.456-.944 1.064-.944.592 0 .888.344.888.808 0 .536-.296.84-.952.84h-.408v.76h.44c.696 0 1.032.312 1.032.936 0 .568-.344.928-1.088.928-.768 0-1.104-.448-1.16-1.048h-.968c.048 1.096.792 1.848 2.152 1.848Zm2.673-.08h4.136v-.824h-2.432l1.272-1.24c.68-.656 1.12-1.304 1.12-2.048 0-1.008-.704-1.688-1.888-1.688-1.208 0-1.96.72-2.032 1.968h.976c.096-.808.456-1.136 1.024-1.136.552 0 .856.336.856.872 0 .544-.328 1.048-.872 1.624l-2.16 2.28v.192Zm6.137-3c.784 0 1.392-.592 1.392-1.4 0-.8-.616-1.376-1.384-1.376-.768 0-1.4.592-1.4 1.392 0 .792.608 1.384 1.392 1.384Zm-.608 3h.68l3.68-5.72h-.672l-3.688 5.72Zm.616-3.648c-.376 0-.616-.256-.616-.744 0-.48.24-.744.616-.744s.608.28.608.744c0 .472-.232.744-.608.744Zm3.128 3.728c.784 0 1.4-.592 1.4-1.4 0-.8-.624-1.376-1.392-1.376-.768 0-1.392.592-1.392 1.392 0 .792.6 1.384 1.384 1.384Zm.008-.648c-.376 0-.616-.256-.616-.744 0-.48.24-.744.616-.744s.608.28.608.744c0 .472-.232.744-.608.744Z"/>
  <path fill="url(#a)" stroke="#007DEB" stroke-width=".5" d="M314.25 217.25h159.5v10.5h-159.5z"/>
  <path stroke="#007DEB" stroke-width=".5" d="M342.25 217v20"/>
  <rect width="13.25" height="11.25" x="270.375" y="19.375" fill="#E1F2FA" stroke="#007DEB" stroke-width=".75" rx="1.625"/>
  <path fill="#007DEB" d="M275.072 27.208h.712l.192-1.336h.8v-.784h-.68l.128-.88h.76v-.76h-.648l.176-1.168h-.712l-.176 1.168h-.664l.168-1.168h-.704l-.176 1.168h-.768v.76h.656l-.128.88h-.736v.784h.616l-.192 1.336h.712l.192-1.336h.664l-.192 1.336Zm-.224-3h.664l-.128.88h-.664l.128-.88ZM278.839 28h1.072v-5.72h-.952l-1.328.944v.936l1.208-.824V28Z"/>
  <defs>
    <linearGradient id="a" x1="368" x2="467.43" y1="228" y2="253.56" gradientUnits="userSpaceOnUse">
      <stop stop-color="#007DEB" stop-opacity=".6"/>
      <stop offset="1" stop-color="#C4C4C4" stop-opacity="0"/>
    </linearGradient>
  </defs>
</svg>