<svg id="Layer_1" data-name="Layer 1" xmlns="http://www.w3.org/2000/svg" viewBox="0 0 290 150">
  <defs>
    <mask id="mask" x="129" y="33" width="32" height="32" maskUnits="userSpaceOnUse">
      <g transform="translate(-13 -20)">
        <path class="cls-1" d="M170 55a2 2 0 0 1 2 2v24a2 2 0 0 1-2 2h-24a2 2 0 0 1-2-2V57a2 2 0 0 1 2-2Zm0 22h-24v4h24Zm0-20h-24v18.92l5.73-6.16a1 1 0 0 1 1.41-.05l3.3 3.29 5.29-6.92a1 1 0 0 1 1.41-.18 1 1 0 0 1 .21.21l6.65 9.47Zm-17.56 15-2.81 3h5.62Zm10.06-3.44L157.63 75h9.75ZM152 61a2 2 0 1 1-2 2 2 2 0 0 1 2-2Z" id="e"/>
      </g>
    </mask>
    <mask id="mask-2" x="40" y="111" width="24" height="24" maskUnits="userSpaceOnUse">
      <g transform="translate(-13 -20)">
        <path class="cls-1" d="M74 132.5a1.5 1.5 0 0 1 1.5 1.5v18a1.5 1.5 0 0 1-1.5 1.5H56a1.5 1.5 0 0 1-1.5-1.5v-18a1.5 1.5 0 0 1 1.5-1.5Zm0 1.5H56v18h18Zm-12.37 4.5a1.11 1.11 0 0 1 .5.12l6.75 3.38a1.14 1.14 0 0 1 0 2l-6.75 3.37a1.13 1.13 0 0 1-1.63-1v-6.75a1.12 1.12 0 0 1 1.13-1.12Zm.35 2v4.92l5.53-2.42Z" id="f"/>
      </g>
    </mask>
    <clipPath id="clip-path" transform="translate(-13 -20)">
      <path style="fill:none" d="M33 20h250v150H33z"/>
    </clipPath>
    <style>
      .cls-1{fill:#fff}.cls-3{fill-rule:evenodd}.cls-8{fill:#e3edfc}.cls-10{fill:#003285}
    </style>
  </defs>
  <path class="cls-1" d="M303 95a12 12 0 1 1-12-12 12 12 0 0 1 12 12Z" transform="translate(-13 -20)"/>
  <path class="cls-3" d="M302 95a11 11 0 1 1-11-11 11 11 0 0 1 11 11Zm-6 .23a.47.47 0 0 1-.47.47h-3.83v3.83a.47.47 0 0 1-.47.47h-.46a.47.47 0 0 1-.47-.47V95.7h-3.83a.47.47 0 0 1-.47-.47v-.46a.47.47 0 0 1 .47-.47h3.83v-3.83a.47.47 0 0 1 .47-.47h.46a.47.47 0 0 1 .47.47v3.83h3.83a.47.47 0 0 1 .47.47v.47ZM291 86a9 9 0 1 1-9 9 9 9 0 0 1 9-9Z" transform="translate(-13 -20)"/>
  <path class="cls-1" d="M37 95a12 12 0 1 1-12-12 12 12 0 0 1 12 12Z" transform="translate(-13 -20)"/>
  <path class="cls-3" d="M36 95a11 11 0 1 1-11-11 11 11 0 0 1 11 11Zm-6.47.7h-9.06a.47.47 0 0 1-.47-.47v-.46a.47.47 0 0 1 .47-.47h9.06c.26 0 .26 1.4 0 1.4ZM25 86a9 9 0 1 1-9 9 9 9 0 0 1 9-9Z" transform="translate(-13 -20)"/>
  <g style="clip-path:url(#clip-path)">
    <rect x="20" y="9" width="250" height="132" rx="4" style="fill:#769bd6"/>
    <path class="cls-1" d="M38 21h240v148H38Z" transform="translate(-13 -20)"/>
    <path d="M277.5 116.5h-239" transform="translate(-13 -20)" style="stroke:#dadada;stroke-linecap:square;fill:none"/>
    <path d="M279 20H37v150h242Zm-1 1H38v148h240Z" transform="translate(-13 -20)" style="fill:#769bd6;fill-rule:evenodd"/>
    <path class="cls-8" d="M38 21h240v96H38Z" transform="translate(-13 -20)"/>
    <path class="cls-10" d="M174 53h-32v32h32Z" transform="translate(-13 -20)" style="mask:url(#mask)"/>
    <path class="cls-8" d="M97 143h108v18H97Z" transform="translate(-13 -20)"/>
    <path d="M102.63 155.1a2.22 2.22 0 0 0 2.43-2.49v-5.47h-1.48v5.44c0 1-.46 1.34-1.17 1.34a2.43 2.43 0 0 1-1-.2v1.15a2.51 2.51 0 0 0 1.23.23Zm6.87 0a2.83 2.83 0 0 0 3-3v-.09a3 3 0 0 0-5.91 0v.08a2.82 2.82 0 0 0 2.91 3.02Zm0-1c-1 0-1.59-.74-1.59-1.92v-.09c0-1.18.6-1.9 1.59-1.9s1.59.73 1.59 1.92v.07c.01 1.16-.59 1.9-1.58 1.9Zm6.38 1a1.93 1.93 0 0 0 1.82-1v.9h1.3v-5.75h-1.33v3.42a1.28 1.28 0 0 1-1.34 1.37c-.77 0-1.13-.39-1.13-1.26v-3.53h-1.33v3.68c0 1.53.84 2.18 2 2.18Zm5-.11h1.33v-3c0-1.22.71-1.6 1.87-1.61v-1.24a1.92 1.92 0 0 0-1.87 1.16v-1.07h-1.33Zm4.67 0h1.33v-3.39a1.28 1.28 0 0 1 1.36-1.37c.79 0 1.14.39 1.14 1.26V155h1.33v-3.62c0-1.58-.81-2.25-2-2.25a2 2 0 0 0-1.86 1v-.91h-1.33Zm9.53.11c1.47 0 2.45-.66 2.64-1.87h-1.29c-.1.56-.52.88-1.32.88-1 0-1.54-.62-1.58-1.7h4.21V152a2.6 2.6 0 0 0-2.72-2.9 2.79 2.79 0 0 0-2.86 3v.08a2.76 2.76 0 0 0 2.92 2.93Zm-1.53-3.59a1.47 1.47 0 0 1 1.47-1.43c.83 0 1.33.44 1.4 1.43Zm6.18 5.45h1.3l3.14-7.72h-1.3L141.5 153l-1.53-3.7h-1.44l2.28 5.17Zm10.34-2h1.47v-6.71h2.19v-1.16h-5.85v1.16h2.19Zm5.82.11a2 2 0 0 0 1.76-.81v.7H159v-3.77c0-1.58-1-2.1-2.3-2.1s-2.36.56-2.47 1.9h1.29a1 1 0 0 1 1.1-.9c.78 0 1 .38 1 1.15v.3H157c-1.65 0-2.95.48-2.95 1.83 0 1.19.87 1.7 1.93 1.7Zm.32-1c-.66 0-.93-.32-.93-.8 0-.7.65-.93 1.66-.93h.69v.66c0 .73-.61 1.16-1.42 1.16Zm4.57.85h1.33v-3c0-1.22.71-1.6 1.87-1.61v-1.24a1.93 1.93 0 0 0-1.87 1.16v-1.07h-1.33Zm7 2.11c1.78 0 2.91-.85 2.93-2.54v-5.32h-1.34v.88a2 2 0 0 0-1.84-1A2.64 2.64 0 0 0 165 152a2.54 2.54 0 0 0 2.55 2.74 2.26 2.26 0 0 0 1.89-1.07v.85a1.42 1.42 0 0 1-1.61 1.55c-.87 0-1.31-.33-1.42-.9h-1.34c.15 1.1 1 1.91 2.77 1.91Zm0-3.36a1.55 1.55 0 0 1-1.51-1.73v-.09a1.56 1.56 0 0 1 1.56-1.76 1.52 1.52 0 0 1 1.55 1.74v.17a1.59 1.59 0 0 1-1.51 1.75Zm7.3 1.36c1.47 0 2.45-.66 2.64-1.87h-1.29c-.1.56-.52.88-1.32.88-1 0-1.54-.62-1.58-1.7h4.21V152a2.6 2.6 0 0 0-2.72-2.9 2.79 2.79 0 0 0-2.86 3v.08a2.76 2.76 0 0 0 2.92 2.93Zm-1.53-3.59a1.47 1.47 0 0 1 1.47-1.43c.83 0 1.33.44 1.4 1.43Zm7.64 3.58a2.77 2.77 0 0 0 .9-.14v-.98a1.61 1.61 0 0 1-.65.11c-.42 0-.66-.23-.66-.74v-3h1.27v-1h-1.27V148h-1.33v1.27h-.77v1h.77v3.14a1.55 1.55 0 0 0 1.74 1.71Zm3.08-6.8a.77.77 0 1 0-.79-.76.77.77 0 0 0 .88.84Zm-.65 6.7H185v-5.75h-1.33Zm3.26 0h1.33v-3.39a1.27 1.27 0 0 1 1.35-1.37c.79 0 1.14.39 1.14 1.26V155h1.34v-3.62c0-1.58-.82-2.25-2-2.25a2 2 0 0 0-1.86 1v-.91H187Zm9.44 2.11c1.78 0 2.92-.85 2.93-2.54v-5.32H198v.88a2 2 0 0 0-1.85-1 2.64 2.64 0 0 0-2.59 2.82v.13a2.55 2.55 0 0 0 2.56 2.74 2.25 2.25 0 0 0 1.88-1.04v.85a1.42 1.42 0 0 1-1.61 1.55c-.87 0-1.31-.33-1.42-.9h-1.34c.15 1.1 1 1.91 2.77 1.91Zm.05-3.36a1.56 1.56 0 0 1-1.52-1.73v-.09a1.56 1.56 0 0 1 1.56-1.76 1.52 1.52 0 0 1 1.55 1.74v.17a1.58 1.58 0 0 1-1.5 1.75ZM98.07 136h1.73v-3.81h3.2v-1.34h-3.2v-2.77h4v-1.38h-5.73Zm8.63.13a2.37 2.37 0 0 0 2.08-1v.87h1.55v-4.46c0-1.86-1.2-2.48-2.72-2.48s-2.78.66-2.91 2.25h1.52a1.13 1.13 0 0 1 1.3-1.07c.92 0 1.23.46 1.23 1.37v.39h-.84c-2 0-3.49.57-3.49 2.16 0 1.41 1 2 2.28 2Zm.38-1.13c-.78 0-1.1-.38-1.1-.95 0-.83.77-1.1 2-1.1h.8v.67c-.03.87-.78 1.38-1.7 1.38Zm5 1h1.57v-3.54c0-1.44.83-1.88 2.21-1.89v-1.47a2.27 2.27 0 0 0-2.21 1.38v-1.28h-1.57v6.8Zm5.17 0h1.57v-4.07a1.45 1.45 0 0 1 1.49-1.56c.77 0 1.21.43 1.21 1.43v4.2h1.58v-4.07a1.45 1.45 0 0 1 1.49-1.56c.78 0 1.21.43 1.21 1.43v4.2h1.57v-4.3c0-1.87-1-2.64-2.26-2.64a2.7 2.7 0 0 0-2.3 1.22 1.91 1.91 0 0 0-1.92-1.22 2.27 2.27 0 0 0-2.07 1.18v-1h-1.52V136Zm17.34.12a3.09 3.09 0 0 0 1.07-.17v-1.25a2 2 0 0 1-.77.13c-.49 0-.78-.27-.78-.87v-3.58h1.5v-1.18h-1.5v-1.49h-1.57v1.49h-.91v1.18h.91v3.72a1.83 1.83 0 0 0 2 2Zm5.52 0a3.34 3.34 0 0 0 3.49-3.5v-.1a3.49 3.49 0 0 0-7 0v.1a3.33 3.33 0 0 0 3.56 3.51Zm0-1.22c-1.2 0-1.89-.87-1.89-2.26v-.11c0-1.4.72-2.25 1.89-2.25s1.87.86 1.87 2.27v.09c.02 1.36-.64 2.27-1.81 2.27Zm8.19 1.1h1.7v-3.81h3.17v-1.34H150v-2.77h4v-1.37h-5.7V136Zm9.81.13a3.34 3.34 0 0 0 3.49-3.5v-.1a3.49 3.49 0 0 0-7 0v.1a3.34 3.34 0 0 0 3.51 3.5Zm0-1.22c-1.2 0-1.88-.87-1.88-2.26v-.11c0-1.4.71-2.25 1.88-2.25s1.87.86 1.87 2.27v.09c.02 1.35-.69 2.26-1.86 2.26ZM163 136h1.57v-3.54c0-1.44.83-1.88 2.21-1.89v-1.47a2.26 2.26 0 0 0-2.21 1.38v-1.28H163v6.8Zm5.16 0h1.58v-3.34l2.54 3.34h1.82l-2.86-3.68 2.64-3.12h-1.68l-2.43 3v-6.13h-1.58V136Zm12.62 0h2l3.14-9.29h-1.62l-2.43 7.54-2.42-7.54h-1.81Zm7.05-7.92a.9.9 0 1 0-.93-.89.91.91 0 0 0 .96.89Zm-.73 7.92h1.57v-6.8h-1.57Zm6 .13a2.61 2.61 0 0 0 2.24-1.27V136h1.57v-9.94h-1.57v4.18a2.34 2.34 0 0 0-2.17-1.18c-1.77 0-3.06 1.38-3.06 3.55v.1c.03 2.21 1.32 3.42 3.02 3.42Zm.39-1.25c-1 0-1.76-.71-1.76-2.21v-.1c0-1.47.67-2.28 1.83-2.28s1.83.74 1.83 2.24v.1c0 1.52-.8 2.25-1.9 2.25Zm8.28 1.25c1.75 0 2.9-.78 3.12-2.21h-1.49c-.11.66-.61 1-1.56 1-1.17 0-1.82-.73-1.87-2h5v-.45a3.07 3.07 0 0 0-3.21-3.43 3.3 3.3 0 0 0-3.38 3.51v.1a3.25 3.25 0 0 0 3.44 3.46Zm-1.8-4.24a1.74 1.74 0 0 1 1.74-1.69c1 0 1.57.52 1.65 1.69Zm9.38 4.24a3.34 3.34 0 0 0 3.5-3.5v-.1a3.49 3.49 0 0 0-7 0v.1a3.33 3.33 0 0 0 3.53 3.5Zm0-1.22c-1.2 0-1.89-.87-1.89-2.26v-.11c0-1.4.72-2.25 1.89-2.25s1.87.86 1.87 2.27v.09c.05 1.35-.65 2.26-1.82 2.26Z" transform="translate(-13 -20)" style="fill:#060606"/>
    <path class="cls-8" d="M47 125h36v36H47Z" transform="translate(-13 -20)"/>
    <path class="cls-10" d="M77 131H53v24h24Z" transform="translate(-13 -20)" style="mask:url(#mask-2)"/>
    <rect class="cls-8" x="237" y="134" width="21" height="7" rx="3"/>
    <path d="M259 157.5a1.5 1.5 0 0 0 3 0 1.5 1.5 0 0 0-3 0Zm-5 0a1.5 1.5 0 1 0 1.5-1.5 1.5 1.5 0 0 0-1.5 1.5Zm11.5 1.5a1.5 1.5 0 1 1 1.5-1.5 1.5 1.5 0 0 1-1.5 1.5Z" transform="translate(-13 -20)" style="fill:#003285;fill-rule:evenodd"/>
  </g>
</svg>
