<svg id="Layer_1" data-name="Layer 1" xmlns="http://www.w3.org/2000/svg" xmlns:xlink="http://www.w3.org/1999/xlink" viewBox="0 0 290 150"><defs><style>.cls-1{fill:#fff;}.cls-2,.cls-6{fill:none;}.cls-13,.cls-3,.cls-7{fill-rule:evenodd;}.cls-4{clip-path:url(#clip-path);}.cls-5,.cls-7{fill:#769bd6;}.cls-6{stroke:#dadada;stroke-linecap:square;}.cls-8{fill:#e3edfc;}.cls-9{mask:url(#mask);}.cls-10,.cls-13{fill:#003285;}.cls-11{fill:#060606;}.cls-12{mask:url(#mask-2);}</style><clipPath id="clip-path" transform="translate(-13 -20)"><rect class="cls-2" x="33" y="20" width="250" height="150"/></clipPath><mask id="mask" x="129" y="33" width="32" height="32" maskUnits="userSpaceOnUse"><g transform="translate(-13 -20)"><g id="e"><path class="cls-1" d="M170,55a2,2,0,0,1,2,2V81a2,2,0,0,1-2,2H146a2,2,0,0,1-2-2V57a2,2,0,0,1,2-2Zm0,22H146v4h24Zm0-20H146V75.92l5.73-6.16a1,1,0,0,1,1.41-.05h0l0,0L156.44,73l5.29-6.92a1,1,0,0,1,1.41-.18,1,1,0,0,1,.21.21L170,75.58ZM152.44,72l-2.81,3h5.62Zm10.06-3.44L157.63,75h9.75ZM152,61a2,2,0,1,1-2,2A2,2,0,0,1,152,61Z"/></g></g></mask><mask id="mask-2" x="40" y="111" width="24" height="24" maskUnits="userSpaceOnUse"><g transform="translate(-13 -20)"><g id="f"><path class="cls-1" d="M74,132.5a1.5,1.5,0,0,1,1.5,1.5v18a1.5,1.5,0,0,1-1.5,1.5H56a1.5,1.5,0,0,1-1.5-1.5V134a1.5,1.5,0,0,1,1.5-1.5Zm0,1.5H56v18H74Zm-12.37,4.5a1.11,1.11,0,0,1,.5.12L68.88,142a1.14,1.14,0,0,1,0,2l-6.75,3.37a1.13,1.13,0,0,1-1.63-1v-6.75A1.12,1.12,0,0,1,61.63,138.5Zm.35,2v4.92L67.51,143Z"/></g></g></mask></defs><title>square</title><path class="cls-1" d="M303,95a12,12,0,1,1-12-12A12,12,0,0,1,303,95Z" transform="translate(-13 -20)"/><path class="cls-3" d="M302,95a11,11,0,1,1-11-11A11,11,0,0,1,302,95Zm-6,.23a.47.47,0,0,1-.47.47H291.7v3.83a.47.47,0,0,1-.47.47h-.46a.47.47,0,0,1-.47-.47V95.7h-3.83a.47.47,0,0,1-.47-.47v-.46a.47.47,0,0,1,.47-.47h3.83V90.47a.47.47,0,0,1,.47-.47h.46a.47.47,0,0,1,.47.47V94.3h3.83a.47.47,0,0,1,.47.47v.47ZM291,86a9,9,0,1,1-9,9A9,9,0,0,1,291,86Z" transform="translate(-13 -20)"/><path class="cls-1" d="M37,95A12,12,0,1,1,25,83,12,12,0,0,1,37,95Z" transform="translate(-13 -20)"/><path class="cls-3" d="M36,95A11,11,0,1,1,25,84,11,11,0,0,1,36,95Zm-6.47.7H20.47a.47.47,0,0,1-.47-.47v-.46a.47.47,0,0,1,.47-.47h9.06C29.79,94.3,29.79,95.7,29.53,95.7ZM25,86a9,9,0,1,1-9,9A9,9,0,0,1,25,86Z" transform="translate(-13 -20)"/><g class="cls-4"><rect class="cls-5" x="20" y="9" width="250" height="132" rx="4"/><path class="cls-1" d="M38,21H278V169H38Z" transform="translate(-13 -20)"/><path class="cls-6" d="M277.5,116.5H38.5" transform="translate(-13 -20)"/><path class="cls-7" d="M279,20H37V170H279Zm-1,1H38V169H278Z" transform="translate(-13 -20)"/><path class="cls-8" d="M38,21H278v96H38Z" transform="translate(-13 -20)"/><g class="cls-9"><path class="cls-10" d="M174,53H142V85h32Z" transform="translate(-13 -20)"/></g><path class="cls-8" d="M97,143H205v18H97Z" transform="translate(-13 -20)"/><path class="cls-11" d="M102.63,155.1a2.22,2.22,0,0,0,2.43-2.49v-5.47h-1.48v5.44c0,1-.46,1.34-1.17,1.34a2.43,2.43,0,0,1-1-.2v1.15a2.51,2.51,0,0,0,1.23.23Zm6.87,0a2.83,2.83,0,0,0,3-3v-.09a3,3,0,0,0-5.91,0v.08A2.82,2.82,0,0,0,109.5,155.11Zm0-1c-1,0-1.59-.74-1.59-1.92v-.09c0-1.18.6-1.9,1.59-1.9s1.59.73,1.59,1.92v.07C111.1,153.34,110.5,154.08,109.51,154.08Zm6.38,1a1.93,1.93,0,0,0,1.82-1v.9H119v-5.75h-1.33v3.42a1.28,1.28,0,0,1-1.34,1.37c-.77,0-1.13-.39-1.13-1.26v-3.53h-1.33v3.68c0,1.53.84,2.18,2,2.18Zm5-.11h1.33v-3c0-1.22.71-1.6,1.87-1.61v-1.24a1.92,1.92,0,0,0-1.87,1.16v-1.07h-1.33Zm4.67,0h1.33v-3.39a1.28,1.28,0,0,1,1.36-1.37c.79,0,1.14.39,1.14,1.26V155h1.33v-3.62c0-1.58-.81-2.25-2-2.25a2,2,0,0,0-1.86,1v-.91h-1.33Zm9.53.11c1.47,0,2.45-.66,2.64-1.87h-1.29c-.1.56-.52.88-1.32.88-1,0-1.54-.62-1.58-1.7h4.21V152a2.6,2.6,0,0,0-2.72-2.9,2.79,2.79,0,0,0-2.86,3v.08a2.76,2.76,0,0,0,2.92,2.93Zm-1.53-3.59a1.47,1.47,0,0,1,1.47-1.43c.83,0,1.33.44,1.4,1.43Zm6.18,5.45h1.3l3.14-7.72h-1.3L141.5,153l-1.53-3.7h-1.44l2.28,5.17Zm10.34-2h1.47v-6.71h2.19v-1.16h-5.85v1.16h2.19Zm5.82.11a2,2,0,0,0,1.76-.81v.7H159v-3.77c0-1.58-1-2.1-2.3-2.1s-2.36.56-2.47,1.9h1.29a1,1,0,0,1,1.1-.9c.78,0,1,.38,1,1.15v.3H157c-1.65,0-2.95.48-2.95,1.83,0,1.19.87,1.7,1.93,1.7Zm.32-1c-.66,0-.93-.32-.93-.8,0-.7.65-.93,1.66-.93h.69V153c0,.73-.61,1.16-1.42,1.16Zm4.57.85h1.33v-3c0-1.22.71-1.6,1.87-1.61v-1.24a1.93,1.93,0,0,0-1.87,1.16v-1.07h-1.33Zm7,2.11c1.78,0,2.91-.85,2.93-2.54v-5.32h-1.34v.88a2,2,0,0,0-1.84-1A2.64,2.64,0,0,0,165,152V152a2.54,2.54,0,0,0,2.55,2.74,2.26,2.26,0,0,0,1.89-1.07v.85a1.42,1.42,0,0,1-1.61,1.55c-.87,0-1.31-.33-1.42-.9h-1.34c.15,1.1,1,1.91,2.77,1.91Zm0-3.36a1.55,1.55,0,0,1-1.51-1.73v-.09a1.56,1.56,0,0,1,1.56-1.76,1.52,1.52,0,0,1,1.55,1.74V152A1.59,1.59,0,0,1,167.87,153.75Zm7.3,1.36c1.47,0,2.45-.66,2.64-1.87h-1.29c-.1.56-.52.88-1.32.88-1,0-1.54-.62-1.58-1.7h4.21V152a2.6,2.6,0,0,0-2.72-2.9,2.79,2.79,0,0,0-2.86,3v.08a2.76,2.76,0,0,0,2.92,2.93Zm-1.53-3.59a1.47,1.47,0,0,1,1.47-1.43c.83,0,1.33.44,1.4,1.43Zm7.64,3.58a2.77,2.77,0,0,0,.9-.14V153.9a1.61,1.61,0,0,1-.65.11c-.42,0-.66-.23-.66-.74v-3h1.27v-1h-1.27V148h-1.33v1.27h-.77v1h.77v3.14a1.55,1.55,0,0,0,1.74,1.71Zm3.08-6.8a.77.77,0,1,0-.79-.76A.77.77,0,0,0,184.36,148.3Zm-.65,6.7H185v-5.75h-1.33Zm3.26,0h1.33v-3.39a1.27,1.27,0,0,1,1.35-1.37c.79,0,1.14.39,1.14,1.26V155h1.34v-3.62c0-1.58-.82-2.25-2-2.25a2,2,0,0,0-1.86,1v-.91H187Zm9.44,2.11c1.78,0,2.92-.85,2.93-2.54v-5.32H198v.88a2,2,0,0,0-1.85-1,2.64,2.64,0,0,0-2.59,2.82V152a2.55,2.55,0,0,0,2.56,2.74A2.25,2.25,0,0,0,198,153.7v.85a1.42,1.42,0,0,1-1.61,1.55c-.87,0-1.31-.33-1.42-.9h-1.34c.15,1.1,1,1.91,2.77,1.91Zm.05-3.36a1.56,1.56,0,0,1-1.52-1.73v-.09a1.56,1.56,0,0,1,1.56-1.76,1.52,1.52,0,0,1,1.55,1.74V152A1.58,1.58,0,0,1,196.46,153.75ZM98.07,136H99.8v-3.81H103v-1.34H99.8v-2.77h4V126.7H98.07Zm8.63.13a2.37,2.37,0,0,0,2.08-1V136h1.55v-4.46c0-1.86-1.2-2.48-2.72-2.48s-2.78.66-2.91,2.25h1.52a1.13,1.13,0,0,1,1.3-1.07c.92,0,1.23.46,1.23,1.37V132h-.84c-2,0-3.49.57-3.49,2.16,0,1.41,1,2,2.28,2Zm.38-1.13c-.78,0-1.1-.38-1.1-.95,0-.83.77-1.1,2-1.1h.8v.67C108.75,134.49,108,135,107.08,135Zm5,1h1.57v-3.54c0-1.44.83-1.88,2.21-1.89V129.1a2.27,2.27,0,0,0-2.21,1.38V129.2h-1.57V136Zm5.17,0h1.57v-4.07a1.45,1.45,0,0,1,1.49-1.56c.77,0,1.21.43,1.21,1.43V136h1.58v-4.07a1.45,1.45,0,0,1,1.49-1.56c.78,0,1.21.43,1.21,1.43V136h1.57v-4.3c0-1.87-1-2.64-2.26-2.64a2.7,2.7,0,0,0-2.3,1.22,1.91,1.91,0,0,0-1.92-1.22,2.27,2.27,0,0,0-2.07,1.18v-1H117.3V136Zm17.34.12a3.09,3.09,0,0,0,1.07-.17V134.7a2,2,0,0,1-.77.13c-.49,0-.78-.27-.78-.87v-3.58h1.5V129.2h-1.5v-1.49h-1.57v1.49h-.91v1.18h.91v3.72a1.83,1.83,0,0,0,2,2Zm5.52,0a3.34,3.34,0,0,0,3.49-3.5v-.1a3.49,3.49,0,0,0-7,0v.1A3.33,3.33,0,0,0,140.16,136.13Zm0-1.22c-1.2,0-1.89-.87-1.89-2.26v-.11c0-1.4.72-2.25,1.89-2.25s1.87.86,1.87,2.27v.09C142,134,141.34,134.91,140.17,134.91ZM148.3,136H150v-3.81h3.17v-1.34H150v-2.77h4v-1.37H148.3V136Zm9.81.13a3.34,3.34,0,0,0,3.49-3.5v-.1a3.49,3.49,0,0,0-7,0v.1A3.34,3.34,0,0,0,158.11,136.13Zm0-1.22c-1.2,0-1.88-.87-1.88-2.26v-.11c0-1.4.71-2.25,1.88-2.25s1.87.86,1.87,2.27v.09C160,134,159.29,134.91,158.12,134.91ZM163,136h1.57v-3.54c0-1.44.83-1.88,2.21-1.89V129.1a2.26,2.26,0,0,0-2.21,1.38V129.2H163V136Zm5.16,0h1.58v-3.34l2.54,3.34h1.82l-2.86-3.68,2.64-3.12H172.2l-2.43,3v-6.13h-1.58V136Zm12.62,0h2l3.14-9.29h-1.62l-2.43,7.54-2.42-7.54h-1.81Zm7.05-7.92a.9.9,0,1,0-.93-.89A.91.91,0,0,0,187.86,128.08ZM187.1,136h1.57v-6.8H187.1Zm6,.13a2.61,2.61,0,0,0,2.24-1.27V136h1.57v-9.94h-1.57v4.18a2.34,2.34,0,0,0-2.17-1.18c-1.77,0-3.06,1.38-3.06,3.55v.1C190.14,134.92,191.43,136.13,193.13,136.13Zm.39-1.25c-1,0-1.76-.71-1.76-2.21v-.1c0-1.47.67-2.28,1.83-2.28s1.83.74,1.83,2.24v.1c0,1.52-.8,2.25-1.9,2.25Zm8.28,1.25c1.75,0,2.9-.78,3.12-2.21H203.4c-.11.66-.61,1-1.56,1-1.17,0-1.82-.73-1.87-2h5v-.45a3.07,3.07,0,0,0-3.21-3.43,3.3,3.3,0,0,0-3.38,3.51v.1a3.25,3.25,0,0,0,3.44,3.46Zm-1.8-4.24a1.74,1.74,0,0,1,1.74-1.69c1,0,1.57.52,1.65,1.69Zm9.38,4.24a3.34,3.34,0,0,0,3.5-3.5v-.1a3.49,3.49,0,0,0-7,0v.1A3.33,3.33,0,0,0,209.38,136.13Zm0-1.22c-1.2,0-1.89-.87-1.89-2.26v-.11c0-1.4.72-2.25,1.89-2.25s1.87.86,1.87,2.27v.09C211.27,134,210.57,134.91,209.4,134.91Z" transform="translate(-13 -20)"/><path class="cls-8" d="M47,125H83v36H47Z" transform="translate(-13 -20)"/><g class="cls-12"><path class="cls-10" d="M77,131H53v24H77Z" transform="translate(-13 -20)"/></g><rect class="cls-8" x="237" y="134" width="21" height="7" rx="3"/><path class="cls-13" d="M259,157.5a1.5,1.5,0,0,0,3,0h0a1.5,1.5,0,0,0-3,0Zm-5,0a1.5,1.5,0,1,0,1.5-1.5A1.5,1.5,0,0,0,254,157.5Zm11.5,1.5a1.5,1.5,0,1,1,1.5-1.5A1.5,1.5,0,0,1,265.5,159Z" transform="translate(-13 -20)"/></g></svg>