<svg id="Layer_1" data-name="Layer 1" xmlns="http://www.w3.org/2000/svg" viewBox="0 0 982 150">
  <defs>
    <mask id="mask" x="129" y="33" width="32" height="32" maskUnits="userSpaceOnUse">
      <g transform="translate(-26 -29.1)">
        <path class="cls-1" d="M183 64.1a2 2 0 0 1 2 2v24a2 2 0 0 1-2 2h-24a2 2 0 0 1-2-2v-24a2 2 0 0 1 2-2Zm0 22h-24v4h24Zm0-20h-24V85l5.73-6.16a1 1 0 0 1 1.41 0l3.27 3.27 5.29-6.92a1 1 0 0 1 1.41-.19 1.45 1.45 0 0 1 .21.22l6.68 9.46Zm-17.56 15-2.81 3h5.62Zm10.06-3.44-4.87 6.44h9.75ZM165 70.1a2 2 0 1 1-2 2 2 2 0 0 1 2-2Z" id="e"/>
      </g>
    </mask>
    <mask id="mask-2" x="40" y="111" width="24" height="24" maskUnits="userSpaceOnUse">
      <g transform="translate(-26 -29.1)">
        <path class="cls-1" d="M87 141.6a1.5 1.5 0 0 1 1.5 1.5v18a1.5 1.5 0 0 1-1.5 1.5H69a1.5 1.5 0 0 1-1.5-1.5v-18a1.5 1.5 0 0 1 1.5-1.5Zm0 1.5H69v18h18Zm-12.37 4.5a1.11 1.11 0 0 1 .5.12l6.75 3.37a1.13 1.13 0 0 1 .5 1.51 1.06 1.06 0 0 1-.5.5l-6.75 3.38a1.13 1.13 0 0 1-1.63-1v-6.75a1.12 1.12 0 0 1 1.13-1.13Zm.35 2v4.92l5.53-2.46Z" id="f"/>
      </g>
    </mask>
    <mask id="mask-3" x="475" y="33" width="32" height="32" maskUnits="userSpaceOnUse">
      <g transform="translate(-26 -29.1)">
        <path class="cls-1" d="M529 64.1a2 2 0 0 1 2 2v24a2 2 0 0 1-2 2h-24a2 2 0 0 1-2-2v-24a2 2 0 0 1 2-2Zm0 22h-24v4h24Zm0-20h-24V85l5.73-6.16a1 1 0 0 1 1.41 0l3.27 3.27 5.29-6.92a1 1 0 0 1 1.41-.19 1.45 1.45 0 0 1 .21.22l6.68 9.46Zm-17.56 15-2.81 3h5.62Zm10.06-3.44-4.87 6.44h9.75ZM511 70.1a2 2 0 1 1-2 2 2 2 0 0 1 2-2Z" id="e-2" data-name="e"/>
      </g>
    </mask>
    <mask id="mask-4" x="386" y="111" width="24" height="24" maskUnits="userSpaceOnUse">
      <g transform="translate(-26 -29.1)">
        <path class="cls-1" d="M433 141.6a1.5 1.5 0 0 1 1.5 1.5v18a1.5 1.5 0 0 1-1.5 1.5h-18a1.5 1.5 0 0 1-1.5-1.5v-18a1.5 1.5 0 0 1 1.5-1.5Zm0 1.5h-18v18h18Zm-12.37 4.5a1.11 1.11 0 0 1 .5.12l6.75 3.37a1.13 1.13 0 0 1 .5 1.51 1.06 1.06 0 0 1-.5.5l-6.75 3.38a1.13 1.13 0 0 1-1.63-1v-6.75a1.12 1.12 0 0 1 1.13-1.13Zm.35 2v4.92l5.53-2.46Z" id="f-2" data-name="f"/>
      </g>
    </mask>
    <mask id="mask-5" x="821" y="33" width="32" height="32" maskUnits="userSpaceOnUse">
      <g transform="translate(-26 -29.1)">
        <path class="cls-1" d="M875 64.1a2 2 0 0 1 2 2v24a2 2 0 0 1-2 2h-24a2 2 0 0 1-2-2v-24a2 2 0 0 1 2-2Zm0 22h-24v4h24Zm0-20h-24V85l5.73-6.16a1 1 0 0 1 1.41 0l3.27 3.27 5.29-6.92a1 1 0 0 1 1.41-.19 1.45 1.45 0 0 1 .21.22l6.68 9.46Zm-17.56 15-2.81 3h5.62Zm10.06-3.44-4.87 6.44h9.75ZM857 70.1a2 2 0 1 1-2 2 2 2 0 0 1 2-2Z" id="e-3" data-name="e"/>
      </g>
    </mask>
    <mask id="mask-6" x="732" y="111" width="24" height="24" maskUnits="userSpaceOnUse">
      <g transform="translate(-26 -29.1)">
        <path class="cls-1" d="M779 141.6a1.5 1.5 0 0 1 1.5 1.5v18a1.5 1.5 0 0 1-1.5 1.5h-18a1.5 1.5 0 0 1-1.5-1.5v-18a1.5 1.5 0 0 1 1.5-1.5Zm0 1.5h-18v18h18Zm-12.37 4.5a1.11 1.11 0 0 1 .5.12l6.75 3.37a1.13 1.13 0 0 1 .5 1.51 1.06 1.06 0 0 1-.5.5l-6.75 3.38a1.13 1.13 0 0 1-1.63-1v-6.75a1.12 1.12 0 0 1 1.13-1.13Zm.35 2v4.92l5.53-2.46Z" id="f-3" data-name="f"/>
      </g>
    </mask>
    <clipPath id="clip-path" transform="translate(-26 -29.1)">
      <path class="cls-2" d="M46 29.1h250v150H46z"/>
    </clipPath>
    <clipPath id="clip-path-2" transform="translate(-26 -29.1)">
      <path class="cls-2" d="M392 29.1h250v150H392z"/>
    </clipPath>
    <clipPath id="clip-path-3" transform="translate(-26 -29.1)">
      <path class="cls-2" d="M738 29.1h250v150H738z"/>
    </clipPath>
    <style>
      .cls-1{fill:#fff}.cls-2,.cls-6{fill:none}.cls-13,.cls-3,.cls-7{fill-rule:evenodd}.cls-5,.cls-7{fill:#769bd6}.cls-6{stroke:#dadada;stroke-linecap:square}.cls-8{fill:#e3edfc}.cls-10,.cls-13{fill:#003285}.cls-11{fill:#060606}
    </style>
  </defs>
  <path class="cls-1" d="M316 104.1a12 12 0 1 1-12-12 12 12 0 0 1 12 12Z" transform="translate(-26 -29.1)"/>
  <path class="cls-3" d="M315 104.1a11 11 0 1 1-11-11 11 11 0 0 1 11 11Zm-6 .23a.47.47 0 0 1-.47.47h-3.83v3.83a.47.47 0 0 1-.47.47h-.46a.47.47 0 0 1-.47-.47v-3.83h-3.83a.47.47 0 0 1-.47-.47v-.47a.48.48 0 0 1 .47-.47h3.83v-3.82a.47.47 0 0 1 .47-.47h.46a.47.47 0 0 1 .47.47v3.83h3.83a.47.47 0 0 1 .47.47v.46Zm-5-9.23a9 9 0 1 1-9 9 9 9 0 0 1 9-9Z" transform="translate(-26 -29.1)"/>
  <path class="cls-1" d="M50 104.1a12 12 0 1 1-12-12 12 12 0 0 1 12 12Z" transform="translate(-26 -29.1)"/>
  <path class="cls-3" d="M49 104.1a11 11 0 1 1-11-11 11 11 0 0 1 11 11Zm-6.47.7h-9.06a.47.47 0 0 1-.47-.47v-.47a.48.48 0 0 1 .47-.47h9.06c.26 0 .26 1.41 0 1.41ZM38 95.1a9 9 0 1 1-9 9 9 9 0 0 1 9-9Z" transform="translate(-26 -29.1)"/>
  <g style="clip-path:url(#clip-path)">
    <rect class="cls-5" x="20" y="9" width="250" height="132" rx="4"/>
    <path class="cls-1" d="M51 30.1h240v148H51Z" transform="translate(-26 -29.1)"/>
    <path class="cls-6" d="M290.5 125.6h-239" transform="translate(-26 -29.1)"/>
    <path class="cls-7" d="M292 29.1H50v150h242Zm-1 1H51v148h240Z" transform="translate(-26 -29.1)"/>
    <path class="cls-8" d="M51 30.1h240v96H51Z" transform="translate(-26 -29.1)"/>
    <path class="cls-10" d="M187 62.1h-32v32h32Z" transform="translate(-26 -29.1)" style="mask:url(#mask)"/>
    <path class="cls-8" d="M110 152.1h108v18H110Z" transform="translate(-26 -29.1)"/>
    <path class="cls-11" d="M115.63 164.2a2.22 2.22 0 0 0 2.43-2.49v-5.48h-1.48v5.45c0 1-.46 1.34-1.17 1.34a2.43 2.43 0 0 1-1-.2V164a2.51 2.51 0 0 0 1.23.23Zm6.87 0a2.83 2.83 0 0 0 3-3v-.09a3 3 0 0 0-5.91 0v.09a2.82 2.82 0 0 0 2.91 3.01Zm0-1c-1 0-1.59-.73-1.59-1.91v-.09c0-1.19.6-1.9 1.59-1.9s1.59.73 1.59 1.91v.08c.01 1.15-.59 1.88-1.58 1.88Zm6.38 1a1.93 1.93 0 0 0 1.82-1v.9h1.3v-5.75h-1.33v3.42a1.28 1.28 0 0 1-1.34 1.37c-.77 0-1.13-.39-1.13-1.26v-3.53h-1.33V162c0 1.53.84 2.18 2 2.18Zm5-.11h1.33v-3c0-1.22.71-1.6 1.87-1.61v-1.24a1.92 1.92 0 0 0-1.87 1.16v-1.07h-1.33Zm4.67 0h1.33v-3.39a1.28 1.28 0 0 1 1.36-1.37c.79 0 1.14.39 1.14 1.26v3.5h1.33v-3.62c0-1.58-.81-2.26-2-2.26a2 2 0 0 0-1.86 1v-.91h-1.33Zm9.53.11c1.47 0 2.45-.66 2.64-1.87h-1.29c-.1.56-.52.88-1.32.88-1 0-1.54-.62-1.58-1.71h4.21v-.38a2.6 2.6 0 0 0-2.72-2.91 2.8 2.8 0 0 0-2.86 3v.09a2.76 2.76 0 0 0 2.92 2.93Zm-1.53-3.59a1.47 1.47 0 0 1 1.47-1.43c.83 0 1.33.44 1.4 1.43Zm6.18 5.45h1.3l3.14-7.72h-1.3l-1.41 3.7-1.53-3.7h-1.44l2.28 5.17Zm10.34-2h1.47v-6.71h2.19v-1.16h-5.85v1.16h2.19Zm5.82.11a2 2 0 0 0 1.76-.82v.71H172v-3.77c0-1.58-1-2.11-2.3-2.11s-2.36.57-2.47 1.91h1.29a1 1 0 0 1 1.1-.9c.78 0 1 .38 1 1.15v.3H170c-1.65 0-2.95.48-2.95 1.82s.87 1.71 1.93 1.71Zm.32-1c-.66 0-.93-.32-.93-.8 0-.71.65-.94 1.66-.94h.69v.58c0 .73-.61 1.16-1.42 1.16Zm4.57.85h1.33v-3c0-1.22.71-1.6 1.87-1.61v-1.24a1.93 1.93 0 0 0-1.87 1.16v-1.07h-1.33Zm7 2.11c1.78 0 2.91-.85 2.93-2.54v-5.32h-1.34v.88a2 2 0 0 0-1.84-1 2.65 2.65 0 0 0-2.59 2.83v.08a2.54 2.54 0 0 0 2.55 2.74 2.26 2.26 0 0 0 1.89-1.07v.85a1.42 1.42 0 0 1-1.61 1.55c-.87 0-1.31-.33-1.42-.9h-1.34c.15 1.1 1 1.91 2.77 1.91Zm0-3.37a1.55 1.55 0 0 1-1.51-1.72V161a1.55 1.55 0 0 1 1.56-1.76 1.52 1.52 0 0 1 1.55 1.74v.07a1.59 1.59 0 0 1-1.51 1.79Zm7.3 1.37c1.47 0 2.45-.66 2.64-1.87h-1.29c-.1.56-.52.88-1.32.88-1 0-1.54-.62-1.58-1.71h4.21v-.38a2.6 2.6 0 0 0-2.72-2.91 2.8 2.8 0 0 0-2.86 3v.09a2.76 2.76 0 0 0 2.92 2.93Zm-1.53-3.59a1.47 1.47 0 0 1 1.47-1.43c.83 0 1.33.44 1.4 1.43Zm7.64 3.58a2.49 2.49 0 0 0 .9-.15V163a1.61 1.61 0 0 1-.65.11c-.42 0-.66-.23-.66-.74v-3h1.27v-1h-1.27v-1.27h-1.33v1.27h-.77v1h.77v3.14a1.55 1.55 0 0 0 1.74 1.71Zm3.08-6.8a.77.77 0 1 0-.79-.76.77.77 0 0 0 .88.84Zm-.65 6.7H198v-5.75h-1.33Zm3.26 0h1.33v-3.39a1.27 1.27 0 0 1 1.35-1.37c.79 0 1.14.39 1.14 1.26v3.5h1.34v-3.62c0-1.58-.82-2.26-2-2.26a2 2 0 0 0-1.86 1v-.91H200Zm9.44 2.11c1.78 0 2.92-.85 2.93-2.54v-5.32H211v.88a2 2 0 0 0-1.85-1 2.65 2.65 0 0 0-2.59 2.83v.08a2.55 2.55 0 0 0 2.56 2.74 2.25 2.25 0 0 0 1.88-1v.85a1.42 1.42 0 0 1-1.61 1.55c-.87 0-1.31-.33-1.42-.9h-1.34c.15 1.1 1 1.91 2.77 1.91Zm.05-3.37a1.55 1.55 0 0 1-1.52-1.72V161a1.55 1.55 0 0 1 1.56-1.76 1.52 1.52 0 0 1 1.55 1.74v.07a1.58 1.58 0 0 1-1.5 1.79Zm-98.3-17.66h1.73v-3.81h3.2V140h-3.2v-2.77h4v-1.43h-5.76Zm8.63.13a2.37 2.37 0 0 0 2.08-1v.83h1.55v-4.46c0-1.86-1.2-2.48-2.72-2.48s-2.78.66-2.91 2.25h1.52a1.13 1.13 0 0 1 1.3-1.07c.92 0 1.23.45 1.23 1.36v.36h-.84c-2 0-3.49.57-3.49 2.15 0 1.42 1 2 2.28 2Zm.38-1.13c-.78 0-1.1-.38-1.1-.95 0-.83.77-1.11 2-1.11h.8v.68c-.03.87-.78 1.38-1.7 1.38Zm5 1h1.57v-3.54c0-1.44.83-1.88 2.21-1.9v-1.46a2.27 2.27 0 0 0-2.21 1.37v-1.27h-1.57v6.8Zm5.17 0h1.57V141a1.45 1.45 0 0 1 1.49-1.56c.77 0 1.21.43 1.21 1.43v4.2h1.58V141a1.45 1.45 0 0 1 1.49-1.56c.78 0 1.21.43 1.21 1.43v4.2h1.57v-4.3c0-1.88-1-2.64-2.26-2.64a2.67 2.67 0 0 0-2.3 1.22 1.9 1.9 0 0 0-1.92-1.22 2.27 2.27 0 0 0-2.07 1.18v-1h-1.52v6.8Zm17.34.12a3.09 3.09 0 0 0 1.07-.17v-1.25a2 2 0 0 1-.77.13c-.49 0-.78-.27-.78-.87v-3.58h1.5v-1.18h-1.5v-1.5h-1.57v1.5h-.91v1.18h.91v3.72a1.83 1.83 0 0 0 2 2Zm5.52 0a3.34 3.34 0 0 0 3.49-3.5v-.1a3.49 3.49 0 0 0-7 0v.1a3.33 3.33 0 0 0 3.56 3.51Zm0-1.22c-1.2 0-1.89-.87-1.89-2.27v-.1c0-1.4.72-2.25 1.89-2.25s1.87.86 1.87 2.26v.09c.02 1.41-.64 2.27-1.81 2.27Zm8.13 1.09H163v-3.81h3.17V140H163v-2.77h4v-1.43h-5.7v9.3Zm9.81.13a3.34 3.34 0 0 0 3.49-3.5v-.1a3.49 3.49 0 0 0-7 0v.1a3.34 3.34 0 0 0 3.57 3.51Zm0-1.22c-1.2 0-1.88-.87-1.88-2.27v-.1c0-1.4.71-2.25 1.88-2.25s1.87.86 1.87 2.26v.09c.08 1.41-.63 2.27-1.8 2.27Zm4.95 1.1h1.57v-3.54c0-1.44.83-1.88 2.21-1.9v-1.46a2.26 2.26 0 0 0-2.21 1.37v-1.27H176v6.8Zm5.16 0h1.58v-3.34l2.54 3.34h1.82l-2.86-3.68 2.64-3.12h-1.68l-2.43 3v-6.14h-1.58v9.95Zm12.62 0h2l3.14-9.3h-1.62l-2.43 7.54-2.42-7.54h-1.81Zm7.05-7.92a.91.91 0 1 0-.93-.9.91.91 0 0 0 .96.9Zm-.76 7.92h1.57v-6.8h-1.54Zm6 .13a2.59 2.59 0 0 0 2.24-1.28v1.15h1.57v-9.95h-1.57v4.19a2.32 2.32 0 0 0-2.17-1.18c-1.77 0-3.06 1.37-3.06 3.55v.1c.06 2.19 1.35 3.42 3.05 3.42Zm.39-1.25c-1 0-1.76-.71-1.76-2.21v-.1c0-1.47.67-2.28 1.83-2.28s1.83.74 1.83 2.24v.1c0 1.52-.8 2.25-1.9 2.25Zm8.28 1.25c1.75 0 2.9-.78 3.12-2.21h-1.46c-.11.66-.61 1-1.56 1-1.17 0-1.82-.73-1.87-2h5v-.45a3.07 3.07 0 0 0-3.21-3.43 3.3 3.3 0 0 0-3.38 3.51v.1a3.25 3.25 0 0 0 3.44 3.46ZM213 141a1.74 1.74 0 0 1 1.74-1.69c1 0 1.57.52 1.65 1.69Zm9.38 4.24a3.34 3.34 0 0 0 3.5-3.5v-.1a3.49 3.49 0 0 0-7 0v.1a3.33 3.33 0 0 0 3.5 3.49Zm0-1.22c-1.2 0-1.89-.87-1.89-2.27v-.1c0-1.4.72-2.25 1.89-2.25s1.87.86 1.87 2.26v.09c.02 1.39-.68 2.25-1.85 2.25Z" transform="translate(-26 -29.1)"/>
    <path class="cls-8" d="M60 134.1h36v36H60Z" transform="translate(-26 -29.1)"/>
    <path class="cls-10" d="M90 140.1H66v24h24Z" transform="translate(-26 -29.1)" style="mask:url(#mask-2)"/>
    <rect class="cls-8" x="237" y="134" width="21" height="7" rx="3"/>
    <path class="cls-13" d="M272 166.6a1.5 1.5 0 1 0 3 0 1.5 1.5 0 0 0-3 0Zm-5 0a1.5 1.5 0 1 0 1.5-1.5 1.5 1.5 0 0 0-1.5 1.5Zm11.5 1.5a1.5 1.5 0 1 1 1.5-1.5 1.5 1.5 0 0 1-1.5 1.5Z" transform="translate(-26 -29.1)"/>
  </g>
  <path class="cls-1" d="M662 104.1a12 12 0 1 1-12-12 12 12 0 0 1 12 12Z" transform="translate(-26 -29.1)"/>
  <path class="cls-3" d="M661 104.1a11 11 0 1 1-11-11 11 11 0 0 1 11 11Zm-6 .23a.47.47 0 0 1-.47.47h-3.83v3.83a.47.47 0 0 1-.47.47h-.46a.47.47 0 0 1-.47-.47v-3.83h-3.83a.47.47 0 0 1-.47-.47v-.47a.48.48 0 0 1 .47-.47h3.83v-3.82a.47.47 0 0 1 .47-.47h.46a.47.47 0 0 1 .47.47v3.83h3.83a.47.47 0 0 1 .47.47v.46Zm-5-9.23a9 9 0 1 1-9 9 9 9 0 0 1 9-9Z" transform="translate(-26 -29.1)"/>
  <path class="cls-1" d="M396 104.1a12 12 0 1 1-12-12 12 12 0 0 1 12 12Z" transform="translate(-26 -29.1)"/>
  <path class="cls-3" d="M395 104.1a11 11 0 1 1-11-11 11 11 0 0 1 11 11Zm-6.47.7h-9.06a.47.47 0 0 1-.47-.47v-.47a.48.48 0 0 1 .47-.47h9.06c.26 0 .26 1.41 0 1.41ZM384 95.1a9 9 0 1 1-9 9 9 9 0 0 1 9-9Z" transform="translate(-26 -29.1)"/>
  <g style="clip-path:url(#clip-path-2)">
    <rect class="cls-5" x="366" y="9" width="250" height="132" rx="4"/>
    <path class="cls-1" d="M397 30.1h240v148H397Z" transform="translate(-26 -29.1)"/>
    <path class="cls-6" d="M636.5 125.6h-239" transform="translate(-26 -29.1)"/>
    <path class="cls-7" d="M638 29.1H396v150h242Zm-1 1H397v148h240Z" transform="translate(-26 -29.1)"/>
    <path class="cls-8" d="M397 30.1h240v96H397Z" transform="translate(-26 -29.1)"/>
    <path class="cls-10" d="M533 62.1h-32v32h32Z" transform="translate(-26 -29.1)" style="mask:url(#mask-3)"/>
    <path class="cls-8" d="M456 152.1h108v18H456Z" transform="translate(-26 -29.1)"/>
    <path class="cls-11" d="M461.63 164.2a2.22 2.22 0 0 0 2.43-2.49v-5.48h-1.48v5.45c0 1-.46 1.34-1.17 1.34a2.43 2.43 0 0 1-1-.2V164a2.51 2.51 0 0 0 1.23.23Zm6.87 0a2.83 2.83 0 0 0 3-3v-.09a3 3 0 0 0-5.91 0v.09a2.82 2.82 0 0 0 2.91 3.01Zm0-1c-1 0-1.59-.73-1.59-1.91v-.09c0-1.19.6-1.9 1.59-1.9s1.59.73 1.59 1.91v.08c.01 1.15-.59 1.88-1.58 1.88Zm6.38 1a1.93 1.93 0 0 0 1.82-1v.9h1.3v-5.75h-1.33v3.42a1.28 1.28 0 0 1-1.34 1.37c-.77 0-1.13-.39-1.13-1.26v-3.53h-1.33V162c0 1.53.84 2.18 2 2.18Zm5-.11h1.33v-3c0-1.22.71-1.6 1.87-1.61v-1.24a1.92 1.92 0 0 0-1.87 1.16v-1.07h-1.33Zm4.67 0h1.33v-3.39a1.28 1.28 0 0 1 1.36-1.37c.79 0 1.14.39 1.14 1.26v3.5h1.33v-3.62c0-1.58-.81-2.26-2-2.26a2 2 0 0 0-1.86 1v-.91h-1.33Zm9.53.11c1.47 0 2.45-.66 2.64-1.87h-1.29c-.1.56-.52.88-1.32.88-1 0-1.54-.62-1.58-1.71h4.21v-.38a2.6 2.6 0 0 0-2.72-2.91 2.8 2.8 0 0 0-2.86 3v.09a2.76 2.76 0 0 0 2.92 2.93Zm-1.53-3.59a1.47 1.47 0 0 1 1.47-1.43c.83 0 1.33.44 1.4 1.43Zm6.18 5.45h1.3l3.14-7.72h-1.3l-1.41 3.7-1.53-3.7h-1.44l2.28 5.17Zm10.34-2h1.47v-6.71h2.19v-1.16h-5.85v1.16h2.19Zm5.82.11a2 2 0 0 0 1.76-.82v.71H518v-3.77c0-1.58-1-2.11-2.3-2.11s-2.36.57-2.47 1.91h1.29a1 1 0 0 1 1.1-.9c.78 0 1 .38 1 1.15v.3H516c-1.65 0-3 .48-3 1.82s.87 1.71 1.93 1.71Zm.32-1c-.66 0-.93-.32-.93-.8 0-.71.65-.94 1.66-.94h.69v.58c0 .73-.61 1.16-1.42 1.16Zm4.57.85h1.33v-3c0-1.22.71-1.6 1.87-1.61v-1.24a1.93 1.93 0 0 0-1.87 1.16v-1.07h-1.33Zm7 2.11c1.78 0 2.91-.85 2.93-2.54v-5.32h-1.34v.88a2 2 0 0 0-1.84-1 2.65 2.65 0 0 0-2.59 2.83v.08a2.54 2.54 0 0 0 2.55 2.74 2.26 2.26 0 0 0 1.89-1.07v.85a1.42 1.42 0 0 1-1.61 1.55c-.87 0-1.31-.33-1.42-.9h-1.34c.15 1.1 1 1.91 2.77 1.91Zm0-3.37a1.55 1.55 0 0 1-1.51-1.72V161a1.55 1.55 0 0 1 1.56-1.76 1.52 1.52 0 0 1 1.55 1.74v.07a1.59 1.59 0 0 1-1.51 1.79Zm7.3 1.37c1.47 0 2.45-.66 2.64-1.87h-1.29c-.1.56-.52.88-1.32.88-1 0-1.54-.62-1.58-1.71h4.21v-.38a2.6 2.6 0 0 0-2.72-2.91 2.8 2.8 0 0 0-2.86 3v.09a2.76 2.76 0 0 0 2.92 2.93Zm-1.53-3.59a1.47 1.47 0 0 1 1.47-1.43c.83 0 1.33.44 1.4 1.43Zm7.64 3.58a2.49 2.49 0 0 0 .9-.15V163a1.61 1.61 0 0 1-.65.11c-.42 0-.66-.23-.66-.74v-3h1.27v-1h-1.27v-1.27h-1.33v1.27h-.77v1h.77v3.14a1.55 1.55 0 0 0 1.74 1.71Zm3.08-6.8a.77.77 0 1 0-.79-.76.77.77 0 0 0 .88.84Zm-.65 6.7H544v-5.75h-1.33Zm3.26 0h1.33v-3.39a1.27 1.27 0 0 1 1.35-1.37c.79 0 1.14.39 1.14 1.26v3.5h1.34v-3.62c0-1.58-.82-2.26-2-2.26a2 2 0 0 0-1.86 1v-.91H546Zm9.44 2.11c1.78 0 2.92-.85 2.93-2.54v-5.32H557v.88a2 2 0 0 0-1.85-1 2.65 2.65 0 0 0-2.59 2.83v.08a2.55 2.55 0 0 0 2.56 2.74 2.25 2.25 0 0 0 1.88-1v.85a1.42 1.42 0 0 1-1.61 1.55c-.87 0-1.31-.33-1.42-.9h-1.34c.15 1.1 1 1.91 2.77 1.91Zm.05-3.37a1.55 1.55 0 0 1-1.52-1.72V161a1.55 1.55 0 0 1 1.56-1.76 1.52 1.52 0 0 1 1.55 1.74v.07a1.58 1.58 0 0 1-1.5 1.79Zm-98.3-17.66h1.73v-3.81h3.2V140h-3.2v-2.77h4v-1.43h-5.76Zm8.63.13a2.37 2.37 0 0 0 2.08-1v.83h1.55v-4.46c0-1.86-1.2-2.48-2.72-2.48s-2.78.66-2.91 2.25h1.52a1.13 1.13 0 0 1 1.3-1.07c.92 0 1.23.45 1.23 1.36v.36h-.84c-2 0-3.49.57-3.49 2.15 0 1.42 1 2 2.28 2Zm.38-1.13c-.78 0-1.1-.38-1.1-.95 0-.83.77-1.11 2-1.11h.8v.68c-.03.87-.78 1.38-1.7 1.38Zm5.05 1h1.57v-3.54c0-1.44.83-1.88 2.21-1.9v-1.46a2.27 2.27 0 0 0-2.21 1.37v-1.27h-1.57v6.8Zm5.17 0h1.57V141a1.45 1.45 0 0 1 1.49-1.56c.77 0 1.21.43 1.21 1.43v4.2h1.58V141a1.45 1.45 0 0 1 1.49-1.56c.78 0 1.21.43 1.21 1.43v4.2h1.57v-4.3c0-1.88-1-2.64-2.26-2.64a2.67 2.67 0 0 0-2.3 1.22 1.9 1.9 0 0 0-1.92-1.22 2.27 2.27 0 0 0-2.07 1.18v-1h-1.57v6.8Zm17.34.12a3.09 3.09 0 0 0 1.07-.17v-1.25a2 2 0 0 1-.77.13c-.49 0-.78-.27-.78-.87v-3.58h1.5v-1.18h-1.5v-1.5h-1.57v1.5h-.91v1.18h.91v3.72a1.83 1.83 0 0 0 2.05 2Zm5.52 0a3.34 3.34 0 0 0 3.49-3.5v-.1a3.49 3.49 0 0 0-7 0v.1a3.33 3.33 0 0 0 3.51 3.51Zm0-1.22c-1.2 0-1.89-.87-1.89-2.27v-.1c0-1.4.72-2.25 1.89-2.25s1.87.86 1.87 2.26v.09c-.03 1.41-.69 2.27-1.86 2.27Zm8.13 1.09H509v-3.81h3.17V140H509v-2.77h4v-1.43h-5.7v9.3Zm9.81.13a3.34 3.34 0 0 0 3.49-3.5v-.1a3.49 3.49 0 0 0-7 0v.1a3.34 3.34 0 0 0 3.52 3.51Zm0-1.22c-1.2 0-1.88-.87-1.88-2.27v-.1c0-1.4.71-2.25 1.88-2.25s1.87.86 1.87 2.26v.09c.03 1.41-.68 2.27-1.85 2.27Zm4.9 1.1h1.57v-3.54c0-1.44.83-1.88 2.21-1.9v-1.46a2.26 2.26 0 0 0-2.21 1.37v-1.27H522v6.8Zm5.16 0h1.58v-3.34l2.54 3.34h1.82l-2.86-3.68 2.64-3.12h-1.68l-2.43 3v-6.14h-1.58v9.95Zm12.62 0h2l3.14-9.3h-1.62l-2.43 7.54-2.42-7.54h-1.81Zm7.05-7.92a.91.91 0 1 0-.93-.9.91.91 0 0 0 .96.9Zm-.76 7.92h1.57v-6.8h-1.54Zm6 .13a2.59 2.59 0 0 0 2.24-1.28v1.15h1.57v-9.95h-1.57v4.19a2.32 2.32 0 0 0-2.17-1.18c-1.77 0-3.06 1.37-3.06 3.55v.1c.06 2.19 1.35 3.42 3.05 3.42Zm.39-1.25c-1 0-1.76-.71-1.76-2.21v-.1c0-1.47.67-2.28 1.83-2.28s1.83.74 1.83 2.24v.1c0 1.52-.8 2.25-1.9 2.25Zm8.28 1.25c1.75 0 2.9-.78 3.12-2.21h-1.46c-.11.66-.61 1-1.56 1-1.17 0-1.82-.73-1.87-2h5v-.45a3.07 3.07 0 0 0-3.21-3.43 3.3 3.3 0 0 0-3.38 3.51v.1a3.25 3.25 0 0 0 3.44 3.46ZM559 141a1.74 1.74 0 0 1 1.74-1.69c1 0 1.57.52 1.65 1.69Zm9.38 4.24a3.34 3.34 0 0 0 3.5-3.5v-.1a3.49 3.49 0 0 0-7 0v.1a3.33 3.33 0 0 0 3.5 3.49Zm0-1.22c-1.2 0-1.89-.87-1.89-2.27v-.1c0-1.4.72-2.25 1.89-2.25s1.87.86 1.87 2.26v.09c.02 1.39-.68 2.25-1.85 2.25Z" transform="translate(-26 -29.1)"/>
    <path class="cls-8" d="M406 134.1h36v36h-36Z" transform="translate(-26 -29.1)"/>
    <path class="cls-10" d="M436 140.1h-24v24h24Z" transform="translate(-26 -29.1)" style="mask:url(#mask-4)"/>
    <rect class="cls-8" x="583" y="134" width="21" height="7" rx="3"/>
    <path class="cls-13" d="M618 166.6a1.5 1.5 0 1 0 3 0 1.5 1.5 0 0 0-3 0Zm-5 0a1.5 1.5 0 1 0 1.5-1.5 1.5 1.5 0 0 0-1.5 1.5Zm11.5 1.5a1.5 1.5 0 1 1 1.5-1.5 1.5 1.5 0 0 1-1.5 1.5Z" transform="translate(-26 -29.1)"/>
  </g>
  <path class="cls-1" d="M1008 104.1a12 12 0 1 1-12-12 12 12 0 0 1 12 12Z" transform="translate(-26 -29.1)"/>
  <path class="cls-3" d="M1007 104.1a11 11 0 1 1-11-11 11 11 0 0 1 11 11Zm-6 .23a.47.47 0 0 1-.47.47h-3.83v3.83a.47.47 0 0 1-.47.47h-.46a.47.47 0 0 1-.47-.47v-3.83h-3.83a.47.47 0 0 1-.47-.47v-.47a.48.48 0 0 1 .47-.47h3.83v-3.82a.47.47 0 0 1 .47-.47h.46a.47.47 0 0 1 .47.47v3.83h3.83a.47.47 0 0 1 .47.47v.46Zm-5-9.23a9 9 0 1 1-9 9 9 9 0 0 1 9-9Z" transform="translate(-26 -29.1)"/>
  <path class="cls-1" d="M742 104.1a12 12 0 1 1-12-12 12 12 0 0 1 12 12Z" transform="translate(-26 -29.1)"/>
  <path class="cls-3" d="M741 104.1a11 11 0 1 1-11-11 11 11 0 0 1 11 11Zm-6.47.7h-9.06a.47.47 0 0 1-.47-.47v-.47a.48.48 0 0 1 .47-.47h9.06c.26 0 .26 1.41 0 1.41ZM730 95.1a9 9 0 1 1-9 9 9 9 0 0 1 9-9Z" transform="translate(-26 -29.1)"/>
  <g style="clip-path:url(#clip-path-3)">
    <rect class="cls-5" x="712" y="9" width="250" height="132" rx="4"/>
    <path class="cls-1" d="M743 30.1h240v148H743Z" transform="translate(-26 -29.1)"/>
    <path class="cls-6" d="M982.5 125.6h-239" transform="translate(-26 -29.1)"/>
    <path class="cls-7" d="M984 29.1H742v150h242Zm-1 1H743v148h240Z" transform="translate(-26 -29.1)"/>
    <path class="cls-8" d="M743 30.1h240v96H743Z" transform="translate(-26 -29.1)"/>
    <path class="cls-10" d="M879 62.1h-32v32h32Z" transform="translate(-26 -29.1)" style="mask:url(#mask-5)"/>
    <path class="cls-8" d="M802 152.1h108v18H802Z" transform="translate(-26 -29.1)"/>
    <path class="cls-11" d="M807.63 164.2a2.22 2.22 0 0 0 2.43-2.49v-5.48h-1.48v5.45c0 1-.46 1.34-1.17 1.34a2.43 2.43 0 0 1-1-.2V164a2.51 2.51 0 0 0 1.23.23Zm6.87 0a2.83 2.83 0 0 0 3-3v-.09a3 3 0 0 0-5.91 0v.09a2.82 2.82 0 0 0 2.91 3.01Zm0-1c-1 0-1.59-.73-1.59-1.91v-.09c0-1.19.6-1.9 1.59-1.9s1.59.73 1.59 1.91v.08c.01 1.15-.59 1.88-1.58 1.88Zm6.38 1a1.93 1.93 0 0 0 1.82-1v.9h1.3v-5.75h-1.33v3.42a1.28 1.28 0 0 1-1.34 1.37c-.77 0-1.13-.39-1.13-1.26v-3.53h-1.33V162c0 1.53.84 2.18 2 2.18Zm5-.11h1.33v-3c0-1.22.71-1.6 1.87-1.61v-1.24a1.92 1.92 0 0 0-1.87 1.16v-1.07h-1.33Zm4.67 0h1.33v-3.39a1.28 1.28 0 0 1 1.36-1.37c.79 0 1.14.39 1.14 1.26v3.5h1.33v-3.62c0-1.58-.81-2.26-2-2.26a2 2 0 0 0-1.86 1v-.91h-1.33Zm9.53.11c1.47 0 2.45-.66 2.64-1.87h-1.29c-.1.56-.52.88-1.32.88-1 0-1.54-.62-1.58-1.71h4.21v-.38a2.6 2.6 0 0 0-2.72-2.91 2.8 2.8 0 0 0-2.86 3v.09a2.76 2.76 0 0 0 2.92 2.93Zm-1.53-3.59a1.47 1.47 0 0 1 1.47-1.43c.83 0 1.33.44 1.4 1.43Zm6.18 5.45h1.3l3.14-7.72h-1.3l-1.41 3.7-1.53-3.7h-1.44l2.28 5.17Zm10.34-2h1.47v-6.71h2.19v-1.16h-5.85v1.16h2.19Zm5.82.11a2 2 0 0 0 1.76-.82v.71H864v-3.77c0-1.58-1-2.11-2.3-2.11s-2.36.57-2.47 1.91h1.29a1 1 0 0 1 1.1-.9c.78 0 1 .38 1 1.15v.3H862c-1.65 0-3 .48-3 1.82s.87 1.71 1.93 1.71Zm.32-1c-.66 0-.93-.32-.93-.8 0-.71.65-.94 1.66-.94h.69v.58c0 .73-.61 1.16-1.42 1.16Zm4.57.85h1.33v-3c0-1.22.71-1.6 1.87-1.61v-1.24a1.93 1.93 0 0 0-1.87 1.16v-1.07h-1.33Zm7 2.11c1.78 0 2.91-.85 2.93-2.54v-5.32h-1.34v.88a2 2 0 0 0-1.84-1 2.65 2.65 0 0 0-2.59 2.83v.08a2.54 2.54 0 0 0 2.55 2.74 2.26 2.26 0 0 0 1.89-1.07v.85a1.42 1.42 0 0 1-1.61 1.55c-.87 0-1.31-.33-1.42-.9h-1.34c.15 1.1 1 1.91 2.77 1.91Zm0-3.37a1.55 1.55 0 0 1-1.51-1.72V161a1.55 1.55 0 0 1 1.56-1.76 1.52 1.52 0 0 1 1.55 1.74v.07a1.59 1.59 0 0 1-1.51 1.79Zm7.3 1.37c1.47 0 2.45-.66 2.64-1.87h-1.29c-.1.56-.52.88-1.32.88-1 0-1.54-.62-1.58-1.71h4.21v-.38a2.6 2.6 0 0 0-2.72-2.91 2.8 2.8 0 0 0-2.86 3v.09a2.76 2.76 0 0 0 2.92 2.93Zm-1.53-3.59a1.47 1.47 0 0 1 1.47-1.43c.83 0 1.33.44 1.4 1.43Zm7.64 3.58a2.49 2.49 0 0 0 .9-.15V163a1.61 1.61 0 0 1-.65.11c-.42 0-.66-.23-.66-.74v-3h1.27v-1h-1.27v-1.27h-1.33v1.27h-.77v1h.77v3.14a1.55 1.55 0 0 0 1.74 1.71Zm3.08-6.8a.77.77 0 1 0-.79-.76.77.77 0 0 0 .88.84Zm-.65 6.7H890v-5.75h-1.33Zm3.26 0h1.33v-3.39a1.27 1.27 0 0 1 1.35-1.37c.79 0 1.14.39 1.14 1.26v3.5h1.34v-3.62c0-1.58-.82-2.26-2-2.26a2 2 0 0 0-1.86 1v-.91H892Zm9.44 2.11c1.78 0 2.92-.85 2.93-2.54v-5.32H903v.88a2 2 0 0 0-1.85-1 2.65 2.65 0 0 0-2.59 2.83v.08a2.55 2.55 0 0 0 2.56 2.74 2.25 2.25 0 0 0 1.88-1v.85a1.42 1.42 0 0 1-1.61 1.55c-.87 0-1.31-.33-1.42-.9h-1.34c.15 1.1 1 1.91 2.77 1.91Zm.05-3.37a1.55 1.55 0 0 1-1.52-1.72V161a1.55 1.55 0 0 1 1.56-1.76 1.52 1.52 0 0 1 1.55 1.74v.07a1.58 1.58 0 0 1-1.5 1.79Zm-98.3-17.66h1.73v-3.81h3.2V140h-3.2v-2.77h4v-1.43h-5.76Zm8.63.13a2.37 2.37 0 0 0 2.08-1v.83h1.55v-4.46c0-1.86-1.2-2.48-2.72-2.48s-2.78.66-2.91 2.25h1.52a1.13 1.13 0 0 1 1.3-1.07c.92 0 1.23.45 1.23 1.36v.36h-.84c-1.95 0-3.49.57-3.49 2.15 0 1.42 1 2 2.28 2Zm.38-1.13c-.78 0-1.1-.38-1.1-.95 0-.83.77-1.11 2-1.11h.8v.68c-.03.87-.78 1.38-1.7 1.38Zm5 1h1.57v-3.54c0-1.44.83-1.88 2.21-1.9v-1.46a2.27 2.27 0 0 0-2.21 1.37v-1.27h-1.57v6.8Zm5.17 0h1.57V141a1.45 1.45 0 0 1 1.49-1.56c.77 0 1.21.43 1.21 1.43v4.2h1.58V141a1.45 1.45 0 0 1 1.49-1.56c.78 0 1.21.43 1.21 1.43v4.2h1.57v-4.3c0-1.88-1-2.64-2.26-2.64a2.67 2.67 0 0 0-2.3 1.22 1.9 1.9 0 0 0-1.92-1.22 2.27 2.27 0 0 0-2.07 1.18v-1h-1.52v6.8Zm17.34.12a3.09 3.09 0 0 0 1.07-.17v-1.25a2 2 0 0 1-.77.13c-.49 0-.78-.27-.78-.87v-3.58h1.5v-1.18h-1.5v-1.5h-1.57v1.5h-.91v1.18h.91v3.72a1.83 1.83 0 0 0 2 2Zm5.52 0a3.34 3.34 0 0 0 3.49-3.5v-.1a3.49 3.49 0 0 0-7 0v.1a3.33 3.33 0 0 0 3.56 3.51Zm0-1.22c-1.2 0-1.89-.87-1.89-2.27v-.1c0-1.4.72-2.25 1.89-2.25s1.87.86 1.87 2.26v.09c.02 1.41-.64 2.27-1.81 2.27Zm8.13 1.09H855v-3.81h3.17V140H855v-2.77h4v-1.43h-5.7v9.3Zm9.81.13a3.34 3.34 0 0 0 3.49-3.5v-.1a3.49 3.49 0 0 0-7 0v.1a3.34 3.34 0 0 0 3.57 3.51Zm0-1.22c-1.2 0-1.88-.87-1.88-2.27v-.1c0-1.4.71-2.25 1.88-2.25s1.87.86 1.87 2.26v.09c.08 1.41-.63 2.27-1.8 2.27Zm4.95 1.1h1.57v-3.54c0-1.44.83-1.88 2.21-1.9v-1.46a2.26 2.26 0 0 0-2.21 1.37v-1.27H868v6.8Zm5.16 0h1.58v-3.34l2.54 3.34h1.82l-2.86-3.68 2.64-3.12h-1.68l-2.43 3v-6.14h-1.58v9.95Zm12.62 0h2l3.14-9.3h-1.62l-2.43 7.54-2.42-7.54h-1.81Zm7.05-7.92a.91.91 0 1 0-.93-.9.91.91 0 0 0 .96.9Zm-.76 7.92h1.57v-6.8h-1.54Zm6 .13a2.59 2.59 0 0 0 2.24-1.28v1.15h1.57v-9.95h-1.57v4.19a2.32 2.32 0 0 0-2.17-1.18c-1.77 0-3.06 1.37-3.06 3.55v.1c.06 2.19 1.35 3.42 3.05 3.42Zm.39-1.25c-1 0-1.76-.71-1.76-2.21v-.1c0-1.47.67-2.28 1.83-2.28s1.83.74 1.83 2.24v.1c0 1.52-.8 2.25-1.9 2.25Zm8.28 1.25c1.75 0 2.9-.78 3.12-2.21h-1.46c-.11.66-.61 1-1.56 1-1.17 0-1.82-.73-1.87-2h5v-.45a3.07 3.07 0 0 0-3.21-3.43 3.3 3.3 0 0 0-3.38 3.51v.1a3.25 3.25 0 0 0 3.44 3.46ZM905 141a1.74 1.74 0 0 1 1.74-1.69c1 0 1.57.52 1.65 1.69Zm9.38 4.24a3.34 3.34 0 0 0 3.5-3.5v-.1a3.49 3.49 0 0 0-7 0v.1a3.33 3.33 0 0 0 3.5 3.49Zm0-1.22c-1.2 0-1.89-.87-1.89-2.27v-.1c0-1.4.72-2.25 1.89-2.25s1.87.86 1.87 2.26v.09c.02 1.39-.68 2.25-1.85 2.25Z" transform="translate(-26 -29.1)"/>
    <path class="cls-8" d="M752 134.1h36v36h-36Z" transform="translate(-26 -29.1)"/>
    <path class="cls-10" d="M782 140.1h-24v24h24Z" transform="translate(-26 -29.1)" style="mask:url(#mask-6)"/>
    <rect class="cls-8" x="929" y="134" width="21" height="7" rx="3"/>
    <path class="cls-13" d="M964 166.6a1.5 1.5 0 0 0 3 0 1.5 1.5 0 1 0-3 0Zm-5 0a1.5 1.5 0 1 0 1.5-1.5 1.5 1.5 0 0 0-1.5 1.5Zm11.5 1.5a1.5 1.5 0 1 1 1.5-1.5 1.5 1.5 0 0 1-1.5 1.5Z" transform="translate(-26 -29.1)"/>
  </g>
</svg>
