<svg id="Layer_1" data-name="Layer 1" xmlns="http://www.w3.org/2000/svg" xmlns:xlink="http://www.w3.org/1999/xlink" viewBox="0 0 290 567"><defs><style>.cls-1{fill:#fff;}.cls-2,.cls-5{fill:none;}.cls-3{clip-path:url(#clip-path);}.cls-4,.cls-6{fill:#769bd6;}.cls-5{stroke:#dadada;stroke-linecap:square;}.cls-12,.cls-13,.cls-6{fill-rule:evenodd;}.cls-7{fill:#e3edfc;}.cls-8{mask:url(#mask);}.cls-12,.cls-9{fill:#003285;}.cls-10{fill:#060606;}.cls-11{mask:url(#mask-2);}.cls-14{clip-path:url(#clip-path-2);}.cls-15{mask:url(#mask-3);}.cls-16{mask:url(#mask-4);}.cls-17{clip-path:url(#clip-path-3);}.cls-18{mask:url(#mask-5);}.cls-19{mask:url(#mask-6);}</style><clipPath id="clip-path" transform="translate(-19.67 -25)"><rect class="cls-2" x="39.67" y="25" width="250" height="150"/></clipPath><mask id="mask" x="129" y="33" width="32" height="32" maskUnits="userSpaceOnUse"><g transform="translate(-19.67 -25)"><g id="i"><path class="cls-1" d="M176.67,60a2,2,0,0,1,2,2V86a2,2,0,0,1-2,2h-24a2,2,0,0,1-2-2V62a2,2,0,0,1,2-2Zm0,22h-24v4h24Zm0-20h-24V80.92l5.73-6.16a1,1,0,0,1,1.41-.05h0l0,0L163.1,78l5.3-6.92a1,1,0,0,1,1.4-.18,1,1,0,0,1,.21.21l6.66,9.47ZM159.1,77l-2.81,3h5.63Zm10.07-3.44L164.29,80H174ZM158.67,66a2,2,0,1,1-2,2A2,2,0,0,1,158.67,66Z"/></g></g></mask><mask id="mask-2" x="40" y="111" width="24" height="24" maskUnits="userSpaceOnUse"><g transform="translate(-19.67 -25)"><g id="j"><path class="cls-1" d="M80.67,137.5a1.5,1.5,0,0,1,1.5,1.5v18a1.5,1.5,0,0,1-1.5,1.5h-18a1.5,1.5,0,0,1-1.5-1.5V139a1.5,1.5,0,0,1,1.5-1.5Zm0,16.5h-18v3h18Zm0-15h-18v14.19l4.3-4.62a.74.74,0,0,1,1,0l0,0L70.49,151l4-5.19a.75.75,0,0,1,1-.14.87.87,0,0,1,.16.17l5,7.09V139ZM67.49,150.25l-2.1,2.25H69.6ZM75,147.67l-3.65,4.83H78.7ZM67.17,142a1.5,1.5,0,1,1-1.5,1.5A1.5,1.5,0,0,1,67.17,142Z"/></g></g></mask><clipPath id="clip-path-2" transform="translate(-19.67 -25)"><rect class="cls-2" x="39.67" y="233.5" width="250" height="150"/></clipPath><mask id="mask-3" x="129" y="241.5" width="32" height="32" maskUnits="userSpaceOnUse"><g transform="translate(-19.67 -25)"><g id="i-2" data-name="i"><path class="cls-1" d="M176.67,268.5a2,2,0,0,1,2,2v24a2,2,0,0,1-2,2h-24a2,2,0,0,1-2-2v-24a2,2,0,0,1,2-2Zm0,22h-24v4h24Zm0-20h-24v18.92l5.73-6.16a1,1,0,0,1,1.41-.05h0l0,0,3.26,3.27,5.3-6.92a1,1,0,0,1,1.4-.18,1,1,0,0,1,.21.21l6.66,9.47Zm-17.57,15-2.81,3h5.63Zm10.07-3.44-4.88,6.44H174Zm-10.5-7.56a2,2,0,1,1-2,2A2,2,0,0,1,158.67,274.5Z"/></g></g></mask><mask id="mask-4" x="40" y="319.5" width="24" height="24" maskUnits="userSpaceOnUse"><g transform="translate(-19.67 -25)"><g id="j-2" data-name="j"><path class="cls-1" d="M80.67,346a1.5,1.5,0,0,1,1.5,1.5v18a1.5,1.5,0,0,1-1.5,1.5h-18a1.5,1.5,0,0,1-1.5-1.5v-18a1.5,1.5,0,0,1,1.5-1.5Zm0,16.5h-18v3h18Zm0-15h-18v14.19l4.3-4.62a.74.74,0,0,1,1,0l0,0,2.45,2.45,4-5.19a.75.75,0,0,1,1-.14.87.87,0,0,1,.16.17l5,7.09V347.5ZM67.49,358.75,65.39,361H69.6ZM75,356.17,71.39,361H78.7Zm-7.87-5.67a1.5,1.5,0,1,1-1.5,1.5A1.5,1.5,0,0,1,67.17,350.5Z"/></g></g></mask><clipPath id="clip-path-3" transform="translate(-19.67 -25)"><rect class="cls-2" x="39.67" y="442" width="250" height="150"/></clipPath><mask id="mask-5" x="129" y="450" width="32" height="32" maskUnits="userSpaceOnUse"><g transform="translate(-19.67 -25)"><g id="i-3" data-name="i"><path class="cls-1" d="M176.67,477a2,2,0,0,1,2,2v24a2,2,0,0,1-2,2h-24a2,2,0,0,1-2-2V479a2,2,0,0,1,2-2Zm0,22h-24v4h24Zm0-20h-24v18.92l5.73-6.16a1,1,0,0,1,1.41-.05h0l0,0L163.1,495l5.3-6.92a1,1,0,0,1,1.4-.18,1,1,0,0,1,.21.21l6.66,9.47ZM159.1,494l-2.81,3h5.63Zm10.07-3.44L164.29,497H174ZM158.67,483a2,2,0,1,1-2,2A2,2,0,0,1,158.67,483Z"/></g></g></mask><mask id="mask-6" x="40" y="528" width="24" height="24" maskUnits="userSpaceOnUse"><g transform="translate(-19.67 -25)"><g id="j-3" data-name="j"><path class="cls-1" d="M80.67,554.5a1.5,1.5,0,0,1,1.5,1.5v18a1.5,1.5,0,0,1-1.5,1.5h-18a1.5,1.5,0,0,1-1.5-1.5V556a1.5,1.5,0,0,1,1.5-1.5Zm0,16.5h-18v3h18Zm0-15h-18v14.19l4.3-4.62a.74.74,0,0,1,1,0l0,0L70.49,568l4-5.19a.75.75,0,0,1,1-.14.87.87,0,0,1,.16.17l5,7.09V556ZM67.49,567.25l-2.1,2.25H69.6ZM75,564.67l-3.65,4.83H78.7ZM67.17,559a1.5,1.5,0,1,1-1.5,1.5A1.5,1.5,0,0,1,67.17,559Z"/></g></g></mask></defs><title>vertical-three-svg</title><g class="cls-3"><rect class="cls-4" x="20" y="9" width="250" height="132" rx="4"/><path class="cls-1" d="M44.67,26h240V174h-240Z" transform="translate(-19.67 -25)"/><path class="cls-5" d="M284.17,121.5h-239" transform="translate(-19.67 -25)"/><path class="cls-6" d="M285.67,25h-242V175h242Zm-1,1h-240V174h240Z" transform="translate(-19.67 -25)"/><path class="cls-7" d="M44.67,26h240v96h-240Z" transform="translate(-19.67 -25)"/><g class="cls-8"><path class="cls-9" d="M180.67,58h-32V90h32Z" transform="translate(-19.67 -25)"/></g><path class="cls-7" d="M103.67,148h108v18h-108Z" transform="translate(-19.67 -25)"/><path class="cls-10" d="M109.29,160.1a2.23,2.23,0,0,0,2.44-2.49v-5.47h-1.48v5.44c0,1-.46,1.34-1.18,1.34a2.47,2.47,0,0,1-1-.2v1.15a2.57,2.57,0,0,0,1.23.23Zm6.88,0a2.83,2.83,0,0,0,3-3v-.09a3,3,0,0,0-5.91,0v.08A2.82,2.82,0,0,0,116.17,160.11Zm0-1c-1,0-1.6-.74-1.6-1.92v-.09c0-1.18.61-1.9,1.6-1.9s1.58.73,1.58,1.92v.07C117.76,158.34,117.17,159.08,116.18,159.08Zm6.37,1a1.94,1.94,0,0,0,1.83-1v.9h1.33v-5.75h-1.33v3.42A1.28,1.28,0,0,1,123,159c-.77,0-1.14-.39-1.14-1.26v-3.53h-1.33v3.68c0,1.53.85,2.18,2,2.18Zm5-.11h1.33v-3c0-1.22.7-1.6,1.87-1.61v-1.24a1.92,1.92,0,0,0-1.87,1.16v-1.07h-1.33Zm4.67,0h1.33v-3.39a1.27,1.27,0,0,1,1.35-1.37c.8,0,1.15.39,1.15,1.26V160h1.33v-3.62c0-1.58-.81-2.25-2-2.25a2,2,0,0,0-1.86,1v-.91h-1.33Zm9.52.11c1.48,0,2.46-.66,2.64-1.87h-1.28c-.1.56-.52.88-1.32.88-1,0-1.54-.62-1.59-1.7h4.21V157a2.59,2.59,0,0,0-2.71-2.9,2.79,2.79,0,0,0-2.86,3v.08a2.76,2.76,0,0,0,2.91,2.93Zm-1.53-3.59a1.48,1.48,0,0,1,1.48-1.43c.82,0,1.33.44,1.39,1.43Zm6.18,5.45h1.31l3.14-7.72h-1.3l-1.41,3.7-1.53-3.7H145.2l2.28,5.17Zm10.35-2h1.47v-6.71h2.19v-1.16h-5.85v1.16h2.19Zm5.82.11a2,2,0,0,0,1.76-.81v.7h1.3v-3.77c0-1.58-1-2.1-2.29-2.1s-2.36.56-2.47,1.9h1.29a1,1,0,0,1,1.1-.9c.78,0,1,.38,1,1.15v.3h-.71c-1.65,0-3,.48-3,1.83,0,1.19.87,1.7,1.93,1.7Zm.31-1c-.66,0-.92-.32-.92-.8,0-.7.65-.93,1.66-.93h.68V158c0,.73-.6,1.16-1.42,1.16Zm4.58.85h1.33v-3c0-1.22.7-1.6,1.87-1.61v-1.24a1.92,1.92,0,0,0-1.87,1.16v-1.07h-1.33Zm7,2.11c1.78,0,2.91-.85,2.92-2.54v-5.32h-1.33v.88a2,2,0,0,0-1.85-1,2.64,2.64,0,0,0-2.58,2.82V157a2.54,2.54,0,0,0,2.55,2.74,2.23,2.23,0,0,0,1.88-1.07v.85a1.41,1.41,0,0,1-1.6,1.55c-.87,0-1.31-.33-1.42-.9h-1.35c.16,1.1,1,1.91,2.78,1.91Zm0-3.36A1.56,1.56,0,0,1,173,157v-.09a1.56,1.56,0,0,1,1.56-1.76,1.53,1.53,0,0,1,1.56,1.74V157A1.59,1.59,0,0,1,174.54,158.75Zm7.29,1.36c1.48,0,2.46-.66,2.64-1.87h-1.28c-.1.56-.52.88-1.32.88-1,0-1.54-.62-1.59-1.7h4.22V157a2.6,2.6,0,0,0-2.72-2.9,2.79,2.79,0,0,0-2.86,3v.08a2.76,2.76,0,0,0,2.91,2.93Zm-1.52-3.59a1.47,1.47,0,0,1,1.47-1.43c.82,0,1.33.44,1.4,1.43Zm7.63,3.58a2.79,2.79,0,0,0,.91-.14V158.9a1.61,1.61,0,0,1-.65.11c-.42,0-.66-.23-.66-.74v-3h1.26v-1h-1.26V153h-1.33v1.27h-.77v1h.77v3.14a1.55,1.55,0,0,0,1.73,1.71Zm3.09-6.8a.77.77,0,1,0-.79-.76A.77.77,0,0,0,191,153.3Zm-.65,6.7h1.33v-5.75h-1.33Zm3.25,0H195v-3.39a1.28,1.28,0,0,1,1.36-1.37c.79,0,1.14.39,1.14,1.26V160h1.33v-3.62c0-1.58-.81-2.25-2-2.25a2,2,0,0,0-1.86,1v-.91h-1.33Zm9.45,2.11c1.78,0,2.91-.85,2.92-2.54v-5.32h-1.33v.88a2,2,0,0,0-1.85-1,2.64,2.64,0,0,0-2.58,2.82V157a2.54,2.54,0,0,0,2.55,2.74,2.23,2.23,0,0,0,1.88-1.07v.85a1.41,1.41,0,0,1-1.6,1.55c-.87,0-1.31-.33-1.42-.9h-1.34c.15,1.1,1,1.91,2.77,1.91Zm0-3.36A1.56,1.56,0,0,1,201.6,157v-.09a1.56,1.56,0,0,1,1.57-1.76,1.53,1.53,0,0,1,1.55,1.74V157A1.59,1.59,0,0,1,203.12,158.75ZM104.73,140h1.73v-3.95h4.17V140h1.75v-9.29h-1.75v3.95h-4.17v-4h-1.73Zm12.59.13c1.74,0,2.9-.78,3.12-2.21h-1.52c-.12.66-.61,1-1.56,1-1.17,0-1.82-.73-1.88-2h5v-.45a3.07,3.07,0,0,0-3.21-3.43,3.31,3.31,0,0,0-3.38,3.51v.1a3.26,3.26,0,0,0,3.45,3.46Zm-1.81-4.24a1.75,1.75,0,0,1,1.74-1.69c1,0,1.58.52,1.65,1.69Zm8.2,4.24a2.37,2.37,0,0,0,2.08-1V140h1.55v-4.46c0-1.86-1.2-2.48-2.72-2.48s-2.78.66-2.91,2.25h1.52a1.13,1.13,0,0,1,1.3-1.07c.92,0,1.24.46,1.24,1.37V136h-.85c-2,0-3.48.57-3.48,2.16,0,1.41,1,2,2.27,2Zm.38-1.13c-.78,0-1.09-.38-1.09-.95,0-.83.76-1.1,2-1.1h.81v.67C125.77,138.49,125.05,139,124.09,139Zm5.09,1h1.57v-9.94h-1.57V140Zm5.81.12a3,3,0,0,0,1.06-.17V138.7a1.94,1.94,0,0,1-.77.13c-.49,0-.78-.27-.78-.87v-3.58H136V133.2h-1.5v-1.49h-1.57v1.49H132v1.18h.91v3.72a1.83,1.83,0,0,0,2.06,2Zm2.48-.12H139v-4a1.51,1.51,0,0,1,1.6-1.63c.94,0,1.35.47,1.35,1.5V140h1.58v-4.28c0-1.87-1-2.66-2.33-2.66a2.35,2.35,0,0,0-2.2,1.22v-4.22h-1.57V140Zm8.46,2.33h1.55l3.7-9.13h-1.53L148,137.58l-1.8-4.38h-1.71l2.7,6.11Zm9.66-2.33h6v-1.36h-4.3v-2.72h3.27v-1.3h-3.27v-2.55h4.08v-1.36h-5.81V140Zm9.24.13a2.37,2.37,0,0,0,2.08-1V140h1.55v-4.46c0-1.86-1.2-2.48-2.72-2.48s-2.78.66-2.91,2.25h1.52a1.13,1.13,0,0,1,1.3-1.07c.92,0,1.24.46,1.24,1.37V136H166c-1.95,0-3.48.57-3.48,2.16,0,1.41,1,2,2.27,2Zm.38-1.13c-.78,0-1.09-.38-1.09-.95,0-.83.76-1.1,2-1.1h.81v.67C166.89,138.49,166.17,139,165.21,139Zm7.35,1.12a3.09,3.09,0,0,0,1.07-.17V138.7a2,2,0,0,1-.77.13c-.49,0-.78-.27-.78-.87v-3.58h1.5V133.2h-1.5v-1.49h-1.57v1.49h-.91v1.18h.91v3.72a1.83,1.83,0,0,0,2.05,2Zm4.85,0c1.75,0,2.72-.79,2.72-2.17s-.95-1.83-2.55-2.08c-1.08-.18-1.4-.38-1.4-.87s.4-.81,1.08-.81a1.05,1.05,0,0,1,1.21.91h1.45c-.17-1.53-1.27-2.05-2.66-2.05s-2.55.67-2.55,2,.66,1.78,2.46,2.07c1,.17,1.45.37,1.45.93s-.37.87-1.22.87-1.27-.4-1.35-1.09h-1.48c.06,1.44,1.09,2.25,2.84,2.25Zm11.4,0c2.21,0,3.79-1.13,4.07-3.37h-1.69a2.18,2.18,0,0,1-2.38,2c-1.72,0-2.72-1.24-2.72-3.33v-.11c0-2.08,1.07-3.35,2.7-3.35a2,2,0,0,1,2.23,1.87h1.75c-.21-2.18-1.86-3.25-4-3.25a4.47,4.47,0,0,0-4.51,4.75v.1c0,2.86,1.63,4.72,4.54,4.72Zm7.3,0a2.37,2.37,0,0,0,2.08-1V140h1.55v-4.46c0-1.86-1.2-2.48-2.72-2.48s-2.78.66-2.91,2.25h1.52a1.13,1.13,0,0,1,1.3-1.07c.93,0,1.24.46,1.24,1.37V136h-.85c-1.95,0-3.48.57-3.48,2.16,0,1.41,1,2,2.27,2Zm.38-1.13c-.78,0-1.09-.38-1.09-.95,0-.83.77-1.1,2-1.1h.81v.67C198.17,138.49,197.45,139,196.49,139Zm5,1h1.58v-4.07a1.45,1.45,0,0,1,1.49-1.56c.77,0,1.21.43,1.21,1.43V140h1.57v-4.07a1.45,1.45,0,0,1,1.5-1.56c.78,0,1.21.43,1.21,1.43V140h1.57v-4.3c0-1.87-1-2.64-2.26-2.64a2.69,2.69,0,0,0-2.3,1.22,1.92,1.92,0,0,0-1.93-1.22,2.26,2.26,0,0,0-2.06,1.18v-1h-1.58V140Zm11.94,2.33h1.57v-3.4a2.44,2.44,0,0,0,2.22,1.2c1.76,0,3-1.33,3-3.51v-.1c0-2.2-1.31-3.46-3-3.46a2.62,2.62,0,0,0-2.22,1.23V133.2h-1.57v9.13Zm3.4-3.45c-1.14,0-1.88-.71-1.88-2.23v-.11c0-1.51.78-2.25,1.87-2.25s1.81.74,1.81,2.25v.11C218.68,138.1,218,138.88,216.88,138.88Zm6.61,1.25a2.39,2.39,0,0,0,2.08-1V140h1.54v-4.46c0-1.86-1.19-2.48-2.71-2.48s-2.79.66-2.92,2.25H223a1.14,1.14,0,0,1,1.3-1.07c.93,0,1.24.46,1.24,1.37V136h-.85c-1.95,0-3.48.57-3.48,2.16,0,1.41,1,2,2.28,2Zm.37-1.13c-.78,0-1.09-.38-1.09-.95,0-.83.77-1.1,2-1.1h.81v.67C225.54,138.49,224.82,139,223.86,139Zm5.86-6.92a.9.9,0,1,0-.93-.89A.91.91,0,0,0,229.72,132.08ZM229,140h1.58v-6.8H229V140Zm6.39,2.5c2.11,0,3.45-1,3.46-3V133.2h-1.57v1a2.36,2.36,0,0,0-2.19-1.18,3.12,3.12,0,0,0-3,3.34v.09a3,3,0,0,0,3,3.24,2.66,2.66,0,0,0,2.22-1.26v1a1.67,1.67,0,0,1-1.9,1.83c-1,0-1.55-.39-1.68-1.07h-1.58c.18,1.3,1.14,2.27,3.27,2.27Zm.06-4a1.84,1.84,0,0,1-1.8-2v-.11a1.84,1.84,0,0,1,1.85-2.08c1.13,0,1.83.77,1.83,2.06v.09A1.87,1.87,0,0,1,235.4,138.52Zm5.27,1.48h1.57v-4a1.51,1.51,0,0,1,1.6-1.63c.94,0,1.35.47,1.35,1.5V140h1.58v-4.28c0-1.87-1-2.66-2.33-2.66a2.35,2.35,0,0,0-2.2,1.22V133.2h-1.57V140Z" transform="translate(-19.67 -25)"/><path class="cls-7" d="M53.67,130h36v36h-36Z" transform="translate(-19.67 -25)"/><g class="cls-11"><path class="cls-9" d="M83.67,136h-24v24h24Z" transform="translate(-19.67 -25)"/></g><rect class="cls-7" x="237" y="134" width="21" height="7" rx="3"/><path class="cls-12" d="M265.67,162.5a1.5,1.5,0,0,0,3,0h0a1.5,1.5,0,0,0-3,0Zm-5,0a1.5,1.5,0,1,0,1.5-1.5A1.5,1.5,0,0,0,260.67,162.5Zm11.5,1.5a1.5,1.5,0,0,1,0-3h0a1.5,1.5,0,0,1,0,3Z" transform="translate(-19.67 -25)"/></g><path class="cls-1" d="M309.67,100a12,12,0,1,1-12-12A12,12,0,0,1,309.67,100Z" transform="translate(-19.67 -25)"/><path class="cls-13" d="M308.67,100a11,11,0,1,1-11-11A11,11,0,0,1,308.67,100Zm-6,.23a.47.47,0,0,1-.47.47h-3.83v3.83a.47.47,0,0,1-.47.47h-.47a.47.47,0,0,1-.47-.47V100.7h-3.82a.47.47,0,0,1-.47-.47v-.46a.47.47,0,0,1,.47-.47H297V95.47a.47.47,0,0,1,.47-.47h.47a.47.47,0,0,1,.47.47V99.3h3.83a.47.47,0,0,1,.47.47v.47Zm-5-9.23a9,9,0,1,1-9,9A9,9,0,0,1,297.67,91Z" transform="translate(-19.67 -25)"/><path class="cls-1" d="M43.67,100a12,12,0,1,1-12-12A12,12,0,0,1,43.67,100Z" transform="translate(-19.67 -25)"/><path class="cls-13" d="M42.67,100a11,11,0,1,1-11-11A11,11,0,0,1,42.67,100Zm-6.47.7H27.14a.47.47,0,0,1-.47-.47v-.46a.47.47,0,0,1,.47-.47H36.2C36.46,99.3,36.46,100.7,36.2,100.7ZM31.67,91a9,9,0,1,1-9,9A9,9,0,0,1,31.67,91Z" transform="translate(-19.67 -25)"/><g class="cls-14"><rect class="cls-4" x="20" y="217.5" width="250" height="132" rx="4"/><path class="cls-1" d="M44.67,234.5h240v148h-240Z" transform="translate(-19.67 -25)"/><path class="cls-5" d="M284.17,330h-239" transform="translate(-19.67 -25)"/><path class="cls-6" d="M285.67,233.5h-242v150h242Zm-1,1h-240v148h240Z" transform="translate(-19.67 -25)"/><path class="cls-7" d="M44.67,234.5h240v96h-240Z" transform="translate(-19.67 -25)"/><g class="cls-15"><path class="cls-9" d="M180.67,266.5h-32v32h32Z" transform="translate(-19.67 -25)"/></g><path class="cls-7" d="M103.67,356.5h108v18h-108Z" transform="translate(-19.67 -25)"/><path class="cls-10" d="M109.29,368.6a2.23,2.23,0,0,0,2.44-2.49v-5.47h-1.48v5.44c0,1-.46,1.34-1.18,1.34a2.47,2.47,0,0,1-1-.2v1.15a2.57,2.57,0,0,0,1.23.23Zm6.88,0a2.83,2.83,0,0,0,3-3v-.09a3,3,0,0,0-5.91,0v.08A2.82,2.82,0,0,0,116.17,368.61Zm0-1c-1,0-1.6-.74-1.6-1.92v-.09c0-1.18.61-1.9,1.6-1.9s1.58.73,1.58,1.92v.07C117.76,366.84,117.17,367.58,116.18,367.58Zm6.37,1a1.94,1.94,0,0,0,1.83-1v.9h1.33v-5.75h-1.33v3.42a1.28,1.28,0,0,1-1.34,1.37c-.77,0-1.14-.39-1.14-1.26v-3.53h-1.33v3.68c0,1.53.85,2.18,2,2.18Zm5-.11h1.33v-3c0-1.22.7-1.6,1.87-1.61v-1.24a1.92,1.92,0,0,0-1.87,1.16v-1.07h-1.33Zm4.67,0h1.33v-3.39a1.27,1.27,0,0,1,1.35-1.37c.8,0,1.15.39,1.15,1.26v3.5h1.33v-3.62c0-1.58-.81-2.25-2-2.25a2,2,0,0,0-1.86,1v-.91h-1.33Zm9.52.11c1.48,0,2.46-.66,2.64-1.87h-1.28c-.1.56-.52.88-1.32.88-1,0-1.54-.62-1.59-1.7h4.21v-.39a2.59,2.59,0,0,0-2.71-2.9,2.79,2.79,0,0,0-2.86,3v.08a2.76,2.76,0,0,0,2.91,2.93ZM140.25,365a1.48,1.48,0,0,1,1.48-1.43c.82,0,1.33.44,1.39,1.43Zm6.18,5.45h1.31l3.14-7.72h-1.3l-1.41,3.7-1.53-3.7H145.2l2.28,5.17Zm10.35-2h1.47v-6.71h2.19v-1.16h-5.85v1.16h2.19Zm5.82.11a2,2,0,0,0,1.76-.81v.7h1.3v-3.77c0-1.58-1-2.1-2.29-2.1s-2.36.56-2.47,1.9h1.29a1,1,0,0,1,1.1-.9c.78,0,1,.38,1,1.15v.3h-.71c-1.65,0-3,.48-3,1.83,0,1.19.87,1.7,1.93,1.7Zm.31-1c-.66,0-.92-.32-.92-.8,0-.7.65-.93,1.66-.93h.68v.57c0,.73-.6,1.16-1.42,1.16Zm4.58.85h1.33v-3c0-1.22.7-1.6,1.87-1.61v-1.24a1.92,1.92,0,0,0-1.87,1.16v-1.07h-1.33Zm7,2.11c1.78,0,2.91-.85,2.92-2.54v-5.32h-1.33v.88a2,2,0,0,0-1.85-1,2.64,2.64,0,0,0-2.58,2.82v.08a2.54,2.54,0,0,0,2.55,2.74,2.23,2.23,0,0,0,1.88-1.07v.85a1.41,1.41,0,0,1-1.6,1.55c-.87,0-1.31-.33-1.42-.9h-1.35c.16,1.1,1,1.91,2.78,1.91Zm0-3.36a1.56,1.56,0,0,1-1.52-1.73v-.09a1.56,1.56,0,0,1,1.56-1.76,1.53,1.53,0,0,1,1.56,1.74v.08A1.59,1.59,0,0,1,174.54,367.25Zm7.29,1.36c1.48,0,2.46-.66,2.64-1.87h-1.28c-.1.56-.52.88-1.32.88-1,0-1.54-.62-1.59-1.7h4.22v-.39a2.6,2.6,0,0,0-2.72-2.9,2.79,2.79,0,0,0-2.86,3v.08a2.76,2.76,0,0,0,2.91,2.93ZM180.31,365a1.47,1.47,0,0,1,1.47-1.43c.82,0,1.33.44,1.4,1.43Zm7.63,3.58a2.79,2.79,0,0,0,.91-.14V367.4a1.61,1.61,0,0,1-.65.11c-.42,0-.66-.23-.66-.74v-3h1.26v-1h-1.26v-1.27h-1.33v1.27h-.77v1h.77v3.14a1.55,1.55,0,0,0,1.73,1.71Zm3.09-6.8a.77.77,0,1,0-.79-.76A.77.77,0,0,0,191,361.8Zm-.65,6.7h1.33v-5.75h-1.33Zm3.25,0H195v-3.39a1.28,1.28,0,0,1,1.36-1.37c.79,0,1.14.39,1.14,1.26v3.5h1.33v-3.62c0-1.58-.81-2.25-2-2.25a2,2,0,0,0-1.86,1v-.91h-1.33Zm9.45,2.11c1.78,0,2.91-.85,2.92-2.54v-5.32h-1.33v.88a2,2,0,0,0-1.85-1,2.64,2.64,0,0,0-2.58,2.82v.08a2.54,2.54,0,0,0,2.55,2.74,2.23,2.23,0,0,0,1.88-1.07v.85a1.41,1.41,0,0,1-1.6,1.55c-.87,0-1.31-.33-1.42-.9h-1.34c.15,1.1,1,1.91,2.77,1.91Zm0-3.36a1.56,1.56,0,0,1-1.52-1.73v-.09a1.56,1.56,0,0,1,1.57-1.76,1.53,1.53,0,0,1,1.55,1.74v.08A1.59,1.59,0,0,1,203.12,367.25ZM104.73,348.5h1.73v-3.95h4.17v3.95h1.75v-9.29h-1.75v4h-4.17v-4h-1.73Zm12.59.13c1.74,0,2.9-.78,3.12-2.21h-1.52c-.12.66-.61,1-1.56,1-1.17,0-1.82-.73-1.88-2h5V345a3.07,3.07,0,0,0-3.21-3.43,3.31,3.31,0,0,0-3.38,3.51v.1a3.26,3.26,0,0,0,3.45,3.46Zm-1.81-4.24a1.75,1.75,0,0,1,1.74-1.69c1,0,1.58.52,1.65,1.69Zm8.2,4.24a2.37,2.37,0,0,0,2.08-1v.83h1.55V344c0-1.86-1.2-2.48-2.72-2.48s-2.78.66-2.91,2.25h1.52a1.13,1.13,0,0,1,1.3-1.07c.92,0,1.24.46,1.24,1.37v.35h-.85c-2,0-3.48.57-3.48,2.16,0,1.41,1,2,2.27,2Zm.38-1.13c-.78,0-1.09-.38-1.09-.95,0-.83.76-1.1,2-1.1h.81v.67C125.77,347,125.05,347.5,124.09,347.5Zm5.09,1h1.57v-9.94h-1.57v9.94Zm5.81.12a3,3,0,0,0,1.06-.17V347.2a1.94,1.94,0,0,1-.77.13c-.49,0-.78-.27-.78-.87v-3.58H136V341.7h-1.5v-1.49h-1.57v1.49H132v1.18h.91v3.72a1.83,1.83,0,0,0,2.06,2Zm2.48-.12H139v-4a1.51,1.51,0,0,1,1.6-1.63c.94,0,1.35.47,1.35,1.5v4.13h1.58v-4.28c0-1.87-1-2.66-2.33-2.66a2.35,2.35,0,0,0-2.2,1.22v-4.22h-1.57v9.94Zm8.46,2.33h1.55l3.7-9.13h-1.53L148,346.08l-1.8-4.38h-1.71l2.7,6.11Zm9.66-2.33h6v-1.36h-4.3v-2.72h3.27v-1.3h-3.27v-2.55h4.08v-1.36h-5.81v9.29Zm9.24.13a2.37,2.37,0,0,0,2.08-1v.83h1.55V344c0-1.86-1.2-2.48-2.72-2.48s-2.78.66-2.91,2.25h1.52a1.13,1.13,0,0,1,1.3-1.07c.92,0,1.24.46,1.24,1.37v.35H166c-1.95,0-3.48.57-3.48,2.16,0,1.41,1,2,2.27,2Zm.38-1.13c-.78,0-1.09-.38-1.09-.95,0-.83.76-1.1,2-1.1h.81v.67C166.89,347,166.17,347.5,165.21,347.5Zm7.35,1.12a3.09,3.09,0,0,0,1.07-.17V347.2a2,2,0,0,1-.77.13c-.49,0-.78-.27-.78-.87v-3.58h1.5V341.7h-1.5v-1.49h-1.57v1.49h-.91v1.18h.91v3.72a1.83,1.83,0,0,0,2.05,2Zm4.85,0c1.75,0,2.72-.79,2.72-2.17s-.95-1.83-2.55-2.08c-1.08-.18-1.4-.38-1.4-.87s.4-.81,1.08-.81a1.05,1.05,0,0,1,1.21.91h1.45c-.17-1.53-1.27-2.05-2.66-2.05s-2.55.67-2.55,2,.66,1.78,2.46,2.07c1,.17,1.45.37,1.45.93s-.37.87-1.22.87-1.27-.4-1.35-1.09h-1.48c.06,1.44,1.09,2.25,2.84,2.25Zm11.4,0c2.21,0,3.79-1.13,4.07-3.37h-1.69a2.18,2.18,0,0,1-2.38,2c-1.72,0-2.72-1.24-2.72-3.33v-.11c0-2.08,1.07-3.35,2.7-3.35a2,2,0,0,1,2.23,1.87h1.75c-.21-2.18-1.86-3.25-4-3.25a4.47,4.47,0,0,0-4.51,4.75v.1c0,2.86,1.63,4.72,4.54,4.72Zm7.3,0a2.37,2.37,0,0,0,2.08-1v.83h1.55V344c0-1.86-1.2-2.48-2.72-2.48s-2.78.66-2.91,2.25h1.52a1.13,1.13,0,0,1,1.3-1.07c.93,0,1.24.46,1.24,1.37v.35h-.85c-1.95,0-3.48.57-3.48,2.16,0,1.41,1,2,2.27,2Zm.38-1.13c-.78,0-1.09-.38-1.09-.95,0-.83.77-1.1,2-1.1h.81v.67C198.17,347,197.45,347.5,196.49,347.5Zm5,1h1.58v-4.07a1.45,1.45,0,0,1,1.49-1.56c.77,0,1.21.43,1.21,1.43v4.2h1.57v-4.07a1.45,1.45,0,0,1,1.5-1.56c.78,0,1.21.43,1.21,1.43v4.2h1.57v-4.3c0-1.87-1-2.64-2.26-2.64a2.69,2.69,0,0,0-2.3,1.22,1.92,1.92,0,0,0-1.93-1.22,2.26,2.26,0,0,0-2.06,1.18v-1h-1.58v6.8Zm11.94,2.33h1.57v-3.4a2.44,2.44,0,0,0,2.22,1.2c1.76,0,3-1.33,3-3.51V345c0-2.2-1.31-3.46-3-3.46a2.62,2.62,0,0,0-2.22,1.23V341.7h-1.57v9.13Zm3.4-3.45c-1.14,0-1.88-.71-1.88-2.23V345c0-1.51.78-2.25,1.87-2.25s1.81.74,1.81,2.25v.11C218.68,346.6,218,347.38,216.88,347.38Zm6.61,1.25a2.39,2.39,0,0,0,2.08-1v.83h1.54V344c0-1.86-1.19-2.48-2.71-2.48s-2.79.66-2.92,2.25H223a1.14,1.14,0,0,1,1.3-1.07c.93,0,1.24.46,1.24,1.37v.35h-.85c-1.95,0-3.48.57-3.48,2.16,0,1.41,1,2,2.28,2Zm.37-1.13c-.78,0-1.09-.38-1.09-.95,0-.83.77-1.1,2-1.1h.81v.67C225.54,347,224.82,347.5,223.86,347.5Zm5.86-6.92a.9.9,0,1,0-.93-.89A.91.91,0,0,0,229.72,340.58ZM229,348.5h1.58v-6.8H229v6.8Zm6.39,2.5c2.11,0,3.45-1,3.46-3V341.7h-1.57v1a2.36,2.36,0,0,0-2.19-1.18,3.12,3.12,0,0,0-3,3.34V345a3,3,0,0,0,3,3.24,2.66,2.66,0,0,0,2.22-1.26v1a1.67,1.67,0,0,1-1.9,1.83c-1,0-1.55-.39-1.68-1.07h-1.58c.18,1.3,1.14,2.27,3.27,2.27Zm.06-4a1.84,1.84,0,0,1-1.8-2v-.11a1.84,1.84,0,0,1,1.85-2.08c1.13,0,1.83.77,1.83,2.06v.09A1.87,1.87,0,0,1,235.4,347Zm5.27,1.48h1.57v-4a1.51,1.51,0,0,1,1.6-1.63c.94,0,1.35.47,1.35,1.5v4.13h1.58v-4.28c0-1.87-1-2.66-2.33-2.66a2.35,2.35,0,0,0-2.2,1.22V341.7h-1.57v6.8Z" transform="translate(-19.67 -25)"/><path class="cls-7" d="M53.67,338.5h36v36h-36Z" transform="translate(-19.67 -25)"/><g class="cls-16"><path class="cls-9" d="M83.67,344.5h-24v24h24Z" transform="translate(-19.67 -25)"/></g><rect class="cls-7" x="237" y="342.5" width="21" height="7" rx="3"/><path class="cls-12" d="M265.67,371a1.5,1.5,0,0,0,3,0h0a1.5,1.5,0,0,0-3,0Zm-5,0a1.5,1.5,0,1,0,1.5-1.5A1.5,1.5,0,0,0,260.67,371Zm11.5,1.5a1.5,1.5,0,0,1,0-3h0a1.5,1.5,0,1,1,0,3Z" transform="translate(-19.67 -25)"/></g><path class="cls-1" d="M309.67,308.5a12,12,0,1,1-12-12A12,12,0,0,1,309.67,308.5Z" transform="translate(-19.67 -25)"/><path class="cls-13" d="M308.67,308.5a11,11,0,1,1-11-11A11,11,0,0,1,308.67,308.5Zm-6,.23a.47.47,0,0,1-.47.47h-3.83V313a.47.47,0,0,1-.47.47h-.47A.47.47,0,0,1,297,313V309.2h-3.82a.47.47,0,0,1-.47-.47v-.46a.47.47,0,0,1,.47-.47H297V304a.47.47,0,0,1,.47-.47h.47a.47.47,0,0,1,.47.47v3.83h3.83a.47.47,0,0,1,.47.47v.47Zm-5-9.23a9,9,0,1,1-9,9A9,9,0,0,1,297.67,299.5Z" transform="translate(-19.67 -25)"/><path class="cls-1" d="M43.67,308.5a12,12,0,1,1-12-12A12,12,0,0,1,43.67,308.5Z" transform="translate(-19.67 -25)"/><path class="cls-13" d="M42.67,308.5a11,11,0,1,1-11-11A11,11,0,0,1,42.67,308.5Zm-6.47.7H27.14a.47.47,0,0,1-.47-.47v-.46a.47.47,0,0,1,.47-.47H36.2C36.46,307.8,36.46,309.2,36.2,309.2Zm-4.53-9.7a9,9,0,1,1-9,9A9,9,0,0,1,31.67,299.5Z" transform="translate(-19.67 -25)"/><g class="cls-17"><rect class="cls-4" x="20" y="426" width="250" height="132" rx="4"/><path class="cls-1" d="M44.67,443h240V591h-240Z" transform="translate(-19.67 -25)"/><path class="cls-5" d="M284.17,538.5h-239" transform="translate(-19.67 -25)"/><path class="cls-6" d="M285.67,442h-242V592h242Zm-1,1h-240V591h240Z" transform="translate(-19.67 -25)"/><path class="cls-7" d="M44.67,443h240v96h-240Z" transform="translate(-19.67 -25)"/><g class="cls-18"><path class="cls-9" d="M180.67,475h-32v32h32Z" transform="translate(-19.67 -25)"/></g><path class="cls-7" d="M103.67,565h108v18h-108Z" transform="translate(-19.67 -25)"/><path class="cls-10" d="M109.29,577.1a2.23,2.23,0,0,0,2.44-2.49v-5.47h-1.48v5.44c0,1-.46,1.34-1.18,1.34a2.47,2.47,0,0,1-1-.2v1.15a2.57,2.57,0,0,0,1.23.23Zm6.88,0a2.83,2.83,0,0,0,3-3v-.09a3,3,0,0,0-5.91,0v.08A2.82,2.82,0,0,0,116.17,577.11Zm0-1c-1,0-1.6-.74-1.6-1.92v-.09c0-1.18.61-1.9,1.6-1.9s1.58.73,1.58,1.92v.07C117.76,575.34,117.17,576.08,116.18,576.08Zm6.37,1a1.94,1.94,0,0,0,1.83-1v.9h1.33v-5.75h-1.33v3.42A1.28,1.28,0,0,1,123,576c-.77,0-1.14-.39-1.14-1.26v-3.53h-1.33v3.68c0,1.53.85,2.18,2,2.18Zm5-.11h1.33v-3c0-1.22.7-1.6,1.87-1.61v-1.24a1.92,1.92,0,0,0-1.87,1.16v-1.07h-1.33Zm4.67,0h1.33v-3.39a1.27,1.27,0,0,1,1.35-1.37c.8,0,1.15.39,1.15,1.26V577h1.33v-3.62c0-1.58-.81-2.25-2-2.25a2,2,0,0,0-1.86,1v-.91h-1.33Zm9.52.11c1.48,0,2.46-.66,2.64-1.87h-1.28c-.1.56-.52.88-1.32.88-1,0-1.54-.62-1.59-1.7h4.21V574a2.59,2.59,0,0,0-2.71-2.9,2.79,2.79,0,0,0-2.86,3v.08a2.76,2.76,0,0,0,2.91,2.93Zm-1.53-3.59a1.48,1.48,0,0,1,1.48-1.43c.82,0,1.33.44,1.39,1.43Zm6.18,5.45h1.31l3.14-7.72h-1.3l-1.41,3.7-1.53-3.7H145.2l2.28,5.17Zm10.35-2h1.47v-6.71h2.19v-1.16h-5.85v1.16h2.19Zm5.82.11a2,2,0,0,0,1.76-.81v.7h1.3v-3.77c0-1.58-1-2.1-2.29-2.1s-2.36.56-2.47,1.9h1.29a1,1,0,0,1,1.1-.9c.78,0,1,.38,1,1.15v.3h-.71c-1.65,0-3,.48-3,1.83,0,1.19.87,1.7,1.93,1.7Zm.31-1c-.66,0-.92-.32-.92-.8,0-.7.65-.93,1.66-.93h.68V575c0,.73-.6,1.16-1.42,1.16Zm4.58.85h1.33v-3c0-1.22.7-1.6,1.87-1.61v-1.24a1.92,1.92,0,0,0-1.87,1.16v-1.07h-1.33Zm7,2.11c1.78,0,2.91-.85,2.92-2.54v-5.32h-1.33v.88a2,2,0,0,0-1.85-1,2.64,2.64,0,0,0-2.58,2.82V574a2.54,2.54,0,0,0,2.55,2.74,2.23,2.23,0,0,0,1.88-1.07v.85a1.41,1.41,0,0,1-1.6,1.55c-.87,0-1.31-.33-1.42-.9h-1.35c.16,1.1,1,1.91,2.78,1.91Zm0-3.36A1.56,1.56,0,0,1,173,574v-.09a1.56,1.56,0,0,1,1.56-1.76,1.53,1.53,0,0,1,1.56,1.74V574A1.59,1.59,0,0,1,174.54,575.75Zm7.29,1.36c1.48,0,2.46-.66,2.64-1.87h-1.28c-.1.56-.52.88-1.32.88-1,0-1.54-.62-1.59-1.7h4.22V574a2.6,2.6,0,0,0-2.72-2.9,2.79,2.79,0,0,0-2.86,3v.08a2.76,2.76,0,0,0,2.91,2.93Zm-1.52-3.59a1.47,1.47,0,0,1,1.47-1.43c.82,0,1.33.44,1.4,1.43Zm7.63,3.58a2.79,2.79,0,0,0,.91-.14V575.9a1.61,1.61,0,0,1-.65.11c-.42,0-.66-.23-.66-.74v-3h1.26v-1h-1.26V570h-1.33v1.27h-.77v1h.77v3.14a1.55,1.55,0,0,0,1.73,1.71Zm3.09-6.8a.77.77,0,1,0-.79-.76A.77.77,0,0,0,191,570.3Zm-.65,6.7h1.33v-5.75h-1.33Zm3.25,0H195v-3.39a1.28,1.28,0,0,1,1.36-1.37c.79,0,1.14.39,1.14,1.26V577h1.33v-3.62c0-1.58-.81-2.25-2-2.25a2,2,0,0,0-1.86,1v-.91h-1.33Zm9.45,2.11c1.78,0,2.91-.85,2.92-2.54v-5.32h-1.33v.88a2,2,0,0,0-1.85-1,2.64,2.64,0,0,0-2.58,2.82V574a2.54,2.54,0,0,0,2.55,2.74,2.23,2.23,0,0,0,1.88-1.07v.85a1.41,1.41,0,0,1-1.6,1.55c-.87,0-1.31-.33-1.42-.9h-1.34c.15,1.1,1,1.91,2.77,1.91Zm0-3.36A1.56,1.56,0,0,1,201.6,574v-.09a1.56,1.56,0,0,1,1.57-1.76,1.53,1.53,0,0,1,1.55,1.74V574A1.59,1.59,0,0,1,203.12,575.75ZM104.73,557h1.73v-4h4.17v4h1.75v-9.29h-1.75v3.95h-4.17v-4h-1.73Zm12.59.13c1.74,0,2.9-.78,3.12-2.21h-1.52c-.12.66-.61,1-1.56,1-1.17,0-1.82-.73-1.88-2h5v-.45a3.07,3.07,0,0,0-3.21-3.43,3.31,3.31,0,0,0-3.38,3.51v.1a3.26,3.26,0,0,0,3.45,3.46Zm-1.81-4.24a1.75,1.75,0,0,1,1.74-1.69c1,0,1.58.52,1.65,1.69Zm8.2,4.24a2.37,2.37,0,0,0,2.08-1V557h1.55v-4.46c0-1.86-1.2-2.48-2.72-2.48s-2.78.66-2.91,2.25h1.52a1.13,1.13,0,0,1,1.3-1.07c.92,0,1.24.46,1.24,1.37V553h-.85c-2,0-3.48.57-3.48,2.16,0,1.41,1,2,2.27,2Zm.38-1.13c-.78,0-1.09-.38-1.09-1,0-.83.76-1.1,2-1.1h.81v.67C125.77,555.49,125.05,556,124.09,556Zm5.09,1h1.57v-9.94h-1.57V557Zm5.81.12a3,3,0,0,0,1.06-.17V555.7a1.94,1.94,0,0,1-.77.13c-.49,0-.78-.27-.78-.87v-3.58H136V550.2h-1.5v-1.49h-1.57v1.49H132v1.18h.91v3.72a1.83,1.83,0,0,0,2.06,2Zm2.48-.12H139v-4a1.51,1.51,0,0,1,1.6-1.63c.94,0,1.35.47,1.35,1.5V557h1.58v-4.28c0-1.87-1-2.66-2.33-2.66a2.35,2.35,0,0,0-2.2,1.22v-4.22h-1.57V557Zm8.46,2.33h1.55l3.7-9.13h-1.53L148,554.58l-1.8-4.38h-1.71l2.7,6.11Zm9.66-2.33h6v-1.36h-4.3v-2.72h3.27v-1.3h-3.27v-2.55h4.08v-1.36h-5.81V557Zm9.24.13a2.37,2.37,0,0,0,2.08-1V557h1.55v-4.46c0-1.86-1.2-2.48-2.72-2.48s-2.78.66-2.91,2.25h1.52a1.13,1.13,0,0,1,1.3-1.07c.92,0,1.24.46,1.24,1.37V553H166c-1.95,0-3.48.57-3.48,2.16,0,1.41,1,2,2.27,2Zm.38-1.13c-.78,0-1.09-.38-1.09-1,0-.83.76-1.1,2-1.1h.81v.67C166.89,555.49,166.17,556,165.21,556Zm7.35,1.12a3.09,3.09,0,0,0,1.07-.17V555.7a2,2,0,0,1-.77.13c-.49,0-.78-.27-.78-.87v-3.58h1.5V550.2h-1.5v-1.49h-1.57v1.49h-.91v1.18h.91v3.72a1.83,1.83,0,0,0,2.05,2Zm4.85,0c1.75,0,2.72-.79,2.72-2.17s-.95-1.83-2.55-2.08c-1.08-.18-1.4-.38-1.4-.87s.4-.81,1.08-.81a1.05,1.05,0,0,1,1.21.91h1.45c-.17-1.53-1.27-2.05-2.66-2.05s-2.55.67-2.55,2,.66,1.78,2.46,2.07c1,.17,1.45.37,1.45.93s-.37.87-1.22.87-1.27-.4-1.35-1.09h-1.48c.06,1.44,1.09,2.25,2.84,2.25Zm11.4,0c2.21,0,3.79-1.13,4.07-3.37h-1.69a2.18,2.18,0,0,1-2.38,2c-1.72,0-2.72-1.24-2.72-3.33v-.11c0-2.08,1.07-3.35,2.7-3.35a2,2,0,0,1,2.23,1.87h1.75c-.21-2.18-1.86-3.25-4-3.25a4.47,4.47,0,0,0-4.51,4.75v.1c0,2.86,1.63,4.72,4.54,4.72Zm7.3,0a2.37,2.37,0,0,0,2.08-1V557h1.55v-4.46c0-1.86-1.2-2.48-2.72-2.48s-2.78.66-2.91,2.25h1.52a1.13,1.13,0,0,1,1.3-1.07c.93,0,1.24.46,1.24,1.37V553h-.85c-1.95,0-3.48.57-3.48,2.16,0,1.41,1,2,2.27,2Zm.38-1.13c-.78,0-1.09-.38-1.09-1,0-.83.77-1.1,2-1.1h.81v.67C198.17,555.49,197.45,556,196.49,556Zm5,1h1.58v-4.07a1.45,1.45,0,0,1,1.49-1.56c.77,0,1.21.43,1.21,1.43V557h1.57v-4.07a1.45,1.45,0,0,1,1.5-1.56c.78,0,1.21.43,1.21,1.43V557h1.57v-4.3c0-1.87-1-2.64-2.26-2.64a2.69,2.69,0,0,0-2.3,1.22,1.92,1.92,0,0,0-1.93-1.22,2.26,2.26,0,0,0-2.06,1.18v-1h-1.58V557Zm11.94,2.33h1.57v-3.4a2.44,2.44,0,0,0,2.22,1.2c1.76,0,3-1.33,3-3.51v-.1c0-2.2-1.31-3.46-3-3.46a2.62,2.62,0,0,0-2.22,1.23V550.2h-1.57v9.13Zm3.4-3.45c-1.14,0-1.88-.71-1.88-2.23v-.11c0-1.51.78-2.25,1.87-2.25s1.81.74,1.81,2.25v.11C218.68,555.1,218,555.88,216.88,555.88Zm6.61,1.25a2.39,2.39,0,0,0,2.08-1V557h1.54v-4.46c0-1.86-1.19-2.48-2.71-2.48s-2.79.66-2.92,2.25H223a1.14,1.14,0,0,1,1.3-1.07c.93,0,1.24.46,1.24,1.37V553h-.85c-1.95,0-3.48.57-3.48,2.16,0,1.41,1,2,2.28,2Zm.37-1.13c-.78,0-1.09-.38-1.09-1,0-.83.77-1.1,2-1.1h.81v.67C225.54,555.49,224.82,556,223.86,556Zm5.86-6.92a.9.9,0,1,0-.93-.89A.91.91,0,0,0,229.72,549.08ZM229,557h1.58v-6.8H229V557Zm6.39,2.5c2.11,0,3.45-1,3.46-3V550.2h-1.57v1a2.36,2.36,0,0,0-2.19-1.18,3.12,3.12,0,0,0-3,3.34v.09a3,3,0,0,0,3,3.24,2.66,2.66,0,0,0,2.22-1.26v1a1.67,1.67,0,0,1-1.9,1.83c-1,0-1.55-.39-1.68-1.07h-1.58c.18,1.3,1.14,2.27,3.27,2.27Zm.06-4a1.84,1.84,0,0,1-1.8-2v-.11a1.84,1.84,0,0,1,1.85-2.08c1.13,0,1.83.77,1.83,2.06v.09A1.87,1.87,0,0,1,235.4,555.52Zm5.27,1.48h1.57v-4a1.51,1.51,0,0,1,1.6-1.63c.94,0,1.35.47,1.35,1.5V557h1.58v-4.28c0-1.87-1-2.66-2.33-2.66a2.35,2.35,0,0,0-2.2,1.22V550.2h-1.57V557Z" transform="translate(-19.67 -25)"/><path class="cls-7" d="M53.67,547h36v36h-36Z" transform="translate(-19.67 -25)"/><g class="cls-19"><path class="cls-9" d="M83.67,553h-24v24h24Z" transform="translate(-19.67 -25)"/></g><rect class="cls-7" x="237" y="551" width="21" height="7" rx="3"/><path class="cls-12" d="M265.67,579.5a1.5,1.5,0,0,0,3,0h0a1.5,1.5,0,0,0-3,0Zm-5,0a1.5,1.5,0,1,0,1.5-1.5A1.5,1.5,0,0,0,260.67,579.5Zm11.5,1.5a1.5,1.5,0,0,1,0-3h0a1.5,1.5,0,1,1,0,3Z" transform="translate(-19.67 -25)"/></g><path class="cls-1" d="M309.67,517a12,12,0,1,1-12-12A12,12,0,0,1,309.67,517Z" transform="translate(-19.67 -25)"/><path class="cls-13" d="M308.67,517a11,11,0,1,1-11-11A11,11,0,0,1,308.67,517Zm-6,.23a.47.47,0,0,1-.47.47h-3.83v3.83a.47.47,0,0,1-.47.47h-.47a.47.47,0,0,1-.47-.47V517.7h-3.82a.47.47,0,0,1-.47-.47v-.46a.47.47,0,0,1,.47-.47H297v-3.83a.47.47,0,0,1,.47-.47h.47a.47.47,0,0,1,.47.47v3.83h3.83a.47.47,0,0,1,.47.47v.47Zm-5-9.23a9,9,0,1,1-9,9A9,9,0,0,1,297.67,508Z" transform="translate(-19.67 -25)"/><path class="cls-1" d="M43.67,517a12,12,0,1,1-12-12A12,12,0,0,1,43.67,517Z" transform="translate(-19.67 -25)"/><path class="cls-13" d="M42.67,517a11,11,0,1,1-11-11A11,11,0,0,1,42.67,517Zm-6.47.7H27.14a.47.47,0,0,1-.47-.47v-.46a.47.47,0,0,1,.47-.47H36.2C36.46,516.3,36.46,517.7,36.2,517.7ZM31.67,508a9,9,0,1,1-9,9A9,9,0,0,1,31.67,508Z" transform="translate(-19.67 -25)"/></svg>