<svg xmlns="http://www.w3.org/2000/svg" fill="none" viewBox="0 0 822 513">
  <path fill="#00B760" d="M137.131 199.99a4.41 4.41 0 0 0-6.235-.215 4.41 4.41 0 0 0-.215 6.235l6.45-6.02Zm-10.24 104.879a4.413 4.413 0 0 0 6.217 6.262l-6.217-6.262ZM31.319 206.01a4.411 4.411 0 1 0-6.45-6.02l6.45 6.02Zm-2.428 105.121a4.412 4.412 0 0 0 6.217-6.262l-6.217 6.262Zm101.79-105.121c6.017 6.447 10.683 12.736 13.881 20.23 3.193 7.481 5.029 16.416 5.026 28.261l8.824.002c.003-12.796-1.988-22.949-5.734-31.727-3.741-8.765-9.126-15.907-15.547-22.786l-6.45 6.02Zm18.907 48.491c-.006 23.064-9.619 37.383-22.697 50.368l6.217 6.262c14.073-13.974 25.296-30.41 25.304-56.628l-8.824-.002ZM24.868 199.99c-6.42 6.879-11.805 14.021-15.546 22.786-3.746 8.778-5.737 18.931-5.734 31.727l8.824-.002c-.004-11.845 1.833-20.78 5.025-28.261 3.198-7.494 7.864-13.783 13.882-20.23l-6.45-6.02Zm-21.28 54.513c.007 26.218 11.23 42.654 25.303 56.628l6.217-6.262c-13.078-12.985-22.69-27.304-22.696-50.368l-8.824.002Z"/>
  <g filter="url(#a)">
    <rect width="146" height="146" x="8" y="180" fill="#fff" rx="72.549"/>
  </g>
  <mask id="b" width="146" height="146" x="8" y="180" maskUnits="userSpaceOnUse" style="mask-type:alpha">
    <rect width="146" height="146" x="8" y="180" fill="#fff" rx="72.549"/>
  </mask>
  <g mask="url(#b)">
    <path fill="#fff" d="M7 267h148v68H7z"/>
  </g>
  <path fill="#00B760" fill-rule="evenodd" d="M81 327c40.869 0 74-33.131 74-74s-33.131-74-74-74c-40.87 0-74 33.131-74 74s33.13 74 74 74Zm0-1.007c40.313 0 72.993-32.68 72.993-72.993 0-40.313-32.68-72.993-72.993-72.993-40.313 0-72.993 32.68-72.993 72.993 0 40.313 32.68 72.993 72.993 72.993Z" clip-rule="evenodd"/>
  <path fill="#000" d="M59.984 284h5.568v-1.26H61.58v-2.508h3.024v-1.2H61.58v-2.352h3.768v-1.26h-5.364V284Zm6.888 0h1.452v-3.696c0-.996.66-1.5 1.476-1.5.864 0 1.248.432 1.248 1.38V284H72.5v-3.948c0-1.728-.888-2.46-2.148-2.46-1.032 0-1.728.516-2.028 1.128v-.996h-1.452V284Zm9.977 2.304c1.944 0 3.18-.924 3.192-2.772v-5.808h-1.452v.96c-.36-.624-.984-1.092-2.016-1.092-1.62 0-2.82 1.32-2.82 3.084v.084c0 1.812 1.212 2.988 2.784 2.988.924 0 1.704-.564 2.052-1.164v.924c0 1.128-.624 1.692-1.752 1.692-.948 0-1.428-.36-1.548-.984h-1.464c.168 1.2 1.056 2.088 3.024 2.088Zm.048-3.672c-.936 0-1.656-.72-1.656-1.884v-.096c0-1.14.624-1.92 1.704-1.92 1.044 0 1.692.708 1.692 1.896v.084c0 1.2-.732 1.92-1.74 1.92Zm6.513 1.488c.96 0 1.512-.348 1.92-.888V284h1.428v-4.116c0-1.716-1.104-2.292-2.508-2.292s-2.568.612-2.688 2.076h1.404c.072-.624.444-.984 1.2-.984.852 0 1.14.42 1.14 1.26v.324h-.78c-1.8 0-3.216.528-3.216 1.992 0 1.308.948 1.86 2.1 1.86Zm.348-1.044c-.72 0-1.008-.348-1.008-.876 0-.768.708-1.02 1.812-1.02h.744v.624c0 .804-.66 1.272-1.548 1.272Zm7.34 3.228c1.945 0 3.18-.924 3.193-2.772v-5.808h-1.452v.96c-.36-.624-.984-1.092-2.016-1.092-1.62 0-2.82 1.32-2.82 3.084v.084c0 1.812 1.212 2.988 2.784 2.988.924 0 1.704-.564 2.052-1.164v.924c0 1.128-.624 1.692-1.752 1.692-.948 0-1.428-.36-1.548-.984h-1.464c.168 1.2 1.056 2.088 3.024 2.088Zm.049-3.672c-.936 0-1.656-.72-1.656-1.884v-.096c0-1.14.624-1.92 1.704-1.92 1.044 0 1.692.708 1.692 1.896v.084c0 1.2-.732 1.92-1.74 1.92Zm7.63 1.488c1.607 0 2.675-.72 2.879-2.04h-1.404c-.108.612-.564.96-1.44.96-1.08 0-1.68-.672-1.728-1.86h4.596v-.42c0-2.244-1.404-3.168-2.964-3.168-1.788 0-3.12 1.296-3.12 3.24v.096c0 1.98 1.332 3.192 3.18 3.192Zm-1.669-3.912c.144-.972.732-1.56 1.608-1.56.9 0 1.452.48 1.524 1.56h-3.132Zm8.221 3.912c.924 0 1.728-.552 2.064-1.176V284h1.452v-9.18h-1.452v3.864c-.348-.624-.984-1.092-2.004-1.092-1.632 0-2.82 1.272-2.82 3.276v.096c0 2.04 1.188 3.156 2.76 3.156Zm.36-1.152c-.936 0-1.632-.66-1.632-2.04v-.096c0-1.356.624-2.1 1.692-2.1 1.056 0 1.692.684 1.692 2.064v.096c0 1.404-.744 2.076-1.752 2.076ZM59.585 297.867h5.668v-.91h-5.668v.91Z"/>
  <rect width="28" height="28" x="27" y="272" fill="#CCF0DF" rx="14"/>
  <path fill="#006B38" d="M36.744 289.117c2.392 0 3.744-1.703 3.744-4.758v-.481c0-2.678-1.196-4.316-3.627-4.316-2.12 0-3.445 1.287-3.445 3.185 0 1.833 1.287 3.016 3.08 3.016 1.106 0 1.86-.468 2.289-1.17-.026 2.119-.741 3.185-2.067 3.185-1.001 0-1.43-.468-1.6-1.196h-1.624c.22 1.599 1.352 2.535 3.25 2.535Zm.117-4.563c-1.066 0-1.742-.741-1.742-1.859 0-1.105.689-1.846 1.729-1.846 1.066 0 1.807.728 1.807 1.976 0 1.027-.741 1.729-1.794 1.729Zm8.253 4.576c1.872 0 3.458-.975 3.458-2.808 0-1.131-.637-1.937-1.73-2.327.833-.364 1.379-1.001 1.379-1.95 0-1.534-1.443-2.47-3.107-2.47-1.612 0-3.12.923-3.12 2.496 0 .923.52 1.599 1.378 1.937-1.04.364-1.742 1.183-1.742 2.366 0 1.82 1.638 2.756 3.484 2.756Zm.026-5.629c-.806 0-1.495-.494-1.495-1.339 0-.832.65-1.339 1.469-1.339.832 0 1.469.533 1.469 1.326 0 .845-.598 1.352-1.443 1.352Zm-.026 4.329c-.936 0-1.742-.559-1.742-1.599s.806-1.599 1.755-1.599c.962 0 1.716.559 1.716 1.586 0 1.04-.741 1.612-1.73 1.612Z"/>
  <path fill="#fff" d="M49 291a6 6 0 1 0 .001 12.001A6 6 0 0 0 49 291Z"/>
  <path fill="#00B760" fill-rule="evenodd" d="M43 297a6 6 0 1 1 12.001.001A6 6 0 0 1 43 297Zm5.771 1.951 2.82-3.91c.051-.071 0-.17-.087-.17h-.628a.428.428 0 0 0-.346.178l-2.106 2.919-.953-1.323a.428.428 0 0 0-.347-.178h-.629c-.087 0-.137.099-.087.17l1.67 2.314c.17.237.523.237.693 0Z" clip-rule="evenodd"/>
  <rect width="21" height="7" x="71" y="311" fill="#CCF0DF" rx="3.5"/>
  <path fill="#006B38" fill-rule="evenodd" d="M80 314.5a1.5 1.5 0 1 0 3 0 1.5 1.5 0 0 0-3 0Zm-5 0a1.5 1.5 0 1 0 3 0 1.5 1.5 0 0 0-3 0Zm11.5 1.5a1.5 1.5 0 1 1 0-3 1.5 1.5 0 0 1 0 3Z" clip-rule="evenodd"/>
  <path fill="#fff" d="M179 253c0 6.629-5.371 12-12 12s-12-5.371-12-12 5.371-12 12-12 12 5.371 12 12Z"/>
  <path fill="#000" fill-rule="evenodd" d="M178 253c0 6.077-4.923 11-11 11s-11-4.923-11-11 4.923-11 11-11 11 4.923 11 11Zm-6 .234a.47.47 0 0 1-.469.469h-3.828v3.828a.47.47 0 0 1-.469.469h-.468a.47.47 0 0 1-.469-.469v-3.828h-3.828a.47.47 0 0 1-.469-.469v-.468a.47.47 0 0 1 .469-.469h3.828v-3.828a.47.47 0 0 1 .469-.469h.468a.47.47 0 0 1 .469.469v3.828h3.828a.47.47 0 0 1 .469.469v.468ZM167 244c4.946 0 9 4.004 9 9 0 4.946-4.004 9-9 9-4.946 0-9-4.004-9-9 0-4.946 4.004-9 9-9Z" clip-rule="evenodd"/>
  <path stroke="#060606" stroke-width="2" d="M217 95h-18.393a4 4 0 0 0-4 4v151a4 4 0 0 1-4 4H184M218 416h-20.429a4 4 0 0 1-4-4V258a4 4 0 0 0-4-4H178M667 95h18.393a4 4 0 0 1 4 4v151a4 4 0 0 0 4 4H700M666 416h20.429a4 4 0 0 0 4-4V258a4 4 0 0 1 4-4H706M193 254.5h40"/>
  <g clip-path="url(#c)">
    <rect width="250" height="132" x="239" y="190" fill="#769BD6" rx="4"/>
    <g filter="url(#d)">
      <path fill="#fff" d="M244 182h240v148H244z"/>
    </g>
    <path stroke="#DADADA" stroke-linecap="square" d="M483.5 277.5h-239"/>
    <path fill="#769BD6" fill-rule="evenodd" d="M485 181H243v150h242V181Zm-1 1H244v148h240V182Z" clip-rule="evenodd"/>
    <path fill="#E3EDFC" d="M244 182h240v96H244z"/>
    <mask id="e" width="28" height="28" x="350" y="216" maskUnits="userSpaceOnUse" style="mask-type:alpha">
      <path fill="#fff" d="M376 216a2 2 0 0 1 2 2v24a2 2 0 0 1-2 2h-24a2 2 0 0 1-2-2v-24a2 2 0 0 1 2-2h24Zm0 22h-24v4h24v-4Zm0-20h-24v18.924l5.731-6.164a1 1 0 0 1 1.414-.052l.026.025 3.267 3.267 5.296-6.918a1 1 0 0 1 1.612.033l6.654 9.463V218Zm-17.562 15-2.813 3h5.625l-2.812-3Zm10.062-3.438L363.625 236h9.75l-4.875-6.438ZM358 222a2 2 0 1 1 .001 3.999A2 2 0 0 1 358 222Z"/>
    </mask>
    <g mask="url(#e)">
      <path fill="#003285" d="M380 214h-32v32h32v-32Z"/>
    </g>
    <path fill="#E3EDFC" d="M303 304h108v18H303z"/>
    <path fill="#060606" d="M308.628 316.099c1.452 0 2.431-.781 2.431-2.486v-5.478h-1.474v5.445c0 .968-.462 1.342-1.177 1.342-.462 0-.737-.088-1.012-.198v1.144c.253.132.583.231 1.232.231Zm6.872.011c1.694 0 2.959-1.166 2.959-2.959v-.088c0-1.76-1.265-2.937-2.948-2.937-1.694 0-2.959 1.188-2.959 2.97v.088c0 1.749 1.254 2.926 2.948 2.926Zm.011-1.034c-1.012 0-1.595-.737-1.595-1.914v-.088c0-1.188.605-1.903 1.595-1.903s1.584.726 1.584 1.914v.077c0 1.177-.594 1.914-1.584 1.914Zm6.375 1.034c.935 0 1.54-.451 1.826-1.012V316h1.331v-5.753h-1.331v3.421c0 .913-.627 1.375-1.342 1.375-.77 0-1.133-.396-1.133-1.265v-3.531h-1.331v3.685c0 1.529.847 2.178 1.98 2.178Zm5.035-.11h1.331v-2.992c0-1.221.704-1.595 1.87-1.606v-1.243c-.968.011-1.507.44-1.87 1.166v-1.078h-1.331V316Zm4.673 0h1.331v-3.388c0-.913.605-1.375 1.353-1.375.792 0 1.144.396 1.144 1.265V316h1.331v-3.619c0-1.584-.814-2.255-1.969-2.255-.946 0-1.584.473-1.859 1.034v-.913h-1.331V316Zm9.522.11c1.474 0 2.453-.66 2.64-1.87h-1.287c-.099.561-.517.88-1.32.88-.99 0-1.54-.616-1.584-1.705h4.213v-.385c0-2.057-1.287-2.904-2.717-2.904-1.639 0-2.86 1.188-2.86 2.97v.088c0 1.815 1.221 2.926 2.915 2.926Zm-1.529-3.586c.132-.891.671-1.43 1.474-1.43.825 0 1.331.44 1.397 1.43h-2.871Zm6.178 5.445h1.309l3.135-7.722h-1.298l-1.408 3.707-1.529-3.707h-1.441l2.277 5.17-1.045 2.552ZM356.111 316h1.474v-6.71h2.189v-1.155h-5.852v1.155h2.189V316Zm5.818.11c.88 0 1.386-.319 1.76-.814V316h1.309v-3.773c0-1.573-1.012-2.101-2.299-2.101s-2.354.561-2.464 1.903h1.287c.066-.572.407-.902 1.1-.902.781 0 1.045.385 1.045 1.155v.297h-.715c-1.65 0-2.948.484-2.948 1.826 0 1.199.869 1.705 1.925 1.705Zm.319-.957c-.66 0-.924-.319-.924-.803 0-.704.649-.935 1.661-.935h.682v.572c0 .737-.605 1.166-1.419 1.166Zm4.575.847h1.331v-2.992c0-1.221.704-1.595 1.87-1.606v-1.243c-.968.011-1.507.44-1.87 1.166v-1.078h-1.331V316Zm7.007 2.112c1.782 0 2.915-.847 2.926-2.541v-5.324h-1.331v.88c-.33-.572-.902-1.001-1.848-1.001-1.485 0-2.585 1.21-2.585 2.827v.077c0 1.661 1.111 2.739 2.552 2.739a2.24 2.24 0 0 0 1.881-1.067v.847c0 1.034-.572 1.551-1.606 1.551-.869 0-1.309-.33-1.419-.902h-1.342c.154 1.1.968 1.914 2.772 1.914Zm.044-3.366c-.858 0-1.518-.66-1.518-1.727v-.088c0-1.045.572-1.76 1.562-1.76.957 0 1.551.649 1.551 1.738v.077c0 1.1-.671 1.76-1.595 1.76Zm7.294 1.364c1.474 0 2.453-.66 2.64-1.87h-1.287c-.099.561-.517.88-1.32.88-.99 0-1.54-.616-1.584-1.705h4.213v-.385c0-2.057-1.287-2.904-2.717-2.904-1.639 0-2.86 1.188-2.86 2.97v.088c0 1.815 1.221 2.926 2.915 2.926Zm-1.529-3.586c.132-.891.671-1.43 1.474-1.43.825 0 1.331.44 1.397 1.43h-2.871Zm7.638 3.575c.407 0 .693-.066.902-.143V314.9c-.187.077-.385.11-.649.11-.418 0-.66-.231-.66-.737v-3.025h1.265v-1.001h-1.265v-1.265h-1.331v1.265h-.77v1.001h.77v3.146c0 1.089.594 1.705 1.738 1.705Zm3.084-6.798c.44 0 .792-.33.792-.759 0-.44-.352-.77-.792-.77-.44 0-.792.33-.792.77 0 .429.352.759.792.759Zm-.649 6.699h1.331v-5.753h-1.331V316Zm3.254 0h1.331v-3.388c0-.913.605-1.375 1.353-1.375.792 0 1.144.396 1.144 1.265V316h1.331v-3.619c0-1.584-.814-2.255-1.969-2.255-.946 0-1.584.473-1.859 1.034v-.913h-1.331V316Zm9.445 2.112c1.782 0 2.915-.847 2.926-2.541v-5.324h-1.331v.88c-.33-.572-.902-1.001-1.848-1.001-1.485 0-2.585 1.21-2.585 2.827v.077c0 1.661 1.111 2.739 2.552 2.739a2.24 2.24 0 0 0 1.881-1.067v.847c0 1.034-.572 1.551-1.606 1.551-.869 0-1.309-.33-1.419-.902h-1.342c.154 1.1.968 1.914 2.772 1.914Zm.044-3.366c-.858 0-1.518-.66-1.518-1.727v-.088c0-1.045.572-1.76 1.562-1.76.957 0 1.551.649 1.551 1.738v.077c0 1.1-.671 1.76-1.595 1.76ZM307.225 297.13c2.054 0 3.419-1.261 3.419-2.873 0-1.859-1.131-2.483-3.315-2.782-1.612-.234-1.924-.611-1.924-1.365 0-.715.546-1.222 1.599-1.222 1.066 0 1.625.416 1.794 1.391h1.586c-.182-1.781-1.378-2.691-3.38-2.691-1.937 0-3.237 1.144-3.237 2.665 0 1.742 1.053 2.418 3.276 2.717 1.508.247 1.937.572 1.937 1.43s-.728 1.43-1.755 1.43c-1.573 0-1.95-.78-2.067-1.716h-1.664c.13 1.755 1.196 3.016 3.731 3.016Zm5.769-8.047c.52 0 .936-.39.936-.897 0-.52-.416-.91-.936-.91s-.936.39-.936.91c0 .507.416.897.936.897Zm-.767 7.917h1.573v-6.799h-1.573V297Zm6.389 2.496c2.106 0 3.445-1.001 3.458-3.003v-6.292h-1.573v1.04c-.39-.676-1.066-1.183-2.184-1.183-1.755 0-3.055 1.43-3.055 3.341v.091c0 1.963 1.313 3.237 3.016 3.237a2.648 2.648 0 0 0 2.223-1.261v1.001c0 1.222-.676 1.833-1.898 1.833-1.027 0-1.547-.39-1.677-1.066h-1.586c.182 1.3 1.144 2.262 3.276 2.262Zm.052-3.978c-1.014 0-1.794-.78-1.794-2.041v-.104c0-1.235.676-2.08 1.846-2.08 1.131 0 1.833.767 1.833 2.054v.091c0 1.3-.793 2.08-1.885 2.08Zm5.276 1.482h1.573v-4.004c0-1.079.715-1.625 1.599-1.625.936 0 1.352.468 1.352 1.495V297h1.573v-4.277c0-1.872-.962-2.665-2.327-2.665-1.118 0-1.872.559-2.197 1.222v-1.079h-1.573V297Zm14.712.13c2.457 0 3.77-1.339 3.77-3.77v-5.655h-1.742v5.512c0 1.924-.676 2.522-2.015 2.522-1.378 0-1.924-.702-1.924-2.405v-5.629h-1.742v5.759c0 2.392 1.326 3.666 3.653 3.666Zm5.626 2.197h1.573v-3.393c.364.663 1.144 1.196 2.223 1.196 1.755 0 3.016-1.326 3.016-3.51v-.104c0-2.197-1.313-3.458-3.016-3.458-1.001 0-1.846.585-2.223 1.235v-1.092h-1.573v9.126Zm3.406-3.445c-1.144 0-1.885-.715-1.885-2.236v-.104c0-1.508.78-2.249 1.872-2.249 1.027 0 1.807.741 1.807 2.249v.104c0 1.456-.637 2.236-1.794 2.236Zm9.907 1.118h1.742v-7.93h2.587v-1.365h-6.916v1.365h2.587V297Zm7.641.13c2.002 0 3.497-1.378 3.497-3.497v-.104c0-2.08-1.495-3.471-3.484-3.471-2.002 0-3.497 1.404-3.497 3.51v.104c0 2.067 1.482 3.458 3.484 3.458Zm.013-1.222c-1.196 0-1.885-.871-1.885-2.262v-.104c0-1.404.715-2.249 1.885-2.249s1.872.858 1.872 2.262v.091c0 1.391-.702 2.262-1.872 2.262Zm7.454 1.222c1.001 0 1.872-.598 2.236-1.274V297h1.573v-9.945h-1.573v4.186c-.377-.676-1.066-1.183-2.171-1.183-1.768 0-3.055 1.378-3.055 3.549v.104c0 2.21 1.287 3.419 2.99 3.419Zm.39-1.248c-1.014 0-1.768-.715-1.768-2.21v-.104c0-1.469.676-2.275 1.833-2.275 1.144 0 1.833.741 1.833 2.236v.104c0 1.521-.806 2.249-1.898 2.249Zm7.069 1.248c1.04 0 1.638-.377 2.08-.962V297h1.547v-4.459c0-1.859-1.196-2.483-2.717-2.483-1.521 0-2.782.663-2.912 2.249h1.521c.078-.676.481-1.066 1.3-1.066.923 0 1.235.455 1.235 1.365v.351h-.845c-1.95 0-3.484.572-3.484 2.158 0 1.417 1.027 2.015 2.275 2.015Zm.377-1.131c-.78 0-1.092-.377-1.092-.949 0-.832.767-1.105 1.963-1.105h.806v.676c0 .871-.715 1.378-1.677 1.378Zm5.604 3.328h1.547l3.705-9.126h-1.534l-1.664 4.381-1.807-4.381h-1.703l2.691 6.11-1.235 3.016Z"/>
    <path fill="#E3EDFC" d="M253 286h36v36h-36z"/>
    <mask id="f" width="22" height="22" x="260" y="293" maskUnits="userSpaceOnUse" style="mask-type:alpha">
      <path fill="#fff" d="M280 293.5a1.5 1.5 0 0 1 1.5 1.5v18a1.5 1.5 0 0 1-1.5 1.5h-18a1.5 1.5 0 0 1-1.5-1.5v-18a1.5 1.5 0 0 1 1.5-1.5h18Zm0 16.5h-18v3h18v-3Zm0-15h-18v14.193l4.299-4.623a.748.748 0 0 1 1.079-.02l2.45 2.45 3.973-5.189a.75.75 0 0 1 1.209.025l4.99 7.097V295Zm-13.172 11.25-2.109 2.25h4.219l-2.11-2.25Zm7.547-2.578-3.656 4.828h7.312l-3.656-4.828ZM266.5 298a1.5 1.5 0 1 1-.001 3.001A1.5 1.5 0 0 1 266.5 298Z"/>
    </mask>
    <g mask="url(#f)">
      <path fill="#003285" d="M283 292h-24v24h24v-24Z"/>
    </g>
    <rect width="21" height="7" x="456" y="315" fill="#E3EDFC" rx="3"/>
    <path fill="#003285" fill-rule="evenodd" d="M465 318.5a1.5 1.5 0 1 0 3.001-.001 1.5 1.5 0 0 0-3.001.001Zm-5 0a1.5 1.5 0 1 0 3 0 1.5 1.5 0 0 0-3 0Zm11.5 1.5a1.5 1.5 0 1 1 .001-3.001A1.5 1.5 0 0 1 471.5 320Z" clip-rule="evenodd"/>
  </g>
  <path fill="#fff" d="M509 256c0 6.629-5.371 12-12 12s-12-5.371-12-12 5.371-12 12-12 12 5.371 12 12Z"/>
  <path fill="#000" fill-rule="evenodd" d="M508 256c0 6.077-4.923 11-11 11s-11-4.923-11-11 4.923-11 11-11 11 4.923 11 11Zm-6 .234a.47.47 0 0 1-.469.469h-3.828v3.828a.47.47 0 0 1-.469.469h-.468a.47.47 0 0 1-.469-.469v-3.828h-3.828a.47.47 0 0 1-.469-.469v-.468a.47.47 0 0 1 .469-.469h3.828v-3.828a.47.47 0 0 1 .469-.469h.468a.47.47 0 0 1 .469.469v3.828h3.828a.47.47 0 0 1 .469.469v.468ZM497 247c4.946 0 9 4.004 9 9 0 4.946-4.004 9-9 9-4.946 0-9-4.004-9-9 0-4.946 4.004-9 9-9Z" clip-rule="evenodd"/>
  <path fill="#fff" d="M243 256c0 6.629-5.371 12-12 12s-12-5.371-12-12 5.371-12 12-12 12 5.371 12 12Z"/>
  <path fill="#000" fill-rule="evenodd" d="M242 256c0 6.077-4.923 11-11 11s-11-4.923-11-11 4.923-11 11-11 11 4.923 11 11Zm-6.469.703h-9.062a.47.47 0 0 1-.469-.469v-.468a.47.47 0 0 1 .469-.469h9.062c.258 0 .258 1.406 0 1.406ZM231 247c4.946 0 9 4.004 9 9 0 4.946-4.004 9-9 9-4.946 0-9-4.004-9-9 0-4.946 4.004-9 9-9Z" clip-rule="evenodd"/>
  <path fill="#fff" d="M508 95c0 6.629-5.371 12-12 12s-12-5.371-12-12 5.371-12 12-12 12 5.371 12 12Z"/>
  <path fill="#000" fill-rule="evenodd" d="M507 95c0 6.077-4.923 11-11 11s-11-4.923-11-11 4.923-11 11-11 11 4.923 11 11Zm-6 .234a.47.47 0 0 1-.469.47h-3.828v3.827a.47.47 0 0 1-.469.469h-.468a.47.47 0 0 1-.469-.469v-3.828h-3.828a.47.47 0 0 1-.469-.469v-.468a.47.47 0 0 1 .469-.47h3.828V90.47a.47.47 0 0 1 .469-.469h.468a.47.47 0 0 1 .469.469v3.828h3.828a.47.47 0 0 1 .469.469v.468ZM496 86c4.946 0 9 4.004 9 9 0 4.946-4.004 9-9 9-4.946 0-9-4.004-9-9 0-4.946 4.004-9 9-9Z" clip-rule="evenodd"/>
  <path fill="#fff" d="M242 95c0 6.629-5.371 12-12 12s-12-5.371-12-12 5.371-12 12-12 12 5.371 12 12Z"/>
  <path fill="#000" fill-rule="evenodd" d="M241 95c0 6.077-4.923 11-11 11s-11-4.923-11-11 4.923-11 11-11 11 4.923 11 11Zm-6.469.703h-9.062a.47.47 0 0 1-.469-.469v-.468a.47.47 0 0 1 .469-.47h9.062c.258 0 .258 1.407 0 1.407ZM230 86c4.946 0 9 4.004 9 9 0 4.946-4.004 9-9 9-4.946 0-9-4.004-9-9 0-4.946 4.004-9 9-9Z" clip-rule="evenodd"/>
  <g clip-path="url(#g)">
    <rect width="250" height="132" x="238" y="29" fill="#769BD6" rx="4"/>
    <g filter="url(#h)">
      <path fill="#fff" d="M243 21h240v148H243z"/>
    </g>
    <path stroke="#DADADA" stroke-linecap="square" d="M482.5 116.5h-239"/>
    <path fill="#769BD6" fill-rule="evenodd" d="M484 20H242v150h242V20Zm-1 1H243v148h240V21Z" clip-rule="evenodd"/>
    <path fill="#E3EDFC" d="M243 21h240v96H243z"/>
    <mask id="i" width="28" height="28" x="349" y="55" maskUnits="userSpaceOnUse" style="mask-type:alpha">
      <path fill="#fff" d="M375 55a2 2 0 0 1 2 2v24a2 2 0 0 1-2 2h-24a2 2 0 0 1-2-2V57a2 2 0 0 1 2-2h24Zm0 22h-24v4h24v-4Zm0-20h-24v18.924l5.731-6.164a1 1 0 0 1 1.414-.052l.026.025L361.438 73l5.296-6.918a1 1 0 0 1 1.612.033L375 75.578V57Zm-17.562 15-2.813 3h5.625l-2.812-3Zm10.062-3.438L362.625 75h9.75l-4.875-6.438ZM357 61a2 2 0 1 1 0 4 2 2 0 0 1 0-4Z"/>
    </mask>
    <g mask="url(#i)">
      <path fill="#003285" d="M379 53h-32v32h32V53Z"/>
    </g>
    <path fill="#E3EDFC" d="M302 143h108v18H302z"/>
    <path fill="#060606" d="M307.628 155.099c1.452 0 2.431-.781 2.431-2.486v-5.478h-1.474v5.445c0 .968-.462 1.342-1.177 1.342-.462 0-.737-.088-1.012-.198v1.144c.253.132.583.231 1.232.231Zm6.872.011c1.694 0 2.959-1.166 2.959-2.959v-.088c0-1.76-1.265-2.937-2.948-2.937-1.694 0-2.959 1.188-2.959 2.97v.088c0 1.749 1.254 2.926 2.948 2.926Zm.011-1.034c-1.012 0-1.595-.737-1.595-1.914v-.088c0-1.188.605-1.903 1.595-1.903s1.584.726 1.584 1.914v.077c0 1.177-.594 1.914-1.584 1.914Zm6.375 1.034c.935 0 1.54-.451 1.826-1.012V155h1.331v-5.753h-1.331v3.421c0 .913-.627 1.375-1.342 1.375-.77 0-1.133-.396-1.133-1.265v-3.531h-1.331v3.685c0 1.529.847 2.178 1.98 2.178Zm5.035-.11h1.331v-2.992c0-1.221.704-1.595 1.87-1.606v-1.243c-.968.011-1.507.44-1.87 1.166v-1.078h-1.331V155Zm4.673 0h1.331v-3.388c0-.913.605-1.375 1.353-1.375.792 0 1.144.396 1.144 1.265V155h1.331v-3.619c0-1.584-.814-2.255-1.969-2.255-.946 0-1.584.473-1.859 1.034v-.913h-1.331V155Zm9.522.11c1.474 0 2.453-.66 2.64-1.87h-1.287c-.099.561-.517.88-1.32.88-.99 0-1.54-.616-1.584-1.705h4.213v-.385c0-2.057-1.287-2.904-2.717-2.904-1.639 0-2.86 1.188-2.86 2.97v.088c0 1.815 1.221 2.926 2.915 2.926Zm-1.529-3.586c.132-.891.671-1.43 1.474-1.43.825 0 1.331.44 1.397 1.43h-2.871Zm6.178 5.445h1.309l3.135-7.722h-1.298l-1.408 3.707-1.529-3.707h-1.441l2.277 5.17-1.045 2.552ZM355.111 155h1.474v-6.71h2.189v-1.155h-5.852v1.155h2.189V155Zm5.818.11c.88 0 1.386-.319 1.76-.814V155h1.309v-3.773c0-1.573-1.012-2.101-2.299-2.101s-2.354.561-2.464 1.903h1.287c.066-.572.407-.902 1.1-.902.781 0 1.045.385 1.045 1.155v.297h-.715c-1.65 0-2.948.484-2.948 1.826 0 1.199.869 1.705 1.925 1.705Zm.319-.957c-.66 0-.924-.319-.924-.803 0-.704.649-.935 1.661-.935h.682v.572c0 .737-.605 1.166-1.419 1.166Zm4.575.847h1.331v-2.992c0-1.221.704-1.595 1.87-1.606v-1.243c-.968.011-1.507.44-1.87 1.166v-1.078h-1.331V155Zm7.007 2.112c1.782 0 2.915-.847 2.926-2.541v-5.324h-1.331v.88c-.33-.572-.902-1.001-1.848-1.001-1.485 0-2.585 1.21-2.585 2.827v.077c0 1.661 1.111 2.739 2.552 2.739a2.24 2.24 0 0 0 1.881-1.067v.847c0 1.034-.572 1.551-1.606 1.551-.869 0-1.309-.33-1.419-.902h-1.342c.154 1.1.968 1.914 2.772 1.914Zm.044-3.366c-.858 0-1.518-.66-1.518-1.727v-.088c0-1.045.572-1.76 1.562-1.76.957 0 1.551.649 1.551 1.738v.077c0 1.1-.671 1.76-1.595 1.76Zm7.294 1.364c1.474 0 2.453-.66 2.64-1.87h-1.287c-.099.561-.517.88-1.32.88-.99 0-1.54-.616-1.584-1.705h4.213v-.385c0-2.057-1.287-2.904-2.717-2.904-1.639 0-2.86 1.188-2.86 2.97v.088c0 1.815 1.221 2.926 2.915 2.926Zm-1.529-3.586c.132-.891.671-1.43 1.474-1.43.825 0 1.331.44 1.397 1.43h-2.871Zm7.638 3.575c.407 0 .693-.066.902-.143V153.9c-.187.077-.385.11-.649.11-.418 0-.66-.231-.66-.737v-3.025h1.265v-1.001h-1.265v-1.265h-1.331v1.265h-.77v1.001h.77v3.146c0 1.089.594 1.705 1.738 1.705Zm3.084-6.798c.44 0 .792-.33.792-.759 0-.44-.352-.77-.792-.77-.44 0-.792.33-.792.77 0 .429.352.759.792.759Zm-.649 6.699h1.331v-5.753h-1.331V155Zm3.254 0h1.331v-3.388c0-.913.605-1.375 1.353-1.375.792 0 1.144.396 1.144 1.265V155h1.331v-3.619c0-1.584-.814-2.255-1.969-2.255-.946 0-1.584.473-1.859 1.034v-.913h-1.331V155Zm9.445 2.112c1.782 0 2.915-.847 2.926-2.541v-5.324h-1.331v.88c-.33-.572-.902-1.001-1.848-1.001-1.485 0-2.585 1.21-2.585 2.827v.077c0 1.661 1.111 2.739 2.552 2.739a2.24 2.24 0 0 0 1.881-1.067v.847c0 1.034-.572 1.551-1.606 1.551-.869 0-1.309-.33-1.419-.902h-1.342c.154 1.1.968 1.914 2.772 1.914Zm.044-3.366c-.858 0-1.518-.66-1.518-1.727v-.088c0-1.045.572-1.76 1.562-1.76.957 0 1.551.649 1.551 1.738v.077c0 1.1-.671 1.76-1.595 1.76ZM305.952 135.13c2.132 0 3.484-1.066 3.484-2.782 0-1.235-.715-2.002-1.794-2.249.897-.338 1.508-.975 1.508-2.028 0-1.378-1.131-2.496-3.068-2.496-1.989 0-3.198 1.235-3.289 2.847h1.534c.104-.936.741-1.534 1.729-1.534.962 0 1.443.559 1.443 1.313 0 .871-.481 1.365-1.547 1.365h-.663v1.235h.715c1.131 0 1.677.507 1.677 1.521 0 .923-.559 1.508-1.768 1.508-1.248 0-1.794-.728-1.885-1.703h-1.573c.078 1.781 1.287 3.003 3.497 3.003Zm8.311-.13h1.729v-3.809h3.172v-1.339h-3.172v-2.769h4.03v-1.378h-5.759V135Zm6.891 0h1.573v-3.536c0-1.443.832-1.885 2.21-1.898v-1.469c-1.144.013-1.781.52-2.21 1.378v-1.274h-1.573V135Zm8.017.13c1.742 0 2.899-.78 3.12-2.21h-1.521c-.117.663-.611 1.04-1.56 1.04-1.17 0-1.82-.728-1.872-2.015h4.979v-.455c0-2.431-1.521-3.432-3.211-3.432-1.937 0-3.38 1.404-3.38 3.51v.104c0 2.145 1.443 3.458 3.445 3.458Zm-1.807-4.238c.156-1.053.793-1.69 1.742-1.69.975 0 1.573.52 1.651 1.69h-3.393Zm9.348 4.238c1.742 0 2.899-.78 3.12-2.21h-1.521c-.117.663-.611 1.04-1.56 1.04-1.17 0-1.82-.728-1.872-2.015h4.979v-.455c0-2.431-1.521-3.432-3.211-3.432-1.937 0-3.38 1.404-3.38 3.51v.104c0 2.145 1.443 3.458 3.445 3.458Zm-1.807-4.238c.156-1.053.793-1.69 1.742-1.69.975 0 1.573.52 1.651 1.69h-3.393Zm9.586 4.108h1.56v-7.02l2.821 7.02h.559l2.769-7.02V135h1.729v-9.295h-2.288l-2.392 6.344-2.444-6.344h-2.314V135Zm14.387.13c1.742 0 2.899-.78 3.12-2.21h-1.521c-.117.663-.611 1.04-1.56 1.04-1.17 0-1.82-.728-1.872-2.015h4.979v-.455c0-2.431-1.521-3.432-3.211-3.432-1.937 0-3.38 1.404-3.38 3.51v.104c0 2.145 1.443 3.458 3.445 3.458Zm-1.807-4.238c.156-1.053.793-1.69 1.742-1.69.975 0 1.573.52 1.651 1.69h-3.393Zm8.203 4.238c1.04 0 1.638-.377 2.08-.962V135h1.547v-4.459c0-1.859-1.196-2.483-2.717-2.483-1.521 0-2.782.663-2.912 2.249h1.521c.078-.676.481-1.066 1.3-1.066.923 0 1.235.455 1.235 1.365v.351h-.845c-1.95 0-3.484.572-3.484 2.158 0 1.417 1.027 2.015 2.275 2.015Zm.377-1.131c-.78 0-1.092-.377-1.092-.949 0-.832.767-1.105 1.963-1.105h.806v.676c0 .871-.715 1.378-1.677 1.378Zm5.092 1.001h1.573v-9.945h-1.573V135Zm5.817.13c1.742 0 2.717-.793 2.717-2.171 0-1.443-.949-1.833-2.548-2.08-1.079-.182-1.404-.377-1.404-.871 0-.481.403-.806 1.079-.806.728 0 1.079.286 1.209.91h1.456c-.169-1.534-1.274-2.054-2.665-2.054-1.274 0-2.548.676-2.548 2.041 0 1.274.663 1.781 2.457 2.067 1.001.169 1.456.377 1.456.936 0 .572-.377.871-1.222.871-.923 0-1.274-.403-1.352-1.092h-1.482c.065 1.443 1.092 2.249 2.847 2.249Zm11.562 0c2.821 0 4.68-2.041 4.68-4.758v-.104c0-2.73-1.911-4.693-4.68-4.693-2.756 0-4.706 2.015-4.706 4.732v.104c0 2.678 1.859 4.719 4.706 4.719Zm.026-1.391c-1.69 0-2.925-1.313-2.925-3.341v-.104c0-2.002 1.079-3.341 2.899-3.341s2.886 1.417 2.886 3.328v.104c0 2.015-1.105 3.354-2.86 3.354Zm6.543 1.261h1.573v-5.616h2.392V135h1.573v-5.616h1.547v-1.183h-1.547v-.975c0-.585.26-1.001.897-1.001.286 0 .533.052.715.117v-1.222a2.693 2.693 0 0 0-.91-.13c-1.443 0-2.275.806-2.275 2.301v.91h-2.392v-.897c0-.585.26-1.001.897-1.001.286 0 .52.065.702.13v-1.222a2.664 2.664 0 0 0-.897-.13c-1.456 0-2.275.793-2.275 2.301v.819h-.923v1.183h.923V135Zm11.096.13c1.742 0 2.899-.78 3.12-2.21h-1.521c-.117.663-.611 1.04-1.56 1.04-1.17 0-1.82-.728-1.872-2.015h4.979v-.455c0-2.431-1.521-3.432-3.211-3.432-1.937 0-3.38 1.404-3.38 3.51v.104c0 2.145 1.443 3.458 3.445 3.458Zm-1.807-4.238c.156-1.053.793-1.69 1.742-1.69.975 0 1.573.52 1.651 1.69h-3.393Zm6.358 4.108h1.573v-3.536c0-1.443.832-1.885 2.21-1.898v-1.469c-1.144.013-1.781.52-2.21 1.378v-1.274h-1.573V135Z"/>
    <path fill="#E3EDFC" d="M252 125h36v36h-36z"/>
    <mask id="j" width="22" height="22" x="259" y="132" maskUnits="userSpaceOnUse" style="mask-type:alpha">
      <path fill="#fff" d="M279 132.5a1.5 1.5 0 0 1 1.5 1.5v18a1.5 1.5 0 0 1-1.5 1.5h-18a1.5 1.5 0 0 1-1.5-1.5v-18a1.5 1.5 0 0 1 1.5-1.5h18Zm0 16.5h-18v3h18v-3Zm0-15h-18v14.193l4.299-4.623a.748.748 0 0 1 1.079-.02l2.45 2.45 3.973-5.189a.75.75 0 0 1 1.209.025l4.99 7.097V134Zm-13.172 11.25-2.109 2.25h4.219l-2.11-2.25Zm7.547-2.578-3.656 4.828h7.312l-3.656-4.828ZM265.5 137a1.5 1.5 0 1 1-.001 3.001A1.5 1.5 0 0 1 265.5 137Z"/>
    </mask>
    <g mask="url(#j)">
      <path fill="#003285" d="M282 131h-24v24h24v-24Z"/>
    </g>
    <rect width="21" height="7" x="455" y="154" fill="#E3EDFC" rx="3"/>
    <path fill="#003285" fill-rule="evenodd" d="M464 157.5a1.5 1.5 0 1 0 3.001-.001 1.5 1.5 0 0 0-3.001.001Zm-5 0a1.5 1.5 0 1 0 3 0 1.5 1.5 0 0 0-3 0Zm11.5 1.5a1.5 1.5 0 1 1 .001-3.001A1.5 1.5 0 0 1 470.5 159Z" clip-rule="evenodd"/>
  </g>
  <path fill="#fff" d="M508 418c0 6.629-5.371 12-12 12s-12-5.371-12-12 5.371-12 12-12 12 5.371 12 12Z"/>
  <path fill="#000" fill-rule="evenodd" d="M507 418c0 6.077-4.923 11-11 11s-11-4.923-11-11 4.923-11 11-11 11 4.923 11 11Zm-6 .234a.47.47 0 0 1-.469.469h-3.828v3.828a.47.47 0 0 1-.469.469h-.468a.47.47 0 0 1-.469-.469v-3.828h-3.828a.47.47 0 0 1-.469-.469v-.468a.47.47 0 0 1 .469-.469h3.828v-3.828a.47.47 0 0 1 .469-.469h.468a.47.47 0 0 1 .469.469v3.828h3.828a.47.47 0 0 1 .469.469v.468ZM496 409c4.946 0 9 4.004 9 9 0 4.946-4.004 9-9 9-4.946 0-9-4.004-9-9 0-4.946 4.004-9 9-9Z" clip-rule="evenodd"/>
  <path fill="#fff" d="M242 418c0 6.629-5.371 12-12 12s-12-5.371-12-12 5.371-12 12-12 12 5.371 12 12Z"/>
  <path fill="#000" fill-rule="evenodd" d="M241 418c0 6.077-4.923 11-11 11s-11-4.923-11-11 4.923-11 11-11 11 4.923 11 11Zm-6.469.703h-9.062a.47.47 0 0 1-.469-.469v-.468a.47.47 0 0 1 .469-.469h9.062c.258 0 .258 1.406 0 1.406ZM230 409c4.946 0 9 4.004 9 9 0 4.946-4.004 9-9 9-4.946 0-9-4.004-9-9 0-4.946 4.004-9 9-9Z" clip-rule="evenodd"/>
  <g clip-path="url(#k)">
    <rect width="250" height="132" x="238" y="352" fill="#769BD6" rx="4"/>
    <g filter="url(#l)">
      <path fill="#fff" d="M243 344h240v148H243z"/>
    </g>
    <path stroke="#DADADA" stroke-linecap="square" d="M482.5 439.5h-239"/>
    <path fill="#769BD6" fill-rule="evenodd" d="M484 343H242v150h242V343Zm-1 1H243v148h240V344Z" clip-rule="evenodd"/>
    <path fill="#E3EDFC" d="M243 344h240v96H243z"/>
    <mask id="m" width="28" height="28" x="349" y="378" maskUnits="userSpaceOnUse" style="mask-type:alpha">
      <path fill="#fff" d="M375 378a2 2 0 0 1 2 2v24a2 2 0 0 1-2 2h-24a2 2 0 0 1-2-2v-24a2 2 0 0 1 2-2h24Zm0 22h-24v4h24v-4Zm0-20h-24v18.924l5.731-6.164a1 1 0 0 1 1.414-.052l.026.025 3.267 3.267 5.296-6.918a1 1 0 0 1 1.612.033l6.654 9.463V380Zm-17.562 15-2.813 3h5.625l-2.812-3Zm10.062-3.438L362.625 398h9.75l-4.875-6.438ZM357 384a2 2 0 1 1 .001 3.999A2 2 0 0 1 357 384Z"/>
    </mask>
    <g mask="url(#m)">
      <path fill="#003285" d="M379 376h-32v32h32v-32Z"/>
    </g>
    <path fill="#E3EDFC" d="M302 466h108v18H302z"/>
    <path fill="#060606" d="M307.628 478.099c1.452 0 2.431-.781 2.431-2.486v-5.478h-1.474v5.445c0 .968-.462 1.342-1.177 1.342-.462 0-.737-.088-1.012-.198v1.144c.253.132.583.231 1.232.231Zm6.872.011c1.694 0 2.959-1.166 2.959-2.959v-.088c0-1.76-1.265-2.937-2.948-2.937-1.694 0-2.959 1.188-2.959 2.97v.088c0 1.749 1.254 2.926 2.948 2.926Zm.011-1.034c-1.012 0-1.595-.737-1.595-1.914v-.088c0-1.188.605-1.903 1.595-1.903s1.584.726 1.584 1.914v.077c0 1.177-.594 1.914-1.584 1.914Zm6.375 1.034c.935 0 1.54-.451 1.826-1.012V478h1.331v-5.753h-1.331v3.421c0 .913-.627 1.375-1.342 1.375-.77 0-1.133-.396-1.133-1.265v-3.531h-1.331v3.685c0 1.529.847 2.178 1.98 2.178Zm5.035-.11h1.331v-2.992c0-1.221.704-1.595 1.87-1.606v-1.243c-.968.011-1.507.44-1.87 1.166v-1.078h-1.331V478Zm4.673 0h1.331v-3.388c0-.913.605-1.375 1.353-1.375.792 0 1.144.396 1.144 1.265V478h1.331v-3.619c0-1.584-.814-2.255-1.969-2.255-.946 0-1.584.473-1.859 1.034v-.913h-1.331V478Zm9.522.11c1.474 0 2.453-.66 2.64-1.87h-1.287c-.099.561-.517.88-1.32.88-.99 0-1.54-.616-1.584-1.705h4.213v-.385c0-2.057-1.287-2.904-2.717-2.904-1.639 0-2.86 1.188-2.86 2.97v.088c0 1.815 1.221 2.926 2.915 2.926Zm-1.529-3.586c.132-.891.671-1.43 1.474-1.43.825 0 1.331.44 1.397 1.43h-2.871Zm6.178 5.445h1.309l3.135-7.722h-1.298l-1.408 3.707-1.529-3.707h-1.441l2.277 5.17-1.045 2.552ZM355.111 478h1.474v-6.71h2.189v-1.155h-5.852v1.155h2.189V478Zm5.818.11c.88 0 1.386-.319 1.76-.814V478h1.309v-3.773c0-1.573-1.012-2.101-2.299-2.101s-2.354.561-2.464 1.903h1.287c.066-.572.407-.902 1.1-.902.781 0 1.045.385 1.045 1.155v.297h-.715c-1.65 0-2.948.484-2.948 1.826 0 1.199.869 1.705 1.925 1.705Zm.319-.957c-.66 0-.924-.319-.924-.803 0-.704.649-.935 1.661-.935h.682v.572c0 .737-.605 1.166-1.419 1.166Zm4.575.847h1.331v-2.992c0-1.221.704-1.595 1.87-1.606v-1.243c-.968.011-1.507.44-1.87 1.166v-1.078h-1.331V478Zm7.007 2.112c1.782 0 2.915-.847 2.926-2.541v-5.324h-1.331v.88c-.33-.572-.902-1.001-1.848-1.001-1.485 0-2.585 1.21-2.585 2.827v.077c0 1.661 1.111 2.739 2.552 2.739a2.24 2.24 0 0 0 1.881-1.067v.847c0 1.034-.572 1.551-1.606 1.551-.869 0-1.309-.33-1.419-.902h-1.342c.154 1.1.968 1.914 2.772 1.914Zm.044-3.366c-.858 0-1.518-.66-1.518-1.727v-.088c0-1.045.572-1.76 1.562-1.76.957 0 1.551.649 1.551 1.738v.077c0 1.1-.671 1.76-1.595 1.76Zm7.294 1.364c1.474 0 2.453-.66 2.64-1.87h-1.287c-.099.561-.517.88-1.32.88-.99 0-1.54-.616-1.584-1.705h4.213v-.385c0-2.057-1.287-2.904-2.717-2.904-1.639 0-2.86 1.188-2.86 2.97v.088c0 1.815 1.221 2.926 2.915 2.926Zm-1.529-3.586c.132-.891.671-1.43 1.474-1.43.825 0 1.331.44 1.397 1.43h-2.871Zm7.638 3.575c.407 0 .693-.066.902-.143V476.9c-.187.077-.385.11-.649.11-.418 0-.66-.231-.66-.737v-3.025h1.265v-1.001h-1.265v-1.265h-1.331v1.265h-.77v1.001h.77v3.146c0 1.089.594 1.705 1.738 1.705Zm3.084-6.798c.44 0 .792-.33.792-.759 0-.44-.352-.77-.792-.77-.44 0-.792.33-.792.77 0 .429.352.759.792.759Zm-.649 6.699h1.331v-5.753h-1.331V478Zm3.254 0h1.331v-3.388c0-.913.605-1.375 1.353-1.375.792 0 1.144.396 1.144 1.265V478h1.331v-3.619c0-1.584-.814-2.255-1.969-2.255-.946 0-1.584.473-1.859 1.034v-.913h-1.331V478Zm9.445 2.112c1.782 0 2.915-.847 2.926-2.541v-5.324h-1.331v.88c-.33-.572-.902-1.001-1.848-1.001-1.485 0-2.585 1.21-2.585 2.827v.077c0 1.661 1.111 2.739 2.552 2.739a2.24 2.24 0 0 0 1.881-1.067v.847c0 1.034-.572 1.551-1.606 1.551-.869 0-1.309-.33-1.419-.902h-1.342c.154 1.1.968 1.914 2.772 1.914Zm.044-3.366c-.858 0-1.518-.66-1.518-1.727v-.088c0-1.045.572-1.76 1.562-1.76.957 0 1.551.649 1.551 1.738v.077c0 1.1-.671 1.76-1.595 1.76ZM307.135 458.13c2.21 0 3.796-1.131 4.069-3.367h-1.69c-.182 1.313-1.092 1.963-2.379 1.963-1.716 0-2.717-1.235-2.717-3.328v-.104c0-2.08 1.066-3.354 2.704-3.354 1.339 0 2.028.637 2.223 1.872h1.755c-.208-2.184-1.859-3.25-3.991-3.25-2.587 0-4.511 1.95-4.511 4.745v.104c0 2.86 1.625 4.719 4.537 4.719Zm8.478 0c2.002 0 3.497-1.378 3.497-3.497v-.104c0-2.08-1.495-3.471-3.484-3.471-2.002 0-3.497 1.404-3.497 3.51v.104c0 2.067 1.482 3.458 3.484 3.458Zm.013-1.222c-1.196 0-1.885-.871-1.885-2.262v-.104c0-1.404.715-2.249 1.885-2.249s1.872.858 1.872 2.262v.091c0 1.391-.702 2.262-1.872 2.262Zm4.906 1.092h1.573v-4.004c0-1.079.715-1.625 1.599-1.625.936 0 1.352.468 1.352 1.495V458h1.573v-4.277c0-1.872-.962-2.665-2.327-2.665-1.118 0-1.872.559-2.197 1.222v-1.079h-1.573V458Zm10.223.117c.481 0 .819-.078 1.066-.169V456.7c-.221.091-.455.13-.767.13-.494 0-.78-.273-.78-.871v-3.575h1.495v-1.183h-1.495v-1.495h-1.573v1.495h-.91v1.183h.91v3.718c0 1.287.702 2.015 2.054 2.015Zm4.316.013c1.04 0 1.638-.377 2.08-.962V458h1.547v-4.459c0-1.859-1.196-2.483-2.717-2.483-1.521 0-2.782.663-2.912 2.249h1.521c.078-.676.481-1.066 1.3-1.066.923 0 1.235.455 1.235 1.365v.351h-.845c-1.95 0-3.484.572-3.484 2.158 0 1.417 1.027 2.015 2.275 2.015Zm.377-1.131c-.78 0-1.092-.377-1.092-.949 0-.832.767-1.105 1.963-1.105h.806v.676c0 .871-.715 1.378-1.677 1.378Zm8.03 1.131c1.846 0 3.029-1.105 3.146-2.665h-1.443c-.091.962-.806 1.456-1.638 1.456-1.157 0-1.885-.78-1.885-2.262v-.104c0-1.404.767-2.236 1.846-2.236.832 0 1.43.377 1.56 1.287h1.521c-.182-1.872-1.599-2.548-3.107-2.548-1.898 0-3.432 1.365-3.432 3.523v.104c0 2.171 1.482 3.445 3.432 3.445Zm6.815-.013c.481 0 .819-.078 1.066-.169V456.7c-.221.091-.455.13-.767.13-.494 0-.78-.273-.78-.871v-3.575h1.495v-1.183h-1.495v-1.495h-1.573v1.495h-.91v1.183h.91v3.718c0 1.287.702 2.015 2.054 2.015Zm2.524-.117h1.573v-9.945h-1.573V458Zm6.48.13c1.742 0 2.899-.78 3.12-2.21h-1.521c-.117.663-.611 1.04-1.56 1.04-1.17 0-1.82-.728-1.872-2.015h4.979v-.455c0-2.431-1.521-3.432-3.211-3.432-1.937 0-3.38 1.404-3.38 3.51v.104c0 2.145 1.443 3.458 3.445 3.458Zm-1.807-4.238c.156-1.053.793-1.69 1.742-1.69.975 0 1.573.52 1.651 1.69h-3.393Zm8.749 4.238c1.742 0 2.717-.793 2.717-2.171 0-1.443-.949-1.833-2.548-2.08-1.079-.182-1.404-.377-1.404-.871 0-.481.403-.806 1.079-.806.728 0 1.079.286 1.209.91h1.456c-.169-1.534-1.274-2.054-2.665-2.054-1.274 0-2.548.676-2.548 2.041 0 1.274.663 1.781 2.457 2.067 1.001.169 1.456.377 1.456.936 0 .572-.377.871-1.222.871-.923 0-1.274-.403-1.352-1.092h-1.482c.065 1.443 1.092 2.249 2.847 2.249Zm6.436 0c1.742 0 2.717-.793 2.717-2.171 0-1.443-.949-1.833-2.548-2.08-1.079-.182-1.404-.377-1.404-.871 0-.481.403-.806 1.079-.806.728 0 1.079.286 1.209.91h1.456c-.169-1.534-1.274-2.054-2.665-2.054-1.274 0-2.548.676-2.548 2.041 0 1.274.663 1.781 2.457 2.067 1.001.169 1.456.377 1.456.936 0 .572-.377.871-1.222.871-.923 0-1.274-.403-1.352-1.092h-1.482c.065 1.443 1.092 2.249 2.847 2.249ZM380 458h2.795c3.263 0 4.836-1.924 4.836-4.628v-.117c0-2.704-1.573-4.55-4.81-4.55H380V458Zm1.729-1.365v-6.565h1.001c2.184 0 3.094 1.209 3.094 3.211v.104c0 2.054-1.001 3.25-3.081 3.25h-1.014Zm10.411 1.495c1.742 0 2.899-.78 3.12-2.21h-1.521c-.117.663-.611 1.04-1.56 1.04-1.17 0-1.82-.728-1.872-2.015h4.979v-.455c0-2.431-1.521-3.432-3.211-3.432-1.937 0-3.38 1.404-3.38 3.51v.104c0 2.145 1.443 3.458 3.445 3.458Zm-1.807-4.238c.156-1.053.793-1.69 1.742-1.69.975 0 1.573.52 1.651 1.69h-3.393ZM396.73 458h1.573v-9.945h-1.573V458Zm4.296-7.917c.52 0 .936-.39.936-.897 0-.52-.416-.91-.936-.91s-.936.39-.936.91c0 .507.416.897.936.897Zm-.767 7.917h1.573v-6.799h-1.573V458Zm5.271 0h1.833l2.457-6.799h-1.547l-1.755 5.187-1.781-5.187h-1.69L405.53 458Zm8.192.13c1.742 0 2.899-.78 3.12-2.21h-1.521c-.117.663-.611 1.04-1.56 1.04-1.17 0-1.82-.728-1.872-2.015h4.979v-.455c0-2.431-1.521-3.432-3.211-3.432-1.937 0-3.38 1.404-3.38 3.51v.104c0 2.145 1.443 3.458 3.445 3.458Zm-1.807-4.238c.156-1.053.793-1.69 1.742-1.69.975 0 1.573.52 1.651 1.69h-3.393Zm6.358 4.108h1.573v-3.536c0-1.443.832-1.885 2.21-1.898v-1.469c-1.144.013-1.781.52-2.21 1.378v-1.274h-1.573V458Zm5.997 2.327h1.547l3.705-9.126h-1.534l-1.664 4.381-1.807-4.381h-1.703l2.691 6.11-1.235 3.016Z"/>
    <path fill="#E3EDFC" d="M252 448h36v36h-36z"/>
    <mask id="n" width="22" height="22" x="259" y="455" maskUnits="userSpaceOnUse" style="mask-type:alpha">
      <path fill="#fff" d="M279 455.5a1.5 1.5 0 0 1 1.5 1.5v18a1.5 1.5 0 0 1-1.5 1.5h-18a1.5 1.5 0 0 1-1.5-1.5v-18a1.5 1.5 0 0 1 1.5-1.5h18Zm0 16.5h-18v3h18v-3Zm0-15h-18v14.193l4.299-4.623a.748.748 0 0 1 1.079-.02l2.45 2.45 3.973-5.189a.75.75 0 0 1 1.209.025l4.99 7.097V457Zm-13.172 11.25-2.109 2.25h4.219l-2.11-2.25Zm7.547-2.578-3.656 4.828h7.312l-3.656-4.828ZM265.5 460a1.5 1.5 0 1 1-.001 3.001A1.5 1.5 0 0 1 265.5 460Z"/>
    </mask>
    <g mask="url(#n)">
      <path fill="#003285" d="M282 454h-24v24h24v-24Z"/>
    </g>
    <rect width="21" height="7" x="455" y="477" fill="#E3EDFC" rx="3"/>
    <path fill="#003285" fill-rule="evenodd" d="M464 480.5a1.5 1.5 0 1 0 3.001-.001 1.5 1.5 0 0 0-3.001.001Zm-5 0a1.5 1.5 0 1 0 3 0 1.5 1.5 0 0 0-3 0Zm11.5 1.5a1.5 1.5 0 1 1 .001-3.001A1.5 1.5 0 0 1 470.5 482Z" clip-rule="evenodd"/>
  </g>
  <path stroke="#060606" stroke-width="2" d="M507 95.5h40M507 256.5h40M507 417.5h40"/>
  <g clip-path="url(#o)">
    <path stroke="#FA4526" stroke-linecap="round" stroke-width="8" d="m590.941 129.468-3.978-3.978-27.15-27.15c-1.554-1.554-1.564-4.062-.024-5.602L589.527 63M624.527 129.468l3.978-3.978 27.15-27.15c1.554-1.554 1.564-4.062.024-5.602L625.941 63"/>
    <g filter="url(#p)">
      <path fill="#fff" d="M557 94.912 607.912 44l50.912 50.912-50.912 50.912z"/>
    </g>
    <path fill="#FA4526" fill-rule="evenodd" d="M659.658 95 608 43.342 556.342 95 608 146.658 659.658 95Zm-1.397 0L608 44.739 557.739 95 608 145.261 658.261 95Z" clip-rule="evenodd"/>
    <g clip-path="url(#q)">
      <rect width="21" height="7" x="598" y="122" fill="#FFE1DB" rx="3"/>
      <path fill="#C6270C" fill-rule="evenodd" d="M607 125.5a1.5 1.5 0 1 0 3.001-.001 1.5 1.5 0 0 0-3.001.001Zm-5 0a1.5 1.5 0 1 0 3 0 1.5 1.5 0 0 0-3 0Zm11.5 1.5a1.5 1.5 0 1 1 .001-3.001A1.5 1.5 0 0 1 613.5 127Z" clip-rule="evenodd"/>
      <path fill="#060606" d="M623.523 95h2.412V82.13h-2.142l-2.988 2.124v2.106l2.718-1.854V95ZM612.765 108.11c1.87 0 3.212-.957 3.443-2.849h-1.43c-.154 1.111-.924 1.661-2.013 1.661-1.452 0-2.299-1.045-2.299-2.816v-.088c0-1.76.902-2.838 2.288-2.838 1.133 0 1.716.539 1.881 1.584h1.485c-.176-1.848-1.573-2.75-3.377-2.75-2.189 0-3.817 1.65-3.817 4.015v.088c0 2.42 1.375 3.993 3.839 3.993Zm7.474 0c1.694 0 2.959-1.166 2.959-2.959v-.088c0-1.76-1.265-2.937-2.948-2.937-1.694 0-2.959 1.188-2.959 2.97v.088c0 1.749 1.254 2.926 2.948 2.926Zm.011-1.034c-1.012 0-1.595-.737-1.595-1.914v-.088c0-1.188.605-1.903 1.595-1.903s1.584.726 1.584 1.914v.077c0 1.177-.594 1.914-1.584 1.914Zm4.451.924h1.331v-3.388c0-.913.605-1.375 1.353-1.375.792 0 1.144.396 1.144 1.265V108h1.331v-3.619c0-1.584-.814-2.255-1.969-2.255-.946 0-1.584.473-1.859 1.034v-.913h-1.331V108Zm8.381 0h1.551l2.079-5.753h-1.309l-1.485 4.389-1.507-4.389h-1.43l2.101 5.753Zm4.902.077c.495 0 .88-.374.88-.858a.866.866 0 0 0-.88-.869.864.864 0 0 0-.869.869c0 .484.385.858.869.858Z"/>
      <path fill="#FFE1DB" d="M573 94.97 589.97 78l16.971 16.97-16.97 16.971z"/>
      <mask id="r" width="15" height="14" x="583" y="88" maskUnits="userSpaceOnUse" style="mask-type:alpha">
        <path fill="#fff" d="M592.745 93A4.252 4.252 0 0 1 597 97.25a4.252 4.252 0 0 1-4.255 4.25 4.252 4.252 0 0 1-4.254-4.25 4.252 4.252 0 0 1 4.254-4.25Zm-.002 1h.002a3.251 3.251 0 1 0-.001 6.5h.001a.5.5 0 0 1-.5-.5v-.335a1.5 1.5 0 0 1-1.001-1.415v-.01a.5.5 0 0 1 1.001 0v.01a.5.5 0 1 0 .5-.5 1.5 1.5 0 0 1-.5-2.915V94.5a.5.5 0 0 1 .498-.5Zm.005 0h-.002a.5.5 0 0 1 .5.5v.335c.576.204.99.748 1.001 1.39v.025a.5.5 0 0 1-1.001.01v-.01a.5.5 0 1 0-.51.5h.009a1.5 1.5 0 0 1 .501 2.915V100a.5.5 0 0 1-.499.5h-.002a3.252 3.252 0 0 0 3.254-3.25 3.252 3.252 0 0 0-3.251-3.25Zm1.759-5.5a.5.5 0 0 1 .418.775l-2.127 3.225h-.053c-.423 0-.834.055-1.225.16l2.039-3.16h-9.104l3.065 4.75v3.5l.514.151c.056.405.162.793.313 1.158l-1.503-.452a.5.5 0 0 1-.356-.479V94.5l-3.407-5.227a.501.501 0 0 1 .419-.773h11.007Z"/>
      </mask>
      <g mask="url(#r)">
        <path fill="#C6270C" d="M598 87h-16v16h16V87Z"/>
      </g>
    </g>
  </g>
  <path fill="#fff" d="M668 95c0 6.629-5.371 12-12 12s-12-5.371-12-12 5.371-12 12-12 12 5.371 12 12Z"/>
  <path fill="#000" fill-rule="evenodd" d="M667 95c0 6.077-4.923 11-11 11s-11-4.923-11-11 4.923-11 11-11 11 4.923 11 11Zm-6 .234a.47.47 0 0 1-.469.47h-3.828v3.827a.47.47 0 0 1-.469.469h-.468a.47.47 0 0 1-.469-.469v-3.828h-3.828a.47.47 0 0 1-.469-.469v-.468a.47.47 0 0 1 .469-.47h3.828V90.47a.47.47 0 0 1 .469-.469h.468a.47.47 0 0 1 .469.469v3.828h3.828a.47.47 0 0 1 .469.469v.468ZM656 86c4.946 0 9 4.004 9 9 0 4.946-4.004 9-9 9-4.946 0-9-4.004-9-9 0-4.946 4.004-9 9-9Z" clip-rule="evenodd"/>
  <path fill="#fff" d="M571 95c0 6.629-5.371 12-12 12s-12-5.371-12-12 5.371-12 12-12 12 5.371 12 12Z"/>
  <path fill="#000" fill-rule="evenodd" d="M570 95c0 6.077-4.923 11-11 11s-11-4.923-11-11 4.923-11 11-11 11 4.923 11 11Zm-6.469.703h-9.062a.47.47 0 0 1-.469-.469v-.468a.47.47 0 0 1 .469-.47h9.062c.258 0 .258 1.407 0 1.407ZM559 86c4.946 0 9 4.004 9 9 0 4.946-4.004 9-9 9-4.946 0-9-4.004-9-9 0-4.946 4.004-9 9-9Z" clip-rule="evenodd"/>
  <g clip-path="url(#s)">
    <path stroke="#FA4526" stroke-linecap="round" stroke-width="8" d="m590.941 290.468-3.978-3.978-27.15-27.15c-1.554-1.554-1.564-4.062-.024-5.602L589.527 224M624.527 290.468l3.978-3.978 27.15-27.15c1.554-1.554 1.564-4.062.024-5.602L625.941 224"/>
    <g filter="url(#t)">
      <path fill="#fff" d="M557 255.912 607.912 205l50.911 50.912-50.911 50.912z"/>
    </g>
    <path fill="#FA4526" fill-rule="evenodd" d="M659.658 256 608 204.342 556.342 256 608 307.658 659.658 256Zm-1.397 0L608 205.739 557.739 256 608 306.261 658.261 256Z" clip-rule="evenodd"/>
    <g clip-path="url(#u)">
      <rect width="21" height="7" x="598" y="283" fill="#FFE1DB" rx="3"/>
      <path fill="#C6270C" fill-rule="evenodd" d="M607 286.5a1.5 1.5 0 1 0 3.001-.001 1.5 1.5 0 0 0-3.001.001Zm-5 0a1.5 1.5 0 1 0 3 0 1.5 1.5 0 0 0-3 0Zm11.5 1.5a1.5 1.5 0 1 1 .001-3.001A1.5 1.5 0 0 1 613.5 288Z" clip-rule="evenodd"/>
      <path fill="#060606" d="M623.523 256h2.412v-12.87h-2.142l-2.988 2.124v2.106l2.718-1.854V256ZM612.765 269.11c1.87 0 3.212-.957 3.443-2.849h-1.43c-.154 1.111-.924 1.661-2.013 1.661-1.452 0-2.299-1.045-2.299-2.816v-.088c0-1.76.902-2.838 2.288-2.838 1.133 0 1.716.539 1.881 1.584h1.485c-.176-1.848-1.573-2.75-3.377-2.75-2.189 0-3.817 1.65-3.817 4.015v.088c0 2.42 1.375 3.993 3.839 3.993Zm7.474 0c1.694 0 2.959-1.166 2.959-2.959v-.088c0-1.76-1.265-2.937-2.948-2.937-1.694 0-2.959 1.188-2.959 2.97v.088c0 1.749 1.254 2.926 2.948 2.926Zm.011-1.034c-1.012 0-1.595-.737-1.595-1.914v-.088c0-1.188.605-1.903 1.595-1.903s1.584.726 1.584 1.914v.077c0 1.177-.594 1.914-1.584 1.914Zm4.451.924h1.331v-3.388c0-.913.605-1.375 1.353-1.375.792 0 1.144.396 1.144 1.265V269h1.331v-3.619c0-1.584-.814-2.255-1.969-2.255-.946 0-1.584.473-1.859 1.034v-.913h-1.331V269Zm8.381 0h1.551l2.079-5.753h-1.309l-1.485 4.389-1.507-4.389h-1.43l2.101 5.753Zm4.902.077c.495 0 .88-.374.88-.858a.866.866 0 0 0-.88-.869.864.864 0 0 0-.869.869c0 .484.385.858.869.858Z"/>
      <path fill="#FFE1DB" d="m573 255.971 16.97-16.97 16.971 16.97-16.97 16.97z"/>
      <mask id="v" width="15" height="14" x="583" y="249" maskUnits="userSpaceOnUse" style="mask-type:alpha">
        <path fill="#fff" d="M592.745 254a4.253 4.253 0 0 1 4.255 4.25 4.253 4.253 0 0 1-4.255 4.25 4.252 4.252 0 0 1-4.254-4.25 4.252 4.252 0 0 1 4.254-4.25Zm-.002 1h.002a3.251 3.251 0 1 0-.001 6.5h.001a.5.5 0 0 1-.5-.5v-.335a1.502 1.502 0 0 1-1.001-1.415v-.01a.5.5 0 0 1 1.001 0v.01a.5.5 0 1 0 .5-.5 1.5 1.5 0 0 1-.5-2.915v-.335a.5.5 0 0 1 .498-.5Zm.005 0h-.002a.5.5 0 0 1 .5.5v.335c.576.204.99.748 1.001 1.39v.025a.5.5 0 0 1-1.001.01v-.01a.5.5 0 1 0-.51.5h.009a1.501 1.501 0 0 1 .501 2.915V261a.5.5 0 0 1-.499.5h-.002a3.252 3.252 0 0 0 3.254-3.25 3.252 3.252 0 0 0-3.251-3.25Zm1.759-5.5a.5.5 0 0 1 .418.775l-2.127 3.225h-.053c-.423 0-.834.055-1.225.159l2.039-3.159h-9.104l3.065 4.75v3.5l.514.151c.056.405.162.793.313 1.158l-1.503-.452a.5.5 0 0 1-.356-.479V255.5l-3.407-5.227a.501.501 0 0 1 .419-.773h11.007Z"/>
      </mask>
      <g mask="url(#v)">
        <path fill="#C6270C" d="M598 248h-16v16h16v-16Z"/>
      </g>
    </g>
  </g>
  <path fill="#fff" d="M668 256c0 6.629-5.371 12-12 12s-12-5.371-12-12 5.371-12 12-12 12 5.371 12 12Z"/>
  <path fill="#000" fill-rule="evenodd" d="M667 256c0 6.077-4.923 11-11 11s-11-4.923-11-11 4.923-11 11-11 11 4.923 11 11Zm-6 .234a.47.47 0 0 1-.469.469h-3.828v3.828a.47.47 0 0 1-.469.469h-.468a.47.47 0 0 1-.469-.469v-3.828h-3.828a.47.47 0 0 1-.469-.469v-.468a.47.47 0 0 1 .469-.469h3.828v-3.828a.47.47 0 0 1 .469-.469h.468a.47.47 0 0 1 .469.469v3.828h3.828a.47.47 0 0 1 .469.469v.468ZM656 247c4.946 0 9 4.004 9 9 0 4.946-4.004 9-9 9-4.946 0-9-4.004-9-9 0-4.946 4.004-9 9-9Z" clip-rule="evenodd"/>
  <path fill="#fff" d="M571 256c0 6.629-5.371 12-12 12s-12-5.371-12-12 5.371-12 12-12 12 5.371 12 12Z"/>
  <path fill="#000" fill-rule="evenodd" d="M570 256c0 6.077-4.923 11-11 11s-11-4.923-11-11 4.923-11 11-11 11 4.923 11 11Zm-6.469.703h-9.062a.47.47 0 0 1-.469-.469v-.468a.47.47 0 0 1 .469-.469h9.062c.258 0 .258 1.406 0 1.406ZM559 247c4.946 0 9 4.004 9 9 0 4.946-4.004 9-9 9-4.946 0-9-4.004-9-9 0-4.946 4.004-9 9-9Z" clip-rule="evenodd"/>
  <g clip-path="url(#w)">
    <path stroke="#FA4526" stroke-linecap="round" stroke-width="8" d="m590.941 452.468-3.978-3.978-27.15-27.15c-1.554-1.554-1.564-4.062-.024-5.602L589.527 386M624.527 452.468l3.978-3.978 27.15-27.15c1.554-1.554 1.564-4.062.024-5.602L625.941 386"/>
    <g filter="url(#x)">
      <path fill="#fff" d="M557 417.912 607.912 367l50.911 50.912-50.911 50.912z"/>
    </g>
    <path fill="#FA4526" fill-rule="evenodd" d="M659.658 418 608 366.342 556.342 418 608 469.658 659.658 418Zm-1.397 0L608 367.739 557.739 418 608 468.261 658.261 418Z" clip-rule="evenodd"/>
    <g clip-path="url(#y)">
      <rect width="21" height="7" x="598" y="445" fill="#FFE1DB" rx="3"/>
      <path fill="#C6270C" fill-rule="evenodd" d="M607 448.5a1.5 1.5 0 1 0 3.001-.001 1.5 1.5 0 0 0-3.001.001Zm-5 0a1.5 1.5 0 1 0 3 0 1.5 1.5 0 0 0-3 0Zm11.5 1.5a1.5 1.5 0 1 1 .001-3.001A1.5 1.5 0 0 1 613.5 450Z" clip-rule="evenodd"/>
      <path fill="#060606" d="M623.523 418h2.412v-12.87h-2.142l-2.988 2.124v2.106l2.718-1.854V418ZM612.765 431.11c1.87 0 3.212-.957 3.443-2.849h-1.43c-.154 1.111-.924 1.661-2.013 1.661-1.452 0-2.299-1.045-2.299-2.816v-.088c0-1.76.902-2.838 2.288-2.838 1.133 0 1.716.539 1.881 1.584h1.485c-.176-1.848-1.573-2.75-3.377-2.75-2.189 0-3.817 1.65-3.817 4.015v.088c0 2.42 1.375 3.993 3.839 3.993Zm7.474 0c1.694 0 2.959-1.166 2.959-2.959v-.088c0-1.76-1.265-2.937-2.948-2.937-1.694 0-2.959 1.188-2.959 2.97v.088c0 1.749 1.254 2.926 2.948 2.926Zm.011-1.034c-1.012 0-1.595-.737-1.595-1.914v-.088c0-1.188.605-1.903 1.595-1.903s1.584.726 1.584 1.914v.077c0 1.177-.594 1.914-1.584 1.914Zm4.451.924h1.331v-3.388c0-.913.605-1.375 1.353-1.375.792 0 1.144.396 1.144 1.265V431h1.331v-3.619c0-1.584-.814-2.255-1.969-2.255-.946 0-1.584.473-1.859 1.034v-.913h-1.331V431Zm8.381 0h1.551l2.079-5.753h-1.309l-1.485 4.389-1.507-4.389h-1.43l2.101 5.753Zm4.902.077c.495 0 .88-.374.88-.858a.866.866 0 0 0-.88-.869.864.864 0 0 0-.869.869c0 .484.385.858.869.858Z"/>
      <path fill="#FFE1DB" d="m573 417.971 16.97-16.97 16.971 16.97-16.97 16.97z"/>
      <mask id="z" width="15" height="14" x="583" y="411" maskUnits="userSpaceOnUse" style="mask-type:alpha">
        <path fill="#fff" d="M592.745 416a4.253 4.253 0 0 1 4.255 4.25 4.253 4.253 0 0 1-4.255 4.25 4.252 4.252 0 0 1-4.254-4.25 4.252 4.252 0 0 1 4.254-4.25Zm-.002 1h.002a3.251 3.251 0 1 0-.001 6.5h.001a.5.5 0 0 1-.5-.5v-.335a1.502 1.502 0 0 1-1.001-1.415v-.01a.5.5 0 0 1 1.001 0v.01a.5.5 0 1 0 .5-.5 1.5 1.5 0 0 1-.5-2.915v-.335a.5.5 0 0 1 .498-.5Zm.005 0h-.002a.5.5 0 0 1 .5.5v.335c.576.204.99.748 1.001 1.39v.025a.5.5 0 0 1-1.001.01v-.01a.5.5 0 1 0-.51.5h.009a1.501 1.501 0 0 1 .501 2.915V423a.5.5 0 0 1-.499.5h-.002a3.252 3.252 0 0 0 3.254-3.25 3.252 3.252 0 0 0-3.251-3.25Zm1.759-5.5a.5.5 0 0 1 .418.775l-2.127 3.225h-.053c-.423 0-.834.055-1.225.159l2.039-3.159h-9.104l3.065 4.75v3.5l.514.151c.056.405.162.793.313 1.158l-1.503-.452a.5.5 0 0 1-.356-.479V417.5l-3.407-5.227a.501.501 0 0 1 .419-.773h11.007Z"/>
      </mask>
      <g mask="url(#z)">
        <path fill="#C6270C" d="M598 410h-16v16h16v-16Z"/>
      </g>
    </g>
  </g>
  <path fill="#fff" d="M668 418c0 6.629-5.371 12-12 12s-12-5.371-12-12 5.371-12 12-12 12 5.371 12 12Z"/>
  <path fill="#000" fill-rule="evenodd" d="M667 418c0 6.077-4.923 11-11 11s-11-4.923-11-11 4.923-11 11-11 11 4.923 11 11Zm-6 .234a.47.47 0 0 1-.469.469h-3.828v3.828a.47.47 0 0 1-.469.469h-.468a.47.47 0 0 1-.469-.469v-3.828h-3.828a.47.47 0 0 1-.469-.469v-.468a.47.47 0 0 1 .469-.469h3.828v-3.828a.47.47 0 0 1 .469-.469h.468a.47.47 0 0 1 .469.469v3.828h3.828a.47.47 0 0 1 .469.469v.468ZM656 409c4.946 0 9 4.004 9 9 0 4.946-4.004 9-9 9-4.946 0-9-4.004-9-9 0-4.946 4.004-9 9-9Z" clip-rule="evenodd"/>
  <path fill="#fff" d="M571 418c0 6.629-5.371 12-12 12s-12-5.371-12-12 5.371-12 12-12 12 5.371 12 12Z"/>
  <path fill="#000" fill-rule="evenodd" d="M570 418c0 6.077-4.923 11-11 11s-11-4.923-11-11 4.923-11 11-11 11 4.923 11 11Zm-6.469.703h-9.062a.47.47 0 0 1-.469-.469v-.468a.47.47 0 0 1 .469-.469h9.062c.258 0 .258 1.406 0 1.406ZM559 409c4.946 0 9 4.004 9 9 0 4.946-4.004 9-9 9-4.946 0-9-4.004-9-9 0-4.946 4.004-9 9-9Z" clip-rule="evenodd"/>
  <path stroke="#060606" stroke-width="2" d="M652 254.5h40"/>
  <g clip-path="url(#A)">
    <path fill="#D30547" fill-rule="evenodd" d="M749.354 288.303a9 9 0 0 0 6.424 2.697H785a8 8 0 0 0 8-8v-56a8 8 0 0 0-8-8h-29.471a8.998 8.998 0 0 0-6.117 2.399l-31.393 29.089a4.001 4.001 0 0 0-.137 5.736l31.472 32.079Z" clip-rule="evenodd"/>
    <rect width="8" height="72" fill="#D30547" rx="4" transform="matrix(1 0 0 -1 814 290)"/>
    <g filter="url(#B)">
      <path fill="#D30547" fill-rule="evenodd" d="M819 304h-51l-49-50.286L768 208h51v96Zm-1-1h-49l-48-49.238L769 209h49v94Z" clip-rule="evenodd"/>
    </g>
    <path fill="#fff" fill-rule="evenodd" d="M768.49 303H818v-94h-49.51L721 253.762 768.49 303Z" clip-rule="evenodd"/>
    <rect width="21" height="7" fill="#FFCFDE" rx="3" transform="matrix(-1 0 0 1 810 288)"/>
    <path fill="#7A0329" fill-rule="evenodd" d="M801 291.5a1.5 1.5 0 1 1-3.001-.001 1.5 1.5 0 0 1 3.001.001Zm5 0a1.5 1.5 0 1 1-3 0 1.5 1.5 0 0 1 3 0Zm-11.5 1.5a1.5 1.5 0 1 0-.001-3.001A1.5 1.5 0 0 0 794.5 293Z" clip-rule="evenodd"/>
    <path fill="#060606" d="M770.456 252h6.032v-1.365h-4.303v-2.717h3.276v-1.3h-3.276v-2.548h4.082v-1.365h-5.811V252Zm7.817 0h1.573v-4.004c0-1.079.715-1.625 1.599-1.625.936 0 1.352.468 1.352 1.495V252h1.573v-4.277c0-1.872-.962-2.665-2.327-2.665-1.118 0-1.872.559-2.197 1.222v-1.079h-1.573V252Zm10.811.13c1.001 0 1.872-.598 2.236-1.274V252h1.573v-9.945h-1.573v4.186c-.377-.676-1.066-1.183-2.171-1.183-1.768 0-3.055 1.378-3.055 3.549v.104c0 2.21 1.287 3.419 2.99 3.419Zm.39-1.248c-1.014 0-1.768-.715-1.768-2.21v-.104c0-1.469.676-2.275 1.833-2.275 1.144 0 1.833.741 1.833 2.236v.104c0 1.521-.806 2.249-1.898 2.249Zm12.125 1.248c2.002 0 3.497-1.378 3.497-3.497v-.104c0-2.08-1.495-3.471-3.484-3.471-2.002 0-3.497 1.404-3.497 3.51v.104c0 2.067 1.482 3.458 3.484 3.458Zm.013-1.222c-1.196 0-1.885-.871-1.885-2.262v-.104c0-1.404.715-2.249 1.885-2.249s1.872.858 1.872 2.262v.091c0 1.391-.702 2.262-1.872 2.262Zm5.532 1.092h1.573v-5.616h1.547v-1.183h-1.547v-.975c0-.585.26-1.001.897-1.001.286 0 .533.052.715.117v-1.222a2.664 2.664 0 0 0-.897-.13c-1.456 0-2.288.806-2.288 2.301v.91h-.923v1.183h.923V252Zm-23.843 16h1.729v-3.536h1.3c1.989 0 3.406-.871 3.406-2.834v-.052c0-1.95-1.365-2.873-3.445-2.873h-2.99V268Zm1.729-4.784v-3.172h1.261c1.105 0 1.755.429 1.755 1.534v.052c0 1.027-.611 1.586-1.755 1.586h-1.261Zm8.072 4.914c1.04 0 1.638-.377 2.08-.962V268h1.547v-4.459c0-1.859-1.196-2.483-2.717-2.483-1.521 0-2.782.663-2.912 2.249h1.521c.078-.676.481-1.066 1.3-1.066.923 0 1.235.455 1.235 1.365v.351h-.845c-1.95 0-3.484.572-3.484 2.158 0 1.417 1.027 2.015 2.275 2.015Zm.377-1.131c-.78 0-1.092-.377-1.092-.949 0-.832.767-1.105 1.963-1.105h.806v.676c0 .871-.715 1.378-1.677 1.378Zm7.708 1.118c.481 0 .819-.078 1.066-.169V266.7c-.221.091-.455.13-.767.13-.494 0-.78-.273-.78-.871v-3.575h1.495v-1.183h-1.495v-1.495h-1.573v1.495h-.91v1.183h.91v3.718c0 1.287.702 2.015 2.054 2.015Zm2.84-.117h1.573v-4.004c0-1.079.715-1.625 1.599-1.625.936 0 1.352.468 1.352 1.495V268h1.573v-4.277c0-1.872-.962-2.665-2.327-2.665-1.118 0-1.872.559-2.197 1.222v-4.225h-1.573V268Z"/>
  </g>
  <path fill="#fff" d="M729 255c0 6.629-5.371 12-12 12s-12-5.371-12-12 5.371-12 12-12 12 5.371 12 12Z"/>
  <path fill="#000" fill-rule="evenodd" d="M728 255c0 6.077-4.923 11-11 11s-11-4.923-11-11 4.923-11 11-11 11 4.923 11 11Zm-6.469.703h-9.062a.47.47 0 0 1-.469-.469v-.468a.47.47 0 0 1 .469-.469h9.062c.258 0 .258 1.406 0 1.406ZM717 246c4.946 0 9 4.004 9 9 0 4.946-4.004 9-9 9-4.946 0-9-4.004-9-9 0-4.946 4.004-9 9-9Z" clip-rule="evenodd"/>
  <defs>
    <clipPath id="c">
      <path fill="#fff" d="M0 0h250v150H0z" transform="translate(239 181)"/>
    </clipPath>
    <clipPath id="g">
      <path fill="#fff" d="M0 0h250v150H0z" transform="translate(238 20)"/>
    </clipPath>
    <clipPath id="k">
      <path fill="#fff" d="M0 0h250v150H0z" transform="translate(238 343)"/>
    </clipPath>
    <clipPath id="o">
      <path fill="#fff" d="M0 0h102v102H0z" transform="translate(557 44)"/>
    </clipPath>
    <clipPath id="q">
      <path fill="#fff" d="M0 0h68v51H0z" transform="translate(572.971 78)"/>
    </clipPath>
    <clipPath id="s">
      <path fill="#fff" d="M0 0h102v102H0z" transform="translate(557 205)"/>
    </clipPath>
    <clipPath id="u">
      <path fill="#fff" d="M0 0h68v51H0z" transform="translate(572.971 239)"/>
    </clipPath>
    <clipPath id="w">
      <path fill="#fff" d="M0 0h102v102H0z" transform="translate(557 367)"/>
    </clipPath>
    <clipPath id="y">
      <path fill="#fff" d="M0 0h68v51H0z" transform="translate(572.971 401)"/>
    </clipPath>
    <clipPath id="A">
      <path fill="#fff" d="M0 0h107v96H0z" transform="matrix(-1 0 0 1 822 208)"/>
    </clipPath>
    <filter id="a" width="162" height="162" x="0" y="174" color-interpolation-filters="sRGB" filterUnits="userSpaceOnUse">
      <feFlood flood-opacity="0" result="BackgroundImageFix"/>
      <feColorMatrix in="SourceAlpha" result="hardAlpha" values="0 0 0 0 0 0 0 0 0 0 0 0 0 0 0 0 0 0 127 0"/>
      <feOffset dy="2"/>
      <feGaussianBlur stdDeviation="4"/>
      <feColorMatrix values="0 0 0 0 0 0 0 0 0 0 0 0 0 0 0 0 0 0 0.15 0"/>
      <feBlend in2="BackgroundImageFix" result="effect1_dropShadow_142_2108"/>
      <feBlend in="SourceGraphic" in2="effect1_dropShadow_142_2108" result="shape"/>
    </filter>
    <filter id="d" width="256" height="164" x="236" y="176" color-interpolation-filters="sRGB" filterUnits="userSpaceOnUse">
      <feFlood flood-opacity="0" result="BackgroundImageFix"/>
      <feColorMatrix in="SourceAlpha" result="hardAlpha" values="0 0 0 0 0 0 0 0 0 0 0 0 0 0 0 0 0 0 127 0"/>
      <feOffset dy="2"/>
      <feGaussianBlur stdDeviation="4"/>
      <feColorMatrix values="0 0 0 0 0 0 0 0 0 0 0 0 0 0 0 0 0 0 0.15 0"/>
      <feBlend in2="BackgroundImageFix" result="effect1_dropShadow_142_2108"/>
      <feBlend in="SourceGraphic" in2="effect1_dropShadow_142_2108" result="shape"/>
    </filter>
    <filter id="h" width="256" height="164" x="235" y="15" color-interpolation-filters="sRGB" filterUnits="userSpaceOnUse">
      <feFlood flood-opacity="0" result="BackgroundImageFix"/>
      <feColorMatrix in="SourceAlpha" result="hardAlpha" values="0 0 0 0 0 0 0 0 0 0 0 0 0 0 0 0 0 0 127 0"/>
      <feOffset dy="2"/>
      <feGaussianBlur stdDeviation="4"/>
      <feColorMatrix values="0 0 0 0 0 0 0 0 0 0 0 0 0 0 0 0 0 0 0.15 0"/>
      <feBlend in2="BackgroundImageFix" result="effect1_dropShadow_142_2108"/>
      <feBlend in="SourceGraphic" in2="effect1_dropShadow_142_2108" result="shape"/>
    </filter>
    <filter id="l" width="256" height="164" x="235" y="338" color-interpolation-filters="sRGB" filterUnits="userSpaceOnUse">
      <feFlood flood-opacity="0" result="BackgroundImageFix"/>
      <feColorMatrix in="SourceAlpha" result="hardAlpha" values="0 0 0 0 0 0 0 0 0 0 0 0 0 0 0 0 0 0 127 0"/>
      <feOffset dy="2"/>
      <feGaussianBlur stdDeviation="4"/>
      <feColorMatrix values="0 0 0 0 0 0 0 0 0 0 0 0 0 0 0 0 0 0 0.15 0"/>
      <feBlend in2="BackgroundImageFix" result="effect1_dropShadow_142_2108"/>
      <feBlend in="SourceGraphic" in2="effect1_dropShadow_142_2108" result="shape"/>
    </filter>
    <filter id="p" width="117.823" height="117.823" x="549" y="38" color-interpolation-filters="sRGB" filterUnits="userSpaceOnUse">
      <feFlood flood-opacity="0" result="BackgroundImageFix"/>
      <feColorMatrix in="SourceAlpha" result="hardAlpha" values="0 0 0 0 0 0 0 0 0 0 0 0 0 0 0 0 0 0 127 0"/>
      <feOffset dy="2"/>
      <feGaussianBlur stdDeviation="4"/>
      <feColorMatrix values="0 0 0 0 0 0 0 0 0 0 0 0 0 0 0 0 0 0 0.15 0"/>
      <feBlend in2="BackgroundImageFix" result="effect1_dropShadow_142_2108"/>
      <feBlend in="SourceGraphic" in2="effect1_dropShadow_142_2108" result="shape"/>
    </filter>
    <filter id="t" width="117.823" height="117.823" x="549" y="199" color-interpolation-filters="sRGB" filterUnits="userSpaceOnUse">
      <feFlood flood-opacity="0" result="BackgroundImageFix"/>
      <feColorMatrix in="SourceAlpha" result="hardAlpha" values="0 0 0 0 0 0 0 0 0 0 0 0 0 0 0 0 0 0 127 0"/>
      <feOffset dy="2"/>
      <feGaussianBlur stdDeviation="4"/>
      <feColorMatrix values="0 0 0 0 0 0 0 0 0 0 0 0 0 0 0 0 0 0 0.15 0"/>
      <feBlend in2="BackgroundImageFix" result="effect1_dropShadow_142_2108"/>
      <feBlend in="SourceGraphic" in2="effect1_dropShadow_142_2108" result="shape"/>
    </filter>
    <filter id="x" width="117.823" height="117.823" x="549" y="361" color-interpolation-filters="sRGB" filterUnits="userSpaceOnUse">
      <feFlood flood-opacity="0" result="BackgroundImageFix"/>
      <feColorMatrix in="SourceAlpha" result="hardAlpha" values="0 0 0 0 0 0 0 0 0 0 0 0 0 0 0 0 0 0 127 0"/>
      <feOffset dy="2"/>
      <feGaussianBlur stdDeviation="4"/>
      <feColorMatrix values="0 0 0 0 0 0 0 0 0 0 0 0 0 0 0 0 0 0 0.15 0"/>
      <feBlend in2="BackgroundImageFix" result="effect1_dropShadow_142_2108"/>
      <feBlend in="SourceGraphic" in2="effect1_dropShadow_142_2108" result="shape"/>
    </filter>
    <filter id="B" width="116" height="112" x="711" y="198" color-interpolation-filters="sRGB" filterUnits="userSpaceOnUse">
      <feFlood flood-opacity="0" result="BackgroundImageFix"/>
      <feColorMatrix in="SourceAlpha" result="hardAlpha" values="0 0 0 0 0 0 0 0 0 0 0 0 0 0 0 0 0 0 127 0"/>
      <feOffset dy="-2"/>
      <feGaussianBlur stdDeviation="4"/>
      <feColorMatrix values="0 0 0 0 0 0 0 0 0 0 0 0 0 0 0 0 0 0 0.15 0"/>
      <feBlend in2="BackgroundImageFix" result="effect1_dropShadow_142_2108"/>
      <feBlend in="SourceGraphic" in2="effect1_dropShadow_142_2108" result="shape"/>
    </filter>
  </defs>
</svg>