<svg xmlns="http://www.w3.org/2000/svg" fill="none" viewBox="0 0 845 378">
  <path fill="#00B760" d="M137.131 136.99a4.41 4.41 0 0 0-6.235-.215 4.41 4.41 0 0 0-.215 6.235l6.45-6.02Zm-10.24 104.879a4.413 4.413 0 0 0 6.217 6.262l-6.217-6.262ZM31.319 143.01a4.411 4.411 0 1 0-6.45-6.02l6.45 6.02ZM28.89 248.131a4.413 4.413 0 0 0 6.217-6.262l-6.217 6.262Zm101.79-105.121c6.017 6.447 10.683 12.736 13.881 20.23 3.193 7.481 5.029 16.416 5.026 28.261l8.824.002c.003-12.796-1.988-22.949-5.734-31.727-3.741-8.765-9.126-15.907-15.547-22.786l-6.45 6.02Zm18.907 48.491c-.006 23.064-9.619 37.383-22.697 50.368l6.217 6.262c14.073-13.974 25.296-30.41 25.304-56.628l-8.824-.002ZM24.868 136.99c-6.42 6.879-11.805 14.021-15.546 22.786-3.746 8.778-5.737 18.931-5.734 31.727l8.824-.002c-.004-11.845 1.833-20.78 5.025-28.261 3.198-7.494 7.864-13.783 13.882-20.23l-6.45-6.02Zm-21.28 54.513c.007 26.218 11.23 42.654 25.303 56.628l6.217-6.262c-13.078-12.985-22.69-27.304-22.696-50.368l-8.824.002Z"/>
  <g filter="url(#a)">
    <rect width="146" height="146" x="8" y="117" fill="#fff" rx="72.549"/>
  </g>
  <mask id="b" width="146" height="146" x="8" y="117" maskUnits="userSpaceOnUse" style="mask-type:alpha">
    <rect width="146" height="146" x="8" y="117" fill="#fff" rx="72.549"/>
  </mask>
  <g mask="url(#b)">
    <path fill="#fff" d="M7 204h148v68H7z"/>
  </g>
  <path fill="#00B760" fill-rule="evenodd" d="M81 264c40.869 0 74-33.131 74-74s-33.131-74-74-74c-40.87 0-74 33.131-74 74s33.13 74 74 74Zm0-1.007c40.313 0 72.993-32.68 72.993-72.993 0-40.313-32.68-72.993-72.993-72.993-40.313 0-72.993 32.68-72.993 72.993 0 40.313 32.68 72.993 72.993 72.993Z" clip-rule="evenodd"/>
  <path fill="#000" d="M63.836 221.12c2.424 0 3.912-1.44 3.912-3.816v-.792h-3.732v1.2h2.16c-.048 1.188-.708 2.16-2.316 2.16-1.8 0-2.652-1.26-2.652-3.096v-.096c0-1.884.972-3.132 2.652-3.132 1.116 0 1.884.492 2.076 1.632h1.596c-.228-2.052-1.86-2.892-3.696-2.892-2.508 0-4.284 1.824-4.284 4.38v.096c0 2.532 1.536 4.356 4.284 4.356Zm8.093 0c1.608 0 2.676-.72 2.88-2.04h-1.404c-.108.612-.564.96-1.44.96-1.08 0-1.68-.672-1.728-1.86h4.596v-.42c0-2.244-1.404-3.168-2.964-3.168-1.788 0-3.12 1.296-3.12 3.24v.096c0 1.98 1.332 3.192 3.18 3.192Zm-1.668-3.912c.144-.972.732-1.56 1.608-1.56.9 0 1.452.48 1.524 1.56H70.26ZM76.13 221h1.452v-3.696c0-.996.66-1.5 1.476-1.5.864 0 1.248.432 1.248 1.38V221h1.452v-3.948c0-1.728-.888-2.46-2.148-2.46-1.032 0-1.728.516-2.028 1.128v-.996H76.13V221Zm9.728 0h1.632l2.016-3.348L91.522 221h1.824l-2.748-4.44 2.532-4.14h-1.644l-1.812 3.048-1.824-3.048h-1.8l2.568 4.176-2.76 4.404Zm13.219 0h1.524l1.74-6.252 1.692 6.252h1.596l2.148-8.58h-1.488l-1.536 6.336-1.704-6.336h-1.32l-1.668 6.3-1.488-6.3H96.94l2.136 8.58Zm12.157.12c1.848 0 3.228-1.272 3.228-3.228v-.096c0-1.92-1.38-3.204-3.216-3.204-1.848 0-3.228 1.296-3.228 3.24v.096c0 1.908 1.368 3.192 3.216 3.192Zm.012-1.128c-1.104 0-1.74-.804-1.74-2.088v-.096c0-1.296.66-2.076 1.74-2.076s1.728.792 1.728 2.088v.084c0 1.284-.648 2.088-1.728 2.088Zm4.528 1.008h1.452v-3.756c0-.96.66-1.44 1.38-1.44.708 0 1.116.396 1.116 1.32V221h1.452v-3.756c0-.96.66-1.44 1.38-1.44.72 0 1.116.396 1.116 1.32V221h1.452v-3.972c0-1.728-.936-2.436-2.088-2.436-.78 0-1.644.348-2.124 1.128-.312-.78-.96-1.128-1.776-1.128-.924 0-1.608.504-1.908 1.092v-.96h-1.452V221Zm13.776.12c1.608 0 2.676-.72 2.88-2.04h-1.404c-.108.612-.564.96-1.44.96-1.08 0-1.68-.672-1.728-1.86h4.596v-.42c0-2.244-1.404-3.168-2.964-3.168-1.788 0-3.12 1.296-3.12 3.24v.096c0 1.98 1.332 3.192 3.18 3.192Zm-1.668-3.912c.144-.972.732-1.56 1.608-1.56.9 0 1.452.48 1.524 1.56h-3.132Zm5.869 3.792h1.452v-3.696c0-.996.66-1.5 1.476-1.5.864 0 1.248.432 1.248 1.38V221h1.452v-3.948c0-1.728-.888-2.46-2.148-2.46-1.032 0-1.728.516-2.028 1.128v-.996h-1.452V221ZM59.247 238h6.227v-.923h-4.485l2.561-2.496c1.144-1.118 1.872-2.236 1.872-3.38 0-1.599-1.092-2.613-2.808-2.613-1.768 0-2.873 1.157-3.016 2.977h1.053c.182-1.456.884-2.067 1.963-2.067 1.053 0 1.664.624 1.664 1.664 0 .949-.494 1.794-1.339 2.691l-3.692 3.887v.26Zm10.721.117c1.924 0 3.302-1.014 3.302-2.704 0-1.287-.702-2.054-1.794-2.34.845-.351 1.47-.975 1.47-2.028 0-1.287-1.028-2.457-2.796-2.457-1.768 0-2.977 1.209-3.042 2.678h.988c.117-1.053.897-1.755 2.054-1.755 1.131 0 1.69.676 1.69 1.56 0 1.014-.533 1.586-1.742 1.586h-.65v.949h.702c1.313 0 1.963.611 1.963 1.807 0 1.092-.663 1.794-2.119 1.794-1.469 0-2.132-.845-2.236-1.95h-1.04c.065 1.625 1.274 2.86 3.25 2.86Zm4.992 1.482 1.599-2.717-1.053-.494-1.248 2.847.702.364ZM77.706 238h6.227v-.923h-4.485l2.561-2.496c1.144-1.118 1.872-2.236 1.872-3.38 0-1.599-1.092-2.613-2.808-2.613-1.768 0-2.873 1.157-3.016 2.977h1.053c.182-1.456.884-2.067 1.963-2.067 1.053 0 1.664.624 1.664 1.664 0 .949-.494 1.794-1.339 2.691l-3.692 3.887v.26Zm10.776.117c1.573 0 3.198-.923 3.198-2.782 0-1.196-.702-2.002-1.78-2.392.857-.377 1.43-1.027 1.43-1.963 0-1.456-1.405-2.392-2.848-2.392-1.43 0-2.86.91-2.86 2.418 0 .91.52 1.612 1.404 1.95-.988.351-1.755 1.157-1.755 2.405 0 1.846 1.69 2.756 3.211 2.756Zm.04-5.564c-.95 0-1.756-.559-1.756-1.534 0-.962.754-1.547 1.716-1.547s1.703.624 1.703 1.521c0 .988-.676 1.56-1.664 1.56Zm-.04 4.641c-1.079 0-2.054-.65-2.054-1.872 0-1.235.975-1.872 2.08-1.872s2.015.624 2.015 1.846c0 1.235-.897 1.898-2.04 1.898Zm7.715.923c1.924 0 3.302-1.014 3.302-2.704 0-1.287-.702-2.054-1.794-2.34.845-.351 1.469-.975 1.469-2.028 0-1.287-1.027-2.457-2.795-2.457s-2.977 1.209-3.042 2.678h.988c.117-1.053.897-1.755 2.054-1.755 1.13 0 1.69.676 1.69 1.56 0 1.014-.533 1.586-1.742 1.586h-.65v.949h.702c1.313 0 1.963.611 1.963 1.807 0 1.092-.663 1.794-2.12 1.794-1.468 0-2.131-.845-2.235-1.95h-1.04c.065 1.625 1.274 2.86 3.25 2.86Zm4.992 1.482 1.599-2.717-1.053-.494-1.248 2.847.702.364Zm5.875-1.495c2.223 0 3.497-1.703 3.497-4.784v-.585c0-2.678-1.144-4.16-3.341-4.16-1.963 0-3.211 1.248-3.211 3.107 0 1.755 1.248 3.042 3.055 3.042 1.066 0 1.963-.481 2.405-1.235-.026 2.47-.897 3.692-2.379 3.692-1.196 0-1.716-.559-1.924-1.469h-1.092c.247 1.495 1.274 2.392 2.99 2.392Zm.169-4.264c-1.261 0-2.067-.871-2.067-2.21 0-1.313.832-2.171 2.054-2.171 1.248 0 2.145.845 2.145 2.366 0 1.209-.884 2.015-2.132 2.015Zm7.766 4.277c1.924 0 3.302-1.014 3.302-2.704 0-1.287-.702-2.054-1.794-2.34.845-.351 1.469-.975 1.469-2.028 0-1.287-1.027-2.457-2.795-2.457s-2.977 1.209-3.042 2.678h.988c.117-1.053.897-1.755 2.054-1.755 1.131 0 1.69.676 1.69 1.56 0 1.014-.533 1.586-1.742 1.586h-.65v.949h.702c1.313 0 1.963.611 1.963 1.807 0 1.092-.663 1.794-2.119 1.794-1.469 0-2.132-.845-2.236-1.95h-1.04c.065 1.625 1.274 2.86 3.25 2.86Zm8.196 0c1.963 0 3.211-1.248 3.211-3.107 0-1.703-1.196-3.042-3.042-3.042-1.079 0-1.95.507-2.392 1.261.052-2.457 1.04-3.718 2.444-3.718 1.04 0 1.508.468 1.716 1.326h1.079c-.247-1.495-1.274-2.249-2.717-2.249-2.132 0-3.64 1.742-3.64 5.083v.221c0 2.327.806 4.225 3.341 4.225Zm0-.884c-1.248 0-2.145-.806-2.145-2.327 0-1.209.884-2.054 2.132-2.054 1.261 0 2.067.871 2.067 2.21 0 1.313-.832 2.171-2.054 2.171Z"/>
  <rect width="28" height="28" x="27" y="209" fill="#CCF0DF" rx="14"/>
  <path fill="#006B38" d="M36.744 226.117c2.392 0 3.744-1.703 3.744-4.758v-.481c0-2.678-1.196-4.316-3.627-4.316-2.12 0-3.445 1.287-3.445 3.185 0 1.833 1.287 3.016 3.08 3.016 1.106 0 1.86-.468 2.289-1.17-.026 2.119-.741 3.185-2.067 3.185-1.001 0-1.43-.468-1.6-1.196h-1.624c.22 1.599 1.352 2.535 3.25 2.535Zm.117-4.563c-1.066 0-1.742-.741-1.742-1.859 0-1.105.689-1.846 1.729-1.846 1.066 0 1.807.728 1.807 1.976 0 1.027-.741 1.729-1.794 1.729Zm8.253 4.576c1.872 0 3.458-.975 3.458-2.808 0-1.131-.637-1.937-1.73-2.327.833-.364 1.379-1.001 1.379-1.95 0-1.534-1.443-2.47-3.107-2.47-1.612 0-3.12.923-3.12 2.496 0 .923.52 1.599 1.378 1.937-1.04.364-1.742 1.183-1.742 2.366 0 1.82 1.638 2.756 3.484 2.756Zm.026-5.629c-.806 0-1.495-.494-1.495-1.339 0-.832.65-1.339 1.469-1.339.832 0 1.469.533 1.469 1.326 0 .845-.598 1.352-1.443 1.352Zm-.026 4.329c-.936 0-1.742-.559-1.742-1.599s.806-1.599 1.755-1.599c.962 0 1.716.559 1.716 1.586 0 1.04-.741 1.612-1.73 1.612Z"/>
  <path fill="#fff" d="M49 228a6 6 0 1 0 .001 12.001A6 6 0 0 0 49 228Z"/>
  <path fill="#00B760" fill-rule="evenodd" d="M43 234a6 6 0 1 1 12.001.001A6 6 0 0 1 43 234Zm5.771 1.951 2.82-3.91c.051-.071 0-.17-.087-.17h-.628a.428.428 0 0 0-.346.178l-2.106 2.919-.953-1.323a.428.428 0 0 0-.347-.178h-.629a.107.107 0 0 0-.087.17l1.67 2.314c.17.237.523.237.693 0Z" clip-rule="evenodd"/>
  <rect width="21" height="7" x="71" y="248" fill="#CCF0DF" rx="3.5"/>
  <path fill="#006B38" fill-rule="evenodd" d="M80 251.5a1.5 1.5 0 1 0 3 0 1.5 1.5 0 0 0-3 0Zm-5 0a1.5 1.5 0 1 0 3 0 1.5 1.5 0 0 0-3 0Zm11.5 1.5a1.5 1.5 0 1 1 0-3 1.5 1.5 0 0 1 0 3Z" clip-rule="evenodd"/>
  <path fill="#fff" d="M179 190c0 6.629-5.371 12-12 12s-12-5.371-12-12 5.371-12 12-12 12 5.371 12 12Z"/>
  <path fill="#000" fill-rule="evenodd" d="M178 190c0 6.077-4.923 11-11 11s-11-4.923-11-11 4.923-11 11-11 11 4.923 11 11Zm-6 .234a.47.47 0 0 1-.469.469h-3.828v3.828a.47.47 0 0 1-.469.469h-.468a.47.47 0 0 1-.469-.469v-3.828h-3.828a.47.47 0 0 1-.469-.469v-.468a.47.47 0 0 1 .469-.469h3.828v-3.828a.47.47 0 0 1 .469-.469h.468a.47.47 0 0 1 .469.469v3.828h3.828a.47.47 0 0 1 .469.469v.468ZM167 181c4.946 0 9 4.004 9 9 0 4.946-4.004 9-9 9-4.946 0-9-4.004-9-9 0-4.946 4.004-9 9-9Z" clip-rule="evenodd"/>
  <path stroke="#060606" stroke-width="2" d="M218 96h-20.429a4 4 0 0 0-4 4v86a4 4 0 0 1-4 4H182M218 284h-20.429a4 4 0 0 1-4-4v-86a4 4 0 0 0-4-4H178"/>
  <path fill="#fff" d="M505 95c0 6.629-5.371 12-12 12s-12-5.371-12-12 5.371-12 12-12 12 5.371 12 12Z"/>
  <path fill="#000" fill-rule="evenodd" d="M504 95c0 6.077-4.923 11-11 11s-11-4.923-11-11 4.923-11 11-11 11 4.923 11 11Zm-6 .234a.47.47 0 0 1-.469.47h-3.828v3.827a.47.47 0 0 1-.469.469h-.468a.47.47 0 0 1-.469-.469v-3.828h-3.828a.47.47 0 0 1-.469-.469v-.468a.47.47 0 0 1 .469-.47h3.828V90.47a.47.47 0 0 1 .469-.469h.468a.47.47 0 0 1 .469.469v3.828h3.828a.47.47 0 0 1 .469.469v.468ZM493 86c4.946 0 9 4.004 9 9 0 4.946-4.004 9-9 9-4.946 0-9-4.004-9-9 0-4.946 4.004-9 9-9Z" clip-rule="evenodd"/>
  <path fill="#fff" d="M239 95c0 6.629-5.371 12-12 12s-12-5.371-12-12 5.371-12 12-12 12 5.371 12 12Z"/>
  <path fill="#000" fill-rule="evenodd" d="M238 95c0 6.077-4.923 11-11 11s-11-4.923-11-11 4.923-11 11-11 11 4.923 11 11Zm-6.469.703h-9.062a.47.47 0 0 1-.469-.469v-.468a.47.47 0 0 1 .469-.47h9.062c.258 0 .258 1.407 0 1.407ZM227 86c4.946 0 9 4.004 9 9 0 4.946-4.004 9-9 9-4.946 0-9-4.004-9-9 0-4.946 4.004-9 9-9Z" clip-rule="evenodd"/>
  <g clip-path="url(#c)">
    <rect width="250" height="132" x="235" y="29" fill="#769BD6" rx="4"/>
    <g filter="url(#d)">
      <path fill="#fff" d="M240 21h240v148H240z"/>
    </g>
    <path stroke="#DADADA" stroke-linecap="square" d="M479.5 116.5h-239"/>
    <path fill="#769BD6" fill-rule="evenodd" d="M481 20H239v150h242V20Zm-1 1H240v148h240V21Z" clip-rule="evenodd"/>
    <path fill="#E3EDFC" d="M240 21h240v96H240z"/>
    <mask id="e" width="28" height="28" x="346" y="55" maskUnits="userSpaceOnUse" style="mask-type:alpha">
      <path fill="#fff" d="M372 55a2 2 0 0 1 2 2v24a2 2 0 0 1-2 2h-24a2 2 0 0 1-2-2V57a2 2 0 0 1 2-2h24Zm0 22h-24v4h24v-4Zm0-20h-24v18.924l5.731-6.164a1 1 0 0 1 1.414-.052l.026.025L358.438 73l5.296-6.918a1 1 0 0 1 1.612.033L372 75.578V57Zm-17.562 15-2.813 3h5.625l-2.812-3Zm10.062-3.438L359.625 75h9.75l-4.875-6.438ZM354 61a2 2 0 1 1 0 4 2 2 0 0 1 0-4Z"/>
    </mask>
    <g mask="url(#e)">
      <path fill="#003285" d="M376 53h-32v32h32V53Z"/>
    </g>
    <path fill="#E3EDFC" d="M299 143h108v18H299z"/>
    <path fill="#060606" d="M304.628 155.099c1.452 0 2.431-.781 2.431-2.486v-5.478h-1.474v5.445c0 .968-.462 1.342-1.177 1.342-.462 0-.737-.088-1.012-.198v1.144c.253.132.583.231 1.232.231Zm6.872.011c1.694 0 2.959-1.166 2.959-2.959v-.088c0-1.76-1.265-2.937-2.948-2.937-1.694 0-2.959 1.188-2.959 2.97v.088c0 1.749 1.254 2.926 2.948 2.926Zm.011-1.034c-1.012 0-1.595-.737-1.595-1.914v-.088c0-1.188.605-1.903 1.595-1.903s1.584.726 1.584 1.914v.077c0 1.177-.594 1.914-1.584 1.914Zm6.375 1.034c.935 0 1.54-.451 1.826-1.012V155h1.331v-5.753h-1.331v3.421c0 .913-.627 1.375-1.342 1.375-.77 0-1.133-.396-1.133-1.265v-3.531h-1.331v3.685c0 1.529.847 2.178 1.98 2.178Zm5.035-.11h1.331v-2.992c0-1.221.704-1.595 1.87-1.606v-1.243c-.968.011-1.507.44-1.87 1.166v-1.078h-1.331V155Zm4.673 0h1.331v-3.388c0-.913.605-1.375 1.353-1.375.792 0 1.144.396 1.144 1.265V155h1.331v-3.619c0-1.584-.814-2.255-1.969-2.255-.946 0-1.584.473-1.859 1.034v-.913h-1.331V155Zm9.522.11c1.474 0 2.453-.66 2.64-1.87h-1.287c-.099.561-.517.88-1.32.88-.99 0-1.54-.616-1.584-1.705h4.213v-.385c0-2.057-1.287-2.904-2.717-2.904-1.639 0-2.86 1.188-2.86 2.97v.088c0 1.815 1.221 2.926 2.915 2.926Zm-1.529-3.586c.132-.891.671-1.43 1.474-1.43.825 0 1.331.44 1.397 1.43h-2.871Zm6.178 5.445h1.309l3.135-7.722h-1.298l-1.408 3.707-1.529-3.707h-1.441l2.277 5.17-1.045 2.552ZM352.111 155h1.474v-6.71h2.189v-1.155h-5.852v1.155h2.189V155Zm5.818.11c.88 0 1.386-.319 1.76-.814V155h1.309v-3.773c0-1.573-1.012-2.101-2.299-2.101s-2.354.561-2.464 1.903h1.287c.066-.572.407-.902 1.1-.902.781 0 1.045.385 1.045 1.155v.297h-.715c-1.65 0-2.948.484-2.948 1.826 0 1.199.869 1.705 1.925 1.705Zm.319-.957c-.66 0-.924-.319-.924-.803 0-.704.649-.935 1.661-.935h.682v.572c0 .737-.605 1.166-1.419 1.166Zm4.575.847h1.331v-2.992c0-1.221.704-1.595 1.87-1.606v-1.243c-.968.011-1.507.44-1.87 1.166v-1.078h-1.331V155Zm7.007 2.112c1.782 0 2.915-.847 2.926-2.541v-5.324h-1.331v.88c-.33-.572-.902-1.001-1.848-1.001-1.485 0-2.585 1.21-2.585 2.827v.077c0 1.661 1.111 2.739 2.552 2.739a2.24 2.24 0 0 0 1.881-1.067v.847c0 1.034-.572 1.551-1.606 1.551-.869 0-1.309-.33-1.419-.902h-1.342c.154 1.1.968 1.914 2.772 1.914Zm.044-3.366c-.858 0-1.518-.66-1.518-1.727v-.088c0-1.045.572-1.76 1.562-1.76.957 0 1.551.649 1.551 1.738v.077c0 1.1-.671 1.76-1.595 1.76Zm7.294 1.364c1.474 0 2.453-.66 2.64-1.87h-1.287c-.099.561-.517.88-1.32.88-.99 0-1.54-.616-1.584-1.705h4.213v-.385c0-2.057-1.287-2.904-2.717-2.904-1.639 0-2.86 1.188-2.86 2.97v.088c0 1.815 1.221 2.926 2.915 2.926Zm-1.529-3.586c.132-.891.671-1.43 1.474-1.43.825 0 1.331.44 1.397 1.43h-2.871Zm7.638 3.575c.407 0 .693-.066.902-.143V153.9c-.187.077-.385.11-.649.11-.418 0-.66-.231-.66-.737v-3.025h1.265v-1.001h-1.265v-1.265h-1.331v1.265h-.77v1.001h.77v3.146c0 1.089.594 1.705 1.738 1.705Zm3.084-6.798c.44 0 .792-.33.792-.759 0-.44-.352-.77-.792-.77-.44 0-.792.33-.792.77 0 .429.352.759.792.759Zm-.649 6.699h1.331v-5.753h-1.331V155Zm3.254 0h1.331v-3.388c0-.913.605-1.375 1.353-1.375.792 0 1.144.396 1.144 1.265V155h1.331v-3.619c0-1.584-.814-2.255-1.969-2.255-.946 0-1.584.473-1.859 1.034v-.913h-1.331V155Zm9.445 2.112c1.782 0 2.915-.847 2.926-2.541v-5.324h-1.331v.88c-.33-.572-.902-1.001-1.848-1.001-1.485 0-2.585 1.21-2.585 2.827v.077c0 1.661 1.111 2.739 2.552 2.739a2.24 2.24 0 0 0 1.881-1.067v.847c0 1.034-.572 1.551-1.606 1.551-.869 0-1.309-.33-1.419-.902h-1.342c.154 1.1.968 1.914 2.772 1.914Zm.044-3.366c-.858 0-1.518-.66-1.518-1.727v-.088c0-1.045.572-1.76 1.562-1.76.957 0 1.551.649 1.551 1.738v.077c0 1.1-.671 1.76-1.595 1.76ZM300.066 136h1.729v-3.809h3.172v-1.339h-3.172v-2.769h4.03v-1.378h-5.759V136Zm8.633.13c1.04 0 1.638-.377 2.08-.962V136h1.547v-4.459c0-1.859-1.196-2.483-2.717-2.483-1.521 0-2.782.663-2.912 2.249h1.521c.078-.676.481-1.066 1.3-1.066.923 0 1.235.455 1.235 1.365v.351h-.845c-1.95 0-3.484.572-3.484 2.158 0 1.417 1.027 2.015 2.275 2.015Zm.377-1.131c-.78 0-1.092-.377-1.092-.949 0-.832.767-1.105 1.963-1.105h.806v.676c0 .871-.715 1.378-1.677 1.378Zm5.053 1.001h1.573v-3.536c0-1.443.832-1.885 2.21-1.898v-1.469c-1.144.013-1.781.52-2.21 1.378v-1.274h-1.573V136Zm5.167 0h1.573v-4.069c0-1.04.715-1.56 1.495-1.56.767 0 1.209.429 1.209 1.43V136h1.573v-4.069c0-1.04.715-1.56 1.495-1.56.78 0 1.209.429 1.209 1.43V136h1.573v-4.303c0-1.872-1.014-2.639-2.262-2.639-.845 0-1.781.377-2.301 1.222-.338-.845-1.04-1.222-1.924-1.222-1.001 0-1.742.546-2.067 1.183v-1.04h-1.573V136Zm17.346.117c.481 0 .819-.078 1.066-.169V134.7c-.221.091-.455.13-.767.13-.494 0-.78-.273-.78-.871v-3.575h1.495v-1.183h-1.495v-1.495h-1.573v1.495h-.91v1.183h.91v3.718c0 1.287.702 2.015 2.054 2.015Zm5.513.013c2.002 0 3.497-1.378 3.497-3.497v-.104c0-2.08-1.495-3.471-3.484-3.471-2.002 0-3.497 1.404-3.497 3.51v.104c0 2.067 1.482 3.458 3.484 3.458Zm.013-1.222c-1.196 0-1.885-.871-1.885-2.262v-.104c0-1.404.715-2.249 1.885-2.249s1.872.858 1.872 2.262v.091c0 1.391-.702 2.262-1.872 2.262Zm8.133 1.092h1.729v-3.809h3.172v-1.339h-3.172v-2.769h4.03v-1.378h-5.759V136Zm9.806.13c2.002 0 3.497-1.378 3.497-3.497v-.104c0-2.08-1.495-3.471-3.484-3.471-2.002 0-3.497 1.404-3.497 3.51v.104c0 2.067 1.482 3.458 3.484 3.458Zm.013-1.222c-1.196 0-1.885-.871-1.885-2.262v-.104c0-1.404.715-2.249 1.885-2.249s1.872.858 1.872 2.262v.091c0 1.391-.702 2.262-1.872 2.262Zm4.905 1.092h1.573v-3.536c0-1.443.832-1.885 2.21-1.898v-1.469c-1.144.013-1.781.52-2.21 1.378v-1.274h-1.573V136Zm5.167 0h1.573v-3.341l2.548 3.341h1.82l-2.86-3.679 2.639-3.12h-1.716l-2.431 2.99v-6.136h-1.573V136Zm12.614 0h2.002l3.146-9.295h-1.625l-2.431 7.54-2.418-7.54h-1.807l3.133 9.295Zm7.057-7.917c.52 0 .936-.39.936-.897 0-.52-.416-.91-.936-.91s-.936.39-.936.91c0 .507.416.897.936.897Zm-.767 7.917h1.573v-6.799h-1.573V136Zm6.038.13c1.001 0 1.872-.598 2.236-1.274V136h1.573v-9.945h-1.573v4.186c-.377-.676-1.066-1.183-2.171-1.183-1.768 0-3.055 1.378-3.055 3.549v.104c0 2.21 1.287 3.419 2.99 3.419Zm.39-1.248c-1.014 0-1.768-.715-1.768-2.21v-.104c0-1.469.676-2.275 1.833-2.275 1.144 0 1.833.741 1.833 2.236v.104c0 1.521-.806 2.249-1.898 2.249Zm8.279 1.248c1.742 0 2.899-.78 3.12-2.21h-1.521c-.117.663-.611 1.04-1.56 1.04-1.17 0-1.82-.728-1.872-2.015h4.979v-.455c0-2.431-1.521-3.432-3.211-3.432-1.937 0-3.38 1.404-3.38 3.51v.104c0 2.145 1.443 3.458 3.445 3.458Zm-1.807-4.238c.156-1.053.793-1.69 1.742-1.69.975 0 1.573.52 1.651 1.69h-3.393Zm9.387 4.238c2.002 0 3.497-1.378 3.497-3.497v-.104c0-2.08-1.495-3.471-3.484-3.471-2.002 0-3.497 1.404-3.497 3.51v.104c0 2.067 1.482 3.458 3.484 3.458Zm.013-1.222c-1.196 0-1.885-.871-1.885-2.262v-.104c0-1.404.715-2.249 1.885-2.249s1.872.858 1.872 2.262v.091c0 1.391-.702 2.262-1.872 2.262Z"/>
    <path fill="#E3EDFC" d="M249 125h36v36h-36z"/>
    <mask id="f" width="22" height="22" x="256" y="132" maskUnits="userSpaceOnUse" style="mask-type:alpha">
      <path fill="#fff" d="M276 132.5a1.5 1.5 0 0 1 1.5 1.5v18a1.5 1.5 0 0 1-1.5 1.5h-18a1.5 1.5 0 0 1-1.5-1.5v-18a1.5 1.5 0 0 1 1.5-1.5h18Zm0 1.5h-18v18h18v-18Zm-12.375 4.5c.175 0 .347.041.503.119l6.75 3.375a1.124 1.124 0 0 1 0 2.012l-6.75 3.375a1.124 1.124 0 0 1-1.628-1.006v-6.75c0-.621.504-1.125 1.125-1.125Zm.352 2.039v4.922l5.531-2.461-5.531-2.461Z"/>
    </mask>
    <g mask="url(#f)">
      <path fill="#003285" d="M279 131h-24v24h24v-24Z"/>
    </g>
    <rect width="21" height="7" x="452" y="154" fill="#E3EDFC" rx="3"/>
    <path fill="#003285" fill-rule="evenodd" d="M461 157.5a1.5 1.5 0 1 0 3.001-.001 1.5 1.5 0 0 0-3.001.001Zm-5 0a1.5 1.5 0 1 0 3 0 1.5 1.5 0 0 0-3 0Zm11.5 1.5a1.5 1.5 0 1 1 .001-3.001A1.5 1.5 0 0 1 467.5 159Z" clip-rule="evenodd"/>
  </g>
  <path fill="#fff" d="M505 283c0 6.629-5.371 12-12 12s-12-5.371-12-12 5.371-12 12-12 12 5.371 12 12Z"/>
  <path fill="#000" fill-rule="evenodd" d="M504 283c0 6.077-4.923 11-11 11s-11-4.923-11-11 4.923-11 11-11 11 4.923 11 11Zm-6 .234a.47.47 0 0 1-.469.469h-3.828v3.828a.47.47 0 0 1-.469.469h-.468a.47.47 0 0 1-.469-.469v-3.828h-3.828a.47.47 0 0 1-.469-.469v-.468a.47.47 0 0 1 .469-.469h3.828v-3.828a.47.47 0 0 1 .469-.469h.468a.47.47 0 0 1 .469.469v3.828h3.828a.47.47 0 0 1 .469.469v.468ZM493 274c4.946 0 9 4.004 9 9 0 4.946-4.004 9-9 9-4.946 0-9-4.004-9-9 0-4.946 4.004-9 9-9Z" clip-rule="evenodd"/>
  <path fill="#fff" d="M239 283c0 6.629-5.371 12-12 12s-12-5.371-12-12 5.371-12 12-12 12 5.371 12 12Z"/>
  <path fill="#000" fill-rule="evenodd" d="M238 283c0 6.077-4.923 11-11 11s-11-4.923-11-11 4.923-11 11-11 11 4.923 11 11Zm-6.469.703h-9.062a.47.47 0 0 1-.469-.469v-.468a.47.47 0 0 1 .469-.469h9.062c.258 0 .258 1.406 0 1.406ZM227 274c4.946 0 9 4.004 9 9 0 4.946-4.004 9-9 9-4.946 0-9-4.004-9-9 0-4.946 4.004-9 9-9Z" clip-rule="evenodd"/>
  <g clip-path="url(#g)">
    <rect width="250" height="132" x="235" y="217" fill="#769BD6" rx="4"/>
    <g filter="url(#h)">
      <path fill="#fff" d="M240 209h240v148H240z"/>
    </g>
    <path stroke="#DADADA" stroke-linecap="square" d="M479.5 304.5h-239"/>
    <path fill="#769BD6" fill-rule="evenodd" d="M481 208H239v150h242V208Zm-1 1H240v148h240V209Z" clip-rule="evenodd"/>
    <path fill="#E3EDFC" d="M240 209h240v96H240z"/>
    <mask id="i" width="28" height="28" x="346" y="243" maskUnits="userSpaceOnUse" style="mask-type:alpha">
      <path fill="#fff" d="M372 243a2 2 0 0 1 2 2v24a2 2 0 0 1-2 2h-24a2 2 0 0 1-2-2v-24a2 2 0 0 1 2-2h24Zm0 22h-24v4h24v-4Zm0-20h-24v18.924l5.731-6.164a1 1 0 0 1 1.414-.052l.026.025 3.267 3.267 5.296-6.918a1 1 0 0 1 1.612.033l6.654 9.463V245Zm-17.562 15-2.813 3h5.625l-2.812-3Zm10.062-3.438L359.625 263h9.75l-4.875-6.438ZM354 249a2 2 0 1 1 .001 3.999A2 2 0 0 1 354 249Z"/>
    </mask>
    <g mask="url(#i)">
      <path fill="#003285" d="M376 241h-32v32h32v-32Z"/>
    </g>
    <path fill="#E3EDFC" d="M299 331h108v18H299z"/>
    <path fill="#060606" d="M304.628 343.099c1.452 0 2.431-.781 2.431-2.486v-5.478h-1.474v5.445c0 .968-.462 1.342-1.177 1.342-.462 0-.737-.088-1.012-.198v1.144c.253.132.583.231 1.232.231Zm6.872.011c1.694 0 2.959-1.166 2.959-2.959v-.088c0-1.76-1.265-2.937-2.948-2.937-1.694 0-2.959 1.188-2.959 2.97v.088c0 1.749 1.254 2.926 2.948 2.926Zm.011-1.034c-1.012 0-1.595-.737-1.595-1.914v-.088c0-1.188.605-1.903 1.595-1.903s1.584.726 1.584 1.914v.077c0 1.177-.594 1.914-1.584 1.914Zm6.375 1.034c.935 0 1.54-.451 1.826-1.012V343h1.331v-5.753h-1.331v3.421c0 .913-.627 1.375-1.342 1.375-.77 0-1.133-.396-1.133-1.265v-3.531h-1.331v3.685c0 1.529.847 2.178 1.98 2.178Zm5.035-.11h1.331v-2.992c0-1.221.704-1.595 1.87-1.606v-1.243c-.968.011-1.507.44-1.87 1.166v-1.078h-1.331V343Zm4.673 0h1.331v-3.388c0-.913.605-1.375 1.353-1.375.792 0 1.144.396 1.144 1.265V343h1.331v-3.619c0-1.584-.814-2.255-1.969-2.255-.946 0-1.584.473-1.859 1.034v-.913h-1.331V343Zm9.522.11c1.474 0 2.453-.66 2.64-1.87h-1.287c-.099.561-.517.88-1.32.88-.99 0-1.54-.616-1.584-1.705h4.213v-.385c0-2.057-1.287-2.904-2.717-2.904-1.639 0-2.86 1.188-2.86 2.97v.088c0 1.815 1.221 2.926 2.915 2.926Zm-1.529-3.586c.132-.891.671-1.43 1.474-1.43.825 0 1.331.44 1.397 1.43h-2.871Zm6.178 5.445h1.309l3.135-7.722h-1.298l-1.408 3.707-1.529-3.707h-1.441l2.277 5.17-1.045 2.552ZM352.111 343h1.474v-6.71h2.189v-1.155h-5.852v1.155h2.189V343Zm5.818.11c.88 0 1.386-.319 1.76-.814V343h1.309v-3.773c0-1.573-1.012-2.101-2.299-2.101s-2.354.561-2.464 1.903h1.287c.066-.572.407-.902 1.1-.902.781 0 1.045.385 1.045 1.155v.297h-.715c-1.65 0-2.948.484-2.948 1.826 0 1.199.869 1.705 1.925 1.705Zm.319-.957c-.66 0-.924-.319-.924-.803 0-.704.649-.935 1.661-.935h.682v.572c0 .737-.605 1.166-1.419 1.166Zm4.575.847h1.331v-2.992c0-1.221.704-1.595 1.87-1.606v-1.243c-.968.011-1.507.44-1.87 1.166v-1.078h-1.331V343Zm7.007 2.112c1.782 0 2.915-.847 2.926-2.541v-5.324h-1.331v.88c-.33-.572-.902-1.001-1.848-1.001-1.485 0-2.585 1.21-2.585 2.827v.077c0 1.661 1.111 2.739 2.552 2.739a2.24 2.24 0 0 0 1.881-1.067v.847c0 1.034-.572 1.551-1.606 1.551-.869 0-1.309-.33-1.419-.902h-1.342c.154 1.1.968 1.914 2.772 1.914Zm.044-3.366c-.858 0-1.518-.66-1.518-1.727v-.088c0-1.045.572-1.76 1.562-1.76.957 0 1.551.649 1.551 1.738v.077c0 1.1-.671 1.76-1.595 1.76Zm7.294 1.364c1.474 0 2.453-.66 2.64-1.87h-1.287c-.099.561-.517.88-1.32.88-.99 0-1.54-.616-1.584-1.705h4.213v-.385c0-2.057-1.287-2.904-2.717-2.904-1.639 0-2.86 1.188-2.86 2.97v.088c0 1.815 1.221 2.926 2.915 2.926Zm-1.529-3.586c.132-.891.671-1.43 1.474-1.43.825 0 1.331.44 1.397 1.43h-2.871Zm7.638 3.575c.407 0 .693-.066.902-.143V341.9c-.187.077-.385.11-.649.11-.418 0-.66-.231-.66-.737v-3.025h1.265v-1.001h-1.265v-1.265h-1.331v1.265h-.77v1.001h.77v3.146c0 1.089.594 1.705 1.738 1.705Zm3.084-6.798c.44 0 .792-.33.792-.759 0-.44-.352-.77-.792-.77-.44 0-.792.33-.792.77 0 .429.352.759.792.759Zm-.649 6.699h1.331v-5.753h-1.331V343Zm3.254 0h1.331v-3.388c0-.913.605-1.375 1.353-1.375.792 0 1.144.396 1.144 1.265V343h1.331v-3.619c0-1.584-.814-2.255-1.969-2.255-.946 0-1.584.473-1.859 1.034v-.913h-1.331V343Zm9.445 2.112c1.782 0 2.915-.847 2.926-2.541v-5.324h-1.331v.88c-.33-.572-.902-1.001-1.848-1.001-1.485 0-2.585 1.21-2.585 2.827v.077c0 1.661 1.111 2.739 2.552 2.739a2.24 2.24 0 0 0 1.881-1.067v.847c0 1.034-.572 1.551-1.606 1.551-.869 0-1.309-.33-1.419-.902h-1.342c.154 1.1.968 1.914 2.772 1.914Zm.044-3.366c-.858 0-1.518-.66-1.518-1.727v-.088c0-1.045.572-1.76 1.562-1.76.957 0 1.551.649 1.551 1.738v.077c0 1.1-.671 1.76-1.595 1.76ZM303.225 324.13c2.054 0 3.419-1.261 3.419-2.873 0-1.859-1.131-2.483-3.315-2.782-1.612-.234-1.924-.611-1.924-1.365 0-.715.546-1.222 1.599-1.222 1.066 0 1.625.416 1.794 1.391h1.586c-.182-1.781-1.378-2.691-3.38-2.691-1.937 0-3.237 1.144-3.237 2.665 0 1.742 1.053 2.418 3.276 2.717 1.508.247 1.937.572 1.937 1.43s-.728 1.43-1.755 1.43c-1.573 0-1.95-.78-2.067-1.716h-1.664c.13 1.755 1.196 3.016 3.731 3.016Zm6.744 0c1.04 0 1.638-.377 2.08-.962V324h1.547v-4.459c0-1.859-1.196-2.483-2.717-2.483-1.521 0-2.782.663-2.912 2.249h1.521c.078-.676.481-1.066 1.3-1.066.923 0 1.235.455 1.235 1.365v.351h-.845c-1.95 0-3.484.572-3.484 2.158 0 1.417 1.027 2.015 2.275 2.015Zm.377-1.131c-.78 0-1.092-.377-1.092-.949 0-.832.767-1.105 1.963-1.105h.806v.676c0 .871-.715 1.378-1.677 1.378Zm6.643 1.001h1.833l2.457-6.799h-1.547l-1.755 5.187-1.781-5.187h-1.69l2.483 6.799Zm8.192.13c1.742 0 2.899-.78 3.12-2.21h-1.521c-.117.663-.611 1.04-1.56 1.04-1.17 0-1.82-.728-1.872-2.015h4.979v-.455c0-2.431-1.521-3.432-3.211-3.432-1.937 0-3.38 1.404-3.38 3.51v.104c0 2.145 1.443 3.458 3.445 3.458Zm-1.807-4.238c.156-1.053.793-1.69 1.742-1.69.975 0 1.573.52 1.651 1.69h-3.393ZM335.196 324h1.742v-4.017l2.912-5.278h-1.69l-2.041 3.848-2.093-3.848h-1.911l3.081 5.265V324Zm7.81.13c2.002 0 3.497-1.378 3.497-3.497v-.104c0-2.08-1.495-3.471-3.484-3.471-2.002 0-3.497 1.404-3.497 3.51v.104c0 2.067 1.482 3.458 3.484 3.458Zm.013-1.222c-1.196 0-1.885-.871-1.885-2.262v-.104c0-1.404.715-2.249 1.885-2.249s1.872.858 1.872 2.262v.091c0 1.391-.702 2.262-1.872 2.262Zm7.18 1.222c1.105 0 1.82-.533 2.158-1.196V324h1.573v-6.799h-1.573v4.043c0 1.079-.741 1.625-1.586 1.625-.91 0-1.339-.468-1.339-1.495v-4.173h-1.573v4.355c0 1.807 1.001 2.574 2.34 2.574Zm5.596-.13h1.573v-3.536c0-1.443.832-1.885 2.21-1.898v-1.469c-1.144.013-1.781.52-2.21 1.378v-1.274h-1.573V324Zm10.254 0h1.742v-7.93h2.587v-1.365h-6.916v1.365h2.587V324Zm6.269-7.917c.52 0 .936-.39.936-.897 0-.52-.416-.91-.936-.91s-.936.39-.936.91c0 .507.416.897.936.897Zm-.767 7.917h1.573v-6.799h-1.573V324Zm3.49 0h1.573v-4.069c0-1.04.715-1.56 1.495-1.56.767 0 1.209.429 1.209 1.43V324h1.573v-4.069c0-1.04.715-1.56 1.495-1.56.78 0 1.209.429 1.209 1.43V324h1.573v-4.303c0-1.872-1.014-2.639-2.262-2.639-.845 0-1.781.377-2.301 1.222-.338-.845-1.04-1.222-1.924-1.222-1.001 0-1.742.546-2.067 1.183v-1.04h-1.573V324Zm14.924.13c1.742 0 2.899-.78 3.12-2.21h-1.521c-.117.663-.611 1.04-1.56 1.04-1.17 0-1.82-.728-1.872-2.015h4.979v-.455c0-2.431-1.521-3.432-3.211-3.432-1.937 0-3.38 1.404-3.38 3.51v.104c0 2.145 1.443 3.458 3.445 3.458Zm-1.807-4.238c.156-1.053.793-1.69 1.742-1.69.975 0 1.573.52 1.651 1.69h-3.393ZM400.11 324h2.002l3.146-9.295h-1.625l-2.431 7.54-2.418-7.54h-1.807L400.11 324Zm7.057-7.917c.52 0 .936-.39.936-.897 0-.52-.416-.91-.936-.91s-.936.39-.936.91c0 .507.416.897.936.897ZM406.4 324h1.573v-6.799H406.4V324Zm6.038.13c1.001 0 1.872-.598 2.236-1.274V324h1.573v-9.945h-1.573v4.186c-.377-.676-1.066-1.183-2.171-1.183-1.768 0-3.055 1.378-3.055 3.549v.104c0 2.21 1.287 3.419 2.99 3.419Zm.39-1.248c-1.014 0-1.768-.715-1.768-2.21v-.104c0-1.469.676-2.275 1.833-2.275 1.144 0 1.833.741 1.833 2.236v.104c0 1.521-.806 2.249-1.898 2.249Zm8.279 1.248c1.742 0 2.899-.78 3.12-2.21h-1.521c-.117.663-.611 1.04-1.56 1.04-1.17 0-1.82-.728-1.872-2.015h4.979v-.455c0-2.431-1.521-3.432-3.211-3.432-1.937 0-3.38 1.404-3.38 3.51v.104c0 2.145 1.443 3.458 3.445 3.458Zm-1.807-4.238c.156-1.053.793-1.69 1.742-1.69.975 0 1.573.52 1.651 1.69H419.3Zm9.387 4.238c2.002 0 3.497-1.378 3.497-3.497v-.104c0-2.08-1.495-3.471-3.484-3.471-2.002 0-3.497 1.404-3.497 3.51v.104c0 2.067 1.482 3.458 3.484 3.458Zm.013-1.222c-1.196 0-1.885-.871-1.885-2.262v-.104c0-1.404.715-2.249 1.885-2.249s1.872.858 1.872 2.262v.091c0 1.391-.702 2.262-1.872 2.262Z"/>
    <path fill="#E3EDFC" d="M249 313h36v36h-36z"/>
    <mask id="j" width="22" height="22" x="256" y="320" maskUnits="userSpaceOnUse" style="mask-type:alpha">
      <path fill="#fff" d="M276 320.5a1.5 1.5 0 0 1 1.5 1.5v18a1.5 1.5 0 0 1-1.5 1.5h-18a1.5 1.5 0 0 1-1.5-1.5v-18a1.5 1.5 0 0 1 1.5-1.5h18Zm0 1.5h-18v18h18v-18Zm-12.375 4.5c.175 0 .347.041.503.119l6.75 3.375a1.124 1.124 0 0 1 0 2.012l-6.75 3.375a1.124 1.124 0 0 1-1.628-1.006v-6.75c0-.621.504-1.125 1.125-1.125Zm.352 2.039v4.922l5.531-2.461-5.531-2.461Z"/>
    </mask>
    <g mask="url(#j)">
      <path fill="#003285" d="M279 319h-24v24h24v-24Z"/>
    </g>
    <rect width="21" height="7" x="452" y="342" fill="#E3EDFC" rx="3"/>
    <path fill="#003285" fill-rule="evenodd" d="M461 345.5a1.5 1.5 0 1 0 3.001-.001 1.5 1.5 0 0 0-3.001.001Zm-5 0a1.5 1.5 0 1 0 3 0 1.5 1.5 0 0 0-3 0Zm11.5 1.5a1.5 1.5 0 1 1 .001-3.001A1.5 1.5 0 0 1 467.5 347Z" clip-rule="evenodd"/>
  </g>
  <path stroke="#060606" stroke-width="2" d="M503 283h40M502 95.5h40"/>
  <g clip-path="url(#k)">
    <path stroke="#FA4526" stroke-linecap="round" stroke-width="8" d="m585.941 317.468-3.978-3.978-27.15-27.15c-1.554-1.554-1.564-4.062-.024-5.602L584.527 251M619.527 317.468l3.978-3.978 27.15-27.15c1.554-1.554 1.564-4.062.024-5.602L620.941 251"/>
    <g filter="url(#l)">
      <path fill="#fff" d="M552 282.912 602.912 232l50.911 50.912-50.911 50.912z"/>
    </g>
    <path fill="#FA4526" fill-rule="evenodd" d="M654.658 283 603 231.342 551.342 283 603 334.658 654.658 283Zm-1.397 0L603 232.739 552.739 283 603 333.261 653.261 283Z" clip-rule="evenodd"/>
    <g clip-path="url(#m)">
      <rect width="21" height="7" x="593" y="310" fill="#FFE1DB" rx="3"/>
      <path fill="#C6270C" fill-rule="evenodd" d="M602 313.5a1.5 1.5 0 1 0 3.001-.001 1.5 1.5 0 0 0-3.001.001Zm-5 0a1.5 1.5 0 1 0 3 0 1.5 1.5 0 0 0-3 0Zm11.5 1.5a1.5 1.5 0 1 1 .001-3.001A1.5 1.5 0 0 1 608.5 315Z" clip-rule="evenodd"/>
      <path fill="#060606" d="M614.067 283h9.306v-1.854h-5.472l2.862-2.79c1.53-1.476 2.52-2.934 2.52-4.608 0-2.268-1.584-3.798-4.248-3.798-2.718 0-4.41 1.62-4.572 4.428h2.196c.216-1.818 1.026-2.556 2.304-2.556 1.242 0 1.926.756 1.926 1.962 0 1.224-.738 2.358-1.962 3.654l-4.86 5.13V283ZM609.924 295h1.54l2.42-7.15h-1.25l-1.87 5.8-1.86-5.8h-1.39l2.41 7.15Zm5.728-6.09c.4 0 .72-.3.72-.69 0-.4-.32-.7-.72-.7-.4 0-.72.3-.72.7 0 .39.32.69.72.69Zm-.59 6.09h1.21v-5.23h-1.21V295Zm5.285.1c1.34 0 2.23-.6 2.4-1.7h-1.17c-.09.51-.47.8-1.2.8-.9 0-1.4-.56-1.44-1.55h3.83v-.35c0-1.87-1.17-2.64-2.47-2.64-1.49 0-2.6 1.08-2.6 2.7v.08c0 1.65 1.11 2.66 2.65 2.66Zm-1.39-3.26c.12-.81.61-1.3 1.34-1.3.75 0 1.21.4 1.27 1.3h-2.61Zm6.183 3.16h1.24l1.06-3.52.97 3.52h1.23l1.64-5.23h-1.18l-1.09 3.78-1.02-3.78h-1.01l-1.11 3.78-1.04-3.78h-1.29l1.6 5.23Zm9.145.1c1.34 0 2.09-.61 2.09-1.67 0-1.11-.73-1.41-1.96-1.6-.83-.14-1.08-.29-1.08-.67 0-.37.31-.62.83-.62.56 0 .83.22.93.7h1.12c-.13-1.18-.98-1.58-2.05-1.58-.98 0-1.96.52-1.96 1.57 0 .98.51 1.37 1.89 1.59.77.13 1.12.29 1.12.72 0 .44-.29.67-.94.67-.71 0-.98-.31-1.04-.84h-1.14c.05 1.11.84 1.73 2.19 1.73Z"/>
      <path fill="#FFE1DB" d="m568 282.971 16.97-16.97 16.971 16.97-16.97 16.97z"/>
      <mask id="n" width="15" height="16" x="580" y="275" maskUnits="userSpaceOnUse" style="mask-type:alpha">
        <path fill="#fff" d="M580.75 275.997c.117 0 .231.027.336.079l12.506 6.253a.75.75 0 0 1 0 1.342l-12.506 6.253a.75.75 0 0 1-1.086-.671v-12.506a.75.75 0 0 1 .75-.75Zm.266 1.465v11.076l11.58-5.538-11.58-5.538Z"/>
      </mask>
      <g mask="url(#n)">
        <path fill="#C6270C" d="M595 275h-16v16h16v-16Z"/>
      </g>
    </g>
  </g>
  <path fill="#fff" d="M663 283c0 6.629-5.371 12-12 12s-12-5.371-12-12 5.371-12 12-12 12 5.371 12 12Z"/>
  <path fill="#000" fill-rule="evenodd" d="M662 283c0 6.077-4.923 11-11 11s-11-4.923-11-11 4.923-11 11-11 11 4.923 11 11Zm-6 .234a.47.47 0 0 1-.469.469h-3.828v3.828a.47.47 0 0 1-.469.469h-.468a.47.47 0 0 1-.469-.469v-3.828h-3.828a.47.47 0 0 1-.469-.469v-.468a.47.47 0 0 1 .469-.469h3.828v-3.828a.47.47 0 0 1 .469-.469h.468a.47.47 0 0 1 .469.469v3.828h3.828a.47.47 0 0 1 .469.469v.468ZM651 274c4.946 0 9 4.004 9 9 0 4.946-4.004 9-9 9-4.946 0-9-4.004-9-9 0-4.946 4.004-9 9-9Z" clip-rule="evenodd"/>
  <path fill="#fff" d="M566 283c0 6.629-5.371 12-12 12s-12-5.371-12-12 5.371-12 12-12 12 5.371 12 12Z"/>
  <path fill="#000" fill-rule="evenodd" d="M565 283c0 6.077-4.923 11-11 11s-11-4.923-11-11 4.923-11 11-11 11 4.923 11 11Zm-6.469.703h-9.062a.47.47 0 0 1-.469-.469v-.468a.47.47 0 0 1 .469-.469h9.062c.258 0 .258 1.406 0 1.406ZM554 274c4.946 0 9 4.004 9 9 0 4.946-4.004 9-9 9-4.946 0-9-4.004-9-9 0-4.946 4.004-9 9-9Z" clip-rule="evenodd"/>
  <g clip-path="url(#o)">
    <path stroke="#FA4526" stroke-linecap="round" stroke-width="8" d="m585.941 129.468-3.978-3.978-27.15-27.15c-1.554-1.554-1.564-4.062-.024-5.602L584.527 63M619.527 129.468l3.978-3.978 27.15-27.15c1.554-1.554 1.564-4.062.024-5.602L620.941 63"/>
    <g filter="url(#p)">
      <path fill="#fff" d="M552 94.912 602.912 44l50.912 50.912-50.912 50.912z"/>
    </g>
    <path fill="#FA4526" fill-rule="evenodd" d="M654.658 95 603 43.342 551.342 95 603 146.658 654.658 95Zm-1.397 0L603 44.739 552.739 95 603 145.261 653.261 95Z" clip-rule="evenodd"/>
    <g clip-path="url(#q)">
      <rect width="21" height="7" x="593" y="122" fill="#FFE1DB" rx="3"/>
      <path fill="#C6270C" fill-rule="evenodd" d="M602 125.5a1.5 1.5 0 1 0 3.001-.001 1.5 1.5 0 0 0-3.001.001Zm-5 0a1.5 1.5 0 1 0 3 0 1.5 1.5 0 0 0-3 0Zm11.5 1.5a1.5 1.5 0 1 1 .001-3.001A1.5 1.5 0 0 1 608.5 127Z" clip-rule="evenodd"/>
      <path fill="#060606" d="M618.523 95h2.412V82.13h-2.142l-2.988 2.124v2.106l2.718-1.854V95ZM608.639 108h1.694l2.662-7.865h-1.375l-2.057 6.38-2.046-6.38h-1.529l2.651 7.865Zm6.271-6.699c.44 0 .792-.33.792-.759 0-.44-.352-.77-.792-.77-.44 0-.792.33-.792.77 0 .429.352.759.792.759Zm-.649 6.699h1.331v-5.753h-1.331V108Zm5.783.11c1.474 0 2.453-.66 2.64-1.87h-1.287c-.099.561-.517.88-1.32.88-.99 0-1.54-.616-1.584-1.705h4.213v-.385c0-2.057-1.287-2.904-2.717-2.904-1.639 0-2.86 1.188-2.86 2.97v.088c0 1.815 1.221 2.926 2.915 2.926Zm-1.529-3.586c.132-.891.671-1.43 1.474-1.43.825 0 1.331.44 1.397 1.43h-2.871Zm6.771 3.476h1.364l1.166-3.872 1.067 3.872h1.353l1.804-5.753h-1.298l-1.199 4.158-1.122-4.158h-1.111l-1.221 4.158-1.144-4.158h-1.419l1.76 5.753Z"/>
      <path fill="#FFE1DB" d="M568 94.97 584.97 78l16.971 16.97-16.97 16.971z"/>
      <mask id="r" width="15" height="16" x="580" y="87" maskUnits="userSpaceOnUse" style="mask-type:alpha">
        <path fill="#fff" d="M580.75 87.997c.117 0 .231.027.336.079l12.506 6.253a.75.75 0 0 1 0 1.342l-12.506 6.253a.75.75 0 0 1-1.086-.671V88.747a.75.75 0 0 1 .75-.75Zm.266 1.465v11.076L592.596 95l-11.58-5.538Z"/>
      </mask>
      <g mask="url(#r)">
        <path fill="#C6270C" d="M595 87h-16v16h16V87Z"/>
      </g>
    </g>
  </g>
  <path fill="#fff" d="M663 95c0 6.629-5.371 12-12 12s-12-5.371-12-12 5.371-12 12-12 12 5.371 12 12Z"/>
  <path fill="#000" fill-rule="evenodd" d="M662 95c0 6.077-4.923 11-11 11s-11-4.923-11-11 4.923-11 11-11 11 4.923 11 11Zm-6 .234a.47.47 0 0 1-.469.47h-3.828v3.827a.47.47 0 0 1-.469.469h-.468a.47.47 0 0 1-.469-.469v-3.828h-3.828a.47.47 0 0 1-.469-.469v-.468a.47.47 0 0 1 .469-.47h3.828V90.47a.47.47 0 0 1 .469-.469h.468a.47.47 0 0 1 .469.469v3.828h3.828a.47.47 0 0 1 .469.469v.468ZM651 86c4.946 0 9 4.004 9 9 0 4.946-4.004 9-9 9-4.946 0-9-4.004-9-9 0-4.946 4.004-9 9-9Z" clip-rule="evenodd"/>
  <path fill="#fff" d="M566 95c0 6.629-5.371 12-12 12s-12-5.371-12-12 5.371-12 12-12 12 5.371 12 12Z"/>
  <path fill="#000" fill-rule="evenodd" d="M565 95c0 6.077-4.923 11-11 11s-11-4.923-11-11 4.923-11 11-11 11 4.923 11 11Zm-6.469.703h-9.062a.47.47 0 0 1-.469-.469v-.468a.47.47 0 0 1 .469-.47h9.062c.258 0 .258 1.407 0 1.407ZM554 86c4.946 0 9 4.004 9 9 0 4.946-4.004 9-9 9-4.946 0-9-4.004-9-9 0-4.946 4.004-9 9-9Z" clip-rule="evenodd"/>
  <path stroke="#060606" stroke-width="2" d="M663 95h20.429a4 4 0 0 1 4 4v90"/>
  <path stroke="#060606" stroke-width="2" d="M663 280h20.429a4 4 0 0 0 4-4v-90M687 195.5h40"/>
  <g clip-path="url(#s)">
    <path fill="#006B38" fill-rule="evenodd" d="M810.646 228.303a9 9 0 0 1-6.424 2.697H775a8 8 0 0 1-8-8v-56a8 8 0 0 1 8-8h29.471c2.269 0 4.453.857 6.117 2.399l31.393 29.089a4.001 4.001 0 0 1 .137 5.736l-31.472 32.079Z" clip-rule="evenodd"/>
    <rect width="8" height="72" x="746" y="230" fill="#006B38" rx="4" transform="rotate(180 746 230)"/>
    <g filter="url(#t)">
      <path fill="#006B38" fill-rule="evenodd" d="M741 244h51l49-50.286L792 148h-51v96Zm1-1h49l48-49.238L791 149h-49v94Z" clip-rule="evenodd"/>
    </g>
    <path fill="#fff" fill-rule="evenodd" d="M791.51 243H742v-94h49.51L839 193.762 791.51 243Z" clip-rule="evenodd"/>
    <rect width="21" height="7" x="750" y="228" fill="#CCF0DF" rx="3"/>
    <path fill="#006B38" fill-rule="evenodd" d="M759 231.5a1.5 1.5 0 1 0 3.001-.001 1.5 1.5 0 0 0-3.001.001Zm-5 0a1.5 1.5 0 1 0 3 0 1.5 1.5 0 0 0-3 0Zm11.5 1.5a1.5 1.5 0 1 1 .001-3.001A1.5 1.5 0 0 1 765.5 233Z" clip-rule="evenodd"/>
    <path fill="#060606" d="M752.925 184h1.742v-7.93h2.587v-1.365h-6.916v1.365h2.587V184Zm5.475 0h1.573v-3.536c0-1.443.832-1.885 2.21-1.898v-1.469c-1.144.013-1.781.52-2.21 1.378v-1.274H758.4V184Zm7.201.13c1.04 0 1.638-.377 2.08-.962V184h1.547v-4.459c0-1.859-1.196-2.483-2.717-2.483-1.521 0-2.782.663-2.912 2.249h1.521c.078-.676.481-1.066 1.3-1.066.923 0 1.235.455 1.235 1.365v.351h-.845c-1.95 0-3.484.572-3.484 2.158 0 1.417 1.027 2.015 2.275 2.015Zm.377-1.131c-.78 0-1.092-.377-1.092-.949 0-.832.767-1.105 1.963-1.105h.806v.676c0 .871-.715 1.378-1.677 1.378Zm5.407 1.001h1.573v-4.004c0-1.079.715-1.625 1.599-1.625.936 0 1.352.468 1.352 1.495V184h1.573v-4.277c0-1.872-.962-2.665-2.327-2.665-1.118 0-1.872.559-2.197 1.222v-1.079h-1.573V184Zm10.591.13c1.742 0 2.717-.793 2.717-2.171 0-1.443-.949-1.833-2.548-2.08-1.079-.182-1.404-.377-1.404-.871 0-.481.403-.806 1.079-.806.728 0 1.079.286 1.209.91h1.456c-.169-1.534-1.274-2.054-2.665-2.054-1.274 0-2.548.676-2.548 2.041 0 1.274.663 1.781 2.457 2.067 1.001.169 1.456.377 1.456.936 0 .572-.377.871-1.222.871-.923 0-1.274-.403-1.352-1.092h-1.482c.065 1.443 1.092 2.249 2.847 2.249Zm5.257-8.047c.52 0 .936-.39.936-.897 0-.52-.416-.91-.936-.91s-.936.39-.936.91c0 .507.416.897.936.897Zm-.767 7.917h1.573v-6.799h-1.573V184Zm6.159.117c.481 0 .819-.078 1.066-.169V182.7c-.221.091-.455.13-.767.13-.494 0-.78-.273-.78-.871v-3.575h1.495v-1.183h-1.495v-1.495h-1.573v1.495h-.91v1.183h.91v3.718c0 1.287.702 2.015 2.054 2.015Zm3.646-8.034c.52 0 .936-.39.936-.897 0-.52-.416-.91-.936-.91s-.936.39-.936.91c0 .507.416.897.936.897Zm-.767 7.917h1.573v-6.799h-1.573V184Zm6.874.13c2.002 0 3.497-1.378 3.497-3.497v-.104c0-2.08-1.495-3.471-3.484-3.471-2.002 0-3.497 1.404-3.497 3.51v.104c0 2.067 1.482 3.458 3.484 3.458Zm.013-1.222c-1.196 0-1.885-.871-1.885-2.262v-.104c0-1.404.715-2.249 1.885-2.249s1.872.858 1.872 2.262v.091c0 1.391-.702 2.262-1.872 2.262ZM807.65 184h1.573v-4.004c0-1.079.715-1.625 1.599-1.625.936 0 1.352.468 1.352 1.495V184h1.573v-4.277c0-1.872-.962-2.665-2.327-2.665-1.118 0-1.872.559-2.197 1.222v-1.079h-1.573V184Zm-54.4 16.117c.481 0 .819-.078 1.066-.169V198.7c-.221.091-.455.13-.767.13-.494 0-.78-.273-.78-.871v-3.575h1.495v-1.183h-1.495v-1.495h-1.573v1.495h-.91v1.183h.91v3.718c0 1.287.702 2.015 2.054 2.015Zm5.868.013c2.002 0 3.497-1.378 3.497-3.497v-.104c0-2.08-1.495-3.471-3.484-3.471-2.002 0-3.497 1.404-3.497 3.51v.104c0 2.067 1.482 3.458 3.484 3.458Zm.013-1.222c-1.196 0-1.885-.871-1.885-2.262v-.104c0-1.404.715-2.249 1.885-2.249s1.872.858 1.872 2.262v.091c0 1.391-.702 2.262-1.872 2.262Zm8.842 1.092h6.032v-1.365h-4.303v-2.717h3.276v-1.3h-3.276v-2.548h4.082v-1.365h-5.811V200Zm7.817 0h1.573v-4.004c0-1.079.715-1.625 1.599-1.625.936 0 1.352.468 1.352 1.495V200h1.573v-4.277c0-1.872-.962-2.665-2.327-2.665-1.118 0-1.872.559-2.197 1.222v-1.079h-1.573V200Zm11.162 2.496c2.106 0 3.445-1.001 3.458-3.003v-6.292h-1.573v1.04c-.39-.676-1.066-1.183-2.184-1.183-1.755 0-3.055 1.43-3.055 3.341v.091c0 1.963 1.313 3.237 3.016 3.237a2.648 2.648 0 0 0 2.223-1.261v1.001c0 1.222-.676 1.833-1.898 1.833-1.027 0-1.547-.39-1.677-1.066h-1.586c.182 1.3 1.144 2.262 3.276 2.262Zm.052-3.978c-1.014 0-1.794-.78-1.794-2.041v-.104c0-1.235.676-2.08 1.846-2.08 1.131 0 1.833.767 1.833 2.054v.091c0 1.3-.793 2.08-1.885 2.08Zm7.412 1.612c1.04 0 1.638-.377 2.08-.962V200h1.547v-4.459c0-1.859-1.196-2.483-2.717-2.483-1.521 0-2.782.663-2.912 2.249h1.521c.078-.676.481-1.066 1.3-1.066.923 0 1.235.455 1.235 1.365v.351h-.845c-1.95 0-3.484.572-3.484 2.158 0 1.417 1.027 2.015 2.275 2.015Zm.377-1.131c-.78 0-1.092-.377-1.092-.949 0-.832.767-1.105 1.963-1.105h.806v.676c0 .871-.715 1.378-1.677 1.378Zm8.306 3.497c2.106 0 3.445-1.001 3.458-3.003v-6.292h-1.573v1.04c-.39-.676-1.066-1.183-2.184-1.183-1.755 0-3.055 1.43-3.055 3.341v.091c0 1.963 1.313 3.237 3.016 3.237a2.648 2.648 0 0 0 2.223-1.261v1.001c0 1.222-.676 1.833-1.898 1.833-1.027 0-1.547-.39-1.677-1.066h-1.586c.182 1.3 1.144 2.262 3.276 2.262Zm.052-3.978c-1.014 0-1.794-.78-1.794-2.041v-.104c0-1.235.676-2.08 1.846-2.08 1.131 0 1.833.767 1.833 2.054v.091c0 1.3-.793 2.08-1.885 2.08Zm6.566 1.573c.585 0 1.04-.442 1.04-1.014 0-.572-.455-1.027-1.04-1.027a1.02 1.02 0 0 0-1.027 1.027 1.01 1.01 0 0 0 1.027 1.014Zm3.588 0c.585 0 1.04-.442 1.04-1.014 0-.572-.455-1.027-1.04-1.027s-1.027.455-1.027 1.027c0 .572.442 1.014 1.027 1.014Zm3.575 0c.585 0 1.053-.442 1.053-1.014 0-.572-.468-1.027-1.053-1.027a1.02 1.02 0 0 0-1.027 1.027 1.01 1.01 0 0 0 1.027 1.014ZM751.066 216h1.729v-3.809h3.172v-1.339h-3.172v-2.769h4.03v-1.378h-5.759V216Zm9.507.13c1.105 0 1.82-.533 2.158-1.196V216h1.573v-6.799h-1.573v4.043c0 1.079-.741 1.625-1.586 1.625-.91 0-1.339-.468-1.339-1.495v-4.173h-1.573v4.355c0 1.807 1.001 2.574 2.34 2.574Zm5.99-.13h1.573v-9.945h-1.573V216Zm3.884 0h1.573v-9.945h-1.573V216Zm7.427 0h1.729v-3.809h3.172v-1.339h-3.172v-2.769h4.03v-1.378h-5.759V216Zm9.507.13c1.105 0 1.82-.533 2.158-1.196V216h1.573v-6.799h-1.573v4.043c0 1.079-.741 1.625-1.586 1.625-.91 0-1.339-.468-1.339-1.495v-4.173h-1.573v4.355c0 1.807 1.001 2.574 2.34 2.574Zm5.951-.13h1.573v-4.004c0-1.079.715-1.625 1.599-1.625.936 0 1.352.468 1.352 1.495V216h1.573v-4.277c0-1.872-.962-2.665-2.327-2.665-1.118 0-1.872.559-2.197 1.222v-1.079h-1.573V216Zm9.2.091c.585 0 1.04-.442 1.04-1.014 0-.572-.455-1.027-1.04-1.027a1.02 1.02 0 0 0-1.027 1.027 1.01 1.01 0 0 0 1.027 1.014Zm4.112 0c.585 0 1.04-.442 1.04-1.014 0-.572-.455-1.027-1.04-1.027a1.02 1.02 0 0 0-1.027 1.027 1.01 1.01 0 0 0 1.027 1.014Zm4.112 0c.585 0 1.04-.442 1.04-1.014 0-.572-.455-1.027-1.04-1.027a1.02 1.02 0 0 0-1.027 1.027 1.01 1.01 0 0 0 1.027 1.014Z"/>
  </g>
  <path fill="#fff" d="M741 195c0 6.629-5.371 12-12 12s-12-5.371-12-12 5.371-12 12-12 12 5.371 12 12Z"/>
  <path fill="#000" fill-rule="evenodd" d="M740 195c0 6.077-4.923 11-11 11s-11-4.923-11-11 4.923-11 11-11 11 4.923 11 11Zm-6.469.703h-9.062a.47.47 0 0 1-.469-.469v-.468a.47.47 0 0 1 .469-.469h9.062c.258 0 .258 1.406 0 1.406ZM729 186c4.946 0 9 4.004 9 9 0 4.946-4.004 9-9 9-4.946 0-9-4.004-9-9 0-4.946 4.004-9 9-9Z" clip-rule="evenodd"/>
  <defs>
    <clipPath id="c">
      <path fill="#fff" d="M0 0h250v150H0z" transform="translate(235 20)"/>
    </clipPath>
    <clipPath id="g">
      <path fill="#fff" d="M0 0h250v150H0z" transform="translate(235 208)"/>
    </clipPath>
    <clipPath id="k">
      <path fill="#fff" d="M0 0h102v102H0z" transform="translate(552 232)"/>
    </clipPath>
    <clipPath id="m">
      <path fill="#fff" d="M0 0h65v51H0z" transform="translate(567.971 266)"/>
    </clipPath>
    <clipPath id="o">
      <path fill="#fff" d="M0 0h102v102H0z" transform="translate(552 44)"/>
    </clipPath>
    <clipPath id="q">
      <path fill="#fff" d="M0 0h65v51H0z" transform="translate(567.971 78)"/>
    </clipPath>
    <clipPath id="s">
      <path fill="#fff" d="M0 0h107v96H0z" transform="translate(738 148)"/>
    </clipPath>
    <filter id="a" width="162" height="162" x="0" y="111" color-interpolation-filters="sRGB" filterUnits="userSpaceOnUse">
      <feFlood flood-opacity="0" result="BackgroundImageFix"/>
      <feColorMatrix in="SourceAlpha" result="hardAlpha" values="0 0 0 0 0 0 0 0 0 0 0 0 0 0 0 0 0 0 127 0"/>
      <feOffset dy="2"/>
      <feGaussianBlur stdDeviation="4"/>
      <feColorMatrix values="0 0 0 0 0 0 0 0 0 0 0 0 0 0 0 0 0 0 0.15 0"/>
      <feBlend in2="BackgroundImageFix" result="effect1_dropShadow_103_2237"/>
      <feBlend in="SourceGraphic" in2="effect1_dropShadow_103_2237" result="shape"/>
    </filter>
    <filter id="d" width="256" height="164" x="232" y="15" color-interpolation-filters="sRGB" filterUnits="userSpaceOnUse">
      <feFlood flood-opacity="0" result="BackgroundImageFix"/>
      <feColorMatrix in="SourceAlpha" result="hardAlpha" values="0 0 0 0 0 0 0 0 0 0 0 0 0 0 0 0 0 0 127 0"/>
      <feOffset dy="2"/>
      <feGaussianBlur stdDeviation="4"/>
      <feColorMatrix values="0 0 0 0 0 0 0 0 0 0 0 0 0 0 0 0 0 0 0.15 0"/>
      <feBlend in2="BackgroundImageFix" result="effect1_dropShadow_103_2237"/>
      <feBlend in="SourceGraphic" in2="effect1_dropShadow_103_2237" result="shape"/>
    </filter>
    <filter id="h" width="256" height="164" x="232" y="203" color-interpolation-filters="sRGB" filterUnits="userSpaceOnUse">
      <feFlood flood-opacity="0" result="BackgroundImageFix"/>
      <feColorMatrix in="SourceAlpha" result="hardAlpha" values="0 0 0 0 0 0 0 0 0 0 0 0 0 0 0 0 0 0 127 0"/>
      <feOffset dy="2"/>
      <feGaussianBlur stdDeviation="4"/>
      <feColorMatrix values="0 0 0 0 0 0 0 0 0 0 0 0 0 0 0 0 0 0 0.15 0"/>
      <feBlend in2="BackgroundImageFix" result="effect1_dropShadow_103_2237"/>
      <feBlend in="SourceGraphic" in2="effect1_dropShadow_103_2237" result="shape"/>
    </filter>
    <filter id="l" width="117.823" height="117.823" x="544" y="226" color-interpolation-filters="sRGB" filterUnits="userSpaceOnUse">
      <feFlood flood-opacity="0" result="BackgroundImageFix"/>
      <feColorMatrix in="SourceAlpha" result="hardAlpha" values="0 0 0 0 0 0 0 0 0 0 0 0 0 0 0 0 0 0 127 0"/>
      <feOffset dy="2"/>
      <feGaussianBlur stdDeviation="4"/>
      <feColorMatrix values="0 0 0 0 0 0 0 0 0 0 0 0 0 0 0 0 0 0 0.15 0"/>
      <feBlend in2="BackgroundImageFix" result="effect1_dropShadow_103_2237"/>
      <feBlend in="SourceGraphic" in2="effect1_dropShadow_103_2237" result="shape"/>
    </filter>
    <filter id="p" width="117.823" height="117.823" x="544" y="38" color-interpolation-filters="sRGB" filterUnits="userSpaceOnUse">
      <feFlood flood-opacity="0" result="BackgroundImageFix"/>
      <feColorMatrix in="SourceAlpha" result="hardAlpha" values="0 0 0 0 0 0 0 0 0 0 0 0 0 0 0 0 0 0 127 0"/>
      <feOffset dy="2"/>
      <feGaussianBlur stdDeviation="4"/>
      <feColorMatrix values="0 0 0 0 0 0 0 0 0 0 0 0 0 0 0 0 0 0 0.15 0"/>
      <feBlend in2="BackgroundImageFix" result="effect1_dropShadow_103_2237"/>
      <feBlend in="SourceGraphic" in2="effect1_dropShadow_103_2237" result="shape"/>
    </filter>
    <filter id="t" width="116" height="112" x="733" y="138" color-interpolation-filters="sRGB" filterUnits="userSpaceOnUse">
      <feFlood flood-opacity="0" result="BackgroundImageFix"/>
      <feColorMatrix in="SourceAlpha" result="hardAlpha" values="0 0 0 0 0 0 0 0 0 0 0 0 0 0 0 0 0 0 127 0"/>
      <feOffset dy="-2"/>
      <feGaussianBlur stdDeviation="4"/>
      <feColorMatrix values="0 0 0 0 0 0 0 0 0 0 0 0 0 0 0 0 0 0 0.15 0"/>
      <feBlend in2="BackgroundImageFix" result="effect1_dropShadow_103_2237"/>
      <feBlend in="SourceGraphic" in2="effect1_dropShadow_103_2237" result="shape"/>
    </filter>
  </defs>
</svg>