<svg xmlns="http://www.w3.org/2000/svg" fill="none" viewBox="0 0 848 377">
  <path fill="#00B760" d="M137.131 134.99a4.41 4.41 0 0 0-6.235-.215 4.41 4.41 0 0 0-.215 6.235l6.45-6.02Zm-10.24 104.879a4.413 4.413 0 0 0 6.217 6.262l-6.217-6.262ZM31.319 141.01a4.411 4.411 0 1 0-6.45-6.02l6.45 6.02ZM28.89 246.131a4.413 4.413 0 0 0 6.217-6.262l-6.217 6.262Zm101.79-105.121c6.017 6.447 10.683 12.736 13.881 20.23 3.193 7.481 5.029 16.416 5.026 28.261l8.824.002c.003-12.796-1.988-22.949-5.734-31.727-3.741-8.765-9.126-15.907-15.547-22.786l-6.45 6.02Zm18.907 48.491c-.006 23.064-9.619 37.383-22.697 50.368l6.217 6.262c14.073-13.974 25.296-30.41 25.304-56.628l-8.824-.002ZM24.868 134.99c-6.42 6.879-11.805 14.021-15.546 22.786-3.746 8.778-5.737 18.931-5.734 31.727l8.824-.002c-.004-11.845 1.833-20.78 5.025-28.261 3.198-7.494 7.864-13.783 13.882-20.23l-6.45-6.02Zm-21.28 54.513c.007 26.218 11.23 42.654 25.303 56.628l6.217-6.262c-13.078-12.985-22.69-27.304-22.696-50.368l-8.824.002Z"/>
  <g filter="url(#a)">
    <rect width="146" height="146" x="8" y="115" fill="#fff" rx="72.549"/>
  </g>
  <mask id="b" width="146" height="146" x="8" y="115" maskUnits="userSpaceOnUse" style="mask-type:alpha">
    <rect width="146" height="146" x="8" y="115" fill="#fff" rx="72.549"/>
  </mask>
  <g mask="url(#b)">
    <path fill="#fff" d="M7 202h148v68H7z"/>
  </g>
  <path fill="#00B760" fill-rule="evenodd" d="M81 262c40.869 0 74-33.131 74-74s-33.131-74-74-74c-40.87 0-74 33.131-74 74s33.13 74 74 74Zm0-1.007c40.313 0 72.993-32.68 72.993-72.993 0-40.313-32.68-72.993-72.993-72.993-40.313 0-72.993 32.68-72.993 72.993 0 40.313 32.68 72.993 72.993 72.993Z" clip-rule="evenodd"/>
  <path fill="#000" d="M62.168 219h1.848l2.904-8.58h-1.5l-2.244 6.96-2.232-6.96h-1.668l2.892 8.58Zm6.514-7.308c.48 0 .864-.36.864-.828 0-.48-.384-.84-.864-.84s-.864.36-.864.84c0 .468.384.828.864.828ZM67.974 219h1.452v-6.276h-1.452V219Zm5.574.12c.924 0 1.728-.552 2.064-1.176V219h1.452v-9.18h-1.452v3.864c-.348-.624-.984-1.092-2.004-1.092-1.632 0-2.82 1.272-2.82 3.276v.096c0 2.04 1.188 3.156 2.76 3.156Zm.36-1.152c-.936 0-1.632-.66-1.632-2.04v-.096c0-1.356.624-2.1 1.692-2.1 1.056 0 1.692.684 1.692 2.064v.096c0 1.404-.744 2.076-1.752 2.076Zm7.642 1.152c1.608 0 2.676-.72 2.88-2.04h-1.404c-.108.612-.564.96-1.44.96-1.08 0-1.68-.672-1.728-1.86h4.596v-.42c0-2.244-1.404-3.168-2.964-3.168-1.788 0-3.12 1.296-3.12 3.24v.096c0 1.98 1.332 3.192 3.18 3.192Zm-1.668-3.912c.144-.972.732-1.56 1.608-1.56.9 0 1.452.48 1.524 1.56h-3.132Zm8.665 3.912c1.848 0 3.228-1.272 3.228-3.228v-.096c0-1.92-1.38-3.204-3.216-3.204-1.848 0-3.228 1.296-3.228 3.24v.096c0 1.908 1.368 3.192 3.216 3.192Zm.012-1.128c-1.104 0-1.74-.804-1.74-2.088v-.096c0-1.296.66-2.076 1.74-2.076s1.728.792 1.728 2.088v.084c0 1.284-.648 2.088-1.728 2.088ZM95.406 219h1.5l.672-2.124h3.276l.684 2.124h1.656l-2.832-8.58h-2.088L95.406 219Zm3.816-7.272 1.26 3.984H97.95l1.272-3.984Zm5.977 7.272h1.488l1.272-4.224 1.164 4.224h1.476l1.968-6.276h-1.416l-1.308 4.536-1.224-4.536h-1.212l-1.332 4.536-1.248-4.536h-1.548l1.92 6.276Zm9.957.12c.96 0 1.512-.348 1.92-.888V219h1.428v-4.116c0-1.716-1.104-2.292-2.508-2.292s-2.568.612-2.688 2.076h1.404c.072-.624.444-.984 1.2-.984.852 0 1.14.42 1.14 1.26v.324h-.78c-1.8 0-3.216.528-3.216 1.992 0 1.308.948 1.86 2.1 1.86Zm.348-1.044c-.72 0-1.008-.348-1.008-.876 0-.768.708-1.02 1.812-1.02h.744v.624c0 .804-.66 1.272-1.548 1.272Zm4.665.924h1.452v-3.264c0-1.332.768-1.74 2.04-1.752v-1.356c-1.056.012-1.644.48-2.04 1.272v-1.176h-1.452V219Zm7.4.12c1.608 0 2.676-.72 2.88-2.04h-1.404c-.108.612-.564.96-1.44.96-1.08 0-1.68-.672-1.728-1.86h4.596v-.42c0-2.244-1.404-3.168-2.964-3.168-1.788 0-3.12 1.296-3.12 3.24v.096c0 1.98 1.332 3.192 3.18 3.192Zm-1.668-3.912c.144-.972.732-1.56 1.608-1.56.9 0 1.452.48 1.524 1.56h-3.132ZM58.987 238.054h5.148v-.858h-5.148v.858Z"/>
  <rect width="28" height="28" x="27" y="207" fill="#CCF0DF" rx="14"/>
  <path fill="#006B38" d="M36.744 224.117c2.392 0 3.744-1.703 3.744-4.758v-.481c0-2.678-1.196-4.316-3.627-4.316-2.12 0-3.445 1.287-3.445 3.185 0 1.833 1.287 3.016 3.08 3.016 1.106 0 1.86-.468 2.289-1.17-.026 2.119-.741 3.185-2.067 3.185-1.001 0-1.43-.468-1.6-1.196h-1.624c.22 1.599 1.352 2.535 3.25 2.535Zm.117-4.563c-1.066 0-1.742-.741-1.742-1.859 0-1.105.689-1.846 1.729-1.846 1.066 0 1.807.728 1.807 1.976 0 1.027-.741 1.729-1.794 1.729Zm8.253 4.576c1.872 0 3.458-.975 3.458-2.808 0-1.131-.637-1.937-1.73-2.327.833-.364 1.379-1.001 1.379-1.95 0-1.534-1.443-2.47-3.107-2.47-1.612 0-3.12.923-3.12 2.496 0 .923.52 1.599 1.378 1.937-1.04.364-1.742 1.183-1.742 2.366 0 1.82 1.638 2.756 3.484 2.756Zm.026-5.629c-.806 0-1.495-.494-1.495-1.339 0-.832.65-1.339 1.469-1.339.832 0 1.469.533 1.469 1.326 0 .845-.598 1.352-1.443 1.352Zm-.026 4.329c-.936 0-1.742-.559-1.742-1.599s.806-1.599 1.755-1.599c.962 0 1.716.559 1.716 1.586 0 1.04-.741 1.612-1.73 1.612Z"/>
  <path fill="#fff" d="M49 226a6 6 0 1 0 .001 12.001A6 6 0 0 0 49 226Z"/>
  <path fill="#00B760" fill-rule="evenodd" d="M43 232a6 6 0 1 1 12.001.001A6 6 0 0 1 43 232Zm5.771 1.951 2.82-3.91c.051-.071 0-.17-.087-.17h-.628a.428.428 0 0 0-.346.178l-2.106 2.919-.953-1.323a.428.428 0 0 0-.347-.178h-.629a.107.107 0 0 0-.087.17l1.67 2.314c.17.237.523.237.693 0Z" clip-rule="evenodd"/>
  <rect width="21" height="7" x="71" y="246" fill="#CCF0DF" rx="3.5"/>
  <path fill="#006B38" fill-rule="evenodd" d="M80 249.5a1.5 1.5 0 1 0 3 0 1.5 1.5 0 0 0-3 0Zm-5 0a1.5 1.5 0 1 0 3 0 1.5 1.5 0 0 0-3 0Zm11.5 1.5a1.5 1.5 0 1 1 0-3 1.5 1.5 0 0 1 0 3Z" clip-rule="evenodd"/>
  <path fill="#fff" d="M179 188c0 6.629-5.371 12-12 12s-12-5.371-12-12 5.371-12 12-12 12 5.371 12 12Z"/>
  <path fill="#000" fill-rule="evenodd" d="M178 188c0 6.077-4.923 11-11 11s-11-4.923-11-11 4.923-11 11-11 11 4.923 11 11Zm-6 .234a.47.47 0 0 1-.469.469h-3.828v3.828a.47.47 0 0 1-.469.469h-.468a.47.47 0 0 1-.469-.469v-3.828h-3.828a.47.47 0 0 1-.469-.469v-.468a.47.47 0 0 1 .469-.469h3.828v-3.828a.47.47 0 0 1 .469-.469h.468a.47.47 0 0 1 .469.469v3.828h3.828a.47.47 0 0 1 .469.469v.468ZM167 179c4.946 0 9 4.004 9 9 0 4.946-4.004 9-9 9-4.946 0-9-4.004-9-9 0-4.946 4.004-9 9-9Z" clip-rule="evenodd"/>
  <path stroke="#060606" stroke-width="2" d="M218 94h-20.429a4 4 0 0 0-4 4v86a4 4 0 0 1-4 4H182M218 282h-20.429a4 4 0 0 1-4-4v-86a4 4 0 0 0-4-4H178"/>
  <g clip-path="url(#c)">
    <rect width="250" height="132" x="238" y="217" fill="#769BD6" rx="4"/>
    <g filter="url(#d)">
      <path fill="#fff" d="M243 209h240v148H243z"/>
    </g>
    <path stroke="#DADADA" stroke-linecap="square" d="M482.5 304.5h-239"/>
    <path fill="#769BD6" fill-rule="evenodd" d="M484 208H242v150h242V208Zm-1 1H243v148h240V209Z" clip-rule="evenodd"/>
    <path fill="#E3EDFC" d="M243 209h240v96H243z"/>
    <mask id="e" width="28" height="28" x="349" y="243" maskUnits="userSpaceOnUse" style="mask-type:alpha">
      <path fill="#fff" d="M375 243a2 2 0 0 1 2 2v24a2 2 0 0 1-2 2h-24a2 2 0 0 1-2-2v-24a2 2 0 0 1 2-2h24Zm0 22h-24v4h24v-4Zm0-20h-24v18.924l5.731-6.164a1 1 0 0 1 1.414-.052l.026.025 3.267 3.267 5.296-6.918a1 1 0 0 1 1.612.033l6.654 9.463V245Zm-17.562 15-2.813 3h5.625l-2.812-3Zm10.062-3.438L362.625 263h9.75l-4.875-6.438ZM357 249a2 2 0 1 1 .001 3.999A2 2 0 0 1 357 249Z"/>
    </mask>
    <g mask="url(#e)">
      <path fill="#003285" d="M379 241h-32v32h32v-32Z"/>
    </g>
    <path fill="#E3EDFC" d="M302 331h108v18H302z"/>
    <path fill="#060606" d="M307.628 343.099c1.452 0 2.431-.781 2.431-2.486v-5.478h-1.474v5.445c0 .968-.462 1.342-1.177 1.342-.462 0-.737-.088-1.012-.198v1.144c.253.132.583.231 1.232.231Zm6.872.011c1.694 0 2.959-1.166 2.959-2.959v-.088c0-1.76-1.265-2.937-2.948-2.937-1.694 0-2.959 1.188-2.959 2.97v.088c0 1.749 1.254 2.926 2.948 2.926Zm.011-1.034c-1.012 0-1.595-.737-1.595-1.914v-.088c0-1.188.605-1.903 1.595-1.903s1.584.726 1.584 1.914v.077c0 1.177-.594 1.914-1.584 1.914Zm6.375 1.034c.935 0 1.54-.451 1.826-1.012V343h1.331v-5.753h-1.331v3.421c0 .913-.627 1.375-1.342 1.375-.77 0-1.133-.396-1.133-1.265v-3.531h-1.331v3.685c0 1.529.847 2.178 1.98 2.178Zm5.035-.11h1.331v-2.992c0-1.221.704-1.595 1.87-1.606v-1.243c-.968.011-1.507.44-1.87 1.166v-1.078h-1.331V343Zm4.673 0h1.331v-3.388c0-.913.605-1.375 1.353-1.375.792 0 1.144.396 1.144 1.265V343h1.331v-3.619c0-1.584-.814-2.255-1.969-2.255-.946 0-1.584.473-1.859 1.034v-.913h-1.331V343Zm9.522.11c1.474 0 2.453-.66 2.64-1.87h-1.287c-.099.561-.517.88-1.32.88-.99 0-1.54-.616-1.584-1.705h4.213v-.385c0-2.057-1.287-2.904-2.717-2.904-1.639 0-2.86 1.188-2.86 2.97v.088c0 1.815 1.221 2.926 2.915 2.926Zm-1.529-3.586c.132-.891.671-1.43 1.474-1.43.825 0 1.331.44 1.397 1.43h-2.871Zm6.178 5.445h1.309l3.135-7.722h-1.298l-1.408 3.707-1.529-3.707h-1.441l2.277 5.17-1.045 2.552ZM355.111 343h1.474v-6.71h2.189v-1.155h-5.852v1.155h2.189V343Zm5.818.11c.88 0 1.386-.319 1.76-.814V343h1.309v-3.773c0-1.573-1.012-2.101-2.299-2.101s-2.354.561-2.464 1.903h1.287c.066-.572.407-.902 1.1-.902.781 0 1.045.385 1.045 1.155v.297h-.715c-1.65 0-2.948.484-2.948 1.826 0 1.199.869 1.705 1.925 1.705Zm.319-.957c-.66 0-.924-.319-.924-.803 0-.704.649-.935 1.661-.935h.682v.572c0 .737-.605 1.166-1.419 1.166Zm4.575.847h1.331v-2.992c0-1.221.704-1.595 1.87-1.606v-1.243c-.968.011-1.507.44-1.87 1.166v-1.078h-1.331V343Zm7.007 2.112c1.782 0 2.915-.847 2.926-2.541v-5.324h-1.331v.88c-.33-.572-.902-1.001-1.848-1.001-1.485 0-2.585 1.21-2.585 2.827v.077c0 1.661 1.111 2.739 2.552 2.739a2.24 2.24 0 0 0 1.881-1.067v.847c0 1.034-.572 1.551-1.606 1.551-.869 0-1.309-.33-1.419-.902h-1.342c.154 1.1.968 1.914 2.772 1.914Zm.044-3.366c-.858 0-1.518-.66-1.518-1.727v-.088c0-1.045.572-1.76 1.562-1.76.957 0 1.551.649 1.551 1.738v.077c0 1.1-.671 1.76-1.595 1.76Zm7.294 1.364c1.474 0 2.453-.66 2.64-1.87h-1.287c-.099.561-.517.88-1.32.88-.99 0-1.54-.616-1.584-1.705h4.213v-.385c0-2.057-1.287-2.904-2.717-2.904-1.639 0-2.86 1.188-2.86 2.97v.088c0 1.815 1.221 2.926 2.915 2.926Zm-1.529-3.586c.132-.891.671-1.43 1.474-1.43.825 0 1.331.44 1.397 1.43h-2.871Zm7.638 3.575c.407 0 .693-.066.902-.143V341.9c-.187.077-.385.11-.649.11-.418 0-.66-.231-.66-.737v-3.025h1.265v-1.001h-1.265v-1.265h-1.331v1.265h-.77v1.001h.77v3.146c0 1.089.594 1.705 1.738 1.705Zm3.084-6.798c.44 0 .792-.33.792-.759 0-.44-.352-.77-.792-.77-.44 0-.792.33-.792.77 0 .429.352.759.792.759Zm-.649 6.699h1.331v-5.753h-1.331V343Zm3.254 0h1.331v-3.388c0-.913.605-1.375 1.353-1.375.792 0 1.144.396 1.144 1.265V343h1.331v-3.619c0-1.584-.814-2.255-1.969-2.255-.946 0-1.584.473-1.859 1.034v-.913h-1.331V343Zm9.445 2.112c1.782 0 2.915-.847 2.926-2.541v-5.324h-1.331v.88c-.33-.572-.902-1.001-1.848-1.001-1.485 0-2.585 1.21-2.585 2.827v.077c0 1.661 1.111 2.739 2.552 2.739a2.24 2.24 0 0 0 1.881-1.067v.847c0 1.034-.572 1.551-1.606 1.551-.869 0-1.309-.33-1.419-.902h-1.342c.154 1.1.968 1.914 2.772 1.914Zm.044-3.366c-.858 0-1.518-.66-1.518-1.727v-.088c0-1.045.572-1.76 1.562-1.76.957 0 1.551.649 1.551 1.738v.077c0 1.1-.671 1.76-1.595 1.76ZM306.225 324.13c2.054 0 3.419-1.261 3.419-2.873 0-1.859-1.131-2.483-3.315-2.782-1.612-.234-1.924-.611-1.924-1.365 0-.715.546-1.222 1.599-1.222 1.066 0 1.625.416 1.794 1.391h1.586c-.182-1.781-1.378-2.691-3.38-2.691-1.937 0-3.237 1.144-3.237 2.665 0 1.742 1.053 2.418 3.276 2.717 1.508.247 1.937.572 1.937 1.43s-.728 1.43-1.755 1.43c-1.573 0-1.95-.78-2.067-1.716h-1.664c.13 1.755 1.196 3.016 3.731 3.016Zm4.963 2.197h1.573v-3.393c.364.663 1.144 1.196 2.223 1.196 1.755 0 3.016-1.326 3.016-3.51v-.104c0-2.197-1.313-3.458-3.016-3.458-1.001 0-1.846.585-2.223 1.235v-1.092h-1.573v9.126Zm3.406-3.445c-1.144 0-1.885-.715-1.885-2.236v-.104c0-1.508.78-2.249 1.872-2.249 1.027 0 1.807.741 1.807 2.249v.104c0 1.456-.637 2.236-1.794 2.236Zm7.811 1.248c1.742 0 2.899-.78 3.12-2.21h-1.521c-.117.663-.611 1.04-1.56 1.04-1.17 0-1.82-.728-1.872-2.015h4.979v-.455c0-2.431-1.521-3.432-3.211-3.432-1.937 0-3.38 1.404-3.38 3.51v.104c0 2.145 1.443 3.458 3.445 3.458Zm-1.807-4.238c.156-1.053.793-1.69 1.742-1.69.975 0 1.573.52 1.651 1.69h-3.393Zm9.348 4.238c1.742 0 2.899-.78 3.12-2.21h-1.521c-.117.663-.611 1.04-1.56 1.04-1.17 0-1.82-.728-1.872-2.015h4.979v-.455c0-2.431-1.521-3.432-3.211-3.432-1.937 0-3.38 1.404-3.38 3.51v.104c0 2.145 1.443 3.458 3.445 3.458Zm-1.807-4.238c.156-1.053.793-1.69 1.742-1.69.975 0 1.573.52 1.651 1.69h-3.393Zm8.906 4.238c1.001 0 1.872-.598 2.236-1.274V324h1.573v-9.945h-1.573v4.186c-.377-.676-1.066-1.183-2.171-1.183-1.768 0-3.055 1.378-3.055 3.549v.104c0 2.21 1.287 3.419 2.99 3.419Zm.39-1.248c-1.014 0-1.768-.715-1.768-2.21v-.104c0-1.469.676-2.275 1.833-2.275 1.144 0 1.833.741 1.833 2.236v.104c0 1.521-.806 2.249-1.898 2.249Zm6.042 3.445h1.547l3.705-9.126h-1.534l-1.664 4.381-1.807-4.381h-1.703l2.691 6.11-1.235 3.016Zm9.659-2.327h2.795c3.263 0 4.836-1.924 4.836-4.628v-.117c0-2.704-1.573-4.55-4.81-4.55h-2.821V324Zm1.729-1.365v-6.565h1.001c2.184 0 3.094 1.209 3.094 3.211v.104c0 2.054-1.001 3.25-3.081 3.25h-1.014Zm10.412 1.495c1.742 0 2.899-.78 3.12-2.21h-1.521c-.117.663-.611 1.04-1.56 1.04-1.17 0-1.82-.728-1.872-2.015h4.979v-.455c0-2.431-1.521-3.432-3.211-3.432-1.937 0-3.38 1.404-3.38 3.51v.104c0 2.145 1.443 3.458 3.445 3.458Zm-1.807-4.238c.156-1.053.793-1.69 1.742-1.69.975 0 1.573.52 1.651 1.69h-3.393Zm6.397 4.108h1.573v-9.945h-1.573V324Zm4.296-7.917c.52 0 .936-.39.936-.897 0-.52-.416-.91-.936-.91s-.936.39-.936.91c0 .507.416.897.936.897Zm-.767 7.917h1.573v-6.799h-1.573V324Zm5.271 0h1.833l2.457-6.799h-1.547l-1.755 5.187-1.781-5.187h-1.69l2.483 6.799Zm8.192.13c1.742 0 2.899-.78 3.12-2.21h-1.521c-.117.663-.611 1.04-1.56 1.04-1.17 0-1.82-.728-1.872-2.015h4.979v-.455c0-2.431-1.521-3.432-3.211-3.432-1.937 0-3.38 1.404-3.38 3.51v.104c0 2.145 1.443 3.458 3.445 3.458Zm-1.807-4.238c.156-1.053.793-1.69 1.742-1.69.975 0 1.573.52 1.651 1.69h-3.393ZM391.41 324h1.573v-3.536c0-1.443.832-1.885 2.21-1.898v-1.469c-1.144.013-1.781.52-2.21 1.378v-1.274h-1.573V324Zm5.997 2.327h1.547l3.705-9.126h-1.534l-1.664 4.381-1.807-4.381h-1.703l2.691 6.11-1.235 3.016Zm8.944-2.327h1.625l.728-2.301h3.549l.741 2.301h1.794l-3.068-9.295h-2.262L406.351 324Zm4.134-7.878 1.365 4.316h-2.743l1.378-4.316Zm8 8.008c1.001 0 1.872-.598 2.236-1.274V324h1.573v-9.945h-1.573v4.186c-.377-.676-1.066-1.183-2.171-1.183-1.768 0-3.055 1.378-3.055 3.549v.104c0 2.21 1.287 3.419 2.99 3.419Zm.39-1.248c-1.014 0-1.768-.715-1.768-2.21v-.104c0-1.469.676-2.275 1.833-2.275 1.144 0 1.833.741 1.833 2.236v.104c0 1.521-.806 2.249-1.898 2.249Z"/>
    <path fill="#E3EDFC" d="M252 313h36v36h-36z"/>
    <mask id="f" width="22" height="22" x="259" y="320" maskUnits="userSpaceOnUse" style="mask-type:alpha">
      <path fill="#fff" d="M279 320.5a1.5 1.5 0 0 1 1.5 1.5v18a1.5 1.5 0 0 1-1.5 1.5h-18a1.5 1.5 0 0 1-1.5-1.5v-18a1.5 1.5 0 0 1 1.5-1.5h18Zm0 16.5h-18v3h18v-3Zm0-15h-18v14.193l4.299-4.623a.748.748 0 0 1 1.079-.02l2.45 2.45 3.973-5.189a.75.75 0 0 1 1.209.025l4.99 7.097V322Zm-13.172 11.25-2.109 2.25h4.219l-2.11-2.25Zm7.547-2.578-3.656 4.828h7.312l-3.656-4.828ZM265.5 325a1.5 1.5 0 1 1-.001 3.001A1.5 1.5 0 0 1 265.5 325Z"/>
    </mask>
    <g mask="url(#f)">
      <path fill="#003285" d="M282 319h-24v24h24v-24Z"/>
    </g>
    <rect width="21" height="7" x="455" y="342" fill="#E3EDFC" rx="3"/>
    <path fill="#003285" fill-rule="evenodd" d="M464 345.5a1.5 1.5 0 1 0 3.001-.001 1.5 1.5 0 0 0-3.001.001Zm-5 0a1.5 1.5 0 1 0 3 0 1.5 1.5 0 0 0-3 0Zm11.5 1.5a1.5 1.5 0 1 1 .001-3.001A1.5 1.5 0 0 1 470.5 347Z" clip-rule="evenodd"/>
  </g>
  <path fill="#fff" d="M508 283c0 6.629-5.371 12-12 12s-12-5.371-12-12 5.371-12 12-12 12 5.371 12 12Z"/>
  <path fill="#000" fill-rule="evenodd" d="M507 283c0 6.077-4.923 11-11 11s-11-4.923-11-11 4.923-11 11-11 11 4.923 11 11Zm-6 .234a.47.47 0 0 1-.469.469h-3.828v3.828a.47.47 0 0 1-.469.469h-.468a.47.47 0 0 1-.469-.469v-3.828h-3.828a.47.47 0 0 1-.469-.469v-.468a.47.47 0 0 1 .469-.469h3.828v-3.828a.47.47 0 0 1 .469-.469h.468a.47.47 0 0 1 .469.469v3.828h3.828a.47.47 0 0 1 .469.469v.468ZM496 274c4.946 0 9 4.004 9 9 0 4.946-4.004 9-9 9-4.946 0-9-4.004-9-9 0-4.946 4.004-9 9-9Z" clip-rule="evenodd"/>
  <path fill="#fff" d="M242 283c0 6.629-5.371 12-12 12s-12-5.371-12-12 5.371-12 12-12 12 5.371 12 12Z"/>
  <path fill="#000" fill-rule="evenodd" d="M241 283c0 6.077-4.923 11-11 11s-11-4.923-11-11 4.923-11 11-11 11 4.923 11 11Zm-6.469.703h-9.062a.47.47 0 0 1-.469-.469v-.468a.47.47 0 0 1 .469-.469h9.062c.258 0 .258 1.406 0 1.406ZM230 274c4.946 0 9 4.004 9 9 0 4.946-4.004 9-9 9-4.946 0-9-4.004-9-9 0-4.946 4.004-9 9-9Z" clip-rule="evenodd"/>
  <g clip-path="url(#g)">
    <rect width="250" height="132" x="236" y="31" fill="#769BD6" rx="4"/>
    <g filter="url(#h)">
      <path fill="#fff" d="M241 23h240v148H241z"/>
    </g>
    <path stroke="#DADADA" stroke-linecap="square" d="M480.5 118.5h-239"/>
    <path fill="#769BD6" fill-rule="evenodd" d="M482 22H240v150h242V22Zm-1 1H241v148h240V23Z" clip-rule="evenodd"/>
    <path fill="#E3EDFC" d="M241 23h240v96H241z"/>
    <mask id="i" width="28" height="28" x="347" y="57" maskUnits="userSpaceOnUse" style="mask-type:alpha">
      <path fill="#fff" d="M373 57a2 2 0 0 1 2 2v24a2 2 0 0 1-2 2h-24a2 2 0 0 1-2-2V59a2 2 0 0 1 2-2h24Zm0 22h-24v4h24v-4Zm0-20h-24v18.924l5.731-6.164a1 1 0 0 1 1.414-.052l.026.025L359.438 75l5.296-6.918a1 1 0 0 1 1.612.033L373 77.578V59Zm-17.562 15-2.813 3h5.625l-2.812-3Zm10.062-3.438L360.625 77h9.75l-4.875-6.438ZM355 63a2 2 0 1 1 0 4 2 2 0 0 1 0-4Z"/>
    </mask>
    <g mask="url(#i)">
      <path fill="#003285" d="M377 55h-32v32h32V55Z"/>
    </g>
    <path fill="#E3EDFC" d="M300 145h108v18H300z"/>
    <path fill="#060606" d="M305.628 157.099c1.452 0 2.431-.781 2.431-2.486v-5.478h-1.474v5.445c0 .968-.462 1.342-1.177 1.342-.462 0-.737-.088-1.012-.198v1.144c.253.132.583.231 1.232.231Zm6.872.011c1.694 0 2.959-1.166 2.959-2.959v-.088c0-1.76-1.265-2.937-2.948-2.937-1.694 0-2.959 1.188-2.959 2.97v.088c0 1.749 1.254 2.926 2.948 2.926Zm.011-1.034c-1.012 0-1.595-.737-1.595-1.914v-.088c0-1.188.605-1.903 1.595-1.903s1.584.726 1.584 1.914v.077c0 1.177-.594 1.914-1.584 1.914Zm6.375 1.034c.935 0 1.54-.451 1.826-1.012V157h1.331v-5.753h-1.331v3.421c0 .913-.627 1.375-1.342 1.375-.77 0-1.133-.396-1.133-1.265v-3.531h-1.331v3.685c0 1.529.847 2.178 1.98 2.178Zm5.035-.11h1.331v-2.992c0-1.221.704-1.595 1.87-1.606v-1.243c-.968.011-1.507.44-1.87 1.166v-1.078h-1.331V157Zm4.673 0h1.331v-3.388c0-.913.605-1.375 1.353-1.375.792 0 1.144.396 1.144 1.265V157h1.331v-3.619c0-1.584-.814-2.255-1.969-2.255-.946 0-1.584.473-1.859 1.034v-.913h-1.331V157Zm9.522.11c1.474 0 2.453-.66 2.64-1.87h-1.287c-.099.561-.517.88-1.32.88-.99 0-1.54-.616-1.584-1.705h4.213v-.385c0-2.057-1.287-2.904-2.717-2.904-1.639 0-2.86 1.188-2.86 2.97v.088c0 1.815 1.221 2.926 2.915 2.926Zm-1.529-3.586c.132-.891.671-1.43 1.474-1.43.825 0 1.331.44 1.397 1.43h-2.871Zm6.178 5.445h1.309l3.135-7.722h-1.298l-1.408 3.707-1.529-3.707h-1.441l2.277 5.17-1.045 2.552ZM353.111 157h1.474v-6.71h2.189v-1.155h-5.852v1.155h2.189V157Zm5.818.11c.88 0 1.386-.319 1.76-.814V157h1.309v-3.773c0-1.573-1.012-2.101-2.299-2.101s-2.354.561-2.464 1.903h1.287c.066-.572.407-.902 1.1-.902.781 0 1.045.385 1.045 1.155v.297h-.715c-1.65 0-2.948.484-2.948 1.826 0 1.199.869 1.705 1.925 1.705Zm.319-.957c-.66 0-.924-.319-.924-.803 0-.704.649-.935 1.661-.935h.682v.572c0 .737-.605 1.166-1.419 1.166Zm4.575.847h1.331v-2.992c0-1.221.704-1.595 1.87-1.606v-1.243c-.968.011-1.507.44-1.87 1.166v-1.078h-1.331V157Zm7.007 2.112c1.782 0 2.915-.847 2.926-2.541v-5.324h-1.331v.88c-.33-.572-.902-1.001-1.848-1.001-1.485 0-2.585 1.21-2.585 2.827v.077c0 1.661 1.111 2.739 2.552 2.739a2.24 2.24 0 0 0 1.881-1.067v.847c0 1.034-.572 1.551-1.606 1.551-.869 0-1.309-.33-1.419-.902h-1.342c.154 1.1.968 1.914 2.772 1.914Zm.044-3.366c-.858 0-1.518-.66-1.518-1.727v-.088c0-1.045.572-1.76 1.562-1.76.957 0 1.551.649 1.551 1.738v.077c0 1.1-.671 1.76-1.595 1.76Zm7.294 1.364c1.474 0 2.453-.66 2.64-1.87h-1.287c-.099.561-.517.88-1.32.88-.99 0-1.54-.616-1.584-1.705h4.213v-.385c0-2.057-1.287-2.904-2.717-2.904-1.639 0-2.86 1.188-2.86 2.97v.088c0 1.815 1.221 2.926 2.915 2.926Zm-1.529-3.586c.132-.891.671-1.43 1.474-1.43.825 0 1.331.44 1.397 1.43h-2.871Zm7.638 3.575c.407 0 .693-.066.902-.143V155.9c-.187.077-.385.11-.649.11-.418 0-.66-.231-.66-.737v-3.025h1.265v-1.001h-1.265v-1.265h-1.331v1.265h-.77v1.001h.77v3.146c0 1.089.594 1.705 1.738 1.705Zm3.084-6.798c.44 0 .792-.33.792-.759 0-.44-.352-.77-.792-.77-.44 0-.792.33-.792.77 0 .429.352.759.792.759Zm-.649 6.699h1.331v-5.753h-1.331V157Zm3.254 0h1.331v-3.388c0-.913.605-1.375 1.353-1.375.792 0 1.144.396 1.144 1.265V157h1.331v-3.619c0-1.584-.814-2.255-1.969-2.255-.946 0-1.584.473-1.859 1.034v-.913h-1.331V157Zm9.445 2.112c1.782 0 2.915-.847 2.926-2.541v-5.324h-1.331v.88c-.33-.572-.902-1.001-1.848-1.001-1.485 0-2.585 1.21-2.585 2.827v.077c0 1.661 1.111 2.739 2.552 2.739a2.24 2.24 0 0 0 1.881-1.067v.847c0 1.034-.572 1.551-1.606 1.551-.869 0-1.309-.33-1.419-.902h-1.342c.154 1.1.968 1.914 2.772 1.914Zm.044-3.366c-.858 0-1.518-.66-1.518-1.727v-.088c0-1.045.572-1.76 1.562-1.76.957 0 1.551.649 1.551 1.738v.077c0 1.1-.671 1.76-1.595 1.76ZM301.066 137h1.729v-3.952h4.173V137h1.742v-9.295h-1.742v3.952h-4.173v-3.952h-1.729V137Zm12.585.13c1.742 0 2.899-.78 3.12-2.21h-1.521c-.117.663-.611 1.04-1.56 1.04-1.17 0-1.82-.728-1.872-2.015h4.979v-.455c0-2.431-1.521-3.432-3.211-3.432-1.937 0-3.38 1.404-3.38 3.51v.104c0 2.145 1.443 3.458 3.445 3.458Zm-1.807-4.238c.156-1.053.793-1.69 1.742-1.69.975 0 1.573.52 1.651 1.69h-3.393Zm8.202 4.238c1.04 0 1.638-.377 2.08-.962V137h1.547v-4.459c0-1.859-1.196-2.483-2.717-2.483-1.521 0-2.782.663-2.912 2.249h1.521c.078-.676.481-1.066 1.3-1.066.923 0 1.235.455 1.235 1.365v.351h-.845c-1.95 0-3.484.572-3.484 2.158 0 1.417 1.027 2.015 2.275 2.015Zm.377-1.131c-.78 0-1.092-.377-1.092-.949 0-.832.767-1.105 1.963-1.105h.806v.676c0 .871-.715 1.378-1.677 1.378Zm5.092 1.001h1.573v-9.945h-1.573V137Zm5.804.117c.481 0 .819-.078 1.066-.169V135.7c-.221.091-.455.13-.767.13-.494 0-.78-.273-.78-.871v-3.575h1.495v-1.183h-1.495v-1.495h-1.573v1.495h-.91v1.183h.91v3.718c0 1.287.702 2.015 2.054 2.015Zm2.485-.117h1.573v-4.004c0-1.079.715-1.625 1.599-1.625.936 0 1.352.468 1.352 1.495V137h1.573v-4.277c0-1.872-.962-2.665-2.327-2.665-1.118 0-1.872.559-2.197 1.222v-4.225h-1.573V137Zm8.46 2.327h1.547l3.705-9.126h-1.534l-1.664 4.381-1.807-4.381h-1.703l2.691 6.11-1.235 3.016Zm9.659-2.327h6.032v-1.365h-4.303v-2.717h3.276v-1.3h-3.276v-2.548h4.082v-1.365h-5.811V137Zm9.243.13c1.04 0 1.638-.377 2.08-.962V137h1.547v-4.459c0-1.859-1.196-2.483-2.717-2.483-1.521 0-2.782.663-2.912 2.249h1.521c.078-.676.481-1.066 1.3-1.066.923 0 1.235.455 1.235 1.365v.351h-.845c-1.95 0-3.484.572-3.484 2.158 0 1.417 1.027 2.015 2.275 2.015Zm.377-1.131c-.78 0-1.092-.377-1.092-.949 0-.832.767-1.105 1.963-1.105h.806v.676c0 .871-.715 1.378-1.677 1.378Zm7.354 1.118c.481 0 .819-.078 1.066-.169V135.7c-.221.091-.455.13-.767.13-.494 0-.78-.273-.78-.871v-3.575h1.495v-1.183h-1.495v-1.495h-1.573v1.495h-.91v1.183h.91v3.718c0 1.287.702 2.015 2.054 2.015Zm4.85.013c1.742 0 2.717-.793 2.717-2.171 0-1.443-.949-1.833-2.548-2.08-1.079-.182-1.404-.377-1.404-.871 0-.481.403-.806 1.079-.806.728 0 1.079.286 1.209.91h1.456c-.169-1.534-1.274-2.054-2.665-2.054-1.274 0-2.548.676-2.548 2.041 0 1.274.663 1.781 2.457 2.067 1.001.169 1.456.377 1.456.936 0 .572-.377.871-1.222.871-.923 0-1.274-.403-1.352-1.092H370.9c.065 1.443 1.092 2.249 2.847 2.249Zm11.394 0c2.21 0 3.796-1.131 4.069-3.367h-1.69c-.182 1.313-1.092 1.963-2.379 1.963-1.716 0-2.717-1.235-2.717-3.328v-.104c0-2.08 1.066-3.354 2.704-3.354 1.339 0 2.028.637 2.223 1.872h1.755c-.208-2.184-1.859-3.25-3.991-3.25-2.587 0-4.511 1.95-4.511 4.745v.104c0 2.86 1.625 4.719 4.537 4.719Zm7.306 0c1.04 0 1.638-.377 2.08-.962V137h1.547v-4.459c0-1.859-1.196-2.483-2.717-2.483-1.521 0-2.782.663-2.912 2.249h1.521c.078-.676.481-1.066 1.3-1.066.923 0 1.235.455 1.235 1.365v.351h-.845c-1.95 0-3.484.572-3.484 2.158 0 1.417 1.027 2.015 2.275 2.015Zm.377-1.131c-.78 0-1.092-.377-1.092-.949 0-.832.767-1.105 1.963-1.105h.806v.676c0 .871-.715 1.378-1.677 1.378Zm5.053 1.001h1.573v-4.069c0-1.04.715-1.56 1.495-1.56.767 0 1.209.429 1.209 1.43V137h1.573v-4.069c0-1.04.715-1.56 1.495-1.56.78 0 1.209.429 1.209 1.43V137h1.573v-4.303c0-1.872-1.014-2.639-2.262-2.639-.845 0-1.781.377-2.301 1.222-.338-.845-1.04-1.222-1.924-1.222-1.001 0-1.742.546-2.067 1.183v-1.04h-1.573V137Zm11.934 2.327h1.573v-3.393c.364.663 1.144 1.196 2.223 1.196 1.755 0 3.016-1.326 3.016-3.51v-.104c0-2.197-1.313-3.458-3.016-3.458-1.001 0-1.846.585-2.223 1.235v-1.092h-1.573v9.126Zm3.406-3.445c-1.144 0-1.885-.715-1.885-2.236v-.104c0-1.508.78-2.249 1.872-2.249 1.027 0 1.807.741 1.807 2.249v.104c0 1.456-.637 2.236-1.794 2.236Zm6.602 1.248c1.04 0 1.638-.377 2.08-.962V137h1.547v-4.459c0-1.859-1.196-2.483-2.717-2.483-1.521 0-2.782.663-2.912 2.249h1.521c.078-.676.481-1.066 1.3-1.066.923 0 1.235.455 1.235 1.365v.351h-.845c-1.95 0-3.484.572-3.484 2.158 0 1.417 1.027 2.015 2.275 2.015Zm.377-1.131c-.78 0-1.092-.377-1.092-.949 0-.832.767-1.105 1.963-1.105h.806v.676c0 .871-.715 1.378-1.677 1.378Zm5.859-6.916c.52 0 .936-.39.936-.897 0-.52-.416-.91-.936-.91s-.936.39-.936.91c0 .507.416.897.936.897Zm-.767 7.917h1.573v-6.799h-1.573V137Zm6.389 2.496c2.106 0 3.445-1.001 3.458-3.003v-6.292h-1.573v1.04c-.39-.676-1.066-1.183-2.184-1.183-1.755 0-3.055 1.43-3.055 3.341v.091c0 1.963 1.313 3.237 3.016 3.237a2.648 2.648 0 0 0 2.223-1.261v1.001c0 1.222-.676 1.833-1.898 1.833-1.027 0-1.547-.39-1.677-1.066h-1.586c.182 1.3 1.144 2.262 3.276 2.262Zm.052-3.978c-1.014 0-1.794-.78-1.794-2.041v-.104c0-1.235.676-2.08 1.846-2.08 1.131 0 1.833.767 1.833 2.054v.091c0 1.3-.793 2.08-1.885 2.08Zm5.275 1.482h1.573v-4.004c0-1.079.715-1.625 1.599-1.625.936 0 1.352.468 1.352 1.495V137h1.573v-4.277c0-1.872-.962-2.665-2.327-2.665-1.118 0-1.872.559-2.197 1.222v-1.079h-1.573V137Z"/>
    <path fill="#E3EDFC" d="M250 127h36v36h-36z"/>
    <mask id="j" width="22" height="22" x="257" y="134" maskUnits="userSpaceOnUse" style="mask-type:alpha">
      <path fill="#fff" d="M277 134.5a1.5 1.5 0 0 1 1.5 1.5v18a1.5 1.5 0 0 1-1.5 1.5h-18a1.5 1.5 0 0 1-1.5-1.5v-18a1.5 1.5 0 0 1 1.5-1.5h18Zm0 16.5h-18v3h18v-3Zm0-15h-18v14.193l4.299-4.623a.748.748 0 0 1 1.079-.02l2.45 2.45 3.973-5.189a.75.75 0 0 1 1.209.025l4.99 7.097V136Zm-13.172 11.25-2.109 2.25h4.219l-2.11-2.25Zm7.547-2.578-3.656 4.828h7.312l-3.656-4.828ZM263.5 139a1.5 1.5 0 1 1-.001 3.001A1.5 1.5 0 0 1 263.5 139Z"/>
    </mask>
    <g mask="url(#j)">
      <path fill="#003285" d="M280 133h-24v24h24v-24Z"/>
    </g>
    <rect width="21" height="7" x="453" y="156" fill="#E3EDFC" rx="3"/>
    <path fill="#003285" fill-rule="evenodd" d="M462 159.5a1.5 1.5 0 1 0 3.001-.001 1.5 1.5 0 0 0-3.001.001Zm-5 0a1.5 1.5 0 1 0 3 0 1.5 1.5 0 0 0-3 0Zm11.5 1.5a1.5 1.5 0 1 1 .001-3.001A1.5 1.5 0 0 1 468.5 161Z" clip-rule="evenodd"/>
  </g>
  <path fill="#fff" d="M506 97c0 6.629-5.371 12-12 12s-12-5.371-12-12 5.371-12 12-12 12 5.371 12 12Z"/>
  <path fill="#000" fill-rule="evenodd" d="M505 97c0 6.077-4.923 11-11 11s-11-4.923-11-11 4.923-11 11-11 11 4.923 11 11Zm-6 .234a.47.47 0 0 1-.469.47h-3.828v3.827a.47.47 0 0 1-.469.469h-.468a.47.47 0 0 1-.469-.469v-3.828h-3.828a.47.47 0 0 1-.469-.469v-.468a.47.47 0 0 1 .469-.47h3.828V92.47a.47.47 0 0 1 .469-.469h.468a.47.47 0 0 1 .469.469v3.828h3.828a.47.47 0 0 1 .469.469v.468ZM494 88c4.946 0 9 4.004 9 9 0 4.946-4.004 9-9 9-4.946 0-9-4.004-9-9 0-4.946 4.004-9 9-9Z" clip-rule="evenodd"/>
  <path fill="#fff" d="M240 97c0 6.629-5.371 12-12 12s-12-5.371-12-12 5.371-12 12-12 12 5.371 12 12Z"/>
  <path fill="#000" fill-rule="evenodd" d="M239 97c0 6.077-4.923 11-11 11s-11-4.923-11-11 4.923-11 11-11 11 4.923 11 11Zm-6.469.703h-9.062a.47.47 0 0 1-.469-.469v-.468a.47.47 0 0 1 .469-.47h9.062c.258 0 .258 1.407 0 1.407ZM228 88c4.946 0 9 4.004 9 9 0 4.946-4.004 9-9 9-4.946 0-9-4.004-9-9 0-4.946 4.004-9 9-9Z" clip-rule="evenodd"/>
  <path stroke="#060606" stroke-width="2" d="M505 282.5h40M505 94.5h40"/>
  <path stroke="#FA4526" stroke-linecap="round" stroke-width="8" d="m588.941 316.468-3.978-3.978-27.15-27.15c-1.554-1.554-1.564-4.062-.024-5.602L587.527 250M622.527 316.468l3.978-3.978 27.15-27.15c1.554-1.554 1.564-4.062.024-5.602L623.941 250"/>
  <g filter="url(#k)">
    <path fill="#fff" d="M555 281.912 605.912 231l50.911 50.912-50.911 50.912z"/>
  </g>
  <path fill="#FA4526" fill-rule="evenodd" d="M657.658 282 606 230.342 554.342 282 606 333.658 657.658 282Zm-1.397 0L606 231.739 555.739 282 606 332.261 656.261 282Z" clip-rule="evenodd"/>
  <g clip-path="url(#l)">
    <rect width="21" height="7" x="596" y="309" fill="#FFE1DB" rx="3"/>
    <path fill="#C6270C" fill-rule="evenodd" d="M605 312.5a1.5 1.5 0 1 0 3.001-.001 1.5 1.5 0 0 0-3.001.001Zm-5 0a1.5 1.5 0 1 0 3 0 1.5 1.5 0 0 0-3 0Zm11.5 1.5a1.5 1.5 0 1 1 .001-3.001A1.5 1.5 0 0 1 611.5 314Z" clip-rule="evenodd"/>
    <path fill="#060606" d="M621.523 282h2.412v-12.87h-2.142l-2.988 2.124v2.106l2.718-1.854V282ZM612.548 295.11c1.87 0 3.212-.957 3.443-2.849h-1.43c-.154 1.111-.924 1.661-2.013 1.661-1.452 0-2.299-1.045-2.299-2.816v-.088c0-1.76.902-2.838 2.288-2.838 1.133 0 1.716.539 1.881 1.584h1.485c-.176-1.848-1.573-2.75-3.377-2.75-2.189 0-3.817 1.65-3.817 4.015v.088c0 2.42 1.375 3.993 3.839 3.993Zm4.934-.11h1.331v-8.415h-1.331V295Zm3.935-6.699c.44 0 .792-.33.792-.759 0-.44-.352-.77-.792-.77-.44 0-.792.33-.792.77 0 .429.352.759.792.759Zm-.649 6.699h1.331v-5.753h-1.331V295Zm5.772.11c1.562 0 2.563-.935 2.662-2.255h-1.221c-.077.814-.682 1.232-1.386 1.232-.979 0-1.595-.66-1.595-1.914v-.088c0-1.188.649-1.892 1.562-1.892.704 0 1.21.319 1.32 1.089h1.287c-.154-1.584-1.353-2.156-2.629-2.156-1.606 0-2.904 1.155-2.904 2.981v.088c0 1.837 1.254 2.915 2.904 2.915Zm4.108-.11h1.331v-2.827l2.156 2.827h1.54l-2.42-3.113 2.233-2.64h-1.452l-2.057 2.53v-5.192h-1.331V295Z"/>
    <path fill="#FFE1DB" d="m571 281.971 16.97-16.97 16.971 16.97-16.97 16.97z"/>
    <mask id="m" width="12" height="16" x="582" y="274" maskUnits="userSpaceOnUse" style="mask-type:alpha">
      <path fill="#fff" d="M583.685 275c.121.002.24.034.347.093l8.861 4.882a.75.75 0 0 1-.193 1.388l-3.482.804 2.937 5.084a.5.5 0 0 1-.183.683l-1.731.999a.5.5 0 0 1-.683-.183l-2.944-5.096-2.601 2.746a.75.75 0 0 1-1.294-.531l.201-10.134a.75.75 0 0 1 .765-.735Zm.266 1.205-.125 8.877 2.987-3.097.146.252 3.169 5.487.812-.469-2.796-4.84-.521-.902 4.209-.932-7.881-4.376Z"/>
    </mask>
    <g mask="url(#m)">
      <path fill="#C6270C" d="M596 274h-16v16h16v-16Z"/>
    </g>
  </g>
  <path fill="#fff" d="M666 282c0 6.629-5.371 12-12 12s-12-5.371-12-12 5.371-12 12-12 12 5.371 12 12Z"/>
  <path fill="#000" fill-rule="evenodd" d="M665 282c0 6.077-4.923 11-11 11s-11-4.923-11-11 4.923-11 11-11 11 4.923 11 11Zm-6 .234a.47.47 0 0 1-.469.469h-3.828v3.828a.47.47 0 0 1-.469.469h-.468a.47.47 0 0 1-.469-.469v-3.828h-3.828a.47.47 0 0 1-.469-.469v-.468a.47.47 0 0 1 .469-.469h3.828v-3.828a.47.47 0 0 1 .469-.469h.468a.47.47 0 0 1 .469.469v3.828h3.828a.47.47 0 0 1 .469.469v.468ZM654 273c4.946 0 9 4.004 9 9 0 4.946-4.004 9-9 9-4.946 0-9-4.004-9-9 0-4.946 4.004-9 9-9Z" clip-rule="evenodd"/>
  <path fill="#fff" d="M569 282c0 6.629-5.371 12-12 12s-12-5.371-12-12 5.371-12 12-12 12 5.371 12 12Z"/>
  <path fill="#000" fill-rule="evenodd" d="M568 282c0 6.077-4.923 11-11 11s-11-4.923-11-11 4.923-11 11-11 11 4.923 11 11Zm-6.469.703h-9.062a.47.47 0 0 1-.469-.469v-.468a.47.47 0 0 1 .469-.469h9.062c.258 0 .258 1.406 0 1.406ZM557 273c4.946 0 9 4.004 9 9 0 4.946-4.004 9-9 9-4.946 0-9-4.004-9-9 0-4.946 4.004-9 9-9Z" clip-rule="evenodd"/>
  <path stroke="#FA4526" stroke-linecap="round" stroke-width="8" d="m588.941 128.468-3.978-3.978-27.15-27.15c-1.554-1.554-1.564-4.062-.024-5.602L587.527 62M622.527 128.468l3.978-3.978 27.15-27.15c1.554-1.554 1.564-4.062.024-5.602L623.941 62"/>
  <g filter="url(#n)">
    <path fill="#fff" d="M555 93.912 605.912 43l50.912 50.912-50.912 50.912z"/>
  </g>
  <path fill="#FA4526" fill-rule="evenodd" d="M657.658 94 606 42.342 554.342 94 606 145.658 657.658 94Zm-1.397 0L606 43.739 555.739 94 606 144.261 656.261 94Z" clip-rule="evenodd"/>
  <g clip-path="url(#o)">
    <rect width="21" height="7" x="596" y="121" fill="#FFE1DB" rx="3"/>
    <path fill="#C6270C" fill-rule="evenodd" d="M605 124.5a1.5 1.5 0 1 0 3.001-.001 1.5 1.5 0 0 0-3.001.001Zm-5 0a1.5 1.5 0 1 0 3 0 1.5 1.5 0 0 0-3 0Zm11.5 1.5a1.5 1.5 0 1 1 .001-3.001A1.5 1.5 0 0 1 611.5 126Z" clip-rule="evenodd"/>
    <path fill="#060606" d="M621.523 94h2.412V81.13h-2.142l-2.988 2.124v2.106l2.718-1.854V94ZM612.548 107.11c1.87 0 3.212-.957 3.443-2.849h-1.43c-.154 1.111-.924 1.661-2.013 1.661-1.452 0-2.299-1.045-2.299-2.816v-.088c0-1.76.902-2.838 2.288-2.838 1.133 0 1.716.539 1.881 1.584h1.485c-.176-1.848-1.573-2.75-3.377-2.75-2.189 0-3.817 1.65-3.817 4.015v.088c0 2.42 1.375 3.993 3.839 3.993Zm4.934-.11h1.331v-8.415h-1.331V107Zm3.935-6.699c.44 0 .792-.33.792-.759 0-.44-.352-.77-.792-.77-.44 0-.792.33-.792.77 0 .429.352.759.792.759Zm-.649 6.699h1.331v-5.753h-1.331V107Zm5.772.11c1.562 0 2.563-.935 2.662-2.255h-1.221c-.077.814-.682 1.232-1.386 1.232-.979 0-1.595-.66-1.595-1.914v-.088c0-1.188.649-1.892 1.562-1.892.704 0 1.21.319 1.32 1.089h1.287c-.154-1.584-1.353-2.156-2.629-2.156-1.606 0-2.904 1.155-2.904 2.981v.088c0 1.837 1.254 2.915 2.904 2.915Zm4.108-.11h1.331v-2.827l2.156 2.827h1.54l-2.42-3.113 2.233-2.64h-1.452l-2.057 2.53v-5.192h-1.331V107Z"/>
    <path fill="#FFE1DB" d="M571 93.97 587.97 77l16.971 16.97-16.97 16.971z"/>
    <mask id="p" width="12" height="16" x="582" y="86" maskUnits="userSpaceOnUse" style="mask-type:alpha">
      <path fill="#fff" d="M583.685 87c.121.002.24.034.347.093l8.861 4.882a.75.75 0 0 1-.193 1.388l-3.482.804 2.937 5.084a.5.5 0 0 1-.183.683l-1.731.999a.5.5 0 0 1-.683-.183l-2.944-5.096-2.601 2.746a.75.75 0 0 1-1.294-.53l.201-10.135a.75.75 0 0 1 .765-.735Zm.266 1.205-.125 8.877 2.987-3.097.146.252 3.169 5.487.812-.469-2.796-4.84-.521-.902 4.209-.932-7.881-4.376Z"/>
    </mask>
    <g mask="url(#p)">
      <path fill="#C6270C" d="M596 86h-16v16h16V86Z"/>
    </g>
  </g>
  <path fill="#fff" d="M666 94c0 6.629-5.371 12-12 12s-12-5.371-12-12 5.371-12 12-12 12 5.371 12 12Z"/>
  <path fill="#000" fill-rule="evenodd" d="M665 94c0 6.077-4.923 11-11 11s-11-4.923-11-11 4.923-11 11-11 11 4.923 11 11Zm-6 .234a.47.47 0 0 1-.469.47h-3.828v3.827a.47.47 0 0 1-.469.469h-.468a.47.47 0 0 1-.469-.469v-3.828h-3.828a.47.47 0 0 1-.469-.469v-.468a.47.47 0 0 1 .469-.47h3.828V89.47a.47.47 0 0 1 .469-.469h.468a.47.47 0 0 1 .469.469v3.828h3.828a.47.47 0 0 1 .469.469v.468ZM654 85c4.946 0 9 4.004 9 9 0 4.946-4.004 9-9 9-4.946 0-9-4.004-9-9 0-4.946 4.004-9 9-9Z" clip-rule="evenodd"/>
  <path fill="#fff" d="M569 94c0 6.629-5.371 12-12 12s-12-5.371-12-12 5.371-12 12-12 12 5.371 12 12Z"/>
  <path fill="#000" fill-rule="evenodd" d="M568 94c0 6.077-4.923 11-11 11s-11-4.923-11-11 4.923-11 11-11 11 4.923 11 11Zm-6.469.703h-9.062a.47.47 0 0 1-.469-.469v-.468a.47.47 0 0 1 .469-.47h9.062c.258 0 .258 1.407 0 1.407ZM557 85c4.946 0 9 4.004 9 9 0 4.946-4.004 9-9 9-4.946 0-9-4.004-9-9 0-4.946 4.004-9 9-9Z" clip-rule="evenodd"/>
  <path stroke="#060606" stroke-width="2" d="M690 194.5h40M666 279h20.429a4 4 0 0 0 4-4v-90"/>
  <path stroke="#060606" stroke-width="2" d="M666 94h20.429a4 4 0 0 1 4 4v90"/>
  <g clip-path="url(#q)">
    <path fill="#006B38" fill-rule="evenodd" d="M813.646 227.303a9 9 0 0 1-6.424 2.697H778a8 8 0 0 1-8-8v-56a8 8 0 0 1 8-8h29.471c2.269 0 4.453.857 6.117 2.399l31.393 29.089a4.001 4.001 0 0 1 .137 5.736l-31.472 32.079Z" clip-rule="evenodd"/>
    <rect width="8" height="72" x="749" y="229" fill="#006B38" rx="4" transform="rotate(180 749 229)"/>
    <g filter="url(#r)">
      <path fill="#006B38" fill-rule="evenodd" d="M744 243h51l49-50.286L795 147h-51v96Zm1-1h49l48-49.238L794 148h-49v94Z" clip-rule="evenodd"/>
    </g>
    <path fill="#fff" fill-rule="evenodd" d="M794.51 242H745v-94h49.51L842 192.762 794.51 242Z" clip-rule="evenodd"/>
    <rect width="21" height="7" x="753" y="227" fill="#CCF0DF" rx="3"/>
    <path fill="#006B38" fill-rule="evenodd" d="M762 230.5a1.5 1.5 0 1 0 3.001-.001 1.5 1.5 0 0 0-3.001.001Zm-5 0a1.5 1.5 0 1 0 3 0 1.5 1.5 0 0 0-3 0Zm11.5 1.5a1.5 1.5 0 1 1 .001-3.001A1.5 1.5 0 0 1 768.5 232Z" clip-rule="evenodd"/>
    <path fill="#060606" d="M755.925 183h1.742v-7.93h2.587v-1.365h-6.916v1.365h2.587V183Zm5.475 0h1.573v-3.536c0-1.443.832-1.885 2.21-1.898v-1.469c-1.144.013-1.781.52-2.21 1.378v-1.274H761.4V183Zm7.201.13c1.04 0 1.638-.377 2.08-.962V183h1.547v-4.459c0-1.859-1.196-2.483-2.717-2.483-1.521 0-2.782.663-2.912 2.249h1.521c.078-.676.481-1.066 1.3-1.066.923 0 1.235.455 1.235 1.365v.351h-.845c-1.95 0-3.484.572-3.484 2.158 0 1.417 1.027 2.015 2.275 2.015Zm.377-1.131c-.78 0-1.092-.377-1.092-.949 0-.832.767-1.105 1.963-1.105h.806v.676c0 .871-.715 1.378-1.677 1.378Zm5.407 1.001h1.573v-4.004c0-1.079.715-1.625 1.599-1.625.936 0 1.352.468 1.352 1.495V183h1.573v-4.277c0-1.872-.962-2.665-2.327-2.665-1.118 0-1.872.559-2.197 1.222v-1.079h-1.573V183Zm10.591.13c1.742 0 2.717-.793 2.717-2.171 0-1.443-.949-1.833-2.548-2.08-1.079-.182-1.404-.377-1.404-.871 0-.481.403-.806 1.079-.806.728 0 1.079.286 1.209.91h1.456c-.169-1.534-1.274-2.054-2.665-2.054-1.274 0-2.548.676-2.548 2.041 0 1.274.663 1.781 2.457 2.067 1.001.169 1.456.377 1.456.936 0 .572-.377.871-1.222.871-.923 0-1.274-.403-1.352-1.092h-1.482c.065 1.443 1.092 2.249 2.847 2.249Zm5.257-8.047c.52 0 .936-.39.936-.897 0-.52-.416-.91-.936-.91s-.936.39-.936.91c0 .507.416.897.936.897Zm-.767 7.917h1.573v-6.799h-1.573V183Zm6.159.117c.481 0 .819-.078 1.066-.169V181.7c-.221.091-.455.13-.767.13-.494 0-.78-.273-.78-.871v-3.575h1.495v-1.183h-1.495v-1.495h-1.573v1.495h-.91v1.183h.91v3.718c0 1.287.702 2.015 2.054 2.015Zm3.646-8.034c.52 0 .936-.39.936-.897 0-.52-.416-.91-.936-.91s-.936.39-.936.91c0 .507.416.897.936.897Zm-.767 7.917h1.573v-6.799h-1.573V183Zm6.874.13c2.002 0 3.497-1.378 3.497-3.497v-.104c0-2.08-1.495-3.471-3.484-3.471-2.002 0-3.497 1.404-3.497 3.51v.104c0 2.067 1.482 3.458 3.484 3.458Zm.013-1.222c-1.196 0-1.885-.871-1.885-2.262v-.104c0-1.404.715-2.249 1.885-2.249s1.872.858 1.872 2.262v.091c0 1.391-.702 2.262-1.872 2.262ZM810.65 183h1.573v-4.004c0-1.079.715-1.625 1.599-1.625.936 0 1.352.468 1.352 1.495V183h1.573v-4.277c0-1.872-.962-2.665-2.327-2.665-1.118 0-1.872.559-2.197 1.222v-1.079h-1.573V183Zm-54.4 16.117c.481 0 .819-.078 1.066-.169V197.7c-.221.091-.455.13-.767.13-.494 0-.78-.273-.78-.871v-3.575h1.495v-1.183h-1.495v-1.495h-1.573v1.495h-.91v1.183h.91v3.718c0 1.287.702 2.015 2.054 2.015Zm5.868.013c2.002 0 3.497-1.378 3.497-3.497v-.104c0-2.08-1.495-3.471-3.484-3.471-2.002 0-3.497 1.404-3.497 3.51v.104c0 2.067 1.482 3.458 3.484 3.458Zm.013-1.222c-1.196 0-1.885-.871-1.885-2.262v-.104c0-1.404.715-2.249 1.885-2.249s1.872.858 1.872 2.262v.091c0 1.391-.702 2.262-1.872 2.262Zm8.842 1.092h6.032v-1.365h-4.303v-2.717h3.276v-1.3h-3.276v-2.548h4.082v-1.365h-5.811V199Zm7.817 0h1.573v-4.004c0-1.079.715-1.625 1.599-1.625.936 0 1.352.468 1.352 1.495V199h1.573v-4.277c0-1.872-.962-2.665-2.327-2.665-1.118 0-1.872.559-2.197 1.222v-1.079h-1.573V199Zm11.162 2.496c2.106 0 3.445-1.001 3.458-3.003v-6.292h-1.573v1.04c-.39-.676-1.066-1.183-2.184-1.183-1.755 0-3.055 1.43-3.055 3.341v.091c0 1.963 1.313 3.237 3.016 3.237a2.648 2.648 0 0 0 2.223-1.261v1.001c0 1.222-.676 1.833-1.898 1.833-1.027 0-1.547-.39-1.677-1.066h-1.586c.182 1.3 1.144 2.262 3.276 2.262Zm.052-3.978c-1.014 0-1.794-.78-1.794-2.041v-.104c0-1.235.676-2.08 1.846-2.08 1.131 0 1.833.767 1.833 2.054v.091c0 1.3-.793 2.08-1.885 2.08Zm7.412 1.612c1.04 0 1.638-.377 2.08-.962V199h1.547v-4.459c0-1.859-1.196-2.483-2.717-2.483-1.521 0-2.782.663-2.912 2.249h1.521c.078-.676.481-1.066 1.3-1.066.923 0 1.235.455 1.235 1.365v.351h-.845c-1.95 0-3.484.572-3.484 2.158 0 1.417 1.027 2.015 2.275 2.015Zm.377-1.131c-.78 0-1.092-.377-1.092-.949 0-.832.767-1.105 1.963-1.105h.806v.676c0 .871-.715 1.378-1.677 1.378Zm8.306 3.497c2.106 0 3.445-1.001 3.458-3.003v-6.292h-1.573v1.04c-.39-.676-1.066-1.183-2.184-1.183-1.755 0-3.055 1.43-3.055 3.341v.091c0 1.963 1.313 3.237 3.016 3.237a2.648 2.648 0 0 0 2.223-1.261v1.001c0 1.222-.676 1.833-1.898 1.833-1.027 0-1.547-.39-1.677-1.066h-1.586c.182 1.3 1.144 2.262 3.276 2.262Zm.052-3.978c-1.014 0-1.794-.78-1.794-2.041v-.104c0-1.235.676-2.08 1.846-2.08 1.131 0 1.833.767 1.833 2.054v.091c0 1.3-.793 2.08-1.885 2.08Zm6.566 1.573c.585 0 1.04-.442 1.04-1.014 0-.572-.455-1.027-1.04-1.027a1.02 1.02 0 0 0-1.027 1.027 1.01 1.01 0 0 0 1.027 1.014Zm3.588 0c.585 0 1.04-.442 1.04-1.014 0-.572-.455-1.027-1.04-1.027s-1.027.455-1.027 1.027c0 .572.442 1.014 1.027 1.014Zm3.575 0c.585 0 1.053-.442 1.053-1.014 0-.572-.468-1.027-1.053-1.027a1.02 1.02 0 0 0-1.027 1.027 1.01 1.01 0 0 0 1.027 1.014ZM754.066 215h1.729v-3.809h3.172v-1.339h-3.172v-2.769h4.03v-1.378h-5.759V215Zm9.507.13c1.105 0 1.82-.533 2.158-1.196V215h1.573v-6.799h-1.573v4.043c0 1.079-.741 1.625-1.586 1.625-.91 0-1.339-.468-1.339-1.495v-4.173h-1.573v4.355c0 1.807 1.001 2.574 2.34 2.574Zm5.99-.13h1.573v-9.945h-1.573V215Zm3.884 0h1.573v-9.945h-1.573V215Zm7.427 0h1.729v-3.809h3.172v-1.339h-3.172v-2.769h4.03v-1.378h-5.759V215Zm9.507.13c1.105 0 1.82-.533 2.158-1.196V215h1.573v-6.799h-1.573v4.043c0 1.079-.741 1.625-1.586 1.625-.91 0-1.339-.468-1.339-1.495v-4.173h-1.573v4.355c0 1.807 1.001 2.574 2.34 2.574Zm5.951-.13h1.573v-4.004c0-1.079.715-1.625 1.599-1.625.936 0 1.352.468 1.352 1.495V215h1.573v-4.277c0-1.872-.962-2.665-2.327-2.665-1.118 0-1.872.559-2.197 1.222v-1.079h-1.573V215Zm9.2.091c.585 0 1.04-.442 1.04-1.014 0-.572-.455-1.027-1.04-1.027a1.02 1.02 0 0 0-1.027 1.027 1.01 1.01 0 0 0 1.027 1.014Zm4.112 0c.585 0 1.04-.442 1.04-1.014 0-.572-.455-1.027-1.04-1.027a1.02 1.02 0 0 0-1.027 1.027 1.01 1.01 0 0 0 1.027 1.014Zm4.112 0c.585 0 1.04-.442 1.04-1.014 0-.572-.455-1.027-1.04-1.027a1.02 1.02 0 0 0-1.027 1.027 1.01 1.01 0 0 0 1.027 1.014Z"/>
  </g>
  <path fill="#fff" d="M744 194c0 6.629-5.371 12-12 12s-12-5.371-12-12 5.371-12 12-12 12 5.371 12 12Z"/>
  <path fill="#000" fill-rule="evenodd" d="M743 194c0 6.077-4.923 11-11 11s-11-4.923-11-11 4.923-11 11-11 11 4.923 11 11Zm-6.469.703h-9.062a.47.47 0 0 1-.469-.469v-.468a.47.47 0 0 1 .469-.469h9.062c.258 0 .258 1.406 0 1.406ZM732 185c4.946 0 9 4.004 9 9 0 4.946-4.004 9-9 9-4.946 0-9-4.004-9-9 0-4.946 4.004-9 9-9Z" clip-rule="evenodd"/>
  <defs>
    <filter id="a" width="162" height="162" x="0" y="109" color-interpolation-filters="sRGB" filterUnits="userSpaceOnUse">
      <feFlood flood-opacity="0" result="BackgroundImageFix"/>
      <feColorMatrix in="SourceAlpha" result="hardAlpha" values="0 0 0 0 0 0 0 0 0 0 0 0 0 0 0 0 0 0 127 0"/>
      <feOffset dy="2"/>
      <feGaussianBlur stdDeviation="4"/>
      <feColorMatrix values="0 0 0 0 0 0 0 0 0 0 0 0 0 0 0 0 0 0 0.15 0"/>
      <feBlend in2="BackgroundImageFix" result="effect1_dropShadow_136_1921"/>
      <feBlend in="SourceGraphic" in2="effect1_dropShadow_136_1921" result="shape"/>
    </filter>
    <filter id="d" width="256" height="164" x="235" y="203" color-interpolation-filters="sRGB" filterUnits="userSpaceOnUse">
      <feFlood flood-opacity="0" result="BackgroundImageFix"/>
      <feColorMatrix in="SourceAlpha" result="hardAlpha" values="0 0 0 0 0 0 0 0 0 0 0 0 0 0 0 0 0 0 127 0"/>
      <feOffset dy="2"/>
      <feGaussianBlur stdDeviation="4"/>
      <feColorMatrix values="0 0 0 0 0 0 0 0 0 0 0 0 0 0 0 0 0 0 0.15 0"/>
      <feBlend in2="BackgroundImageFix" result="effect1_dropShadow_136_1921"/>
      <feBlend in="SourceGraphic" in2="effect1_dropShadow_136_1921" result="shape"/>
    </filter>
    <filter id="h" width="256" height="164" x="233" y="17" color-interpolation-filters="sRGB" filterUnits="userSpaceOnUse">
      <feFlood flood-opacity="0" result="BackgroundImageFix"/>
      <feColorMatrix in="SourceAlpha" result="hardAlpha" values="0 0 0 0 0 0 0 0 0 0 0 0 0 0 0 0 0 0 127 0"/>
      <feOffset dy="2"/>
      <feGaussianBlur stdDeviation="4"/>
      <feColorMatrix values="0 0 0 0 0 0 0 0 0 0 0 0 0 0 0 0 0 0 0.15 0"/>
      <feBlend in2="BackgroundImageFix" result="effect1_dropShadow_136_1921"/>
      <feBlend in="SourceGraphic" in2="effect1_dropShadow_136_1921" result="shape"/>
    </filter>
    <filter id="k" width="117.823" height="117.823" x="547" y="225" color-interpolation-filters="sRGB" filterUnits="userSpaceOnUse">
      <feFlood flood-opacity="0" result="BackgroundImageFix"/>
      <feColorMatrix in="SourceAlpha" result="hardAlpha" values="0 0 0 0 0 0 0 0 0 0 0 0 0 0 0 0 0 0 127 0"/>
      <feOffset dy="2"/>
      <feGaussianBlur stdDeviation="4"/>
      <feColorMatrix values="0 0 0 0 0 0 0 0 0 0 0 0 0 0 0 0 0 0 0.15 0"/>
      <feBlend in2="BackgroundImageFix" result="effect1_dropShadow_136_1921"/>
      <feBlend in="SourceGraphic" in2="effect1_dropShadow_136_1921" result="shape"/>
    </filter>
    <filter id="n" width="117.823" height="117.823" x="547" y="37" color-interpolation-filters="sRGB" filterUnits="userSpaceOnUse">
      <feFlood flood-opacity="0" result="BackgroundImageFix"/>
      <feColorMatrix in="SourceAlpha" result="hardAlpha" values="0 0 0 0 0 0 0 0 0 0 0 0 0 0 0 0 0 0 127 0"/>
      <feOffset dy="2"/>
      <feGaussianBlur stdDeviation="4"/>
      <feColorMatrix values="0 0 0 0 0 0 0 0 0 0 0 0 0 0 0 0 0 0 0.15 0"/>
      <feBlend in2="BackgroundImageFix" result="effect1_dropShadow_136_1921"/>
      <feBlend in="SourceGraphic" in2="effect1_dropShadow_136_1921" result="shape"/>
    </filter>
    <filter id="r" width="116" height="112" x="736" y="137" color-interpolation-filters="sRGB" filterUnits="userSpaceOnUse">
      <feFlood flood-opacity="0" result="BackgroundImageFix"/>
      <feColorMatrix in="SourceAlpha" result="hardAlpha" values="0 0 0 0 0 0 0 0 0 0 0 0 0 0 0 0 0 0 127 0"/>
      <feOffset dy="-2"/>
      <feGaussianBlur stdDeviation="4"/>
      <feColorMatrix values="0 0 0 0 0 0 0 0 0 0 0 0 0 0 0 0 0 0 0.15 0"/>
      <feBlend in2="BackgroundImageFix" result="effect1_dropShadow_136_1921"/>
      <feBlend in="SourceGraphic" in2="effect1_dropShadow_136_1921" result="shape"/>
    </filter>
    <clipPath id="c">
      <path fill="#fff" d="M0 0h250v150H0z" transform="translate(238 208)"/>
    </clipPath>
    <clipPath id="g">
      <path fill="#fff" d="M0 0h250v150H0z" transform="translate(236 22)"/>
    </clipPath>
    <clipPath id="l">
      <path fill="#fff" d="M0 0h66v51H0z" transform="translate(570.971 265)"/>
    </clipPath>
    <clipPath id="o">
      <path fill="#fff" d="M0 0h66v51H0z" transform="translate(570.971 77)"/>
    </clipPath>
    <clipPath id="q">
      <path fill="#fff" d="M0 0h107v96H0z" transform="translate(741 147)"/>
    </clipPath>
  </defs>
</svg>